<?xml version="1.0" encoding="UTF-8" standalone="no"?>
<!DOCTYPE svg PUBLIC "-//W3C//DTD SVG 1.1//EN" "http://www.w3.org/Graphics/SVG/1.1/DTD/svg11.dtd">
<svg xmlns="http://www.w3.org/2000/svg" version="1.1" viewBox="0.00 0.00 750.00 602.00">
<g stroke-width="2.00" fill="none" stroke-linecap="butt">
<path stroke="#878787" vector-effect="non-scaling-stroke" d="
  M 301.83 433.07
  A 0.69 0.68 14.8 0 1 302.54 432.66
  Q 310.01 433.55 313.78 438.79
  Q 316.13 442.06 317.72 446.08
  C 319.80 451.31 316.96 456.24 314.43 460.89
  C 313.15 463.24 313.83 465.39 311.48 467.37
  Q 307.85 470.40 304.96 473.24
  C 299.38 478.72 291.39 478.83 284.00 478.58
  Q 280.62 478.47 277.42 475.86
  C 274.18 473.21 273.29 468.64 271.08 465.07
  C 269.34 462.26 268.68 459.20 267.57 456.18
  Q 266.59 453.53 263.59 453.33
  C 259.40 453.07 255.21 453.50 251.02 452.28
  C 244.50 450.36 238.04 447.60 231.74 444.94
  C 226.57 442.76 222.38 439.08 217.62 436.15
  C 207.74 430.06 201.81 419.65 198.84 408.21
  C 197.71 403.87 199.07 393.49 191.29 395.52
  C 187.87 396.41 184.81 398.36 181.25 398.66
  Q 174.90 399.22 167.24 397.66
  C 164.30 397.07 161.66 395.22 159.02 393.75
  Q 154.67 391.32 150.82 386.55
  C 142.42 376.14 137.40 357.19 146.57 345.31
  Q 148.00 343.46 148.78 341.10
  C 151.03 334.25 147.26 329.67 141.44 326.85
  C 136.03 324.24 130.77 320.92 127.12 316.39
  C 125.07 313.84 124.93 311.14 124.12 308.19
  C 122.42 302.02 124.13 294.55 127.25 289.26
  Q 130.76 283.31 134.70 277.33
  C 138.29 271.89 140.48 266.56 142.14 260.50
  C 143.02 257.28 141.96 253.52 141.37 250.23
  C 140.36 244.63 134.94 239.69 131.46 235.55
  Q 129.01 232.63 126.98 227.59
  C 124.71 221.94 124.81 216.82 127.32 211.58
  C 129.12 207.82 130.45 203.81 132.60 200.41
  Q 138.76 190.70 146.33 183.04
  C 151.48 177.84 154.77 171.77 160.26 166.69
  Q 168.38 159.17 175.31 150.12
  Q 179.62 144.49 181.58 138.63
  Q 183.16 133.90 181.21 129.42
  Q 179.97 126.58 178.52 123.80
  C 176.66 120.20 171.90 118.66 168.87 116.08
  Q 163.82 111.77 158.41 108.08
  A 2.22 2.21 -64.2 0 1 157.55 105.60
  Q 158.48 102.65 160.75 100.27
  Q 165.80 94.98 171.25 91.27
  Q 179.44 85.69 193.63 78.16
  Q 200.10 74.73 204.64 71.39
  Q 209.90 67.51 214.54 63.21
  C 216.58 61.33 218.98 60.07 220.88 58.09
  Q 231.39 47.10 245.70 37.42
  C 253.21 32.35 261.12 29.18 269.42 25.85
  C 276.62 22.97 287.02 22.78 294.33 24.10
  Q 304.09 25.86 314.47 28.34
  C 316.48 28.81 318.64 29.49 320.43 30.42
  Q 326.28 33.48 331.71 35.74
  Q 336.06 37.55 350.64 47.57
  Q 359.20 53.46 363.17 63.94
  C 364.32 66.97 364.40 69.33 363.75 72.31
  Q 363.58 73.09 364.21 72.60
  C 369.39 68.58 366.29 59.00 362.89 55.10
  Q 358.32 49.86 352.95 44.99
  Q 348.32 40.79 345.12 39.29
  Q 336.21 35.12 328.24 30.81
  Q 326.34 29.78 319.47 27.57
  C 315.10 26.16 311.39 23.77 306.78 22.79
  C 297.57 20.84 288.76 18.99 279.11 21.21
  Q 272.44 22.75 266.07 23.85
  C 263.21 24.35 260.42 25.82 257.90 27.20
  Q 244.86 34.34 234.79 42.62
  Q 227.84 48.33 220.72 54.06
  Q 217.66 56.53 215.17 59.48
  Q 210.72 64.76 205.62 67.84
  Q 194.49 74.56 180.70 81.53
  Q 177.66 83.07 174.86 85.10
  C 170.27 88.44 165.17 91.36 161.65 95.54
  C 159.15 98.50 155.77 103.25 155.04 107.21
  Q 154.49 110.15 157.75 112.20
  Q 162.72 115.32 167.69 118.41
  C 169.97 119.83 171.70 121.80 173.62 123.68
  Q 177.59 127.55 177.82 127.86
  C 181.47 132.78 178.87 141.06 175.35 145.35
  Q 168.84 153.30 163.08 158.67
  Q 159.66 161.85 156.29 166.01
  Q 153.35 169.65 149.27 173.42
  Q 146.98 175.53 143.34 181.15
  C 138.22 189.04 131.69 196.92 127.51 204.38
  Q 123.85 210.94 123.00 220.87
  C 122.57 225.93 125.71 233.01 127.79 237.20
  C 129.98 241.58 134.25 244.92 137.42 248.68
  C 140.14 251.90 139.43 257.15 139.29 261.27
  C 139.18 264.14 138.11 266.36 136.58 268.70
  Q 132.36 275.13 128.12 280.16
  Q 125.74 283.00 124.78 286.26
  Q 122.75 293.09 121.02 299.60
  C 117.83 311.57 123.35 319.18 133.10 324.78
  Q 138.00 327.59 143.13 332.22
  Q 145.96 334.79 145.08 338.10
  Q 143.32 344.68 139.60 351.81
  C 136.10 358.52 136.53 366.09 140.14 372.78
  C 142.88 377.87 144.62 383.81 148.34 388.36
  Q 153.39 394.56 161.29 399.94
  C 165.88 403.07 173.33 402.61 178.73 402.26
  C 183.59 401.93 187.93 400.42 192.52 399.38
  A 0.95 0.94 75.8 0 1 193.65 400.06
  Q 195.40 406.74 197.72 413.42
  Q 203.76 430.84 218.03 440.81
  C 221.77 443.42 225.98 445.35 229.97 447.40
  Q 234.16 449.57 238.74 451.24
  Q 247.99 454.62 255.41 456.79
  Q 258.31 457.64 262.32 457.57
  C 266.18 457.51 268.24 465.64 269.06 468.61
  C 270.15 472.59 272.32 476.02 276.09 478.07
  Q 286.14 483.52 297.61 481.44
  C 303.64 480.35 310.06 475.32 313.16 470.14
  C 315.36 466.47 318.27 464.14 318.61 459.57
  C 318.91 455.64 321.63 453.79 322.24 450.24
  C 323.12 445.18 318.23 438.78 314.25 434.90
  C 311.50 432.22 307.90 431.07 304.24 430.50
  Q 300.08 429.87 298.79 434.01
  Q 298.29 435.59 299.91 435.95
  Q 301.98 436.41 304.45 436.31
  A 0.80 0.80 0.0 0 0 304.91 434.88
  Q 303.84 434.06 301.97 433.97
  Q 301.45 433.95 301.66 433.47
  L 301.83 433.07"
/>
<path stroke="#878787" vector-effect="non-scaling-stroke" d="
  M 369.00 81.90
  C 368.63 78.88 369.55 76.80 366.92 74.51
  Q 366.52 74.16 365.99 74.27
  Q 364.86 74.50 364.12 73.63
  Q 363.75 73.20 363.37 73.62
  Q 362.20 74.90 361.97 76.43
  A 0.59 0.58 -8.6 0 0 362.80 77.04
  L 364.98 75.98
  A 0.62 0.61 75.9 0 1 365.86 76.51
  Q 365.99 79.87 366.57 82.91
  Q 367.56 88.14 366.90 96.09
  Q 366.66 98.92 365.15 100.73
  Q 359.56 107.46 350.94 110.83
  C 346.34 112.63 340.99 112.38 336.08 112.99
  C 331.63 113.54 327.25 114.99 323.07 116.37
  C 317.27 118.30 313.38 121.86 308.85 125.61
  Q 305.93 128.03 303.87 130.79
  C 297.87 138.84 294.52 146.97 290.23 155.63
  Q 290.22 155.66 287.07 162.47
  Q 283.33 170.56 277.94 177.18
  Q 275.22 180.53 271.49 181.67
  C 265.69 183.45 260.98 186.56 256.18 190.17
  Q 254.85 191.18 253.37 191.67
  C 251.03 192.44 248.76 193.39 246.73 194.79
  Q 241.50 198.36 235.66 201.55
  C 230.69 204.27 226.88 210.81 224.17 215.88
  Q 222.62 218.79 222.38 222.13
  C 222.23 224.22 224.92 227.76 226.17 229.42
  C 227.53 231.23 229.20 234.28 229.31 236.26
  C 229.65 242.30 230.11 248.74 229.39 254.65
  Q 228.78 259.60 228.91 263.58
  Q 229.27 275.52 231.61 286.29
  C 232.45 290.14 232.90 294.35 233.13 298.28
  Q 233.41 303.14 234.63 307.22
  Q 237.44 316.65 241.04 323.87
  C 244.57 330.92 246.53 338.04 250.96 344.35
  C 252.08 345.94 253.84 346.72 254.87 348.42
  Q 256.86 351.69 259.05 354.12
  Q 264.97 360.67 271.62 367.35
  Q 273.20 368.93 274.54 370.95
  Q 284.97 386.70 296.32 400.14
  C 298.31 402.50 299.27 405.15 300.99 407.59
  Q 311.50 422.49 327.41 432.39
  C 329.01 433.39 329.95 434.49 330.58 436.26
  C 334.09 446.18 336.53 457.78 336.77 468.89
  C 336.87 473.38 334.31 478.11 331.86 481.59
  Q 325.71 490.33 315.47 502.60
  Q 313.33 505.17 311.76 508.24
  A 1.16 1.16 0.0 0 0 312.13 509.72
  C 312.85 510.24 313.84 510.06 314.40 509.40
  Q 319.67 503.23 325.11 497.21
  Q 327.33 494.76 329.42 491.48
  C 332.36 486.87 335.79 482.46 337.10 477.13
  Q 337.96 473.61 339.10 470.28
  C 342.37 460.68 338.52 449.64 335.65 440.69
  C 335.17 439.21 334.43 437.95 333.71 436.59
  Q 333.32 435.86 334.11 436.09
  C 335.60 436.52 336.42 437.77 336.32 439.29
  C 336.20 441.05 338.09 441.25 339.32 440.85
  C 344.68 439.13 347.13 442.41 351.86 443.23
  C 358.23 444.34 365.47 445.26 371.64 443.11
  Q 381.92 439.53 392.60 435.89
  C 398.52 433.88 403.21 430.86 408.43 427.77
  Q 408.82 427.54 409.28 427.55
  C 411.16 427.61 414.26 427.52 415.45 425.78
  A 0.83 0.82 25.4 0 0 415.00 424.52
  Q 414.40 424.35 414.14 423.81
  Q 413.87 423.26 414.33 422.85
  Q 418.31 419.33 422.47 416.44
  C 430.33 410.97 437.45 403.89 443.76 396.84
  Q 447.23 392.98 448.80 388.91
  Q 450.81 383.69 453.11 380.27
  C 458.05 372.96 461.51 365.04 466.44 357.82
  Q 472.29 349.24 477.72 339.70
  Q 478.79 337.83 479.43 335.84
  Q 482.25 327.03 485.56 319.90
  C 487.49 315.73 488.46 311.27 490.57 307.17
  C 494.00 300.52 498.09 293.58 499.63 286.22
  Q 501.58 276.90 503.45 265.15
  Q 503.81 262.91 503.28 259.94
  Q 502.56 255.89 503.42 250.35
  Q 504.44 243.83 503.25 236.29
  C 502.57 232.00 501.42 227.74 501.28 223.23
  Q 501.12 218.22 500.64 213.34
  C 500.36 210.50 499.12 208.06 499.22 205.14
  Q 499.41 199.53 497.73 196.16
  Q 496.17 193.04 495.64 191.01
  Q 491.82 176.38 487.25 161.96
  C 484.32 152.73 482.18 143.59 479.76 134.26
  C 477.89 127.06 472.75 122.90 468.19 117.51
  Q 464.49 113.13 460.67 110.09
  Q 446.02 98.45 429.44 91.38
  Q 422.85 88.57 417.21 85.43
  Q 413.88 83.58 411.34 83.19
  Q 408.01 82.67 404.72 82.53
  Q 404.18 82.51 403.73 82.80
  Q 398.36 86.26 394.33 81.43
  A 1.96 1.93 -70.1 0 1 393.92 80.54
  C 393.66 79.16 393.06 78.03 391.68 77.50
  C 387.00 75.71 381.43 72.76 376.43 73.43
  A 0.35 0.35 0.0 0 1 376.09 72.89
  Q 382.77 62.93 393.14 57.41
  C 396.71 55.50 400.15 53.36 404.02 52.20
  Q 414.01 49.19 424.21 46.79
  Q 428.10 45.88 431.69 44.44
  C 436.76 42.41 442.16 41.47 447.59 39.96
  Q 457.24 37.28 466.94 34.47
  C 471.22 33.23 478.12 32.41 481.83 35.52
  Q 487.77 40.51 494.07 46.33
  Q 496.14 48.25 498.02 50.59
  Q 500.91 54.20 506.69 56.70
  Q 511.60 58.83 516.23 60.51
  Q 520.62 62.11 524.85 64.38
  C 534.96 69.81 544.48 76.18 551.17 84.63
  Q 554.67 89.04 555.33 94.61
  Q 555.98 100.14 556.12 106.27
  Q 556.19 109.32 555.22 112.23
  Q 553.74 116.67 552.77 121.45
  C 551.97 125.40 552.53 129.08 552.50 133.00
  C 552.45 139.33 556.07 145.01 559.84 150.12
  C 561.85 152.83 562.54 156.22 564.19 159.20
  Q 567.28 164.77 570.60 170.60
  C 573.59 175.83 575.36 181.35 576.05 187.20
  C 576.60 191.86 578.96 195.80 578.39 200.58
  Q 577.69 206.58 577.97 211.51
  C 578.20 215.50 577.35 219.22 576.17 223.00
  Q 573.08 232.91 570.76 241.99
  C 568.40 251.18 571.59 258.37 577.28 265.47
  Q 578.93 267.52 579.96 269.98
  Q 582.46 275.90 584.68 281.54
  Q 585.89 284.61 586.01 288.40
  Q 586.28 296.71 585.08 303.40
  C 583.78 310.71 581.81 317.06 575.45 321.54
  Q 565.01 328.90 559.30 336.26
  Q 554.09 342.99 558.40 349.44
  Q 565.39 359.90 568.50 370.49
  C 570.08 375.86 569.34 381.23 569.10 386.70
  C 568.99 389.12 568.02 391.41 566.40 393.16
  C 560.70 399.34 554.48 405.66 546.24 408.05
  Q 541.91 409.30 530.42 411.58
  C 528.35 412.00 525.87 412.30 523.87 411.93
  C 513.20 409.97 504.73 408.64 495.72 408.41
  C 490.53 408.28 487.09 415.28 486.12 419.47
  Q 484.39 426.89 482.57 434.05
  Q 481.67 437.64 478.71 439.40
  Q 473.51 442.51 467.48 443.51
  C 462.20 444.38 457.27 445.03 452.13 446.14
  Q 446.17 447.44 440.90 446.36
  Q 436.15 445.38 429.92 441.19
  C 425.12 437.96 418.44 438.90 414.90 434.12
  C 414.35 433.37 413.18 432.63 412.24 432.50
  Q 407.51 431.82 407.77 436.73
  A 1.01 1.00 89.4 0 0 408.74 437.68
  L 411.00 437.75
  Q 411.52 437.76 411.54 438.29
  Q 411.76 444.02 411.96 449.64
  Q 412.31 459.81 420.51 465.35
  C 424.82 468.26 429.36 471.88 434.16 474.10
  C 438.75 476.22 442.69 478.53 445.98 482.55
  Q 447.23 484.08 446.05 485.56
  Q 442.95 489.47 438.35 491.15
  Q 428.91 494.60 420.20 495.31
  Q 406.18 496.45 392.08 496.13
  C 385.53 495.98 379.01 496.31 372.50 497.72
  C 369.04 498.48 363.39 500.35 361.30 503.47
  A 2.16 2.16 0.0 0 0 362.26 506.66
  Q 367.96 509.07 374.18 509.69
  Q 387.04 510.96 396.51 510.54
  Q 399.03 510.43 397.01 511.93
  C 387.73 518.84 382.02 528.20 375.73 537.53
  Q 373.62 540.65 373.32 544.18
  Q 372.73 551.19 373.37 558.87
  Q 373.48 560.26 374.87 560.30
  L 375.19 560.31
  A 1.02 1.01 2.7 0 0 376.23 559.37
  Q 376.40 556.80 375.85 554.09
  C 372.88 539.48 389.16 522.81 398.90 513.67
  Q 399.82 512.81 400.51 511.66
  C 401.52 509.95 400.48 508.08 398.54 508.11
  C 387.26 508.27 375.78 509.18 364.73 506.26
  Q 363.67 505.98 363.00 505.18
  A 0.90 0.89 -30.8 0 1 363.36 503.77
  Q 371.17 500.71 379.25 499.77
  Q 392.27 498.24 405.19 498.07
  Q 411.18 497.99 430.11 495.75
  C 435.14 495.15 439.07 493.99 443.60 491.97
  C 447.21 490.35 452.83 484.96 448.27 481.11
  C 442.65 476.36 437.37 472.60 430.07 468.81
  Q 423.68 465.49 416.90 458.51
  C 412.86 454.34 413.74 444.69 414.61 439.10
  A 0.74 0.73 18.5 0 1 415.68 438.57
  Q 426.47 444.28 437.24 448.32
  Q 439.21 449.06 441.16 449.22
  Q 451.82 450.11 461.09 448.00
  C 464.95 447.12 468.66 445.41 472.68 444.58
  C 480.16 443.05 484.71 439.77 487.54 432.31
  Q 489.78 426.40 490.87 419.43
  C 491.73 413.97 493.52 409.59 500.27 411.20
  Q 510.48 413.62 520.81 415.63
  C 526.02 416.64 530.12 416.23 534.98 415.05
  C 540.49 413.71 545.81 412.31 550.84 409.55
  Q 554.83 407.37 559.07 405.38
  C 561.71 404.14 564.03 402.07 565.75 399.71
  C 568.13 396.45 569.55 392.51 571.96 389.17
  C 575.10 384.83 573.50 378.04 572.85 372.82
  C 571.97 365.78 568.51 359.01 564.54 353.17
  C 561.84 349.19 559.22 344.08 562.02 339.33
  Q 566.00 332.59 571.06 329.28
  C 575.81 326.18 581.55 323.06 584.27 317.83
  Q 588.73 309.30 590.15 296.53
  Q 590.44 293.92 590.04 291.47
  C 588.90 284.40 588.83 277.66 584.59 271.49
  Q 580.56 265.63 576.78 259.60
  Q 574.09 255.30 573.84 251.98
  C 573.19 243.49 576.51 235.40 578.75 227.45
  C 580.21 222.29 580.43 216.78 581.56 211.51
  Q 582.44 207.44 581.87 203.07
  Q 581.19 197.84 580.72 192.85
  Q 580.28 188.20 578.87 183.80
  C 576.65 176.90 575.13 169.31 571.39 163.06
  Q 569.13 159.29 567.28 155.64
  C 566.08 153.27 563.91 151.94 562.73 149.45
  Q 559.37 142.32 556.16 135.43
  C 555.07 133.10 554.72 130.19 555.59 127.60
  C 556.48 124.95 556.51 122.02 556.91 119.22
  Q 558.14 110.41 559.22 101.08
  Q 560.78 87.66 550.91 78.75
  Q 545.65 74.01 538.62 68.46
  Q 533.00 64.03 528.27 62.48
  Q 521.50 60.25 514.89 57.35
  C 509.10 54.81 503.74 50.39 498.29 47.07
  Q 496.15 45.77 494.66 43.52
  C 491.52 38.79 482.33 29.17 475.46 30.57
  Q 469.00 31.90 462.31 33.02
  Q 456.53 33.99 436.72 40.16
  Q 432.53 41.46 429.69 42.00
  Q 425.90 42.71 422.65 43.92
  C 415.99 46.39 409.09 48.36 402.41 50.64
  C 399.19 51.73 395.55 51.99 392.59 53.66
  C 384.98 57.95 377.91 62.99 372.83 70.77
  A 2.06 2.05 -33.9 0 0 372.53 72.29
  Q 372.94 74.51 370.89 75.85
  Q 370.19 76.31 370.28 77.14
  Q 370.56 79.54 369.53 81.97
  Q 369.13 82.91 369.00 81.90"
/>
<path stroke="#878787" vector-effect="non-scaling-stroke" d="
  M 390.45 382.35
  Q 390.14 382.29 389.90 382.49
  Q 389.65 382.70 389.51 382.99
  C 386.41 389.84 380.77 396.37 373.16 397.33
  A 1.43 1.43 0.0 0 0 371.98 398.33
  Q 368.56 409.60 361.39 419.52
  Q 358.79 423.10 356.48 426.78
  Q 355.77 427.90 356.81 427.08
  L 360.04 424.55
  Q 361.41 423.47 362.72 424.61
  Q 362.94 424.81 363.06 425.09
  Q 363.61 426.35 362.55 427.23
  Q 356.33 432.42 348.15 436.95
  Q 347.04 437.56 348.08 438.29
  Q 349.52 439.28 351.51 439.59
  C 357.67 440.53 364.49 441.82 370.52 439.61
  C 377.45 437.06 384.38 434.19 391.36 431.80
  Q 396.73 429.97 399.08 428.54
  Q 403.77 425.69 408.59 423.30
  C 411.00 422.11 414.32 420.12 415.86 418.61
  Q 421.80 412.78 427.52 407.71
  Q 435.03 401.06 438.90 396.58
  Q 445.31 389.17 449.87 381.43
  C 451.93 377.95 452.24 374.01 454.65 370.63
  Q 459.15 364.31 462.34 358.10
  Q 465.03 352.88 468.09 348.29
  C 471.69 342.91 474.00 336.66 477.46 331.23
  Q 479.86 327.46 481.48 321.71
  C 482.21 319.11 482.75 316.56 484.03 314.22
  C 487.19 308.42 488.69 302.07 491.69 296.31
  C 495.80 288.42 499.06 280.22 499.19 271.17
  Q 499.26 265.89 499.82 260.69
  Q 500.35 255.79 500.01 251.66
  C 499.61 246.76 499.96 242.03 499.16 237.08
  Q 496.84 222.85 496.49 212.61
  Q 496.34 208.10 495.37 204.44
  C 494.06 199.46 495.05 194.76 492.42 190.09
  Q 491.33 188.15 490.54 185.68
  Q 488.77 180.09 487.45 174.98
  C 485.61 167.80 482.37 160.84 480.49 153.37
  Q 478.32 144.79 476.10 135.98
  C 473.93 127.41 470.44 120.99 462.31 116.80
  C 457.63 114.39 455.42 110.16 451.50 107.09
  Q 442.07 99.68 431.13 96.51
  C 426.47 95.16 423.02 92.59 419.28 89.84
  C 416.54 87.83 413.32 88.06 410.16 87.19
  Q 406.47 86.18 403.00 85.65
  C 396.64 84.68 390.70 81.93 384.97 78.90
  C 382.37 77.52 374.37 75.53 373.74 80.40
  Q 372.38 90.84 371.42 100.73
  Q 370.44 110.92 371.85 126.19
  C 372.55 133.79 375.94 141.85 377.02 150.02
  Q 377.78 155.83 379.24 161.60
  Q 380.22 165.49 380.52 169.31
  C 381.06 176.18 381.49 186.80 387.86 191.01
  Q 389.91 192.37 393.43 192.07
  Q 397.34 191.75 401.77 191.69
  A 1.36 1.35 10.2 0 0 403.02 190.83
  Q 405.38 184.74 410.65 180.74
  Q 414.56 177.78 419.48 179.02
  Q 429.13 181.45 436.23 184.62
  Q 437.41 185.15 438.72 185.13
  C 447.70 184.96 458.05 186.92 464.01 194.23
  C 465.92 196.57 464.64 199.37 461.78 199.85
  Q 456.98 200.63 453.34 198.84
  Q 445.80 195.12 439.58 190.36
  C 435.80 187.46 429.14 189.15 425.04 190.34
  C 419.36 191.99 413.29 193.27 407.88 194.23
  Q 404.85 194.77 407.58 196.18
  Q 411.23 198.07 415.72 196.45
  C 419.63 195.04 431.84 189.41 435.30 192.45
  Q 436.95 193.91 437.59 196.14
  Q 440.52 206.30 442.84 218.27
  C 443.14 219.81 442.77 221.23 442.27 222.67
  Q 442.04 223.32 442.69 223.54
  Q 453.48 227.25 462.14 234.84
  Q 467.12 239.20 471.52 243.42
  Q 473.82 245.62 477.78 245.57
  Q 479.37 245.55 479.26 247.14
  L 479.22 247.78
  Q 479.07 249.87 477.00 250.07
  Q 472.83 250.49 468.51 251.03
  Q 462.19 251.82 455.11 250.21
  C 449.35 248.91 442.35 248.51 436.09 246.50
  Q 432.52 245.36 428.70 244.98
  Q 422.22 244.34 415.82 243.73
  A 1.77 1.74 20.9 0 0 414.23 244.43
  Q 411.82 247.68 407.46 246.56
  Q 401.74 245.10 395.94 244.03
  Q 391.76 243.26 385.03 243.46
  C 380.86 243.58 379.12 247.75 378.51 251.19
  C 377.55 256.60 377.05 262.06 377.42 267.51
  Q 377.80 273.03 375.80 278.48
  C 373.14 285.76 374.63 294.14 371.22 301.08
  Q 368.02 307.57 366.36 315.52
  A 0.89 0.88 7.2 0 0 367.19 316.58
  Q 370.80 316.77 373.94 317.16
  C 378.56 317.74 385.59 323.34 382.93 329.14
  C 381.22 332.84 378.96 336.96 375.27 338.95
  Q 374.71 339.26 374.56 339.88
  Q 373.56 344.10 371.40 347.97
  C 368.72 352.78 367.02 358.06 366.31 363.58
  Q 366.24 364.11 366.77 364.16
  Q 372.51 364.71 377.69 365.99
  Q 383.95 367.55 387.42 372.09
  Q 387.91 372.72 388.60 372.33
  Q 390.91 371.02 393.74 370.53
  C 396.00 370.15 396.84 372.46 396.37 374.21
  Q 395.30 378.21 392.45 381.64
  A 2.15 2.06 24.3 0 1 390.45 382.35"
/>
<path stroke="#878787" vector-effect="non-scaling-stroke" d="
  M 268.01 265.27
  Q 266.45 264.90 266.56 264.31
  Q 267.09 261.65 264.11 261.67
  Q 261.84 261.69 261.84 260.03
  C 261.84 258.60 261.43 257.89 260.53 256.90
  A 1.02 1.01 -26.6 0 1 261.09 255.23
  Q 263.73 254.71 266.53 254.81
  C 271.04 254.96 276.96 248.64 279.42 245.25
  C 280.01 244.44 281.14 243.69 282.03 243.22
  C 292.66 237.67 306.34 234.01 318.04 237.32
  Q 319.59 237.77 319.40 236.16
  Q 319.08 233.44 318.87 231.70
  Q 318.67 230.01 317.05 229.49
  Q 308.56 226.80 301.20 226.60
  Q 284.39 226.13 268.57 222.80
  C 265.14 222.08 260.86 219.82 259.30 216.33
  A 1.41 1.36 39.8 0 1 259.21 215.49
  Q 259.66 213.29 262.29 211.88
  Q 272.74 206.28 283.21 207.33
  Q 292.92 208.31 301.93 206.97
  Q 302.87 206.84 302.27 206.10
  C 298.25 201.14 296.48 193.10 302.14 188.50
  A 0.46 0.45 29.8 0 0 301.92 187.70
  Q 297.94 187.06 293.21 187.26
  Q 285.74 187.59 279.50 188.47
  C 271.49 189.59 261.70 187.61 255.01 193.23
  Q 253.03 194.90 250.77 196.03
  Q 243.39 199.75 236.78 204.91
  Q 236.17 205.38 235.96 206.16
  Q 233.16 216.20 234.32 226.56
  Q 234.39 227.17 234.85 227.57
  C 242.25 233.91 248.99 239.75 254.05 248.30
  C 257.36 253.91 260.96 259.48 263.19 265.42
  Q 267.59 277.15 269.28 289.25
  Q 269.74 292.53 269.86 295.79
  C 269.98 299.23 269.90 303.05 271.06 306.32
  Q 271.91 308.70 271.91 310.06
  Q 271.94 318.94 272.54 321.99
  Q 275.80 338.42 280.91 352.54
  Q 282.62 357.25 284.47 364.48
  Q 287.86 377.75 295.23 390.27
  C 299.79 398.03 306.34 405.79 311.93 413.15
  Q 313.28 414.93 315.34 416.29
  Q 315.82 416.61 316.28 416.27
  L 317.28 415.54
  Q 317.74 415.21 318.30 415.26
  C 322.45 415.65 325.26 420.44 327.18 423.67
  C 330.04 428.49 337.07 430.48 341.99 429.54
  C 350.49 427.92 355.40 423.20 359.54 415.42
  Q 363.58 407.83 365.94 398.77
  A 1.06 1.06 0.0 0 0 365.09 397.46
  Q 359.04 396.45 353.18 394.10
  Q 348.81 392.34 345.19 386.60
  C 343.97 384.66 345.52 382.68 344.99 380.68
  C 343.10 373.49 347.91 371.54 353.45 369.50
  Q 354.88 368.97 356.14 367.95
  Q 358.81 365.80 361.49 363.96
  A 3.16 3.14 -11.9 0 0 362.82 361.93
  C 363.54 358.07 364.34 354.42 366.80 351.16
  C 369.24 347.91 370.02 343.43 371.47 339.65
  Q 371.73 338.95 370.99 338.95
  Q 363.92 338.96 360.37 332.99
  A 0.94 0.93 -23.7 0 0 359.30 332.58
  Q 356.76 333.33 354.31 334.22
  C 351.31 335.32 340.71 337.67 342.68 330.82
  C 344.27 325.32 352.61 321.58 357.03 317.90
  Q 359.09 316.18 361.66 316.04
  A 0.80 0.79 -87.2 0 0 362.39 315.37
  C 363.07 311.06 364.19 306.47 366.33 302.69
  C 369.12 297.75 370.65 292.88 371.82 287.24
  C 373.22 280.54 373.11 273.06 373.22 266.08
  C 373.34 259.32 375.34 253.21 377.18 246.87
  C 379.16 240.08 385.64 239.03 392.04 240.14
  C 395.61 240.75 399.03 240.13 402.55 241.21
  A 1.39 1.38 26.0 0 0 404.11 240.68
  Q 408.52 234.41 413.93 228.91
  Q 416.26 226.54 421.87 224.44
  C 427.19 222.45 432.92 222.95 438.48 222.24
  Q 438.94 222.18 438.97 221.72
  Q 439.09 219.72 438.75 217.90
  Q 437.47 211.17 435.83 202.37
  Q 435.21 199.03 434.06 196.22
  A 2.68 2.68 0.0 0 0 430.80 194.66
  Q 424.02 196.70 417.44 198.78
  C 412.20 200.44 406.96 200.33 403.60 195.58
  A 1.22 1.22 0.0 0 0 402.38 195.08
  C 392.86 196.87 381.32 193.90 378.77 183.05
  Q 376.74 174.44 375.91 165.02
  Q 374.82 152.70 374.07 148.50
  Q 372.31 138.61 369.96 129.01
  Q 367.56 119.19 366.97 108.38
  C 366.88 106.82 367.23 105.18 367.18 103.62
  Q 367.15 102.71 366.74 103.52
  C 364.44 108.00 357.77 113.08 353.48 113.69
  Q 343.23 115.15 332.44 116.49
  Q 325.21 117.40 321.12 119.48
  Q 314.36 122.92 310.94 127.49
  C 306.70 133.14 302.34 138.05 298.47 144.85
  C 295.03 150.89 292.12 157.66 289.44 164.23
  C 285.63 173.60 279.24 181.23 270.55 185.67
  Q 269.59 186.16 270.67 186.13
  C 271.77 186.11 272.88 185.68 273.94 185.61
  Q 288.28 184.70 302.60 186.17
  Q 304.48 186.36 306.38 185.72
  C 313.99 183.17 322.10 185.68 329.25 189.36
  Q 334.92 192.29 337.20 196.76
  C 339.09 200.49 338.73 204.83 334.85 206.57
  Q 333.78 207.05 332.74 207.58
  A 1.38 1.37 -3.0 0 0 332.07 208.32
  C 330.59 212.20 328.82 214.62 324.17 214.89
  Q 319.80 215.16 315.14 214.90
  Q 311.14 214.67 308.08 212.15
  Q 306.37 210.74 304.54 210.62
  Q 299.34 210.29 294.00 209.68
  Q 291.69 209.41 289.37 209.67
  Q 279.35 210.80 270.89 211.63
  Q 266.93 212.02 262.43 214.59
  Q 261.90 214.89 261.95 215.50
  Q 262.09 217.18 263.92 217.61
  Q 268.48 218.69 273.05 220.54
  C 279.78 223.27 287.16 223.09 294.40 223.30
  C 297.14 223.38 300.65 224.40 303.78 224.60
  Q 309.84 225.01 315.56 226.08
  C 322.68 227.41 322.29 231.67 322.57 237.44
  A 0.82 0.81 -87.0 0 0 323.26 238.21
  Q 327.53 238.82 331.72 240.13
  C 334.87 241.11 337.82 242.65 340.96 243.89
  C 344.88 245.44 342.25 248.04 340.59 249.84
  Q 339.52 251.01 340.97 251.66
  Q 343.78 252.91 343.72 255.01
  A 1.88 1.88 0.0 0 1 340.97 256.63
  Q 338.72 255.46 336.72 253.41
  Q 336.40 253.10 335.98 253.24
  Q 331.41 254.77 327.15 257.15
  C 322.44 259.78 317.42 258.98 312.54 260.86
  C 305.79 263.47 297.79 260.15 290.64 260.58
  Q 285.85 260.87 280.54 260.45
  Q 279.96 260.40 279.48 260.71
  L 278.37 261.42
  Q 277.93 261.69 277.45 261.52
  Q 274.98 260.64 272.31 260.70
  Q 271.71 260.72 271.41 261.23
  L 269.43 264.65
  A 1.31 1.31 0.0 0 1 268.01 265.27"
/>
<path stroke="#878787" vector-effect="non-scaling-stroke" d="
  M 413.94 183.70
  C 410.12 184.46 407.68 187.48 405.64 190.52
  Q 405.22 191.15 405.98 191.12
  C 415.10 190.77 423.70 188.00 432.12 186.06
  Q 433.14 185.83 432.18 185.42
  Q 423.49 181.80 413.94 183.70"
/>
<path stroke="#878787" vector-effect="non-scaling-stroke" d="
  M 321.94 190.35
  Q 320.06 189.48 318.12 189.23
  Q 316.23 188.99 317.90 189.91
  C 322.16 192.26 325.68 195.14 327.96 199.26
  Q 329.12 201.35 330.65 203.30
  Q 331.02 203.77 331.61 203.67
  Q 335.83 202.98 335.21 199.46
  C 334.64 196.19 331.85 194.07 328.86 193.09
  Q 325.38 191.95 321.94 190.35"
/>
<path stroke="#878787" vector-effect="non-scaling-stroke" d="
  M 457.15 191.72
  A 0.63 0.63 0.0 0 0 456.91 191.61
  L 445.81 189.03
  A 0.63 0.63 0.0 0 0 445.33 190.18
  L 457.00 197.60
  A 0.63 0.63 0.0 0 0 457.32 197.69
  L 463.33 197.86
  A 0.63 0.63 0.0 0 0 463.72 196.73
  L 457.15 191.72"
/>
<path stroke="#878787" vector-effect="non-scaling-stroke" d="
  M 324.30 196.94
  C 320.67 192.87 314.58 191.49 309.61 189.88
  Q 307.18 189.09 305.04 191.02
  Q 301.63 194.10 302.61 198.22
  C 303.20 200.73 305.56 206.74 308.74 206.82
  Q 317.21 207.02 324.63 206.62
  Q 326.50 206.52 328.18 205.34
  Q 328.68 204.99 328.38 204.45
  C 327.00 201.95 326.20 199.07 324.30 196.94"
/>
<path stroke="#878787" vector-effect="non-scaling-stroke" d="
  M 312.40 211.52
  C 316.58 212.67 324.39 212.99 327.57 209.34
  Q 328.37 208.42 327.17 208.62
  Q 323.79 209.17 320.20 209.99
  C 317.47 210.61 314.74 210.56 311.95 210.54
  A 0.30 0.30 0.0 0 0 311.70 211.00
  Q 311.96 211.39 312.40 211.52"
/>
<path stroke="#878787" vector-effect="non-scaling-stroke" d="
  M 229.82 222.95
  A 0.82 0.82 0.0 0 0 231.26 222.48
  L 232.22 210.75
  A 0.82 0.82 0.0 0 0 230.74 210.20
  L 225.74 217.14
  A 0.82 0.82 0.0 0 0 225.78 218.15
  L 229.82 222.95"
/>
<path stroke="#878787" vector-effect="non-scaling-stroke" d="
  M 229.77 230.66
  Q 230.05 231.18 230.21 230.60
  Q 230.89 227.99 229.91 226.43
  Q 228.41 224.04 226.04 221.85
  Q 225.12 221.00 225.62 222.15
  Q 227.48 226.45 229.77 230.66"
/>
<path stroke="#878787" vector-effect="non-scaling-stroke" d="
  M 432.97 242.68
  Q 430.83 241.27 429.06 239.72
  C 426.15 237.18 426.66 232.83 428.61 229.78
  Q 429.12 228.99 428.20 229.19
  Q 426.62 229.52 424.94 229.32
  C 420.20 228.75 417.10 235.08 414.94 238.36
  Q 414.17 239.53 415.57 239.60
  Q 424.83 240.06 432.87 242.88
  Q 433.73 243.18 432.97 242.68"
/>
<path stroke="#878787" vector-effect="non-scaling-stroke" d="
  M 295.46 394.83
  L 295.66 394.67
  Q 295.84 394.54 295.72 394.35
  Q 289.31 384.06 285.33 373.70
  C 283.22 368.22 281.07 362.65 279.59 356.89
  Q 277.43 348.50 274.23 339.02
  Q 272.83 334.85 271.71 330.67
  C 270.71 326.95 270.79 323.50 270.78 319.79
  C 270.78 316.61 268.77 314.05 268.82 310.76
  Q 269.09 294.40 264.23 276.79
  C 262.76 271.47 260.34 266.47 258.38 261.36
  C 256.99 257.74 255.13 254.39 253.43 250.93
  C 249.36 242.65 241.61 235.84 234.19 230.00
  Q 233.64 229.57 233.70 230.26
  C 233.98 233.87 232.93 236.87 233.75 240.56
  Q 236.28 251.86 235.73 262.97
  C 235.36 270.56 235.42 278.32 235.25 286.05
  C 235.15 290.62 235.60 295.74 237.56 299.92
  Q 240.53 306.29 242.59 313.41
  C 243.82 317.64 245.45 322.13 247.44 326.05
  Q 249.93 330.97 251.37 336.11
  C 251.85 337.82 252.94 340.46 253.86 341.64
  Q 261.18 350.93 268.61 359.56
  C 271.48 362.89 273.99 366.36 277.00 369.41
  C 283.19 375.69 288.40 383.42 292.62 391.07
  Q 293.71 393.05 295.37 394.82
  Q 295.41 394.87 295.46 394.83"
/>
<path stroke="#878787" vector-effect="non-scaling-stroke" d="
  M 450.99 231.93
  C 453.01 236.67 448.78 239.88 445.30 241.92
  Q 440.78 244.58 436.05 243.53
  Q 435.00 243.29 435.92 243.85
  Q 436.85 244.41 437.88 244.62
  Q 445.82 246.23 453.47 247.11
  Q 458.90 247.74 467.49 246.96
  Q 468.15 246.90 467.77 246.35
  Q 460.81 236.58 451.44 231.51
  Q 450.63 231.07 450.99 231.93"
/>
<path stroke="#878787" vector-effect="non-scaling-stroke" d="
  M 302.03 253.70
  C 298.47 254.00 292.98 249.75 291.83 246.05
  Q 291.57 245.20 290.82 245.69
  Q 286.41 248.54 282.53 251.05
  C 280.32 252.47 278.59 254.51 276.47 256.12
  Q 275.84 256.59 276.54 256.96
  Q 277.99 257.73 279.66 257.53
  Q 286.71 256.70 293.23 258.30
  C 297.26 259.29 301.80 258.31 305.90 257.93
  Q 307.50 257.78 312.57 257.96
  Q 322.28 258.31 330.36 252.55
  C 332.75 250.85 332.48 248.08 335.82 247.35
  Q 337.84 246.91 335.96 246.05
  C 334.43 245.35 332.76 244.49 331.12 244.19
  Q 327.08 243.46 322.63 242.76
  A 0.77 0.77 0.0 0 0 321.76 243.34
  C 320.89 246.84 319.72 250.65 315.83 251.58
  Q 309.51 253.09 302.03 253.70"
/>
<path stroke="#878787" vector-effect="non-scaling-stroke" d="
  M 232.4951 247.2407
  A 0.27 0.27 0.0 0 0 232.2256 246.9702
  L 231.9656 246.9698
  A 0.27 0.27 0.0 0 0 231.6951 247.2393
  L 231.6449 275.9793
  A 0.27 0.27 0.0 0 0 231.9144 276.2498
  L 232.1744 276.2502
  A 0.27 0.27 0.0 0 0 232.4449 275.9807
  L 232.4951 247.2407"
/>
<path stroke="#878787" vector-effect="non-scaling-stroke" d="
  M 375.89 334.33
  C 377.75 331.88 379.74 328.45 380.40 325.31
  Q 380.66 324.09 379.79 323.04
  C 376.02 318.51 370.68 318.84 365.48 319.63
  A 1.12 1.11 0.7 0 0 364.55 320.53
  L 363.41 327.04
  A 0.69 0.69 0.0 0 0 364.13 327.85
  C 368.71 327.56 374.00 328.86 374.92 334.09
  Q 375.14 335.32 375.89 334.33"
/>
<path stroke="#878787" vector-effect="non-scaling-stroke" d="
  M 350.17 325.31
  A 1.12 1.12 0.0 0 0 349.79 325.64
  L 345.48 331.44
  A 1.12 1.12 0.0 0 0 346.61 333.20
  L 358.70 330.66
  A 1.12 1.12 0.0 0 0 359.58 329.70
  L 360.53 321.93
  A 1.12 1.12 0.0 0 0 358.91 320.79
  L 350.17 325.31"
/>
<path stroke="#878787" vector-effect="non-scaling-stroke" d="
  M 364.60 331.75
  A 1.05 1.05 0.0 0 0 364.17 333.70
  L 367.49 335.64
  A 1.05 1.05 0.0 0 0 367.92 335.78
  L 371.38 336.12
  A 1.05 1.05 0.0 0 0 372.36 334.51
  L 370.57 331.76
  A 1.05 1.05 0.0 0 0 369.59 331.29
  L 364.60 331.75"
/>
<path stroke="#878787" vector-effect="non-scaling-stroke" d="
  M 351.25 378.59
  Q 350.99 379.22 351.67 379.24
  Q 361.93 379.46 372.50 379.83
  C 376.28 379.97 382.48 381.25 385.68 378.64
  Q 386.07 378.32 386.03 377.82
  C 385.30 367.04 371.41 367.09 363.88 368.73
  C 361.31 369.29 359.33 371.09 356.93 372.09
  C 353.89 373.36 352.46 375.70 351.25 378.59"
/>
<path stroke="#878787" vector-effect="non-scaling-stroke" d="
  M 388.9015 377.0626
  A 1.06 0.66 129.1 0 0 390.0822 376.6562
  A 1.06 0.66 129.1 0 0 390.2385 375.4174
  A 1.06 0.66 129.1 0 0 389.0578 375.8238
  A 1.06 0.66 129.1 0 0 388.9015 377.0626"
/>
<path stroke="#878787" vector-effect="non-scaling-stroke" d="
  M 383.30 383.83
  A 0.35 0.35 0.0 0 0 382.96 383.27
  C 378.36 384.10 373.69 383.31 368.99 383.34
  Q 359.32 383.41 349.33 383.24
  A 1.19 1.18 75.8 0 0 348.28 385.01
  C 351.09 389.94 354.62 391.05 359.56 392.55
  Q 362.26 393.37 364.88 393.24
  Q 369.40 393.03 374.19 394.09
  A 1.67 1.66 -71.9 0 0 376.08 393.13
  C 376.46 392.25 376.74 391.41 377.44 390.70
  Q 380.53 387.53 383.30 383.83"
/>
<path stroke="#878787" vector-effect="non-scaling-stroke" d="
  M 331.87 431.27
  C 334.24 433.31 337.27 434.72 340.30 435.46
  Q 340.92 435.61 341.48 435.32
  Q 345.60 433.15 349.19 430.11
  Q 349.68 429.69 349.08 429.92
  Q 340.35 433.25 332.29 430.53
  Q 330.19 429.83 331.87 431.27"
/>
</g>
<path fill="#fdfdfd" d="
  M 0.00 0.00
  L 750.00 0.00
  L 750.00 602.00
  L 0.00 602.00
  L 0.00 0.00
  Z
  M 301.83 433.07
  A 0.69 0.68 14.8 0 1 302.54 432.66
  Q 310.01 433.55 313.78 438.79
  Q 316.13 442.06 317.72 446.08
  C 319.80 451.31 316.96 456.24 314.43 460.89
  C 313.15 463.24 313.83 465.39 311.48 467.37
  Q 307.85 470.40 304.96 473.24
  C 299.38 478.72 291.39 478.83 284.00 478.58
  Q 280.62 478.47 277.42 475.86
  C 274.18 473.21 273.29 468.64 271.08 465.07
  C 269.34 462.26 268.68 459.20 267.57 456.18
  Q 266.59 453.53 263.59 453.33
  C 259.40 453.07 255.21 453.50 251.02 452.28
  C 244.50 450.36 238.04 447.60 231.74 444.94
  C 226.57 442.76 222.38 439.08 217.62 436.15
  C 207.74 430.06 201.81 419.65 198.84 408.21
  C 197.71 403.87 199.07 393.49 191.29 395.52
  C 187.87 396.41 184.81 398.36 181.25 398.66
  Q 174.90 399.22 167.24 397.66
  C 164.30 397.07 161.66 395.22 159.02 393.75
  Q 154.67 391.32 150.82 386.55
  C 142.42 376.14 137.40 357.19 146.57 345.31
  Q 148.00 343.46 148.78 341.10
  C 151.03 334.25 147.26 329.67 141.44 326.85
  C 136.03 324.24 130.77 320.92 127.12 316.39
  C 125.07 313.84 124.93 311.14 124.12 308.19
  C 122.42 302.02 124.13 294.55 127.25 289.26
  Q 130.76 283.31 134.70 277.33
  C 138.29 271.89 140.48 266.56 142.14 260.50
  C 143.02 257.28 141.96 253.52 141.37 250.23
  C 140.36 244.63 134.94 239.69 131.46 235.55
  Q 129.01 232.63 126.98 227.59
  C 124.71 221.94 124.81 216.82 127.32 211.58
  C 129.12 207.82 130.45 203.81 132.60 200.41
  Q 138.76 190.70 146.33 183.04
  C 151.48 177.84 154.77 171.77 160.26 166.69
  Q 168.38 159.17 175.31 150.12
  Q 179.62 144.49 181.58 138.63
  Q 183.16 133.90 181.21 129.42
  Q 179.97 126.58 178.52 123.80
  C 176.66 120.20 171.90 118.66 168.87 116.08
  Q 163.82 111.77 158.41 108.08
  A 2.22 2.21 -64.2 0 1 157.55 105.60
  Q 158.48 102.65 160.75 100.27
  Q 165.80 94.98 171.25 91.27
  Q 179.44 85.69 193.63 78.16
  Q 200.10 74.73 204.64 71.39
  Q 209.90 67.51 214.54 63.21
  C 216.58 61.33 218.98 60.07 220.88 58.09
  Q 231.39 47.10 245.70 37.42
  C 253.21 32.35 261.12 29.18 269.42 25.85
  C 276.62 22.97 287.02 22.78 294.33 24.10
  Q 304.09 25.86 314.47 28.34
  C 316.48 28.81 318.64 29.49 320.43 30.42
  Q 326.28 33.48 331.71 35.74
  Q 336.06 37.55 350.64 47.57
  Q 359.20 53.46 363.17 63.94
  C 364.32 66.97 364.40 69.33 363.75 72.31
  Q 363.58 73.09 364.21 72.60
  C 369.39 68.58 366.29 59.00 362.89 55.10
  Q 358.32 49.86 352.95 44.99
  Q 348.32 40.79 345.12 39.29
  Q 336.21 35.12 328.24 30.81
  Q 326.34 29.78 319.47 27.57
  C 315.10 26.16 311.39 23.77 306.78 22.79
  C 297.57 20.84 288.76 18.99 279.11 21.21
  Q 272.44 22.75 266.07 23.85
  C 263.21 24.35 260.42 25.82 257.90 27.20
  Q 244.86 34.34 234.79 42.62
  Q 227.84 48.33 220.72 54.06
  Q 217.66 56.53 215.17 59.48
  Q 210.72 64.76 205.62 67.84
  Q 194.49 74.56 180.70 81.53
  Q 177.66 83.07 174.86 85.10
  C 170.27 88.44 165.17 91.36 161.65 95.54
  C 159.15 98.50 155.77 103.25 155.04 107.21
  Q 154.49 110.15 157.75 112.20
  Q 162.72 115.32 167.69 118.41
  C 169.97 119.83 171.70 121.80 173.62 123.68
  Q 177.59 127.55 177.82 127.86
  C 181.47 132.78 178.87 141.06 175.35 145.35
  Q 168.84 153.30 163.08 158.67
  Q 159.66 161.85 156.29 166.01
  Q 153.35 169.65 149.27 173.42
  Q 146.98 175.53 143.34 181.15
  C 138.22 189.04 131.69 196.92 127.51 204.38
  Q 123.85 210.94 123.00 220.87
  C 122.57 225.93 125.71 233.01 127.79 237.20
  C 129.98 241.58 134.25 244.92 137.42 248.68
  C 140.14 251.90 139.43 257.15 139.29 261.27
  C 139.18 264.14 138.11 266.36 136.58 268.70
  Q 132.36 275.13 128.12 280.16
  Q 125.74 283.00 124.78 286.26
  Q 122.75 293.09 121.02 299.60
  C 117.83 311.57 123.35 319.18 133.10 324.78
  Q 138.00 327.59 143.13 332.22
  Q 145.96 334.79 145.08 338.10
  Q 143.32 344.68 139.60 351.81
  C 136.10 358.52 136.53 366.09 140.14 372.78
  C 142.88 377.87 144.62 383.81 148.34 388.36
  Q 153.39 394.56 161.29 399.94
  C 165.88 403.07 173.33 402.61 178.73 402.26
  C 183.59 401.93 187.93 400.42 192.52 399.38
  A 0.95 0.94 75.8 0 1 193.65 400.06
  Q 195.40 406.74 197.72 413.42
  Q 203.76 430.84 218.03 440.81
  C 221.77 443.42 225.98 445.35 229.97 447.40
  Q 234.16 449.57 238.74 451.24
  Q 247.99 454.62 255.41 456.79
  Q 258.31 457.64 262.32 457.57
  C 266.18 457.51 268.24 465.64 269.06 468.61
  C 270.15 472.59 272.32 476.02 276.09 478.07
  Q 286.14 483.52 297.61 481.44
  C 303.64 480.35 310.06 475.32 313.16 470.14
  C 315.36 466.47 318.27 464.14 318.61 459.57
  C 318.91 455.64 321.63 453.79 322.24 450.24
  C 323.12 445.18 318.23 438.78 314.25 434.90
  C 311.50 432.22 307.90 431.07 304.24 430.50
  Q 300.08 429.87 298.79 434.01
  Q 298.29 435.59 299.91 435.95
  Q 301.98 436.41 304.45 436.31
  A 0.80 0.80 0.0 0 0 304.91 434.88
  Q 303.84 434.06 301.97 433.97
  Q 301.45 433.95 301.66 433.47
  L 301.83 433.07
  Z
  M 369.00 81.90
  C 368.63 78.88 369.55 76.80 366.92 74.51
  Q 366.52 74.16 365.99 74.27
  Q 364.86 74.50 364.12 73.63
  Q 363.75 73.20 363.37 73.62
  Q 362.20 74.90 361.97 76.43
  A 0.59 0.58 -8.6 0 0 362.80 77.04
  L 364.98 75.98
  A 0.62 0.61 75.9 0 1 365.86 76.51
  Q 365.99 79.87 366.57 82.91
  Q 367.56 88.14 366.90 96.09
  Q 366.66 98.92 365.15 100.73
  Q 359.56 107.46 350.94 110.83
  C 346.34 112.63 340.99 112.38 336.08 112.99
  C 331.63 113.54 327.25 114.99 323.07 116.37
  C 317.27 118.30 313.38 121.86 308.85 125.61
  Q 305.93 128.03 303.87 130.79
  C 297.87 138.84 294.52 146.97 290.23 155.63
  Q 290.22 155.66 287.07 162.47
  Q 283.33 170.56 277.94 177.18
  Q 275.22 180.53 271.49 181.67
  C 265.69 183.45 260.98 186.56 256.18 190.17
  Q 254.85 191.18 253.37 191.67
  C 251.03 192.44 248.76 193.39 246.73 194.79
  Q 241.50 198.36 235.66 201.55
  C 230.69 204.27 226.88 210.81 224.17 215.88
  Q 222.62 218.79 222.38 222.13
  C 222.23 224.22 224.92 227.76 226.17 229.42
  C 227.53 231.23 229.20 234.28 229.31 236.26
  C 229.65 242.30 230.11 248.74 229.39 254.65
  Q 228.78 259.60 228.91 263.58
  Q 229.27 275.52 231.61 286.29
  C 232.45 290.14 232.90 294.35 233.13 298.28
  Q 233.41 303.14 234.63 307.22
  Q 237.44 316.65 241.04 323.87
  C 244.57 330.92 246.53 338.04 250.96 344.35
  C 252.08 345.94 253.84 346.72 254.87 348.42
  Q 256.86 351.69 259.05 354.12
  Q 264.97 360.67 271.62 367.35
  Q 273.20 368.93 274.54 370.95
  Q 284.97 386.70 296.32 400.14
  C 298.31 402.50 299.27 405.15 300.99 407.59
  Q 311.50 422.49 327.41 432.39
  C 329.01 433.39 329.95 434.49 330.58 436.26
  C 334.09 446.18 336.53 457.78 336.77 468.89
  C 336.87 473.38 334.31 478.11 331.86 481.59
  Q 325.71 490.33 315.47 502.60
  Q 313.33 505.17 311.76 508.24
  A 1.16 1.16 0.0 0 0 312.13 509.72
  C 312.85 510.24 313.84 510.06 314.40 509.40
  Q 319.67 503.23 325.11 497.21
  Q 327.33 494.76 329.42 491.48
  C 332.36 486.87 335.79 482.46 337.10 477.13
  Q 337.96 473.61 339.10 470.28
  C 342.37 460.68 338.52 449.64 335.65 440.69
  C 335.17 439.21 334.43 437.95 333.71 436.59
  Q 333.32 435.86 334.11 436.09
  C 335.60 436.52 336.42 437.77 336.32 439.29
  C 336.20 441.05 338.09 441.25 339.32 440.85
  C 344.68 439.13 347.13 442.41 351.86 443.23
  C 358.23 444.34 365.47 445.26 371.64 443.11
  Q 381.92 439.53 392.60 435.89
  C 398.52 433.88 403.21 430.86 408.43 427.77
  Q 408.82 427.54 409.28 427.55
  C 411.16 427.61 414.26 427.52 415.45 425.78
  A 0.83 0.82 25.4 0 0 415.00 424.52
  Q 414.40 424.35 414.14 423.81
  Q 413.87 423.26 414.33 422.85
  Q 418.31 419.33 422.47 416.44
  C 430.33 410.97 437.45 403.89 443.76 396.84
  Q 447.23 392.98 448.80 388.91
  Q 450.81 383.69 453.11 380.27
  C 458.05 372.96 461.51 365.04 466.44 357.82
  Q 472.29 349.24 477.72 339.70
  Q 478.79 337.83 479.43 335.84
  Q 482.25 327.03 485.56 319.90
  C 487.49 315.73 488.46 311.27 490.57 307.17
  C 494.00 300.52 498.09 293.58 499.63 286.22
  Q 501.58 276.90 503.45 265.15
  Q 503.81 262.91 503.28 259.94
  Q 502.56 255.89 503.42 250.35
  Q 504.44 243.83 503.25 236.29
  C 502.57 232.00 501.42 227.74 501.28 223.23
  Q 501.12 218.22 500.64 213.34
  C 500.36 210.50 499.12 208.06 499.22 205.14
  Q 499.41 199.53 497.73 196.16
  Q 496.17 193.04 495.64 191.01
  Q 491.82 176.38 487.25 161.96
  C 484.32 152.73 482.18 143.59 479.76 134.26
  C 477.89 127.06 472.75 122.90 468.19 117.51
  Q 464.49 113.13 460.67 110.09
  Q 446.02 98.45 429.44 91.38
  Q 422.85 88.57 417.21 85.43
  Q 413.88 83.58 411.34 83.19
  Q 408.01 82.67 404.72 82.53
  Q 404.18 82.51 403.73 82.80
  Q 398.36 86.26 394.33 81.43
  A 1.96 1.93 -70.1 0 1 393.92 80.54
  C 393.66 79.16 393.06 78.03 391.68 77.50
  C 387.00 75.71 381.43 72.76 376.43 73.43
  A 0.35 0.35 0.0 0 1 376.09 72.89
  Q 382.77 62.93 393.14 57.41
  C 396.71 55.50 400.15 53.36 404.02 52.20
  Q 414.01 49.19 424.21 46.79
  Q 428.10 45.88 431.69 44.44
  C 436.76 42.41 442.16 41.47 447.59 39.96
  Q 457.24 37.28 466.94 34.47
  C 471.22 33.23 478.12 32.41 481.83 35.52
  Q 487.77 40.51 494.07 46.33
  Q 496.14 48.25 498.02 50.59
  Q 500.91 54.20 506.69 56.70
  Q 511.60 58.83 516.23 60.51
  Q 520.62 62.11 524.85 64.38
  C 534.96 69.81 544.48 76.18 551.17 84.63
  Q 554.67 89.04 555.33 94.61
  Q 555.98 100.14 556.12 106.27
  Q 556.19 109.32 555.22 112.23
  Q 553.74 116.67 552.77 121.45
  C 551.97 125.40 552.53 129.08 552.50 133.00
  C 552.45 139.33 556.07 145.01 559.84 150.12
  C 561.85 152.83 562.54 156.22 564.19 159.20
  Q 567.28 164.77 570.60 170.60
  C 573.59 175.83 575.36 181.35 576.05 187.20
  C 576.60 191.86 578.96 195.80 578.39 200.58
  Q 577.69 206.58 577.97 211.51
  C 578.20 215.50 577.35 219.22 576.17 223.00
  Q 573.08 232.91 570.76 241.99
  C 568.40 251.18 571.59 258.37 577.28 265.47
  Q 578.93 267.52 579.96 269.98
  Q 582.46 275.90 584.68 281.54
  Q 585.89 284.61 586.01 288.40
  Q 586.28 296.71 585.08 303.40
  C 583.78 310.71 581.81 317.06 575.45 321.54
  Q 565.01 328.90 559.30 336.26
  Q 554.09 342.99 558.40 349.44
  Q 565.39 359.90 568.50 370.49
  C 570.08 375.86 569.34 381.23 569.10 386.70
  C 568.99 389.12 568.02 391.41 566.40 393.16
  C 560.70 399.34 554.48 405.66 546.24 408.05
  Q 541.91 409.30 530.42 411.58
  C 528.35 412.00 525.87 412.30 523.87 411.93
  C 513.20 409.97 504.73 408.64 495.72 408.41
  C 490.53 408.28 487.09 415.28 486.12 419.47
  Q 484.39 426.89 482.57 434.05
  Q 481.67 437.64 478.71 439.40
  Q 473.51 442.51 467.48 443.51
  C 462.20 444.38 457.27 445.03 452.13 446.14
  Q 446.17 447.44 440.90 446.36
  Q 436.15 445.38 429.92 441.19
  C 425.12 437.96 418.44 438.90 414.90 434.12
  C 414.35 433.37 413.18 432.63 412.24 432.50
  Q 407.51 431.82 407.77 436.73
  A 1.01 1.00 89.4 0 0 408.74 437.68
  L 411.00 437.75
  Q 411.52 437.76 411.54 438.29
  Q 411.76 444.02 411.96 449.64
  Q 412.31 459.81 420.51 465.35
  C 424.82 468.26 429.36 471.88 434.16 474.10
  C 438.75 476.22 442.69 478.53 445.98 482.55
  Q 447.23 484.08 446.05 485.56
  Q 442.95 489.47 438.35 491.15
  Q 428.91 494.60 420.20 495.31
  Q 406.18 496.45 392.08 496.13
  C 385.53 495.98 379.01 496.31 372.50 497.72
  C 369.04 498.48 363.39 500.35 361.30 503.47
  A 2.16 2.16 0.0 0 0 362.26 506.66
  Q 367.96 509.07 374.18 509.69
  Q 387.04 510.96 396.51 510.54
  Q 399.03 510.43 397.01 511.93
  C 387.73 518.84 382.02 528.20 375.73 537.53
  Q 373.62 540.65 373.32 544.18
  Q 372.73 551.19 373.37 558.87
  Q 373.48 560.26 374.87 560.30
  L 375.19 560.31
  A 1.02 1.01 2.7 0 0 376.23 559.37
  Q 376.40 556.80 375.85 554.09
  C 372.88 539.48 389.16 522.81 398.90 513.67
  Q 399.82 512.81 400.51 511.66
  C 401.52 509.95 400.48 508.08 398.54 508.11
  C 387.26 508.27 375.78 509.18 364.73 506.26
  Q 363.67 505.98 363.00 505.18
  A 0.90 0.89 -30.8 0 1 363.36 503.77
  Q 371.17 500.71 379.25 499.77
  Q 392.27 498.24 405.19 498.07
  Q 411.18 497.99 430.11 495.75
  C 435.14 495.15 439.07 493.99 443.60 491.97
  C 447.21 490.35 452.83 484.96 448.27 481.11
  C 442.65 476.36 437.37 472.60 430.07 468.81
  Q 423.68 465.49 416.90 458.51
  C 412.86 454.34 413.74 444.69 414.61 439.10
  A 0.74 0.73 18.5 0 1 415.68 438.57
  Q 426.47 444.28 437.24 448.32
  Q 439.21 449.06 441.16 449.22
  Q 451.82 450.11 461.09 448.00
  C 464.95 447.12 468.66 445.41 472.68 444.58
  C 480.16 443.05 484.71 439.77 487.54 432.31
  Q 489.78 426.40 490.87 419.43
  C 491.73 413.97 493.52 409.59 500.27 411.20
  Q 510.48 413.62 520.81 415.63
  C 526.02 416.64 530.12 416.23 534.98 415.05
  C 540.49 413.71 545.81 412.31 550.84 409.55
  Q 554.83 407.37 559.07 405.38
  C 561.71 404.14 564.03 402.07 565.75 399.71
  C 568.13 396.45 569.55 392.51 571.96 389.17
  C 575.10 384.83 573.50 378.04 572.85 372.82
  C 571.97 365.78 568.51 359.01 564.54 353.17
  C 561.84 349.19 559.22 344.08 562.02 339.33
  Q 566.00 332.59 571.06 329.28
  C 575.81 326.18 581.55 323.06 584.27 317.83
  Q 588.73 309.30 590.15 296.53
  Q 590.44 293.92 590.04 291.47
  C 588.90 284.40 588.83 277.66 584.59 271.49
  Q 580.56 265.63 576.78 259.60
  Q 574.09 255.30 573.84 251.98
  C 573.19 243.49 576.51 235.40 578.75 227.45
  C 580.21 222.29 580.43 216.78 581.56 211.51
  Q 582.44 207.44 581.87 203.07
  Q 581.19 197.84 580.72 192.85
  Q 580.28 188.20 578.87 183.80
  C 576.65 176.90 575.13 169.31 571.39 163.06
  Q 569.13 159.29 567.28 155.64
  C 566.08 153.27 563.91 151.94 562.73 149.45
  Q 559.37 142.32 556.16 135.43
  C 555.07 133.10 554.72 130.19 555.59 127.60
  C 556.48 124.95 556.51 122.02 556.91 119.22
  Q 558.14 110.41 559.22 101.08
  Q 560.78 87.66 550.91 78.75
  Q 545.65 74.01 538.62 68.46
  Q 533.00 64.03 528.27 62.48
  Q 521.50 60.25 514.89 57.35
  C 509.10 54.81 503.74 50.39 498.29 47.07
  Q 496.15 45.77 494.66 43.52
  C 491.52 38.79 482.33 29.17 475.46 30.57
  Q 469.00 31.90 462.31 33.02
  Q 456.53 33.99 436.72 40.16
  Q 432.53 41.46 429.69 42.00
  Q 425.90 42.71 422.65 43.92
  C 415.99 46.39 409.09 48.36 402.41 50.64
  C 399.19 51.73 395.55 51.99 392.59 53.66
  C 384.98 57.95 377.91 62.99 372.83 70.77
  A 2.06 2.05 -33.9 0 0 372.53 72.29
  Q 372.94 74.51 370.89 75.85
  Q 370.19 76.31 370.28 77.14
  Q 370.56 79.54 369.53 81.97
  Q 369.13 82.91 369.00 81.90
  Z"
/>
<path fill="#111111" d="
  M 301.83 433.07
  L 301.66 433.47
  Q 301.45 433.95 301.97 433.97
  Q 303.84 434.06 304.91 434.88
  A 0.80 0.80 0.0 0 1 304.45 436.31
  Q 301.98 436.41 299.91 435.95
  Q 298.29 435.59 298.79 434.01
  Q 300.08 429.87 304.24 430.50
  C 307.90 431.07 311.50 432.22 314.25 434.90
  C 318.23 438.78 323.12 445.18 322.24 450.24
  C 321.63 453.79 318.91 455.64 318.61 459.57
  C 318.27 464.14 315.36 466.47 313.16 470.14
  C 310.06 475.32 303.64 480.35 297.61 481.44
  Q 286.14 483.52 276.09 478.07
  C 272.32 476.02 270.15 472.59 269.06 468.61
  C 268.24 465.64 266.18 457.51 262.32 457.57
  Q 258.31 457.64 255.41 456.79
  Q 247.99 454.62 238.74 451.24
  Q 234.16 449.57 229.97 447.40
  C 225.98 445.35 221.77 443.42 218.03 440.81
  Q 203.76 430.84 197.72 413.42
  Q 195.40 406.74 193.65 400.06
  A 0.95 0.94 75.8 0 0 192.52 399.38
  C 187.93 400.42 183.59 401.93 178.73 402.26
  C 173.33 402.61 165.88 403.07 161.29 399.94
  Q 153.39 394.56 148.34 388.36
  C 144.62 383.81 142.88 377.87 140.14 372.78
  C 136.53 366.09 136.10 358.52 139.60 351.81
  Q 143.32 344.68 145.08 338.10
  Q 145.96 334.79 143.13 332.22
  Q 138.00 327.59 133.10 324.78
  C 123.35 319.18 117.83 311.57 121.02 299.60
  Q 122.75 293.09 124.78 286.26
  Q 125.74 283.00 128.12 280.16
  Q 132.36 275.13 136.58 268.70
  C 138.11 266.36 139.18 264.14 139.29 261.27
  C 139.43 257.15 140.14 251.90 137.42 248.68
  C 134.25 244.92 129.98 241.58 127.79 237.20
  C 125.71 233.01 122.57 225.93 123.00 220.87
  Q 123.85 210.94 127.51 204.38
  C 131.69 196.92 138.22 189.04 143.34 181.15
  Q 146.98 175.53 149.27 173.42
  Q 153.35 169.65 156.29 166.01
  Q 159.66 161.85 163.08 158.67
  Q 168.84 153.30 175.35 145.35
  C 178.87 141.06 181.47 132.78 177.82 127.86
  Q 177.59 127.55 173.62 123.68
  C 171.70 121.80 169.97 119.83 167.69 118.41
  Q 162.72 115.32 157.75 112.20
  Q 154.49 110.15 155.04 107.21
  C 155.77 103.25 159.15 98.50 161.65 95.54
  C 165.17 91.36 170.27 88.44 174.86 85.10
  Q 177.66 83.07 180.70 81.53
  Q 194.49 74.56 205.62 67.84
  Q 210.72 64.76 215.17 59.48
  Q 217.66 56.53 220.72 54.06
  Q 227.84 48.33 234.79 42.62
  Q 244.86 34.34 257.90 27.20
  C 260.42 25.82 263.21 24.35 266.07 23.85
  Q 272.44 22.75 279.11 21.21
  C 288.76 18.99 297.57 20.84 306.78 22.79
  C 311.39 23.77 315.10 26.16 319.47 27.57
  Q 326.34 29.78 328.24 30.81
  Q 336.21 35.12 345.12 39.29
  Q 348.32 40.79 352.95 44.99
  Q 358.32 49.86 362.89 55.10
  C 366.29 59.00 369.39 68.58 364.21 72.60
  Q 363.58 73.09 363.75 72.31
  C 364.40 69.33 364.32 66.97 363.17 63.94
  Q 359.20 53.46 350.64 47.57
  Q 336.06 37.55 331.71 35.74
  Q 326.28 33.48 320.43 30.42
  C 318.64 29.49 316.48 28.81 314.47 28.34
  Q 304.09 25.86 294.33 24.10
  C 287.02 22.78 276.62 22.97 269.42 25.85
  C 261.12 29.18 253.21 32.35 245.70 37.42
  Q 231.39 47.10 220.88 58.09
  C 218.98 60.07 216.58 61.33 214.54 63.21
  Q 209.90 67.51 204.64 71.39
  Q 200.10 74.73 193.63 78.16
  Q 179.44 85.69 171.25 91.27
  Q 165.80 94.98 160.75 100.27
  Q 158.48 102.65 157.55 105.60
  A 2.22 2.21 -64.2 0 0 158.41 108.08
  Q 163.82 111.77 168.87 116.08
  C 171.90 118.66 176.66 120.20 178.52 123.80
  Q 179.97 126.58 181.21 129.42
  Q 183.16 133.90 181.58 138.63
  Q 179.62 144.49 175.31 150.12
  Q 168.38 159.17 160.26 166.69
  C 154.77 171.77 151.48 177.84 146.33 183.04
  Q 138.76 190.70 132.60 200.41
  C 130.45 203.81 129.12 207.82 127.32 211.58
  C 124.81 216.82 124.71 221.94 126.98 227.59
  Q 129.01 232.63 131.46 235.55
  C 134.94 239.69 140.36 244.63 141.37 250.23
  C 141.96 253.52 143.02 257.28 142.14 260.50
  C 140.48 266.56 138.29 271.89 134.70 277.33
  Q 130.76 283.31 127.25 289.26
  C 124.13 294.55 122.42 302.02 124.12 308.19
  C 124.93 311.14 125.07 313.84 127.12 316.39
  C 130.77 320.92 136.03 324.24 141.44 326.85
  C 147.26 329.67 151.03 334.25 148.78 341.10
  Q 148.00 343.46 146.57 345.31
  C 137.40 357.19 142.42 376.14 150.82 386.55
  Q 154.67 391.32 159.02 393.75
  C 161.66 395.22 164.30 397.07 167.24 397.66
  Q 174.90 399.22 181.25 398.66
  C 184.81 398.36 187.87 396.41 191.29 395.52
  C 199.07 393.49 197.71 403.87 198.84 408.21
  C 201.81 419.65 207.74 430.06 217.62 436.15
  C 222.38 439.08 226.57 442.76 231.74 444.94
  C 238.04 447.60 244.50 450.36 251.02 452.28
  C 255.21 453.50 259.40 453.07 263.59 453.33
  Q 266.59 453.53 267.57 456.18
  C 268.68 459.20 269.34 462.26 271.08 465.07
  C 273.29 468.64 274.18 473.21 277.42 475.86
  Q 280.62 478.47 284.00 478.58
  C 291.39 478.83 299.38 478.72 304.96 473.24
  Q 307.85 470.40 311.48 467.37
  C 313.83 465.39 313.15 463.24 314.43 460.89
  C 316.96 456.24 319.80 451.31 317.72 446.08
  Q 316.13 442.06 313.78 438.79
  Q 310.01 433.55 302.54 432.66
  A 0.69 0.68 14.8 0 0 301.83 433.07
  Z"
/>
<path fill="#111111" d="
  M 369.53 81.97
  Q 370.56 79.54 370.28 77.14
  Q 370.19 76.31 370.89 75.85
  Q 372.94 74.51 372.53 72.29
  A 2.06 2.05 -33.9 0 1 372.83 70.77
  C 377.91 62.99 384.98 57.95 392.59 53.66
  C 395.55 51.99 399.19 51.73 402.41 50.64
  C 409.09 48.36 415.99 46.39 422.65 43.92
  Q 425.90 42.71 429.69 42.00
  Q 432.53 41.46 436.72 40.16
  Q 456.53 33.99 462.31 33.02
  Q 469.00 31.90 475.46 30.57
  C 482.33 29.17 491.52 38.79 494.66 43.52
  Q 496.15 45.77 498.29 47.07
  C 503.74 50.39 509.10 54.81 514.89 57.35
  Q 521.50 60.25 528.27 62.48
  Q 533.00 64.03 538.62 68.46
  Q 545.65 74.01 550.91 78.75
  Q 560.78 87.66 559.22 101.08
  Q 558.14 110.41 556.91 119.22
  C 556.51 122.02 556.48 124.95 555.59 127.60
  C 554.72 130.19 555.07 133.10 556.16 135.43
  Q 559.37 142.32 562.73 149.45
  C 563.91 151.94 566.08 153.27 567.28 155.64
  Q 569.13 159.29 571.39 163.06
  C 575.13 169.31 576.65 176.90 578.87 183.80
  Q 580.28 188.20 580.72 192.85
  Q 581.19 197.84 581.87 203.07
  Q 582.44 207.44 581.56 211.51
  C 580.43 216.78 580.21 222.29 578.75 227.45
  C 576.51 235.40 573.19 243.49 573.84 251.98
  Q 574.09 255.30 576.78 259.60
  Q 580.56 265.63 584.59 271.49
  C 588.83 277.66 588.90 284.40 590.04 291.47
  Q 590.44 293.92 590.15 296.53
  Q 588.73 309.30 584.27 317.83
  C 581.55 323.06 575.81 326.18 571.06 329.28
  Q 566.00 332.59 562.02 339.33
  C 559.22 344.08 561.84 349.19 564.54 353.17
  C 568.51 359.01 571.97 365.78 572.85 372.82
  C 573.50 378.04 575.10 384.83 571.96 389.17
  C 569.55 392.51 568.13 396.45 565.75 399.71
  C 564.03 402.07 561.71 404.14 559.07 405.38
  Q 554.83 407.37 550.84 409.55
  C 545.81 412.31 540.49 413.71 534.98 415.05
  C 530.12 416.23 526.02 416.64 520.81 415.63
  Q 510.48 413.62 500.27 411.20
  C 493.52 409.59 491.73 413.97 490.87 419.43
  Q 489.78 426.40 487.54 432.31
  C 484.71 439.77 480.16 443.05 472.68 444.58
  C 468.66 445.41 464.95 447.12 461.09 448.00
  Q 451.82 450.11 441.16 449.22
  Q 439.21 449.06 437.24 448.32
  Q 426.47 444.28 415.68 438.57
  A 0.74 0.73 18.5 0 0 414.61 439.10
  C 413.74 444.69 412.86 454.34 416.90 458.51
  Q 423.68 465.49 430.07 468.81
  C 437.37 472.60 442.65 476.36 448.27 481.11
  C 452.83 484.96 447.21 490.35 443.60 491.97
  C 439.07 493.99 435.14 495.15 430.11 495.75
  Q 411.18 497.99 405.19 498.07
  Q 392.27 498.24 379.25 499.77
  Q 371.17 500.71 363.36 503.77
  A 0.90 0.89 -30.8 0 0 363.00 505.18
  Q 363.67 505.98 364.73 506.26
  C 375.78 509.18 387.26 508.27 398.54 508.11
  C 400.48 508.08 401.52 509.95 400.51 511.66
  Q 399.82 512.81 398.90 513.67
  C 389.16 522.81 372.88 539.48 375.85 554.09
  Q 376.40 556.80 376.23 559.37
  A 1.02 1.01 2.7 0 1 375.19 560.31
  L 374.87 560.30
  Q 373.48 560.26 373.37 558.87
  Q 372.73 551.19 373.32 544.18
  Q 373.62 540.65 375.73 537.53
  C 382.02 528.20 387.73 518.84 397.01 511.93
  Q 399.03 510.43 396.51 510.54
  Q 387.04 510.96 374.18 509.69
  Q 367.96 509.07 362.26 506.66
  A 2.16 2.16 0.0 0 1 361.30 503.47
  C 363.39 500.35 369.04 498.48 372.50 497.72
  C 379.01 496.31 385.53 495.98 392.08 496.13
  Q 406.18 496.45 420.20 495.31
  Q 428.91 494.60 438.35 491.15
  Q 442.95 489.47 446.05 485.56
  Q 447.23 484.08 445.98 482.55
  C 442.69 478.53 438.75 476.22 434.16 474.10
  C 429.36 471.88 424.82 468.26 420.51 465.35
  Q 412.31 459.81 411.96 449.64
  Q 411.76 444.02 411.54 438.29
  Q 411.52 437.76 411.00 437.75
  L 408.74 437.68
  A 1.01 1.00 89.4 0 1 407.77 436.73
  Q 407.51 431.82 412.24 432.50
  C 413.18 432.63 414.35 433.37 414.90 434.12
  C 418.44 438.90 425.12 437.96 429.92 441.19
  Q 436.15 445.38 440.90 446.36
  Q 446.17 447.44 452.13 446.14
  C 457.27 445.03 462.20 444.38 467.48 443.51
  Q 473.51 442.51 478.71 439.40
  Q 481.67 437.64 482.57 434.05
  Q 484.39 426.89 486.12 419.47
  C 487.09 415.28 490.53 408.28 495.72 408.41
  C 504.73 408.64 513.20 409.97 523.87 411.93
  C 525.87 412.30 528.35 412.00 530.42 411.58
  Q 541.91 409.30 546.24 408.05
  C 554.48 405.66 560.70 399.34 566.40 393.16
  C 568.02 391.41 568.99 389.12 569.10 386.70
  C 569.34 381.23 570.08 375.86 568.50 370.49
  Q 565.39 359.90 558.40 349.44
  Q 554.09 342.99 559.30 336.26
  Q 565.01 328.90 575.45 321.54
  C 581.81 317.06 583.78 310.71 585.08 303.40
  Q 586.28 296.71 586.01 288.40
  Q 585.89 284.61 584.68 281.54
  Q 582.46 275.90 579.96 269.98
  Q 578.93 267.52 577.28 265.47
  C 571.59 258.37 568.40 251.18 570.76 241.99
  Q 573.08 232.91 576.17 223.00
  C 577.35 219.22 578.20 215.50 577.97 211.51
  Q 577.69 206.58 578.39 200.58
  C 578.96 195.80 576.60 191.86 576.05 187.20
  C 575.36 181.35 573.59 175.83 570.60 170.60
  Q 567.28 164.77 564.19 159.20
  C 562.54 156.22 561.85 152.83 559.84 150.12
  C 556.07 145.01 552.45 139.33 552.50 133.00
  C 552.53 129.08 551.97 125.40 552.77 121.45
  Q 553.74 116.67 555.22 112.23
  Q 556.19 109.32 556.12 106.27
  Q 555.98 100.14 555.33 94.61
  Q 554.67 89.04 551.17 84.63
  C 544.48 76.18 534.96 69.81 524.85 64.38
  Q 520.62 62.11 516.23 60.51
  Q 511.60 58.83 506.69 56.70
  Q 500.91 54.20 498.02 50.59
  Q 496.14 48.25 494.07 46.33
  Q 487.77 40.51 481.83 35.52
  C 478.12 32.41 471.22 33.23 466.94 34.47
  Q 457.24 37.28 447.59 39.96
  C 442.16 41.47 436.76 42.41 431.69 44.44
  Q 428.10 45.88 424.21 46.79
  Q 414.01 49.19 404.02 52.20
  C 400.15 53.36 396.71 55.50 393.14 57.41
  Q 382.77 62.93 376.09 72.89
  A 0.35 0.35 0.0 0 0 376.43 73.43
  C 381.43 72.76 387.00 75.71 391.68 77.50
  C 393.06 78.03 393.66 79.16 393.92 80.54
  A 1.96 1.93 -70.1 0 0 394.33 81.43
  Q 398.36 86.26 403.73 82.80
  Q 404.18 82.51 404.72 82.53
  Q 408.01 82.67 411.34 83.19
  Q 413.88 83.58 417.21 85.43
  Q 422.85 88.57 429.44 91.38
  Q 446.02 98.45 460.67 110.09
  Q 464.49 113.13 468.19 117.51
  C 472.75 122.90 477.89 127.06 479.76 134.26
  C 482.18 143.59 484.32 152.73 487.25 161.96
  Q 491.82 176.38 495.64 191.01
  Q 496.17 193.04 497.73 196.16
  Q 499.41 199.53 499.22 205.14
  C 499.12 208.06 500.36 210.50 500.64 213.34
  Q 501.12 218.22 501.28 223.23
  C 501.42 227.74 502.57 232.00 503.25 236.29
  Q 504.44 243.83 503.42 250.35
  Q 502.56 255.89 503.28 259.94
  Q 503.81 262.91 503.45 265.15
  Q 501.58 276.90 499.63 286.22
  C 498.09 293.58 494.00 300.52 490.57 307.17
  C 488.46 311.27 487.49 315.73 485.56 319.90
  Q 482.25 327.03 479.43 335.84
  Q 478.79 337.83 477.72 339.70
  Q 472.29 349.24 466.44 357.82
  C 461.51 365.04 458.05 372.96 453.11 380.27
  Q 450.81 383.69 448.80 388.91
  Q 447.23 392.98 443.76 396.84
  C 437.45 403.89 430.33 410.97 422.47 416.44
  Q 418.31 419.33 414.33 422.85
  Q 413.87 423.26 414.14 423.81
  Q 414.40 424.35 415.00 424.52
  A 0.83 0.82 25.4 0 1 415.45 425.78
  C 414.26 427.52 411.16 427.61 409.28 427.55
  Q 408.82 427.54 408.43 427.77
  C 403.21 430.86 398.52 433.88 392.60 435.89
  Q 381.92 439.53 371.64 443.11
  C 365.47 445.26 358.23 444.34 351.86 443.23
  C 347.13 442.41 344.68 439.13 339.32 440.85
  C 338.09 441.25 336.20 441.05 336.32 439.29
  C 336.42 437.77 335.60 436.52 334.11 436.09
  Q 333.32 435.86 333.71 436.59
  C 334.43 437.95 335.17 439.21 335.65 440.69
  C 338.52 449.64 342.37 460.68 339.10 470.28
  Q 337.96 473.61 337.10 477.13
  C 335.79 482.46 332.36 486.87 329.42 491.48
  Q 327.33 494.76 325.11 497.21
  Q 319.67 503.23 314.40 509.40
  C 313.84 510.06 312.85 510.24 312.13 509.72
  A 1.16 1.16 0.0 0 1 311.76 508.24
  Q 313.33 505.17 315.47 502.60
  Q 325.71 490.33 331.86 481.59
  C 334.31 478.11 336.87 473.38 336.77 468.89
  C 336.53 457.78 334.09 446.18 330.58 436.26
  C 329.95 434.49 329.01 433.39 327.41 432.39
  Q 311.50 422.49 300.99 407.59
  C 299.27 405.15 298.31 402.50 296.32 400.14
  Q 284.97 386.70 274.54 370.95
  Q 273.20 368.93 271.62 367.35
  Q 264.97 360.67 259.05 354.12
  Q 256.86 351.69 254.87 348.42
  C 253.84 346.72 252.08 345.94 250.96 344.35
  C 246.53 338.04 244.57 330.92 241.04 323.87
  Q 237.44 316.65 234.63 307.22
  Q 233.41 303.14 233.13 298.28
  C 232.90 294.35 232.45 290.14 231.61 286.29
  Q 229.27 275.52 228.91 263.58
  Q 228.78 259.60 229.39 254.65
  C 230.11 248.74 229.65 242.30 229.31 236.26
  C 229.20 234.28 227.53 231.23 226.17 229.42
  C 224.92 227.76 222.23 224.22 222.38 222.13
  Q 222.62 218.79 224.17 215.88
  C 226.88 210.81 230.69 204.27 235.66 201.55
  Q 241.50 198.36 246.73 194.79
  C 248.76 193.39 251.03 192.44 253.37 191.67
  Q 254.85 191.18 256.18 190.17
  C 260.98 186.56 265.69 183.45 271.49 181.67
  Q 275.22 180.53 277.94 177.18
  Q 283.33 170.56 287.07 162.47
  Q 290.22 155.66 290.23 155.63
  C 294.52 146.97 297.87 138.84 303.87 130.79
  Q 305.93 128.03 308.85 125.61
  C 313.38 121.86 317.27 118.30 323.07 116.37
  C 327.25 114.99 331.63 113.54 336.08 112.99
  C 340.99 112.38 346.34 112.63 350.94 110.83
  Q 359.56 107.46 365.15 100.73
  Q 366.66 98.92 366.90 96.09
  Q 367.56 88.14 366.57 82.91
  Q 365.99 79.87 365.86 76.51
  A 0.62 0.61 75.9 0 0 364.98 75.98
  L 362.80 77.04
  A 0.59 0.58 -8.6 0 1 361.97 76.43
  Q 362.20 74.90 363.37 73.62
  Q 363.75 73.20 364.12 73.63
  Q 364.86 74.50 365.99 74.27
  Q 366.52 74.16 366.92 74.51
  C 369.55 76.80 368.63 78.88 369.00 81.90
  Q 369.13 82.91 369.53 81.97
  Z
  M 390.45 382.35
  Q 390.14 382.29 389.90 382.49
  Q 389.65 382.70 389.51 382.99
  C 386.41 389.84 380.77 396.37 373.16 397.33
  A 1.43 1.43 0.0 0 0 371.98 398.33
  Q 368.56 409.60 361.39 419.52
  Q 358.79 423.10 356.48 426.78
  Q 355.77 427.90 356.81 427.08
  L 360.04 424.55
  Q 361.41 423.47 362.72 424.61
  Q 362.94 424.81 363.06 425.09
  Q 363.61 426.35 362.55 427.23
  Q 356.33 432.42 348.15 436.95
  Q 347.04 437.56 348.08 438.29
  Q 349.52 439.28 351.51 439.59
  C 357.67 440.53 364.49 441.82 370.52 439.61
  C 377.45 437.06 384.38 434.19 391.36 431.80
  Q 396.73 429.97 399.08 428.54
  Q 403.77 425.69 408.59 423.30
  C 411.00 422.11 414.32 420.12 415.86 418.61
  Q 421.80 412.78 427.52 407.71
  Q 435.03 401.06 438.90 396.58
  Q 445.31 389.17 449.87 381.43
  C 451.93 377.95 452.24 374.01 454.65 370.63
  Q 459.15 364.31 462.34 358.10
  Q 465.03 352.88 468.09 348.29
  C 471.69 342.91 474.00 336.66 477.46 331.23
  Q 479.86 327.46 481.48 321.71
  C 482.21 319.11 482.75 316.56 484.03 314.22
  C 487.19 308.42 488.69 302.07 491.69 296.31
  C 495.80 288.42 499.06 280.22 499.19 271.17
  Q 499.26 265.89 499.82 260.69
  Q 500.35 255.79 500.01 251.66
  C 499.61 246.76 499.96 242.03 499.16 237.08
  Q 496.84 222.85 496.49 212.61
  Q 496.34 208.10 495.37 204.44
  C 494.06 199.46 495.05 194.76 492.42 190.09
  Q 491.33 188.15 490.54 185.68
  Q 488.77 180.09 487.45 174.98
  C 485.61 167.80 482.37 160.84 480.49 153.37
  Q 478.32 144.79 476.10 135.98
  C 473.93 127.41 470.44 120.99 462.31 116.80
  C 457.63 114.39 455.42 110.16 451.50 107.09
  Q 442.07 99.68 431.13 96.51
  C 426.47 95.16 423.02 92.59 419.28 89.84
  C 416.54 87.83 413.32 88.06 410.16 87.19
  Q 406.47 86.18 403.00 85.65
  C 396.64 84.68 390.70 81.93 384.97 78.90
  C 382.37 77.52 374.37 75.53 373.74 80.40
  Q 372.38 90.84 371.42 100.73
  Q 370.44 110.92 371.85 126.19
  C 372.55 133.79 375.94 141.85 377.02 150.02
  Q 377.78 155.83 379.24 161.60
  Q 380.22 165.49 380.52 169.31
  C 381.06 176.18 381.49 186.80 387.86 191.01
  Q 389.91 192.37 393.43 192.07
  Q 397.34 191.75 401.77 191.69
  A 1.36 1.35 10.2 0 0 403.02 190.83
  Q 405.38 184.74 410.65 180.74
  Q 414.56 177.78 419.48 179.02
  Q 429.13 181.45 436.23 184.62
  Q 437.41 185.15 438.72 185.13
  C 447.70 184.96 458.05 186.92 464.01 194.23
  C 465.92 196.57 464.64 199.37 461.78 199.85
  Q 456.98 200.63 453.34 198.84
  Q 445.80 195.12 439.58 190.36
  C 435.80 187.46 429.14 189.15 425.04 190.34
  C 419.36 191.99 413.29 193.27 407.88 194.23
  Q 404.85 194.77 407.58 196.18
  Q 411.23 198.07 415.72 196.45
  C 419.63 195.04 431.84 189.41 435.30 192.45
  Q 436.95 193.91 437.59 196.14
  Q 440.52 206.30 442.84 218.27
  C 443.14 219.81 442.77 221.23 442.27 222.67
  Q 442.04 223.32 442.69 223.54
  Q 453.48 227.25 462.14 234.84
  Q 467.12 239.20 471.52 243.42
  Q 473.82 245.62 477.78 245.57
  Q 479.37 245.55 479.26 247.14
  L 479.22 247.78
  Q 479.07 249.87 477.00 250.07
  Q 472.83 250.49 468.51 251.03
  Q 462.19 251.82 455.11 250.21
  C 449.35 248.91 442.35 248.51 436.09 246.50
  Q 432.52 245.36 428.70 244.98
  Q 422.22 244.34 415.82 243.73
  A 1.77 1.74 20.9 0 0 414.23 244.43
  Q 411.82 247.68 407.46 246.56
  Q 401.74 245.10 395.94 244.03
  Q 391.76 243.26 385.03 243.46
  C 380.86 243.58 379.12 247.75 378.51 251.19
  C 377.55 256.60 377.05 262.06 377.42 267.51
  Q 377.80 273.03 375.80 278.48
  C 373.14 285.76 374.63 294.14 371.22 301.08
  Q 368.02 307.57 366.36 315.52
  A 0.89 0.88 7.2 0 0 367.19 316.58
  Q 370.80 316.77 373.94 317.16
  C 378.56 317.74 385.59 323.34 382.93 329.14
  C 381.22 332.84 378.96 336.96 375.27 338.95
  Q 374.71 339.26 374.56 339.88
  Q 373.56 344.10 371.40 347.97
  C 368.72 352.78 367.02 358.06 366.31 363.58
  Q 366.24 364.11 366.77 364.16
  Q 372.51 364.71 377.69 365.99
  Q 383.95 367.55 387.42 372.09
  Q 387.91 372.72 388.60 372.33
  Q 390.91 371.02 393.74 370.53
  C 396.00 370.15 396.84 372.46 396.37 374.21
  Q 395.30 378.21 392.45 381.64
  A 2.15 2.06 24.3 0 1 390.45 382.35
  Z
  M 268.01 265.27
  Q 266.45 264.90 266.56 264.31
  Q 267.09 261.65 264.11 261.67
  Q 261.84 261.69 261.84 260.03
  C 261.84 258.60 261.43 257.89 260.53 256.90
  A 1.02 1.01 -26.6 0 1 261.09 255.23
  Q 263.73 254.71 266.53 254.81
  C 271.04 254.96 276.96 248.64 279.42 245.25
  C 280.01 244.44 281.14 243.69 282.03 243.22
  C 292.66 237.67 306.34 234.01 318.04 237.32
  Q 319.59 237.77 319.40 236.16
  Q 319.08 233.44 318.87 231.70
  Q 318.67 230.01 317.05 229.49
  Q 308.56 226.80 301.20 226.60
  Q 284.39 226.13 268.57 222.80
  C 265.14 222.08 260.86 219.82 259.30 216.33
  A 1.41 1.36 39.8 0 1 259.21 215.49
  Q 259.66 213.29 262.29 211.88
  Q 272.74 206.28 283.21 207.33
  Q 292.92 208.31 301.93 206.97
  Q 302.87 206.84 302.27 206.10
  C 298.25 201.14 296.48 193.10 302.14 188.50
  A 0.46 0.45 29.8 0 0 301.92 187.70
  Q 297.94 187.06 293.21 187.26
  Q 285.74 187.59 279.50 188.47
  C 271.49 189.59 261.70 187.61 255.01 193.23
  Q 253.03 194.90 250.77 196.03
  Q 243.39 199.75 236.78 204.91
  Q 236.17 205.38 235.96 206.16
  Q 233.16 216.20 234.32 226.56
  Q 234.39 227.17 234.85 227.57
  C 242.25 233.91 248.99 239.75 254.05 248.30
  C 257.36 253.91 260.96 259.48 263.19 265.42
  Q 267.59 277.15 269.28 289.25
  Q 269.74 292.53 269.86 295.79
  C 269.98 299.23 269.90 303.05 271.06 306.32
  Q 271.91 308.70 271.91 310.06
  Q 271.94 318.94 272.54 321.99
  Q 275.80 338.42 280.91 352.54
  Q 282.62 357.25 284.47 364.48
  Q 287.86 377.75 295.23 390.27
  C 299.79 398.03 306.34 405.79 311.93 413.15
  Q 313.28 414.93 315.34 416.29
  Q 315.82 416.61 316.28 416.27
  L 317.28 415.54
  Q 317.74 415.21 318.30 415.26
  C 322.45 415.65 325.26 420.44 327.18 423.67
  C 330.04 428.49 337.07 430.48 341.99 429.54
  C 350.49 427.92 355.40 423.20 359.54 415.42
  Q 363.58 407.83 365.94 398.77
  A 1.06 1.06 0.0 0 0 365.09 397.46
  Q 359.04 396.45 353.18 394.10
  Q 348.81 392.34 345.19 386.60
  C 343.97 384.66 345.52 382.68 344.99 380.68
  C 343.10 373.49 347.91 371.54 353.45 369.50
  Q 354.88 368.97 356.14 367.95
  Q 358.81 365.80 361.49 363.96
  A 3.16 3.14 -11.9 0 0 362.82 361.93
  C 363.54 358.07 364.34 354.42 366.80 351.16
  C 369.24 347.91 370.02 343.43 371.47 339.65
  Q 371.73 338.95 370.99 338.95
  Q 363.92 338.96 360.37 332.99
  A 0.94 0.93 -23.7 0 0 359.30 332.58
  Q 356.76 333.33 354.31 334.22
  C 351.31 335.32 340.71 337.67 342.68 330.82
  C 344.27 325.32 352.61 321.58 357.03 317.90
  Q 359.09 316.18 361.66 316.04
  A 0.80 0.79 -87.2 0 0 362.39 315.37
  C 363.07 311.06 364.19 306.47 366.33 302.69
  C 369.12 297.75 370.65 292.88 371.82 287.24
  C 373.22 280.54 373.11 273.06 373.22 266.08
  C 373.34 259.32 375.34 253.21 377.18 246.87
  C 379.16 240.08 385.64 239.03 392.04 240.14
  C 395.61 240.75 399.03 240.13 402.55 241.21
  A 1.39 1.38 26.0 0 0 404.11 240.68
  Q 408.52 234.41 413.93 228.91
  Q 416.26 226.54 421.87 224.44
  C 427.19 222.45 432.92 222.95 438.48 222.24
  Q 438.94 222.18 438.97 221.72
  Q 439.09 219.72 438.75 217.90
  Q 437.47 211.17 435.83 202.37
  Q 435.21 199.03 434.06 196.22
  A 2.68 2.68 0.0 0 0 430.80 194.66
  Q 424.02 196.70 417.44 198.78
  C 412.20 200.44 406.96 200.33 403.60 195.58
  A 1.22 1.22 0.0 0 0 402.38 195.08
  C 392.86 196.87 381.32 193.90 378.77 183.05
  Q 376.74 174.44 375.91 165.02
  Q 374.82 152.70 374.07 148.50
  Q 372.31 138.61 369.96 129.01
  Q 367.56 119.19 366.97 108.38
  C 366.88 106.82 367.23 105.18 367.18 103.62
  Q 367.15 102.71 366.74 103.52
  C 364.44 108.00 357.77 113.08 353.48 113.69
  Q 343.23 115.15 332.44 116.49
  Q 325.21 117.40 321.12 119.48
  Q 314.36 122.92 310.94 127.49
  C 306.70 133.14 302.34 138.05 298.47 144.85
  C 295.03 150.89 292.12 157.66 289.44 164.23
  C 285.63 173.60 279.24 181.23 270.55 185.67
  Q 269.59 186.16 270.67 186.13
  C 271.77 186.11 272.88 185.68 273.94 185.61
  Q 288.28 184.70 302.60 186.17
  Q 304.48 186.36 306.38 185.72
  C 313.99 183.17 322.10 185.68 329.25 189.36
  Q 334.92 192.29 337.20 196.76
  C 339.09 200.49 338.73 204.83 334.85 206.57
  Q 333.78 207.05 332.74 207.58
  A 1.38 1.37 -3.0 0 0 332.07 208.32
  C 330.59 212.20 328.82 214.62 324.17 214.89
  Q 319.80 215.16 315.14 214.90
  Q 311.14 214.67 308.08 212.15
  Q 306.37 210.74 304.54 210.62
  Q 299.34 210.29 294.00 209.68
  Q 291.69 209.41 289.37 209.67
  Q 279.35 210.80 270.89 211.63
  Q 266.93 212.02 262.43 214.59
  Q 261.90 214.89 261.95 215.50
  Q 262.09 217.18 263.92 217.61
  Q 268.48 218.69 273.05 220.54
  C 279.78 223.27 287.16 223.09 294.40 223.30
  C 297.14 223.38 300.65 224.40 303.78 224.60
  Q 309.84 225.01 315.56 226.08
  C 322.68 227.41 322.29 231.67 322.57 237.44
  A 0.82 0.81 -87.0 0 0 323.26 238.21
  Q 327.53 238.82 331.72 240.13
  C 334.87 241.11 337.82 242.65 340.96 243.89
  C 344.88 245.44 342.25 248.04 340.59 249.84
  Q 339.52 251.01 340.97 251.66
  Q 343.78 252.91 343.72 255.01
  A 1.88 1.88 0.0 0 1 340.97 256.63
  Q 338.72 255.46 336.72 253.41
  Q 336.40 253.10 335.98 253.24
  Q 331.41 254.77 327.15 257.15
  C 322.44 259.78 317.42 258.98 312.54 260.86
  C 305.79 263.47 297.79 260.15 290.64 260.58
  Q 285.85 260.87 280.54 260.45
  Q 279.96 260.40 279.48 260.71
  L 278.37 261.42
  Q 277.93 261.69 277.45 261.52
  Q 274.98 260.64 272.31 260.70
  Q 271.71 260.72 271.41 261.23
  L 269.43 264.65
  A 1.31 1.31 0.0 0 1 268.01 265.27
  Z
  M 413.94 183.70
  C 410.12 184.46 407.68 187.48 405.64 190.52
  Q 405.22 191.15 405.98 191.12
  C 415.10 190.77 423.70 188.00 432.12 186.06
  Q 433.14 185.83 432.18 185.42
  Q 423.49 181.80 413.94 183.70
  Z
  M 321.94 190.35
  Q 320.06 189.48 318.12 189.23
  Q 316.23 188.99 317.90 189.91
  C 322.16 192.26 325.68 195.14 327.96 199.26
  Q 329.12 201.35 330.65 203.30
  Q 331.02 203.77 331.61 203.67
  Q 335.83 202.98 335.21 199.46
  C 334.64 196.19 331.85 194.07 328.86 193.09
  Q 325.38 191.95 321.94 190.35
  Z
  M 457.15 191.72
  A 0.63 0.63 0.0 0 0 456.91 191.61
  L 445.81 189.03
  A 0.63 0.63 0.0 0 0 445.33 190.18
  L 457.00 197.60
  A 0.63 0.63 0.0 0 0 457.32 197.69
  L 463.33 197.86
  A 0.63 0.63 0.0 0 0 463.72 196.73
  L 457.15 191.72
  Z
  M 324.30 196.94
  C 320.67 192.87 314.58 191.49 309.61 189.88
  Q 307.18 189.09 305.04 191.02
  Q 301.63 194.10 302.61 198.22
  C 303.20 200.73 305.56 206.74 308.74 206.82
  Q 317.21 207.02 324.63 206.62
  Q 326.50 206.52 328.18 205.34
  Q 328.68 204.99 328.38 204.45
  C 327.00 201.95 326.20 199.07 324.30 196.94
  Z
  M 312.40 211.52
  C 316.58 212.67 324.39 212.99 327.57 209.34
  Q 328.37 208.42 327.17 208.62
  Q 323.79 209.17 320.20 209.99
  C 317.47 210.61 314.74 210.56 311.95 210.54
  A 0.30 0.30 0.0 0 0 311.70 211.00
  Q 311.96 211.39 312.40 211.52
  Z
  M 229.82 222.95
  A 0.82 0.82 0.0 0 0 231.26 222.48
  L 232.22 210.75
  A 0.82 0.82 0.0 0 0 230.74 210.20
  L 225.74 217.14
  A 0.82 0.82 0.0 0 0 225.78 218.15
  L 229.82 222.95
  Z
  M 229.77 230.66
  Q 230.05 231.18 230.21 230.60
  Q 230.89 227.99 229.91 226.43
  Q 228.41 224.04 226.04 221.85
  Q 225.12 221.00 225.62 222.15
  Q 227.48 226.45 229.77 230.66
  Z
  M 432.97 242.68
  Q 430.83 241.27 429.06 239.72
  C 426.15 237.18 426.66 232.83 428.61 229.78
  Q 429.12 228.99 428.20 229.19
  Q 426.62 229.52 424.94 229.32
  C 420.20 228.75 417.10 235.08 414.94 238.36
  Q 414.17 239.53 415.57 239.60
  Q 424.83 240.06 432.87 242.88
  Q 433.73 243.18 432.97 242.68
  Z
  M 295.46 394.83
  L 295.66 394.67
  Q 295.84 394.54 295.72 394.35
  Q 289.31 384.06 285.33 373.70
  C 283.22 368.22 281.07 362.65 279.59 356.89
  Q 277.43 348.50 274.23 339.02
  Q 272.83 334.85 271.71 330.67
  C 270.71 326.95 270.79 323.50 270.78 319.79
  C 270.78 316.61 268.77 314.05 268.82 310.76
  Q 269.09 294.40 264.23 276.79
  C 262.76 271.47 260.34 266.47 258.38 261.36
  C 256.99 257.74 255.13 254.39 253.43 250.93
  C 249.36 242.65 241.61 235.84 234.19 230.00
  Q 233.64 229.57 233.70 230.26
  C 233.98 233.87 232.93 236.87 233.75 240.56
  Q 236.28 251.86 235.73 262.97
  C 235.36 270.56 235.42 278.32 235.25 286.05
  C 235.15 290.62 235.60 295.74 237.56 299.92
  Q 240.53 306.29 242.59 313.41
  C 243.82 317.64 245.45 322.13 247.44 326.05
  Q 249.93 330.97 251.37 336.11
  C 251.85 337.82 252.94 340.46 253.86 341.64
  Q 261.18 350.93 268.61 359.56
  C 271.48 362.89 273.99 366.36 277.00 369.41
  C 283.19 375.69 288.40 383.42 292.62 391.07
  Q 293.71 393.05 295.37 394.82
  Q 295.41 394.87 295.46 394.83
  Z
  M 450.99 231.93
  C 453.01 236.67 448.78 239.88 445.30 241.92
  Q 440.78 244.58 436.05 243.53
  Q 435.00 243.29 435.92 243.85
  Q 436.85 244.41 437.88 244.62
  Q 445.82 246.23 453.47 247.11
  Q 458.90 247.74 467.49 246.96
  Q 468.15 246.90 467.77 246.35
  Q 460.81 236.58 451.44 231.51
  Q 450.63 231.07 450.99 231.93
  Z
  M 302.03 253.70
  C 298.47 254.00 292.98 249.75 291.83 246.05
  Q 291.57 245.20 290.82 245.69
  Q 286.41 248.54 282.53 251.05
  C 280.32 252.47 278.59 254.51 276.47 256.12
  Q 275.84 256.59 276.54 256.96
  Q 277.99 257.73 279.66 257.53
  Q 286.71 256.70 293.23 258.30
  C 297.26 259.29 301.80 258.31 305.90 257.93
  Q 307.50 257.78 312.57 257.96
  Q 322.28 258.31 330.36 252.55
  C 332.75 250.85 332.48 248.08 335.82 247.35
  Q 337.84 246.91 335.96 246.05
  C 334.43 245.35 332.76 244.49 331.12 244.19
  Q 327.08 243.46 322.63 242.76
  A 0.77 0.77 0.0 0 0 321.76 243.34
  C 320.89 246.84 319.72 250.65 315.83 251.58
  Q 309.51 253.09 302.03 253.70
  Z
  M 232.4951 247.2407
  A 0.27 0.27 0.0 0 0 232.2256 246.9702
  L 231.9656 246.9698
  A 0.27 0.27 0.0 0 0 231.6951 247.2393
  L 231.6449 275.9793
  A 0.27 0.27 0.0 0 0 231.9144 276.2498
  L 232.1744 276.2502
  A 0.27 0.27 0.0 0 0 232.4449 275.9807
  L 232.4951 247.2407
  Z
  M 375.89 334.33
  C 377.75 331.88 379.74 328.45 380.40 325.31
  Q 380.66 324.09 379.79 323.04
  C 376.02 318.51 370.68 318.84 365.48 319.63
  A 1.12 1.11 0.7 0 0 364.55 320.53
  L 363.41 327.04
  A 0.69 0.69 0.0 0 0 364.13 327.85
  C 368.71 327.56 374.00 328.86 374.92 334.09
  Q 375.14 335.32 375.89 334.33
  Z
  M 350.17 325.31
  A 1.12 1.12 0.0 0 0 349.79 325.64
  L 345.48 331.44
  A 1.12 1.12 0.0 0 0 346.61 333.20
  L 358.70 330.66
  A 1.12 1.12 0.0 0 0 359.58 329.70
  L 360.53 321.93
  A 1.12 1.12 0.0 0 0 358.91 320.79
  L 350.17 325.31
  Z
  M 364.60 331.75
  A 1.05 1.05 0.0 0 0 364.17 333.70
  L 367.49 335.64
  A 1.05 1.05 0.0 0 0 367.92 335.78
  L 371.38 336.12
  A 1.05 1.05 0.0 0 0 372.36 334.51
  L 370.57 331.76
  A 1.05 1.05 0.0 0 0 369.59 331.29
  L 364.60 331.75
  Z
  M 351.25 378.59
  Q 350.99 379.22 351.67 379.24
  Q 361.93 379.46 372.50 379.83
  C 376.28 379.97 382.48 381.25 385.68 378.64
  Q 386.07 378.32 386.03 377.82
  C 385.30 367.04 371.41 367.09 363.88 368.73
  C 361.31 369.29 359.33 371.09 356.93 372.09
  C 353.89 373.36 352.46 375.70 351.25 378.59
  Z
  M 388.9015 377.0626
  A 1.06 0.66 129.1 0 0 390.0822 376.6562
  A 1.06 0.66 129.1 0 0 390.2385 375.4174
  A 1.06 0.66 129.1 0 0 389.0578 375.8238
  A 1.06 0.66 129.1 0 0 388.9015 377.0626
  Z
  M 383.30 383.83
  A 0.35 0.35 0.0 0 0 382.96 383.27
  C 378.36 384.10 373.69 383.31 368.99 383.34
  Q 359.32 383.41 349.33 383.24
  A 1.19 1.18 75.8 0 0 348.28 385.01
  C 351.09 389.94 354.62 391.05 359.56 392.55
  Q 362.26 393.37 364.88 393.24
  Q 369.40 393.03 374.19 394.09
  A 1.67 1.66 -71.9 0 0 376.08 393.13
  C 376.46 392.25 376.74 391.41 377.44 390.70
  Q 380.53 387.53 383.30 383.83
  Z
  M 331.87 431.27
  C 334.24 433.31 337.27 434.72 340.30 435.46
  Q 340.92 435.61 341.48 435.32
  Q 345.60 433.15 349.19 430.11
  Q 349.68 429.69 349.08 429.92
  Q 340.35 433.25 332.29 430.53
  Q 330.19 429.83 331.87 431.27
  Z"
/>
<path fill="#fdfdfd" d="
  M 390.45 382.35
  A 2.15 2.06 24.3 0 0 392.45 381.64
  Q 395.30 378.21 396.37 374.21
  C 396.84 372.46 396.00 370.15 393.74 370.53
  Q 390.91 371.02 388.60 372.33
  Q 387.91 372.72 387.42 372.09
  Q 383.95 367.55 377.69 365.99
  Q 372.51 364.71 366.77 364.16
  Q 366.24 364.11 366.31 363.58
  C 367.02 358.06 368.72 352.78 371.40 347.97
  Q 373.56 344.10 374.56 339.88
  Q 374.71 339.26 375.27 338.95
  C 378.96 336.96 381.22 332.84 382.93 329.14
  C 385.59 323.34 378.56 317.74 373.94 317.16
  Q 370.80 316.77 367.19 316.58
  A 0.89 0.88 7.2 0 1 366.36 315.52
  Q 368.02 307.57 371.22 301.08
  C 374.63 294.14 373.14 285.76 375.80 278.48
  Q 377.80 273.03 377.42 267.51
  C 377.05 262.06 377.55 256.60 378.51 251.19
  C 379.12 247.75 380.86 243.58 385.03 243.46
  Q 391.76 243.26 395.94 244.03
  Q 401.74 245.10 407.46 246.56
  Q 411.82 247.68 414.23 244.43
  A 1.77 1.74 20.9 0 1 415.82 243.73
  Q 422.22 244.34 428.70 244.98
  Q 432.52 245.36 436.09 246.50
  C 442.35 248.51 449.35 248.91 455.11 250.21
  Q 462.19 251.82 468.51 251.03
  Q 472.83 250.49 477.00 250.07
  Q 479.07 249.87 479.22 247.78
  L 479.26 247.14
  Q 479.37 245.55 477.78 245.57
  Q 473.82 245.62 471.52 243.42
  Q 467.12 239.20 462.14 234.84
  Q 453.48 227.25 442.69 223.54
  Q 442.04 223.32 442.27 222.67
  C 442.77 221.23 443.14 219.81 442.84 218.27
  Q 440.52 206.30 437.59 196.14
  Q 436.95 193.91 435.30 192.45
  C 431.84 189.41 419.63 195.04 415.72 196.45
  Q 411.23 198.07 407.58 196.18
  Q 404.85 194.77 407.88 194.23
  C 413.29 193.27 419.36 191.99 425.04 190.34
  C 429.14 189.15 435.80 187.46 439.58 190.36
  Q 445.80 195.12 453.34 198.84
  Q 456.98 200.63 461.78 199.85
  C 464.64 199.37 465.92 196.57 464.01 194.23
  C 458.05 186.92 447.70 184.96 438.72 185.13
  Q 437.41 185.15 436.23 184.62
  Q 429.13 181.45 419.48 179.02
  Q 414.56 177.78 410.65 180.74
  Q 405.38 184.74 403.02 190.83
  A 1.36 1.35 10.2 0 1 401.77 191.69
  Q 397.34 191.75 393.43 192.07
  Q 389.91 192.37 387.86 191.01
  C 381.49 186.80 381.06 176.18 380.52 169.31
  Q 380.22 165.49 379.24 161.60
  Q 377.78 155.83 377.02 150.02
  C 375.94 141.85 372.55 133.79 371.85 126.19
  Q 370.44 110.92 371.42 100.73
  Q 372.38 90.84 373.74 80.40
  C 374.37 75.53 382.37 77.52 384.97 78.90
  C 390.70 81.93 396.64 84.68 403.00 85.65
  Q 406.47 86.18 410.16 87.19
  C 413.32 88.06 416.54 87.83 419.28 89.84
  C 423.02 92.59 426.47 95.16 431.13 96.51
  Q 442.07 99.68 451.50 107.09
  C 455.42 110.16 457.63 114.39 462.31 116.80
  C 470.44 120.99 473.93 127.41 476.10 135.98
  Q 478.32 144.79 480.49 153.37
  C 482.37 160.84 485.61 167.80 487.45 174.98
  Q 488.77 180.09 490.54 185.68
  Q 491.33 188.15 492.42 190.09
  C 495.05 194.76 494.06 199.46 495.37 204.44
  Q 496.34 208.10 496.49 212.61
  Q 496.84 222.85 499.16 237.08
  C 499.96 242.03 499.61 246.76 500.01 251.66
  Q 500.35 255.79 499.82 260.69
  Q 499.26 265.89 499.19 271.17
  C 499.06 280.22 495.80 288.42 491.69 296.31
  C 488.69 302.07 487.19 308.42 484.03 314.22
  C 482.75 316.56 482.21 319.11 481.48 321.71
  Q 479.86 327.46 477.46 331.23
  C 474.00 336.66 471.69 342.91 468.09 348.29
  Q 465.03 352.88 462.34 358.10
  Q 459.15 364.31 454.65 370.63
  C 452.24 374.01 451.93 377.95 449.87 381.43
  Q 445.31 389.17 438.90 396.58
  Q 435.03 401.06 427.52 407.71
  Q 421.80 412.78 415.86 418.61
  C 414.32 420.12 411.00 422.11 408.59 423.30
  Q 403.77 425.69 399.08 428.54
  Q 396.73 429.97 391.36 431.80
  C 384.38 434.19 377.45 437.06 370.52 439.61
  C 364.49 441.82 357.67 440.53 351.51 439.59
  Q 349.52 439.28 348.08 438.29
  Q 347.04 437.56 348.15 436.95
  Q 356.33 432.42 362.55 427.23
  Q 363.61 426.35 363.06 425.09
  Q 362.94 424.81 362.72 424.61
  Q 361.41 423.47 360.04 424.55
  L 356.81 427.08
  Q 355.77 427.90 356.48 426.78
  Q 358.79 423.10 361.39 419.52
  Q 368.56 409.60 371.98 398.33
  A 1.43 1.43 0.0 0 1 373.16 397.33
  C 380.77 396.37 386.41 389.84 389.51 382.99
  Q 389.65 382.70 389.90 382.49
  Q 390.14 382.29 390.45 382.35
  Z"
/>
<path fill="#fdfdfd" d="
  M 268.01 265.27
  A 1.31 1.31 0.0 0 0 269.43 264.65
  L 271.41 261.23
  Q 271.71 260.72 272.31 260.70
  Q 274.98 260.64 277.45 261.52
  Q 277.93 261.69 278.37 261.42
  L 279.48 260.71
  Q 279.96 260.40 280.54 260.45
  Q 285.85 260.87 290.64 260.58
  C 297.79 260.15 305.79 263.47 312.54 260.86
  C 317.42 258.98 322.44 259.78 327.15 257.15
  Q 331.41 254.77 335.98 253.24
  Q 336.40 253.10 336.72 253.41
  Q 338.72 255.46 340.97 256.63
  A 1.88 1.88 0.0 0 0 343.72 255.01
  Q 343.78 252.91 340.97 251.66
  Q 339.52 251.01 340.59 249.84
  C 342.25 248.04 344.88 245.44 340.96 243.89
  C 337.82 242.65 334.87 241.11 331.72 240.13
  Q 327.53 238.82 323.26 238.21
  A 0.82 0.81 -87.0 0 1 322.57 237.44
  C 322.29 231.67 322.68 227.41 315.56 226.08
  Q 309.84 225.01 303.78 224.60
  C 300.65 224.40 297.14 223.38 294.40 223.30
  C 287.16 223.09 279.78 223.27 273.05 220.54
  Q 268.48 218.69 263.92 217.61
  Q 262.09 217.18 261.95 215.50
  Q 261.90 214.89 262.43 214.59
  Q 266.93 212.02 270.89 211.63
  Q 279.35 210.80 289.37 209.67
  Q 291.69 209.41 294.00 209.68
  Q 299.34 210.29 304.54 210.62
  Q 306.37 210.74 308.08 212.15
  Q 311.14 214.67 315.14 214.90
  Q 319.80 215.16 324.17 214.89
  C 328.82 214.62 330.59 212.20 332.07 208.32
  A 1.38 1.37 -3.0 0 1 332.74 207.58
  Q 333.78 207.05 334.85 206.57
  C 338.73 204.83 339.09 200.49 337.20 196.76
  Q 334.92 192.29 329.25 189.36
  C 322.10 185.68 313.99 183.17 306.38 185.72
  Q 304.48 186.36 302.60 186.17
  Q 288.28 184.70 273.94 185.61
  C 272.88 185.68 271.77 186.11 270.67 186.13
  Q 269.59 186.16 270.55 185.67
  C 279.24 181.23 285.63 173.60 289.44 164.23
  C 292.12 157.66 295.03 150.89 298.47 144.85
  C 302.34 138.05 306.70 133.14 310.94 127.49
  Q 314.36 122.92 321.12 119.48
  Q 325.21 117.40 332.44 116.49
  Q 343.23 115.15 353.48 113.69
  C 357.77 113.08 364.44 108.00 366.74 103.52
  Q 367.15 102.71 367.18 103.62
  C 367.23 105.18 366.88 106.82 366.97 108.38
  Q 367.56 119.19 369.96 129.01
  Q 372.31 138.61 374.07 148.50
  Q 374.82 152.70 375.91 165.02
  Q 376.74 174.44 378.77 183.05
  C 381.32 193.90 392.86 196.87 402.38 195.08
  A 1.22 1.22 0.0 0 1 403.60 195.58
  C 406.96 200.33 412.20 200.44 417.44 198.78
  Q 424.02 196.70 430.80 194.66
  A 2.68 2.68 0.0 0 1 434.06 196.22
  Q 435.21 199.03 435.83 202.37
  Q 437.47 211.17 438.75 217.90
  Q 439.09 219.72 438.97 221.72
  Q 438.94 222.18 438.48 222.24
  C 432.92 222.95 427.19 222.45 421.87 224.44
  Q 416.26 226.54 413.93 228.91
  Q 408.52 234.41 404.11 240.68
  A 1.39 1.38 26.0 0 1 402.55 241.21
  C 399.03 240.13 395.61 240.75 392.04 240.14
  C 385.64 239.03 379.16 240.08 377.18 246.87
  C 375.34 253.21 373.34 259.32 373.22 266.08
  C 373.11 273.06 373.22 280.54 371.82 287.24
  C 370.65 292.88 369.12 297.75 366.33 302.69
  C 364.19 306.47 363.07 311.06 362.39 315.37
  A 0.80 0.79 -87.2 0 1 361.66 316.04
  Q 359.09 316.18 357.03 317.90
  C 352.61 321.58 344.27 325.32 342.68 330.82
  C 340.71 337.67 351.31 335.32 354.31 334.22
  Q 356.76 333.33 359.30 332.58
  A 0.94 0.93 -23.7 0 1 360.37 332.99
  Q 363.92 338.96 370.99 338.95
  Q 371.73 338.95 371.47 339.65
  C 370.02 343.43 369.24 347.91 366.80 351.16
  C 364.34 354.42 363.54 358.07 362.82 361.93
  A 3.16 3.14 -11.9 0 1 361.49 363.96
  Q 358.81 365.80 356.14 367.95
  Q 354.88 368.97 353.45 369.50
  C 347.91 371.54 343.10 373.49 344.99 380.68
  C 345.52 382.68 343.97 384.66 345.19 386.60
  Q 348.81 392.34 353.18 394.10
  Q 359.04 396.45 365.09 397.46
  A 1.06 1.06 0.0 0 1 365.94 398.77
  Q 363.58 407.83 359.54 415.42
  C 355.40 423.20 350.49 427.92 341.99 429.54
  C 337.07 430.48 330.04 428.49 327.18 423.67
  C 325.26 420.44 322.45 415.65 318.30 415.26
  Q 317.74 415.21 317.28 415.54
  L 316.28 416.27
  Q 315.82 416.61 315.34 416.29
  Q 313.28 414.93 311.93 413.15
  C 306.34 405.79 299.79 398.03 295.23 390.27
  Q 287.86 377.75 284.47 364.48
  Q 282.62 357.25 280.91 352.54
  Q 275.80 338.42 272.54 321.99
  Q 271.94 318.94 271.91 310.06
  Q 271.91 308.70 271.06 306.32
  C 269.90 303.05 269.98 299.23 269.86 295.79
  Q 269.74 292.53 269.28 289.25
  Q 267.59 277.15 263.19 265.42
  C 260.96 259.48 257.36 253.91 254.05 248.30
  C 248.99 239.75 242.25 233.91 234.85 227.57
  Q 234.39 227.17 234.32 226.56
  Q 233.16 216.20 235.96 206.16
  Q 236.17 205.38 236.78 204.91
  Q 243.39 199.75 250.77 196.03
  Q 253.03 194.90 255.01 193.23
  C 261.70 187.61 271.49 189.59 279.50 188.47
  Q 285.74 187.59 293.21 187.26
  Q 297.94 187.06 301.92 187.70
  A 0.46 0.45 29.8 0 1 302.14 188.50
  C 296.48 193.10 298.25 201.14 302.27 206.10
  Q 302.87 206.84 301.93 206.97
  Q 292.92 208.31 283.21 207.33
  Q 272.74 206.28 262.29 211.88
  Q 259.66 213.29 259.21 215.49
  A 1.41 1.36 39.8 0 0 259.30 216.33
  C 260.86 219.82 265.14 222.08 268.57 222.80
  Q 284.39 226.13 301.20 226.60
  Q 308.56 226.80 317.05 229.49
  Q 318.67 230.01 318.87 231.70
  Q 319.08 233.44 319.40 236.16
  Q 319.59 237.77 318.04 237.32
  C 306.34 234.01 292.66 237.67 282.03 243.22
  C 281.14 243.69 280.01 244.44 279.42 245.25
  C 276.96 248.64 271.04 254.96 266.53 254.81
  Q 263.73 254.71 261.09 255.23
  A 1.02 1.01 -26.6 0 0 260.53 256.90
  C 261.43 257.89 261.84 258.60 261.84 260.03
  Q 261.84 261.69 264.11 261.67
  Q 267.09 261.65 266.56 264.31
  Q 266.45 264.90 268.01 265.27
  Z"
/>
<path fill="#fdfdfd" d="
  M 413.94 183.70
  Q 423.49 181.80 432.18 185.42
  Q 433.14 185.83 432.12 186.06
  C 423.70 188.00 415.10 190.77 405.98 191.12
  Q 405.22 191.15 405.64 190.52
  C 407.68 187.48 410.12 184.46 413.94 183.70
  Z"
/>
<path fill="#fdfdfd" d="
  M 321.94 190.35
  Q 325.38 191.95 328.86 193.09
  C 331.85 194.07 334.64 196.19 335.21 199.46
  Q 335.83 202.98 331.61 203.67
  Q 331.02 203.77 330.65 203.30
  Q 329.12 201.35 327.96 199.26
  C 325.68 195.14 322.16 192.26 317.90 189.91
  Q 316.23 188.99 318.12 189.23
  Q 320.06 189.48 321.94 190.35
  Z"
/>
<path fill="#fdfdfd" d="
  M 457.15 191.72
  L 463.72 196.73
  A 0.63 0.63 0.0 0 1 463.33 197.86
  L 457.32 197.69
  A 0.63 0.63 0.0 0 1 457.00 197.60
  L 445.33 190.18
  A 0.63 0.63 0.0 0 1 445.81 189.03
  L 456.91 191.61
  A 0.63 0.63 0.0 0 1 457.15 191.72
  Z"
/>
<path fill="#fdfdfd" d="
  M 309.61 189.88
  C 314.58 191.49 320.67 192.87 324.30 196.94
  C 326.20 199.07 327.00 201.95 328.38 204.45
  Q 328.68 204.99 328.18 205.34
  Q 326.50 206.52 324.63 206.62
  Q 317.21 207.02 308.74 206.82
  C 305.56 206.74 303.20 200.73 302.61 198.22
  Q 301.63 194.10 305.04 191.02
  Q 307.18 189.09 309.61 189.88
  Z"
/>
<path fill="#fdfdfd" d="
  M 312.40 211.52
  Q 311.96 211.39 311.70 211.00
  A 0.30 0.30 0.0 0 1 311.95 210.54
  C 314.74 210.56 317.47 210.61 320.20 209.99
  Q 323.79 209.17 327.17 208.62
  Q 328.37 208.42 327.57 209.34
  C 324.39 212.99 316.58 212.67 312.40 211.52
  Z"
/>
<path fill="#fdfdfd" d="
  M 229.82 222.95
  L 225.78 218.15
  A 0.82 0.82 0.0 0 1 225.74 217.14
  L 230.74 210.20
  A 0.82 0.82 0.0 0 1 232.22 210.75
  L 231.26 222.48
  A 0.82 0.82 0.0 0 1 229.82 222.95
  Z"
/>
<path fill="#fdfdfd" d="
  M 229.77 230.66
  Q 227.48 226.45 225.62 222.15
  Q 225.12 221.00 226.04 221.85
  Q 228.41 224.04 229.91 226.43
  Q 230.89 227.99 230.21 230.60
  Q 230.05 231.18 229.77 230.66
  Z"
/>
<path fill="#fdfdfd" d="
  M 432.97 242.68
  Q 433.73 243.18 432.87 242.88
  Q 424.83 240.06 415.57 239.60
  Q 414.17 239.53 414.94 238.36
  C 417.10 235.08 420.20 228.75 424.94 229.32
  Q 426.62 229.52 428.20 229.19
  Q 429.12 228.99 428.61 229.78
  C 426.66 232.83 426.15 237.18 429.06 239.72
  Q 430.83 241.27 432.97 242.68
  Z"
/>
<path fill="#fdfdfd" d="
  M 295.37 394.82
  Q 293.71 393.05 292.62 391.07
  C 288.40 383.42 283.19 375.69 277.00 369.41
  C 273.99 366.36 271.48 362.89 268.61 359.56
  Q 261.18 350.93 253.86 341.64
  C 252.94 340.46 251.85 337.82 251.37 336.11
  Q 249.93 330.97 247.44 326.05
  C 245.45 322.13 243.82 317.64 242.59 313.41
  Q 240.53 306.29 237.56 299.92
  C 235.60 295.74 235.15 290.62 235.25 286.05
  C 235.42 278.32 235.36 270.56 235.73 262.97
  Q 236.28 251.86 233.75 240.56
  C 232.93 236.87 233.98 233.87 233.70 230.26
  Q 233.64 229.57 234.19 230.00
  C 241.61 235.84 249.36 242.65 253.43 250.93
  C 255.13 254.39 256.99 257.74 258.38 261.36
  C 260.34 266.47 262.76 271.47 264.23 276.79
  Q 269.09 294.40 268.82 310.76
  C 268.77 314.05 270.78 316.61 270.78 319.79
  C 270.79 323.50 270.71 326.95 271.71 330.67
  Q 272.83 334.85 274.23 339.02
  Q 277.43 348.50 279.59 356.89
  C 281.07 362.65 283.22 368.22 285.33 373.70
  Q 289.31 384.06 295.72 394.35
  Q 295.84 394.54 295.66 394.67
  L 295.46 394.83
  Q 295.41 394.87 295.37 394.82
  Z"
/>
<path fill="#fdfdfd" d="
  M 445.30 241.92
  C 448.78 239.88 453.01 236.67 450.99 231.93
  Q 450.63 231.07 451.44 231.51
  Q 460.81 236.58 467.77 246.35
  Q 468.15 246.90 467.49 246.96
  Q 458.90 247.74 453.47 247.11
  Q 445.82 246.23 437.88 244.62
  Q 436.85 244.41 435.92 243.85
  Q 435.00 243.29 436.05 243.53
  Q 440.78 244.58 445.30 241.92
  Z"
/>
<path fill="#fdfdfd" d="
  M 291.83 246.05
  C 292.98 249.75 298.47 254.00 302.03 253.70
  Q 309.51 253.09 315.83 251.58
  C 319.72 250.65 320.89 246.84 321.76 243.34
  A 0.77 0.77 0.0 0 1 322.63 242.76
  Q 327.08 243.46 331.12 244.19
  C 332.76 244.49 334.43 245.35 335.96 246.05
  Q 337.84 246.91 335.82 247.35
  C 332.48 248.08 332.75 250.85 330.36 252.55
  Q 322.28 258.31 312.57 257.96
  Q 307.50 257.78 305.90 257.93
  C 301.80 258.31 297.26 259.29 293.23 258.30
  Q 286.71 256.70 279.66 257.53
  Q 277.99 257.73 276.54 256.96
  Q 275.84 256.59 276.47 256.12
  C 278.59 254.51 280.32 252.47 282.53 251.05
  Q 286.41 248.54 290.82 245.69
  Q 291.57 245.20 291.83 246.05
  Z"
/>
<rect fill="#fdfdfd" x="-0.40" y="-14.64" transform="translate(232.07,261.61) rotate(0.1)" width="0.80" height="29.28" rx="0.27"/>
<path fill="#fdfdfd" d="
  M 380.40 325.31
  C 379.74 328.45 377.75 331.88 375.89 334.33
  Q 375.14 335.32 374.92 334.09
  C 374.00 328.86 368.71 327.56 364.13 327.85
  A 0.69 0.69 0.0 0 1 363.41 327.04
  L 364.55 320.53
  A 1.12 1.11 0.7 0 1 365.48 319.63
  C 370.68 318.84 376.02 318.51 379.79 323.04
  Q 380.66 324.09 380.40 325.31
  Z"
/>
<path fill="#fdfdfd" d="
  M 350.17 325.31
  L 358.91 320.79
  A 1.12 1.12 0.0 0 1 360.53 321.93
  L 359.58 329.70
  A 1.12 1.12 0.0 0 1 358.70 330.66
  L 346.61 333.20
  A 1.12 1.12 0.0 0 1 345.48 331.44
  L 349.79 325.64
  A 1.12 1.12 0.0 0 1 350.17 325.31
  Z"
/>
<path fill="#fdfdfd" d="
  M 364.60 331.75
  L 369.59 331.29
  A 1.05 1.05 0.0 0 1 370.57 331.76
  L 372.36 334.51
  A 1.05 1.05 0.0 0 1 371.38 336.12
  L 367.92 335.78
  A 1.05 1.05 0.0 0 1 367.49 335.64
  L 364.17 333.70
  A 1.05 1.05 0.0 0 1 364.60 331.75
  Z"
/>
<path fill="#fdfdfd" d="
  M 351.25 378.59
  C 352.46 375.70 353.89 373.36 356.93 372.09
  C 359.33 371.09 361.31 369.29 363.88 368.73
  C 371.41 367.09 385.30 367.04 386.03 377.82
  Q 386.07 378.32 385.68 378.64
  C 382.48 381.25 376.28 379.97 372.50 379.83
  Q 361.93 379.46 351.67 379.24
  Q 350.99 379.22 351.25 378.59
  Z"
/>
<ellipse fill="#fdfdfd" cx="0.00" cy="0.00" transform="translate(389.57,376.24) rotate(129.1)" rx="1.06" ry="0.66"/>
<path fill="#fdfdfd" d="
  M 383.30 383.83
  Q 380.53 387.53 377.44 390.70
  C 376.74 391.41 376.46 392.25 376.08 393.13
  A 1.67 1.66 -71.9 0 1 374.19 394.09
  Q 369.40 393.03 364.88 393.24
  Q 362.26 393.37 359.56 392.55
  C 354.62 391.05 351.09 389.94 348.28 385.01
  A 1.19 1.18 75.8 0 1 349.33 383.24
  Q 359.32 383.41 368.99 383.34
  C 373.69 383.31 378.36 384.10 382.96 383.27
  A 0.35 0.35 0.0 0 1 383.30 383.83
  Z"
/>
<path fill="#fdfdfd" d="
  M 340.30 435.46
  C 337.27 434.72 334.24 433.31 331.87 431.27
  Q 330.19 429.83 332.29 430.53
  Q 340.35 433.25 349.08 429.92
  Q 349.68 429.69 349.19 430.11
  Q 345.60 433.15 341.48 435.32
  Q 340.92 435.61 340.30 435.46
  Z"
/>
</svg>
