<?xml version="1.0" encoding="UTF-8" standalone="no"?>
<!DOCTYPE svg PUBLIC "-//W3C//DTD SVG 1.1//EN" "http://www.w3.org/Graphics/SVG/1.1/DTD/svg11.dtd">
<svg xmlns="http://www.w3.org/2000/svg" version="1.1" viewBox="0.00 0.00 210.00 297.00">
<g stroke-width="2.00" fill="none" stroke-linecap="butt">
<path stroke="#808080" vector-effect="non-scaling-stroke" d="
  M 210.00 10.78
  Q 209.90 10.68 209.81 10.62
  Q 209.61 10.52 209.48 10.70
  L 0.65 296.39
  Q 0.55 296.54 0.58 296.71
  L 0.63 297.00"
/>
<path stroke="#808080" vector-effect="non-scaling-stroke" d="
  M 106.62 88.08
  A 42.09 42.09 0.0 0 0 64.53 45.99
  A 42.09 42.09 0.0 0 0 22.44 88.08
  A 42.09 42.09 0.0 0 0 64.53 130.17
  A 42.09 42.09 0.0 0 0 106.62 88.08"
/>
<path stroke="#808080" vector-effect="non-scaling-stroke" d="
  M 54.16 67.24
  C 53.39 76.62 49.19 98.10 36.95 99.20
  Q 35.86 99.29 35.72 100.37
  L 34.69 107.76
  Q 34.47 109.37 36.08 109.18
  Q 39.09 108.82 41.48 108.06
  C 56.26 103.30 62.19 80.54 63.93 67.27
  Q 63.96 67.05 63.74 67.05
  L 54.37 67.05
  Q 54.18 67.05 54.16 67.24"
/>
<path stroke="#808080" vector-effect="non-scaling-stroke" d="
  M 96.18 81.58
  C 95.55 73.30 89.68 67.34 81.40 67.08
  Q 74.51 66.87 66.40 67.00
  Q 65.88 67.01 65.79 67.52
  L 59.24 107.28
  A 0.51 0.50 -85.7 0 0 59.74 107.87
  Q 65.67 107.85 72.22 107.89
  C 87.11 107.96 97.25 95.81 96.18 81.58"
/>
<path stroke="#808080" vector-effect="non-scaling-stroke" d="
  M 70.59 98.57
  C 77.79 99.23 84.33 95.90 86.02 88.33
  C 88.04 79.28 82.51 75.54 74.21 76.08
  Q 73.78 76.11 73.71 76.53
  L 70.17 98.02
  Q 70.08 98.53 70.59 98.57"
/>
</g>
<path fill="#ffffff" d="
  M 0.00 0.00
  L 210.00 0.00
  L 210.00 10.78
  Q 209.90 10.68 209.81 10.62
  Q 209.61 10.52 209.48 10.70
  L 0.65 296.39
  Q 0.55 296.54 0.58 296.71
  L 0.63 297.00
  L 0.00 297.00
  L 0.00 0.00
  Z
  M 106.62 88.08
  A 42.09 42.09 0.0 0 0 64.53 45.99
  A 42.09 42.09 0.0 0 0 22.44 88.08
  A 42.09 42.09 0.0 0 0 64.53 130.17
  A 42.09 42.09 0.0 0 0 106.62 88.08
  Z"
/>
<path fill="#000000" d="
  M 210.00 10.78
  L 210.00 297.00
  L 0.63 297.00
  L 0.58 296.71
  Q 0.55 296.54 0.65 296.39
  L 209.48 10.70
  Q 209.61 10.52 209.81 10.62
  Q 209.90 10.68 210.00 10.78
  Z"
/>
<path fill="#000000" d="
  M 106.62 88.08
  A 42.09 42.09 0.0 0 1 64.53 130.17
  A 42.09 42.09 0.0 0 1 22.44 88.08
  A 42.09 42.09 0.0 0 1 64.53 45.99
  A 42.09 42.09 0.0 0 1 106.62 88.08
  Z
  M 54.16 67.24
  C 53.39 76.62 49.19 98.10 36.95 99.20
  Q 35.86 99.29 35.72 100.37
  L 34.69 107.76
  Q 34.47 109.37 36.08 109.18
  Q 39.09 108.82 41.48 108.06
  C 56.26 103.30 62.19 80.54 63.93 67.27
  Q 63.96 67.05 63.74 67.05
  L 54.37 67.05
  Q 54.18 67.05 54.16 67.24
  Z
  M 96.18 81.58
  C 95.55 73.30 89.68 67.34 81.40 67.08
  Q 74.51 66.87 66.40 67.00
  Q 65.88 67.01 65.79 67.52
  L 59.24 107.28
  A 0.51 0.50 -85.7 0 0 59.74 107.87
  Q 65.67 107.85 72.22 107.89
  C 87.11 107.96 97.25 95.81 96.18 81.58
  Z"
/>
<path fill="#ffffff" d="
  M 36.95 99.20
  C 49.19 98.10 53.39 76.62 54.16 67.24
  Q 54.18 67.05 54.37 67.05
  L 63.74 67.05
  Q 63.96 67.05 63.93 67.27
  C 62.19 80.54 56.26 103.30 41.48 108.06
  Q 39.09 108.82 36.08 109.18
  Q 34.47 109.37 34.69 107.76
  L 35.72 100.37
  Q 35.86 99.29 36.95 99.20
  Z"
/>
<path fill="#ffffff" d="
  M 81.40 67.08
  C 89.68 67.34 95.55 73.30 96.18 81.58
  C 97.25 95.81 87.11 107.96 72.22 107.89
  Q 65.67 107.85 59.74 107.87
  A 0.51 0.50 -85.7 0 1 59.24 107.28
  L 65.79 67.52
  Q 65.88 67.01 66.40 67.00
  Q 74.51 66.87 81.40 67.08
  Z
  M 70.59 98.57
  C 77.79 99.23 84.33 95.90 86.02 88.33
  C 88.04 79.28 82.51 75.54 74.21 76.08
  Q 73.78 76.11 73.71 76.53
  L 70.17 98.02
  Q 70.08 98.53 70.59 98.57
  Z"
/>
<path fill="#000000" d="
  M 86.02 88.33
  C 84.33 95.90 77.79 99.23 70.59 98.57
  Q 70.08 98.53 70.17 98.02
  L 73.71 76.53
  Q 73.78 76.11 74.21 76.08
  C 82.51 75.54 88.04 79.28 86.02 88.33
  Z"
/>
</svg>
