<?xml version="1.0" encoding="UTF-8" standalone="no"?>
<!DOCTYPE svg PUBLIC "-//W3C//DTD SVG 1.1//EN" "http://www.w3.org/Graphics/SVG/1.1/DTD/svg11.dtd">
<svg xmlns="http://www.w3.org/2000/svg" version="1.1" viewBox="0.00 0.00 210.00 297.00">
<g stroke-width="2.00" fill="none" stroke-linecap="butt">
<path stroke="#808080" vector-effect="non-scaling-stroke" d="
  M 210.00 10.78
  Q 209.90 10.68 209.81 10.62
  Q 209.61 10.52 209.48 10.70
  L 0.65 296.40
  Q 0.55 296.54 0.58 296.71
  L 0.63 297.00"
/>
<path stroke="#808080" vector-effect="non-scaling-stroke" d="
  M 118.35 70.11
  Q 119.24 70.07 119.68 69.33
  Q 119.97 68.84 119.51 68.50
  L 109.76 61.38
  A 1.09 1.09 0.0 0 0 108.25 61.59
  L 107.99 61.94
  A 0.93 0.93 0.0 0 0 108.17 63.25
  L 114.40 67.86
  Q 116.95 69.75 115.02 72.27
  L 114.52 72.93
  Q 113.04 74.85 111.10 73.40
  L 104.52 68.51
  Q 103.49 67.75 102.90 68.88
  L 102.71 69.23
  Q 102.32 69.96 102.97 70.49
  Q 106.22 73.15 109.44 75.25
  C 113.38 77.82 117.24 75.12 117.57 70.86
  A 0.83 0.82 0.8 0 1 118.35 70.11"
/>
<path stroke="#808080" vector-effect="non-scaling-stroke" d="
  M 100.23 85.38
  Q 102.52 81.96 104.93 79.04
  Q 106.75 76.83 103.87 76.04
  Q 102.94 75.79 102.00 75.53
  A 5.26 5.25 -59.8 0 0 96.93 76.87
  Q 93.29 80.47 95.59 84.78
  C 99.54 92.22 110.59 89.02 108.62 80.34
  Q 108.39 79.31 107.34 79.17
  Q 106.69 79.08 106.30 79.92
  A 1.08 1.05 -44.3 0 0 106.28 80.78
  C 107.88 84.68 104.17 87.56 100.42 86.02
  A 0.43 0.43 0.0 0 1 100.23 85.38"
/>
<path stroke="#808080" vector-effect="non-scaling-stroke" d="
  M 100.4130 95.6093
  A 0.99 0.99 0.0 0 0 100.2061 94.2246
  L 90.7367 87.2176
  A 0.99 0.99 0.0 0 0 89.3520 87.4245
  L 89.0070 87.8907
  A 0.99 0.99 0.0 0 0 89.2139 89.2754
  L 98.6833 96.2824
  A 0.99 0.99 0.0 0 0 100.0680 96.0755
  L 100.4130 95.6093"
/>
<path stroke="#808080" vector-effect="non-scaling-stroke" d="
  M 94.34 102.12
  Q 95.27 102.29 96.06 101.73
  A 0.84 0.83 -44.3 0 0 96.08 100.37
  L 86.07 93.08
  A 0.87 0.86 18.3 0 0 84.69 93.77
  L 84.68 95.29
  Q 84.68 95.75 84.25 95.93
  C 76.67 98.96 80.76 108.76 87.48 108.81
  Q 93.50 108.86 93.81 102.54
  Q 93.83 102.03 94.34 102.12"
/>
<path stroke="#808080" vector-effect="non-scaling-stroke" d="
  M 71.14 115.00
  Q 66.86 115.19 66.54 119.98
  A 1.16 1.16 0.0 0 1 65.44 121.06
  Q 64.42 121.11 64.08 121.98
  Q 63.90 122.44 64.30 122.73
  L 73.92 129.83
  Q 74.87 130.53 75.59 129.59
  L 75.83 129.27
  A 1.02 1.02 0.0 0 0 75.63 127.83
  L 69.54 123.30
  Q 67.28 121.62 68.62 119.14
  Q 68.87 118.68 69.25 118.35
  Q 70.99 116.80 72.86 118.18
  L 79.05 122.71
  A 1.21 1.21 0.0 0 0 80.74 122.46
  L 80.97 122.14
  A 0.92 0.91 36.8 0 0 80.78 120.86
  L 74.85 116.51
  Q 72.43 114.73 73.77 112.03
  Q 73.96 111.65 74.29 111.37
  Q 76.11 109.86 78.02 111.26
  L 84.19 115.80
  Q 85.30 116.62 85.94 115.40
  L 86.09 115.10
  Q 86.46 114.39 85.80 113.94
  Q 83.20 112.13 80.43 109.92
  C 77.90 107.90 74.80 106.88 72.52 109.94
  Q 71.10 111.85 71.63 114.36
  Q 71.77 114.97 71.14 115.00"
/>
<path stroke="#808080" vector-effect="non-scaling-stroke" d="
  M 69.82 135.48
  Q 70.27 135.57 70.74 135.49
  Q 71.89 135.30 71.79 134.30
  Q 71.75 133.92 71.44 133.69
  L 61.78 126.64
  A 0.93 0.92 49.5 0 0 60.84 126.56
  Q 59.90 127.02 60.27 128.12
  A 0.89 0.89 0.0 0 1 59.76 129.22
  C 55.80 130.78 54.45 135.28 56.90 138.68
  C 60.70 143.93 69.33 143.53 69.35 135.86
  A 0.39 0.39 0.0 0 1 69.82 135.48"
/>
<path stroke="#808080" vector-effect="non-scaling-stroke" d="
  M 57.54 150.37
  C 53.86 156.73 44.70 148.67 50.39 144.45
  C 51.19 143.85 52.34 143.99 53.30 143.88
  A 1.14 1.14 0.0 0 0 54.25 143.09
  Q 54.42 142.51 54.20 141.97
  A 0.82 0.81 -9.0 0 0 53.49 141.46
  Q 48.24 141.16 46.63 145.72
  C 44.49 151.76 51.38 157.34 56.78 154.38
  Q 61.35 151.87 59.96 146.41
  Q 59.64 145.17 58.41 145.52
  Q 58.16 145.59 57.95 145.74
  Q 57.19 146.25 57.58 147.08
  Q 58.42 148.85 57.54 150.37"
/>
<path stroke="#808080" vector-effect="non-scaling-stroke" d="
  M 49.27 163.46
  A 7.15 7.15 0.0 0 0 42.12 156.31
  A 7.15 7.15 0.0 0 0 34.97 163.46
  A 7.15 7.15 0.0 0 0 42.12 170.61
  A 7.15 7.15 0.0 0 0 49.27 163.46"
/>
<path stroke="#808080" vector-effect="non-scaling-stroke" d="
  M 38.51 178.14
  A 7.15 7.15 0.0 0 0 31.36 170.99
  A 7.15 7.15 0.0 0 0 24.21 178.14
  A 7.15 7.15 0.0 0 0 31.36 185.29
  A 7.15 7.15 0.0 0 0 38.51 178.14"
/>
<path stroke="#808080" vector-effect="non-scaling-stroke" d="
  M 98.59 84.28
  L 102.76 78.53
  A 0.15 0.15 0.0 0 0 102.73 78.32
  L 102.65 78.27
  A 3.58 3.38 -54.0 0 0 97.82 79.18
  L 97.68 79.37
  A 3.58 3.38 -54.0 0 0 98.31 84.26
  L 98.38 84.31
  A 0.15 0.15 0.0 0 0 98.59 84.28"
/>
<path stroke="#808080" vector-effect="non-scaling-stroke" d="
  M 91.1561 104.8143
  A 4.89 4.04 36.0 0 0 89.5747 98.6716
  A 4.89 4.04 36.0 0 0 83.2439 99.0657
  A 4.89 4.04 36.0 0 0 84.8253 105.2084
  A 4.89 4.04 36.0 0 0 91.1561 104.8143"
/>
<path stroke="#808080" vector-effect="non-scaling-stroke" d="
  M 66.6973 138.1952
  A 4.91 4.04 35.7 0 0 65.0675 132.0492
  A 4.91 4.04 35.7 0 0 58.7227 132.4648
  A 4.91 4.04 35.7 0 0 60.3525 138.6108
  A 4.91 4.04 35.7 0 0 66.6973 138.1952"
/>
</g>
<path fill="#ffffff" d="
  M 0.00 0.00
  L 210.00 0.00
  L 210.00 10.78
  Q 209.90 10.68 209.81 10.62
  Q 209.61 10.52 209.48 10.70
  L 0.65 296.40
  Q 0.55 296.54 0.58 296.71
  L 0.63 297.00
  L 0.00 297.00
  L 0.00 0.00
  Z
  M 118.35 70.11
  Q 119.24 70.07 119.68 69.33
  Q 119.97 68.84 119.51 68.50
  L 109.76 61.38
  A 1.09 1.09 0.0 0 0 108.25 61.59
  L 107.99 61.94
  A 0.93 0.93 0.0 0 0 108.17 63.25
  L 114.40 67.86
  Q 116.95 69.75 115.02 72.27
  L 114.52 72.93
  Q 113.04 74.85 111.10 73.40
  L 104.52 68.51
  Q 103.49 67.75 102.90 68.88
  L 102.71 69.23
  Q 102.32 69.96 102.97 70.49
  Q 106.22 73.15 109.44 75.25
  C 113.38 77.82 117.24 75.12 117.57 70.86
  A 0.83 0.82 0.8 0 1 118.35 70.11
  Z
  M 100.23 85.38
  Q 102.52 81.96 104.93 79.04
  Q 106.75 76.83 103.87 76.04
  Q 102.94 75.79 102.00 75.53
  A 5.26 5.25 -59.8 0 0 96.93 76.87
  Q 93.29 80.47 95.59 84.78
  C 99.54 92.22 110.59 89.02 108.62 80.34
  Q 108.39 79.31 107.34 79.17
  Q 106.69 79.08 106.30 79.92
  A 1.08 1.05 -44.3 0 0 106.28 80.78
  C 107.88 84.68 104.17 87.56 100.42 86.02
  A 0.43 0.43 0.0 0 1 100.23 85.38
  Z
  M 100.4130 95.6093
  A 0.99 0.99 0.0 0 0 100.2061 94.2246
  L 90.7367 87.2176
  A 0.99 0.99 0.0 0 0 89.3520 87.4245
  L 89.0070 87.8907
  A 0.99 0.99 0.0 0 0 89.2139 89.2754
  L 98.6833 96.2824
  A 0.99 0.99 0.0 0 0 100.0680 96.0755
  L 100.4130 95.6093
  Z
  M 94.34 102.12
  Q 95.27 102.29 96.06 101.73
  A 0.84 0.83 -44.3 0 0 96.08 100.37
  L 86.07 93.08
  A 0.87 0.86 18.3 0 0 84.69 93.77
  L 84.68 95.29
  Q 84.68 95.75 84.25 95.93
  C 76.67 98.96 80.76 108.76 87.48 108.81
  Q 93.50 108.86 93.81 102.54
  Q 93.83 102.03 94.34 102.12
  Z
  M 71.14 115.00
  Q 66.86 115.19 66.54 119.98
  A 1.16 1.16 0.0 0 1 65.44 121.06
  Q 64.42 121.11 64.08 121.98
  Q 63.90 122.44 64.30 122.73
  L 73.92 129.83
  Q 74.87 130.53 75.59 129.59
  L 75.83 129.27
  A 1.02 1.02 0.0 0 0 75.63 127.83
  L 69.54 123.30
  Q 67.28 121.62 68.62 119.14
  Q 68.87 118.68 69.25 118.35
  Q 70.99 116.80 72.86 118.18
  L 79.05 122.71
  A 1.21 1.21 0.0 0 0 80.74 122.46
  L 80.97 122.14
  A 0.92 0.91 36.8 0 0 80.78 120.86
  L 74.85 116.51
  Q 72.43 114.73 73.77 112.03
  Q 73.96 111.65 74.29 111.37
  Q 76.11 109.86 78.02 111.26
  L 84.19 115.80
  Q 85.30 116.62 85.94 115.40
  L 86.09 115.10
  Q 86.46 114.39 85.80 113.94
  Q 83.20 112.13 80.43 109.92
  C 77.90 107.90 74.80 106.88 72.52 109.94
  Q 71.10 111.85 71.63 114.36
  Q 71.77 114.97 71.14 115.00
  Z
  M 69.82 135.48
  Q 70.27 135.57 70.74 135.49
  Q 71.89 135.30 71.79 134.30
  Q 71.75 133.92 71.44 133.69
  L 61.78 126.64
  A 0.93 0.92 49.5 0 0 60.84 126.56
  Q 59.90 127.02 60.27 128.12
  A 0.89 0.89 0.0 0 1 59.76 129.22
  C 55.80 130.78 54.45 135.28 56.90 138.68
  C 60.70 143.93 69.33 143.53 69.35 135.86
  A 0.39 0.39 0.0 0 1 69.82 135.48
  Z
  M 57.54 150.37
  C 53.86 156.73 44.70 148.67 50.39 144.45
  C 51.19 143.85 52.34 143.99 53.30 143.88
  A 1.14 1.14 0.0 0 0 54.25 143.09
  Q 54.42 142.51 54.20 141.97
  A 0.82 0.81 -9.0 0 0 53.49 141.46
  Q 48.24 141.16 46.63 145.72
  C 44.49 151.76 51.38 157.34 56.78 154.38
  Q 61.35 151.87 59.96 146.41
  Q 59.64 145.17 58.41 145.52
  Q 58.16 145.59 57.95 145.74
  Q 57.19 146.25 57.58 147.08
  Q 58.42 148.85 57.54 150.37
  Z
  M 49.27 163.46
  A 7.15 7.15 0.0 0 0 42.12 156.31
  A 7.15 7.15 0.0 0 0 34.97 163.46
  A 7.15 7.15 0.0 0 0 42.12 170.61
  A 7.15 7.15 0.0 0 0 49.27 163.46
  Z
  M 38.51 178.14
  A 7.15 7.15 0.0 0 0 31.36 170.99
  A 7.15 7.15 0.0 0 0 24.21 178.14
  A 7.15 7.15 0.0 0 0 31.36 185.29
  A 7.15 7.15 0.0 0 0 38.51 178.14
  Z"
/>
<path fill="#000000" d="
  M 210.00 10.78
  L 210.00 297.00
  L 0.63 297.00
  L 0.58 296.71
  Q 0.55 296.54 0.65 296.40
  L 209.48 10.70
  Q 209.61 10.52 209.81 10.62
  Q 209.90 10.68 210.00 10.78
  Z"
/>
<path fill="#000000" d="
  M 117.57 70.86
  C 117.24 75.12 113.38 77.82 109.44 75.25
  Q 106.22 73.15 102.97 70.49
  Q 102.32 69.96 102.71 69.23
  L 102.90 68.88
  Q 103.49 67.75 104.52 68.51
  L 111.10 73.40
  Q 113.04 74.85 114.52 72.93
  L 115.02 72.27
  Q 116.95 69.75 114.40 67.86
  L 108.17 63.25
  A 0.93 0.93 0.0 0 1 107.99 61.94
  L 108.25 61.59
  A 1.09 1.09 0.0 0 1 109.76 61.38
  L 119.51 68.50
  Q 119.97 68.84 119.68 69.33
  Q 119.24 70.07 118.35 70.11
  A 0.83 0.82 0.8 0 0 117.57 70.86
  Z"
/>
<path fill="#000000" d="
  M 100.23 85.38
  A 0.43 0.43 0.0 0 0 100.42 86.02
  C 104.17 87.56 107.88 84.68 106.28 80.78
  A 1.08 1.05 -44.3 0 1 106.30 79.92
  Q 106.69 79.08 107.34 79.17
  Q 108.39 79.31 108.62 80.34
  C 110.59 89.02 99.54 92.22 95.59 84.78
  Q 93.29 80.47 96.93 76.87
  A 5.26 5.25 -59.8 0 1 102.00 75.53
  Q 102.94 75.79 103.87 76.04
  Q 106.75 76.83 104.93 79.04
  Q 102.52 81.96 100.23 85.38
  Z
  M 98.59 84.28
  L 102.76 78.53
  A 0.15 0.15 0.0 0 0 102.73 78.32
  L 102.65 78.27
  A 3.58 3.38 -54.0 0 0 97.82 79.18
  L 97.68 79.37
  A 3.58 3.38 -54.0 0 0 98.31 84.26
  L 98.38 84.31
  A 0.15 0.15 0.0 0 0 98.59 84.28
  Z"
/>
<path fill="#ffffff" d="
  M 98.59 84.28
  A 0.15 0.15 0.0 0 1 98.38 84.31
  L 98.31 84.26
  A 3.58 3.38 -54.0 0 1 97.68 79.37
  L 97.82 79.18
  A 3.58 3.38 -54.0 0 1 102.65 78.27
  L 102.73 78.32
  A 0.15 0.15 0.0 0 1 102.76 78.53
  L 98.59 84.28
  Z"
/>
<rect fill="#000000" x="-6.88" y="-1.28" transform="translate(94.71,91.75) rotate(36.5)" width="13.76" height="2.56" rx="0.99"/>
<path fill="#000000" d="
  M 93.81 102.54
  Q 93.50 108.86 87.48 108.81
  C 80.76 108.76 76.67 98.96 84.25 95.93
  Q 84.68 95.75 84.68 95.29
  L 84.69 93.77
  A 0.87 0.86 18.3 0 1 86.07 93.08
  L 96.08 100.37
  A 0.84 0.83 -44.3 0 1 96.06 101.73
  Q 95.27 102.29 94.34 102.12
  Q 93.83 102.03 93.81 102.54
  Z
  M 91.1561 104.8143
  A 4.89 4.04 36.0 0 0 89.5747 98.6716
  A 4.89 4.04 36.0 0 0 83.2439 99.0657
  A 4.89 4.04 36.0 0 0 84.8253 105.2084
  A 4.89 4.04 36.0 0 0 91.1561 104.8143
  Z"
/>
<ellipse fill="#ffffff" cx="0.00" cy="0.00" transform="translate(87.20,101.94) rotate(36.0)" rx="4.89" ry="4.04"/>
<path fill="#000000" d="
  M 71.63 114.36
  Q 71.10 111.85 72.52 109.94
  C 74.80 106.88 77.90 107.90 80.43 109.92
  Q 83.20 112.13 85.80 113.94
  Q 86.46 114.39 86.09 115.10
  L 85.94 115.40
  Q 85.30 116.62 84.19 115.80
  L 78.02 111.26
  Q 76.11 109.86 74.29 111.37
  Q 73.96 111.65 73.77 112.03
  Q 72.43 114.73 74.85 116.51
  L 80.78 120.86
  A 0.92 0.91 36.8 0 1 80.97 122.14
  L 80.74 122.46
  A 1.21 1.21 0.0 0 1 79.05 122.71
  L 72.86 118.18
  Q 70.99 116.80 69.25 118.35
  Q 68.87 118.68 68.62 119.14
  Q 67.28 121.62 69.54 123.30
  L 75.63 127.83
  A 1.02 1.02 0.0 0 1 75.83 129.27
  L 75.59 129.59
  Q 74.87 130.53 73.92 129.83
  L 64.30 122.73
  Q 63.90 122.44 64.08 121.98
  Q 64.42 121.11 65.44 121.06
  A 1.16 1.16 0.0 0 0 66.54 119.98
  Q 66.86 115.19 71.14 115.00
  Q 71.77 114.97 71.63 114.36
  Z"
/>
<path fill="#000000" d="
  M 69.35 135.86
  C 69.33 143.53 60.70 143.93 56.90 138.68
  C 54.45 135.28 55.80 130.78 59.76 129.22
  A 0.89 0.89 0.0 0 0 60.27 128.12
  Q 59.90 127.02 60.84 126.56
  A 0.93 0.92 49.5 0 1 61.78 126.64
  L 71.44 133.69
  Q 71.75 133.92 71.79 134.30
  Q 71.89 135.30 70.74 135.49
  Q 70.27 135.57 69.82 135.48
  A 0.39 0.39 0.0 0 0 69.35 135.86
  Z
  M 66.6973 138.1952
  A 4.91 4.04 35.7 0 0 65.0675 132.0492
  A 4.91 4.04 35.7 0 0 58.7227 132.4648
  A 4.91 4.04 35.7 0 0 60.3525 138.6108
  A 4.91 4.04 35.7 0 0 66.6973 138.1952
  Z"
/>
<ellipse fill="#ffffff" cx="0.00" cy="0.00" transform="translate(62.71,135.33) rotate(35.7)" rx="4.91" ry="4.04"/>
<path fill="#000000" d="
  M 57.54 150.37
  Q 58.42 148.85 57.58 147.08
  Q 57.19 146.25 57.95 145.74
  Q 58.16 145.59 58.41 145.52
  Q 59.64 145.17 59.96 146.41
  Q 61.35 151.87 56.78 154.38
  C 51.38 157.34 44.49 151.76 46.63 145.72
  Q 48.24 141.16 53.49 141.46
  A 0.82 0.81 -9.0 0 1 54.20 141.97
  Q 54.42 142.51 54.25 143.09
  A 1.14 1.14 0.0 0 1 53.30 143.88
  C 52.34 143.99 51.19 143.85 50.39 144.45
  C 44.70 148.67 53.86 156.73 57.54 150.37
  Z"
/>
<circle fill="#000000" cx="42.12" cy="163.46" r="7.15"/>
<circle fill="#000000" cx="31.36" cy="178.14" r="7.15"/>
</svg>
