<?xml version="1.0" encoding="UTF-8" standalone="no"?>
<!DOCTYPE svg PUBLIC "-//W3C//DTD SVG 1.1//EN" "http://www.w3.org/Graphics/SVG/1.1/DTD/svg11.dtd">
<svg xmlns="http://www.w3.org/2000/svg" version="1.1" viewBox="0.00 0.00 210.00 297.00">
<g stroke-width="2.00" fill="none" stroke-linecap="butt">
<path stroke="#ea90a5" vector-effect="non-scaling-stroke" d="
  M 210.00 10.79
  Q 209.58 10.40 209.49 10.64
  Q 209.47 10.69 209.44 10.73
  Q 105.06 153.57 0.65 296.38
  Q 0.53 296.54 0.58 296.73
  L 0.66 297.00"
/>
<path stroke="#94b09c" vector-effect="non-scaling-stroke" d="
  M 50.49 66.26
  L 50.09 66.30
  Q 49.31 66.38 49.19 67.15
  L 48.70 70.28
  A 1.11 1.11 0.0 0 1 46.68 70.72
  L 45.63 69.14
  Q 44.94 68.09 44.81 69.34
  Q 44.68 70.69 46.05 71.63
  C 46.60 72.01 47.11 71.97 47.67 72.22
  Q 48.37 72.53 48.19 73.27
  Q 47.97 74.15 47.03 74.36
  Q 46.49 74.47 46.26 74.96
  Q 46.23 75.01 46.25 75.06
  Q 46.35 75.42 46.71 75.51
  Q 49.69 76.20 52.32 77.98
  A 1.20 1.20 0.0 0 0 53.66 77.98
  Q 54.58 77.37 54.26 76.79
  Q 54.03 76.39 53.59 76.55
  L 53.17 76.70
  Q 52.66 76.88 52.17 76.65
  L 49.29 75.24
  A 0.76 0.76 0.0 0 1 48.88 74.40
  Q 49.22 72.78 50.10 71.28
  C 50.88 69.95 50.91 68.40 51.11 66.90
  A 0.57 0.57 0.0 0 0 50.49 66.26"
/>
<path stroke="#94b09c" vector-effect="non-scaling-stroke" d="
  M 51.30 74.79
  L 53.52 75.15
  A 0.73 0.73 0.0 0 0 54.35 74.54
  L 54.51 73.60
  A 1.81 1.58 -80.8 0 0 53.24 71.56
  L 52.70 71.47
  A 1.81 1.58 -80.8 0 0 50.85 73.00
  L 50.70 73.95
  A 0.73 0.73 0.0 0 0 51.30 74.79"
/>
<path stroke="#ea90a5" vector-effect="non-scaling-stroke" d="
  M 85.92 89.96
  Q 79.66 91.09 73.38 92.02
  Q 73.18 92.05 73.14 91.85
  L 73.14 91.84
  Q 73.10 91.64 73.30 91.60
  Q 78.56 90.44 83.91 89.76
  Q 85.22 89.59 85.70 88.35
  L 86.02 87.50
  Q 86.60 86.00 85.01 86.24
  L 79.94 87.00
  A 1.04 1.00 19.7 0 0 79.40 87.24
  Q 78.79 87.76 78.05 87.51
  A 0.45 0.45 0.0 0 1 77.84 86.81
  L 83.93 78.86
  Q 84.08 78.66 84.29 78.81
  L 84.49 78.96
  Q 84.58 79.02 84.51 79.11
  Q 82.13 82.31 79.36 85.27
  A 0.54 0.53 -28.8 0 0 79.23 85.71
  L 79.35 86.56
  Q 79.43 87.11 79.78 86.68
  L 85.03 80.27
  Q 85.49 79.71 85.48 79.00
  L 85.46 75.18
  Q 85.46 74.40 84.68 74.46
  Q 78.48 74.90 72.10 76.74
  Q 71.01 77.05 71.13 78.18
  L 71.24 79.26
  Q 71.37 80.50 72.52 80.01
  Q 75.19 78.88 78.13 78.61
  Q 80.27 78.41 78.83 80.01
  Q 75.09 84.16 71.86 88.52
  C 71.23 89.37 71.52 90.35 71.97 91.17
  Q 72.18 91.56 71.92 91.91
  Q 71.45 92.56 71.66 93.28
  A 0.78 0.77 -12.0 0 0 72.53 93.84
  Q 79.01 92.76 84.99 91.54
  Q 85.80 91.38 86.30 90.78"
/>
<path stroke="#ea90a5" vector-effect="non-scaling-stroke" d="
  M 86.30 90.78
  Q 88.65 92.21 91.49 91.61
  A 0.97 0.96 2.6 0 0 92.20 90.97
  Q 92.39 90.43 92.83 90.12
  Q 93.33 89.77 93.95 89.92
  Q 95.25 90.23 96.45 90.62
  A 0.83 0.81 -81.6 0 1 97.01 91.39
  C 97.05 93.55 99.76 93.61 101.34 94.12
  Q 102.73 94.58 102.41 93.15
  Q 100.36 84.17 97.60 75.99
  Q 97.39 75.37 96.74 75.24
  L 92.39 74.39
  Q 91.81 74.28 91.63 74.84
  Q 89.71 80.76 87.69 86.74
  Q 87.35 87.76 87.56 89.19
  Q 87.64 89.70 87.18 89.94
  Q 86.60 90.24 85.92 89.96"
/>
<path stroke="#d4204a" vector-effect="non-scaling-stroke" d="
  M 86.30 90.78
  Q 86.24 90.38 85.92 89.96"
/>
<path stroke="#ea90a5" vector-effect="non-scaling-stroke" d="
  M 63.47 89.75
  Q 63.73 90.00 64.07 89.88
  Q 64.55 89.72 64.84 89.31
  Q 67.10 86.06 69.35 83.04
  Q 69.73 82.53 69.58 81.91
  Q 69.14 80.06 69.66 78.16
  A 0.58 0.58 0.0 0 0 68.98 77.45
  L 55.96 80.25
  A 0.65 0.65 0.0 0 0 55.46 81.01
  Q 55.84 83.02 55.08 85.28
  A 0.28 0.27 6.7 0 0 55.37 85.64
  Q 58.25 85.38 61.10 84.75
  Q 61.79 84.60 62.16 83.91
  Q 62.24 83.75 62.25 83.58
  A 0.64 0.64 0.0 0 0 61.38 82.94
  Q 59.08 83.84 56.69 83.62
  Q 56.61 83.61 56.55 83.55
  Q 56.51 83.51 56.51 83.46
  Q 56.48 83.23 56.70 83.20
  Q 59.74 82.81 62.84 82.27
  Q 64.25 82.02 63.34 83.13
  L 56.47 91.44
  Q 56.10 91.89 56.06 92.47
  L 55.81 96.14
  Q 55.72 97.43 57.01 97.29
  Q 63.43 96.55 69.45 94.48
  A 1.07 1.07 0.0 0 0 70.05 92.96
  Q 69.44 91.84 70.08 90.60
  Q 71.05 88.72 69.01 89.27
  L 62.49 91.04
  Q 61.46 91.32 62.01 90.40
  Q 62.27 89.97 62.72 89.68
  A 0.60 0.59 -39.1 0 1 63.47 89.75"
/>
<path stroke="#ea90a5" vector-effect="non-scaling-stroke" d="
  M 45.94 89.56
  C 44.86 91.02 42.46 90.91 40.86 90.60
  Q 40.28 90.49 40.23 91.07
  L 40.19 91.52
  A 0.53 0.52 10.1 0 0 40.59 92.08
  Q 45.23 93.19 47.15 89.87
  Q 47.45 89.35 47.40 88.76
  Q 47.27 87.27 47.17 85.83
  C 46.71 79.54 39.62 79.95 35.40 78.19
  A 0.33 0.32 11.0 0 0 34.95 78.49
  L 34.86 93.72
  Q 34.85 95.32 36.34 95.88
  L 38.90 96.85
  Q 40.43 97.42 40.21 95.81
  L 39.49 90.60
  A 0.58 0.58 0.0 0 1 40.20 89.96
  Q 43.13 90.67 45.68 89.27
  Q 46.49 88.82 45.94 89.56"
/>
<path stroke="#ea90a5" vector-effect="non-scaling-stroke" d="
  M 73.52 80.44
  C 72.68 80.46 71.82 80.19 71.07 80.61
  Q 70.55 80.89 70.58 81.42
  A 0.82 0.81 -7.6 0 0 71.58 82.18
  Q 74.25 81.57 76.86 81.14
  C 77.40 81.05 77.78 80.70 78.08 80.27
  A 0.66 0.66 0.0 0 0 77.58 79.24
  Q 75.93 79.12 74.64 80.06
  A 2.04 2.02 25.9 0 1 73.52 80.44"
/>
<path stroke="#ea90a5" vector-effect="non-scaling-stroke" d="
  M 53.7117 81.2314
  A 0.68 0.68 0.0 0 0 53.0293 80.5537
  L 49.4094 80.5664
  A 0.68 0.68 0.0 0 0 48.7317 81.2487
  L 48.7883 97.4486
  A 0.68 0.68 0.0 0 0 49.4707 98.1263
  L 53.0906 98.1136
  A 0.68 0.68 0.0 0 0 53.7683 97.4313
  L 53.7117 81.2314"
/>
<path stroke="#94b09c" vector-effect="non-scaling-stroke" d="
  M 25.52 94.28
  C 29.96 93.73 33.06 97.77 33.75 101.72
  Q 35.02 108.98 30.95 114.48
  C 28.17 118.24 21.93 120.58 19.70 114.62
  Q 18.85 112.36 18.91 109.63
  A 0.65 0.65 0.0 0 0 17.83 109.12
  Q 15.77 110.89 16.42 113.50
  C 17.95 119.62 24.41 122.92 29.94 119.49
  C 40.36 113.04 41.38 92.64 25.52 92.19
  C 19.52 92.02 14.18 96.85 12.08 102.25
  Q 11.43 103.91 12.29 105.47
  Q 12.71 106.26 13.26 106.92
  Q 14.40 108.30 14.80 106.56
  C 16.10 100.92 19.20 95.07 25.52 94.28"
/>
<path stroke="#94b09c" vector-effect="non-scaling-stroke" d="
  M 27.77 99.75
  A 0.89 0.89 0.0 0 0 27.75 99.34
  L 27.02 96.65
  A 0.89 0.89 0.0 0 0 25.30 96.67
  L 21.10 114.10
  A 0.89 0.89 0.0 0 0 21.37 114.96
  L 23.05 116.51
  A 0.89 0.89 0.0 0 0 24.53 116.02
  L 27.77 99.75"
/>
<path stroke="#94b09c" vector-effect="non-scaling-stroke" d="
  M 71.61 108.42
  Q 71.89 107.50 71.32 106.75
  Q 69.87 104.86 69.07 107.11
  Q 67.68 111.01 65.16 113.86
  Q 63.41 115.84 64.14 113.30
  Q 64.78 111.06 65.70 109.07
  C 66.15 108.09 65.95 106.65 64.64 106.49
  A 1.22 1.17 33.0 0 0 63.95 106.62
  Q 63.26 106.98 62.85 107.57
  Q 62.42 108.18 62.05 107.54
  Q 60.54 105.00 58.25 106.80
  C 55.47 108.98 55.07 112.81 51.44 114.86
  Q 50.37 115.46 50.44 114.25
  L 50.56 111.83
  A 2.03 2.02 77.4 0 1 51.62 110.15
  Q 56.70 107.42 56.63 100.30
  A 1.82 1.80 -82.1 0 0 55.35 98.59
  C 51.12 97.31 48.58 106.55 47.84 109.36
  Q 47.07 112.34 43.42 115.97
  Q 42.70 116.68 41.90 116.31
  A 0.85 0.85 0.0 0 1 41.94 114.75
  C 44.66 113.68 46.75 110.28 45.43 107.32
  A 2.12 2.12 0.0 0 0 42.19 106.50
  Q 38.00 109.77 38.44 115.62
  Q 38.59 117.55 40.16 118.39
  C 42.99 119.92 44.99 116.84 46.30 114.81
  Q 47.53 112.92 47.27 115.16
  Q 47.10 116.59 47.77 117.88
  A 1.79 1.75 -8.2 0 0 49.06 118.82
  C 51.45 119.21 53.12 116.76 54.36 114.99
  Q 55.01 114.05 55.11 115.19
  Q 55.33 117.88 57.20 118.85
  A 0.88 0.88 0.0 0 0 58.26 118.65
  Q 59.25 117.53 60.00 116.18
  Q 61.02 114.32 61.12 116.44
  Q 61.19 117.91 62.35 118.70
  A 1.69 1.68 -57.0 0 0 64.75 118.19
  L 66.91 114.63
  Q 67.35 113.91 67.38 114.75
  Q 67.40 115.29 67.29 115.84
  Q 67.00 117.29 67.50 118.48
  Q 67.70 118.95 68.42 119.01
  A 0.75 0.74 13.0 0 0 69.18 118.54
  L 71.96 111.35
  Q 72.03 111.15 72.24 111.21
  L 72.52 111.29
  Q 72.58 111.31 72.57 111.37
  Q 72.11 114.04 72.12 116.41
  Q 72.13 117.92 73.34 118.82
  A 0.79 0.79 0.0 0 0 74.56 118.47
  L 76.99 111.94
  A 0.19 0.19 0.0 0 1 77.21 111.83
  L 77.47 111.89
  Q 77.48 111.89 77.48 111.91
  Q 76.86 114.83 77.39 117.57
  A 1.66 1.65 3.0 0 0 78.54 118.84
  C 80.70 119.47 81.51 117.21 82.34 115.76
  Q 82.96 114.68 83.20 115.90
  Q 83.53 117.61 84.71 118.60
  A 1.34 1.33 -55.8 0 0 86.74 118.21
  Q 87.57 116.67 88.58 115.49
  Q 89.12 114.85 89.09 115.69
  Q 89.01 117.40 90.06 118.51
  A 1.63 1.63 0.0 0 0 92.60 118.32
  Q 93.91 116.40 94.92 114.36
  Q 95.00 114.21 95.17 114.22
  Q 95.22 114.22 95.26 114.26
  Q 95.52 114.52 95.41 114.90
  Q 94.89 116.76 95.31 117.77
  Q 96.48 120.57 97.56 117.62
  Q 98.70 114.50 99.84 111.45
  Q 99.97 111.10 100.33 111.20
  L 100.58 111.27
  Q 100.65 111.29 100.64 111.35
  Q 100.07 114.62 100.13 116.40
  Q 100.17 117.60 101.06 118.65
  A 0.87 0.87 0.0 0 0 102.53 118.42
  Q 103.82 115.31 104.97 111.92
  Q 105.02 111.77 105.17 111.75
  Q 105.23 111.75 105.27 111.77
  Q 105.46 111.85 105.43 112.05
  C 105.17 114.08 104.61 116.92 106.21 118.56
  A 1.65 1.65 0.0 0 0 108.77 118.32
  L 110.30 116.00
  Q 110.98 114.96 111.24 116.17
  Q 111.60 117.90 113.06 118.83
  Q 113.52 119.12 113.96 118.80
  Q 115.31 117.81 115.97 116.00
  Q 116.07 115.70 116.29 115.48
  Q 116.81 114.95 116.96 115.68
  L 117.38 117.63
  Q 117.51 118.20 118.01 118.52
  Q 119.82 119.65 121.05 117.71
  Q 123.57 113.70 125.29 109.34
  Q 125.40 109.05 125.14 108.87
  L 124.92 108.72
  A 0.24 0.24 0.0 0 0 124.57 108.80
  Q 123.13 111.20 121.57 113.40
  Q 119.50 116.32 120.28 112.83
  C 120.62 111.29 122.27 108.87 121.79 107.45
  Q 121.21 105.70 119.00 107.26
  A 2.78 2.75 -9.0 0 0 117.98 108.65
  Q 116.75 112.44 114.46 114.89
  Q 113.25 116.19 113.67 114.46
  C 114.08 112.79 115.35 108.39 117.52 108.08
  A 0.52 0.51 -13.2 0 0 117.94 107.41
  Q 117.60 106.36 116.65 106.20
  Q 114.06 105.76 112.73 108.44
  Q 111.40 111.13 109.50 113.62
  Q 107.66 116.06 108.30 113.07
  Q 108.70 111.21 109.46 109.22
  Q 110.29 107.06 108.23 106.29
  A 1.90 1.90 0.0 0 0 105.92 107.13
  L 104.17 110.18
  Q 103.60 111.17 103.72 110.03
  L 103.92 107.96
  A 1.55 1.55 0.0 0 0 102.22 106.26
  C 100.86 106.39 100.62 107.53 99.91 108.59
  Q 99.29 109.51 99.54 108.43
  Q 100.01 106.40 98.31 105.88
  A 0.83 0.82 16.5 0 0 97.28 106.43
  Q 95.96 110.79 93.04 113.97
  Q 91.24 115.92 92.11 113.42
  L 93.89 108.33
  A 1.36 1.35 4.1 0 0 92.35 106.56
  Q 91.39 106.74 90.73 107.61
  Q 90.34 108.11 90.04 107.55
  Q 88.60 104.92 85.84 107.03
  A 3.89 3.83 -6.6 0 0 84.68 108.47
  Q 83.30 111.42 81.48 113.70
  Q 79.63 116.02 80.31 113.13
  Q 80.79 111.06 81.51 109.03
  Q 82.14 107.25 80.56 106.44
  A 1.93 1.93 0.0 0 0 78.22 106.87
  Q 76.96 108.29 76.35 110.00
  Q 75.78 111.61 75.79 109.90
  Q 75.80 108.98 75.87 107.96
  Q 75.99 106.37 74.48 106.21
  C 73.13 106.07 72.44 107.59 71.88 108.54
  Q 71.26 109.59 71.61 108.42"
/>
<path stroke="#94b09c" vector-effect="non-scaling-stroke" d="
  M 52.19 72.48
  Q 51.82 72.84 51.82 73.33
  A 0.37 0.36 77.0 0 0 52.34 73.66
  Q 52.46 73.60 52.59 73.63
  Q 52.94 73.70 53.01 73.35
  Q 53.16 72.70 52.64 72.42
  A 0.38 0.37 37.0 0 0 52.19 72.48"
/>
<path stroke="#ea90a5" vector-effect="non-scaling-stroke" d="
  M 95.35 83.27
  Q 95.55 81.96 95.02 80.79
  Q 94.65 79.97 94.21 80.76
  Q 93.92 81.29 94.13 81.88
  Q 94.31 82.38 94.06 82.85
  L 93.37 84.18
  Q 93.00 84.90 93.79 85.07
  L 95.32 85.38
  Q 96.33 85.60 95.98 84.62
  Q 95.88 84.34 95.66 84.14
  Q 95.28 83.78 95.35 83.27"
/>
<path stroke="#ea90a5" vector-effect="non-scaling-stroke" d="
  M 101.39 91.72
  Q 98.10 91.52 97.46 89.34
  Q 97.32 88.87 96.88 88.65
  Q 95.06 87.75 93.03 87.76
  A 0.92 0.90 -73.7 0 0 92.26 88.19
  Q 91.29 89.72 89.27 89.72
  Q 88.32 89.72 89.22 90.02
  Q 89.98 90.28 90.81 90.19
  Q 91.53 90.11 91.97 89.53
  C 93.30 87.75 96.30 88.54 97.34 90.37
  Q 98.51 92.45 101.30 92.41
  Q 101.55 92.41 101.55 92.16
  L 101.56 91.91
  Q 101.57 91.73 101.39 91.72"
/>
<path stroke="#ea90a5" vector-effect="non-scaling-stroke" d="
  M 63.3822 88.8141
  A 4.30 0.31 127.0 0 0 66.2176 85.5666
  A 4.30 0.31 127.0 0 0 68.5578 81.9459
  A 4.30 0.31 127.0 0 0 65.7224 85.1934
  A 4.30 0.31 127.0 0 0 63.3822 88.8141"
/>
<path stroke="#ea90a5" vector-effect="non-scaling-stroke" d="
  M 68.5289 92.9433
  A 0.26 0.26 0.0 0 0 68.2157 92.7506
  L 57.6514 95.2674
  A 0.26 0.26 0.0 0 0 57.4587 95.5806
  L 57.4911 95.7167
  A 0.26 0.26 0.0 0 0 57.8043 95.9094
  L 68.3686 93.3926
  A 0.26 0.26 0.0 0 0 68.5613 93.0794
  L 68.5289 92.9433"
/>
<path stroke="#ea90a5" vector-effect="non-scaling-stroke" d="
  M 41.55 83.76
  Q 41.07 82.96 40.34 83.01
  Q 39.87 83.04 39.85 83.51
  L 39.78 85.78
  Q 39.76 86.35 40.22 86.68
  Q 40.90 87.18 41.70 86.90
  Q 42.20 86.73 42.38 86.25
  Q 43.09 84.43 41.55 83.76"
/>
<path stroke="#ea90a5" vector-effect="non-scaling-stroke" d="
  M 41.55 83.76
  L 40.71 83.80
  Q 40.17 83.82 40.12 84.36
  Q 40.04 85.16 40.84 85.56
  Q 41.21 85.74 41.56 85.59
  Q 41.92 85.44 42.05 85.08
  Q 42.21 84.63 41.92 84.25
  L 41.55 83.76"
/>
<path stroke="#ea90a5" vector-effect="non-scaling-stroke" d="
  M 36.22 93.93
  Q 37.64 94.92 39.29 95.34
  Q 39.37 95.37 39.39 95.28
  Q 39.40 95.23 39.44 95.19
  Q 39.69 94.91 39.35 94.75
  Q 37.87 94.03 36.39 93.58
  Q 35.19 93.21 36.22 93.93"
/>
<path stroke="#ea90a5" vector-effect="non-scaling-stroke" d="
  M 52.34 95.97
  Q 51.49 95.67 50.60 95.87
  Q 48.72 96.30 50.62 96.64
  Q 51.52 96.80 52.35 96.47
  Q 53.01 96.21 52.34 95.97"
/>
<path stroke="#94b09c" vector-effect="non-scaling-stroke" d="
  M 51.8016 108.7426
  A 3.63 0.82 114.9 0 0 54.0738 105.7952
  A 3.63 0.82 114.9 0 0 54.8584 102.1574
  A 3.63 0.82 114.9 0 0 52.5862 105.1048
  A 3.63 0.82 114.9 0 0 51.8016 108.7426"
/>
<path stroke="#94b09c" vector-effect="non-scaling-stroke" d="
  M 41.6669 113.1412
  A 2.65 0.72 117.0 0 0 43.5115 111.1069
  A 2.65 0.72 117.0 0 0 44.0731 108.4188
  A 2.65 0.72 117.0 0 0 42.2285 110.4531
  A 2.65 0.72 117.0 0 0 41.6669 113.1412"
/>
<path stroke="#94b09c" vector-effect="non-scaling-stroke" d="
  M 57.5231 115.4335
  A 4.25 0.93 119.1 0 0 60.4026 112.1723
  A 4.25 0.93 119.1 0 0 61.6569 108.0065
  A 4.25 0.93 119.1 0 0 58.7774 111.2677
  A 4.25 0.93 119.1 0 0 57.5231 115.4335"
/>
<path stroke="#94b09c" vector-effect="non-scaling-stroke" d="
  M 89.95 108.52
  L 88.80 107.93
  A 0.29 0.29 0.0 0 0 88.41 108.06
  L 87.59 109.66
  A 5.95 0.81 -63.0 0 0 85.61 115.33
  L 85.84 115.45
  A 5.95 0.81 -63.0 0 0 89.26 110.52
  L 90.08 108.91
  A 0.29 0.29 0.0 0 0 89.95 108.52"
/>
</g>
<path fill="#ffffff" d="
  M 0.00 0.00
  L 210.00 0.00
  L 210.00 10.79
  Q 209.58 10.40 209.49 10.64
  Q 209.47 10.69 209.44 10.73
  Q 105.06 153.57 0.65 296.38
  Q 0.53 296.54 0.58 296.73
  L 0.66 297.00
  L 0.00 297.00
  L 0.00 0.00
  Z
  M 50.49 66.26
  L 50.09 66.30
  Q 49.31 66.38 49.19 67.15
  L 48.70 70.28
  A 1.11 1.11 0.0 0 1 46.68 70.72
  L 45.63 69.14
  Q 44.94 68.09 44.81 69.34
  Q 44.68 70.69 46.05 71.63
  C 46.60 72.01 47.11 71.97 47.67 72.22
  Q 48.37 72.53 48.19 73.27
  Q 47.97 74.15 47.03 74.36
  Q 46.49 74.47 46.26 74.96
  Q 46.23 75.01 46.25 75.06
  Q 46.35 75.42 46.71 75.51
  Q 49.69 76.20 52.32 77.98
  A 1.20 1.20 0.0 0 0 53.66 77.98
  Q 54.58 77.37 54.26 76.79
  Q 54.03 76.39 53.59 76.55
  L 53.17 76.70
  Q 52.66 76.88 52.17 76.65
  L 49.29 75.24
  A 0.76 0.76 0.0 0 1 48.88 74.40
  Q 49.22 72.78 50.10 71.28
  C 50.88 69.95 50.91 68.40 51.11 66.90
  A 0.57 0.57 0.0 0 0 50.49 66.26
  Z
  M 51.30 74.79
  L 53.52 75.15
  A 0.73 0.73 0.0 0 0 54.35 74.54
  L 54.51 73.60
  A 1.81 1.58 -80.8 0 0 53.24 71.56
  L 52.70 71.47
  A 1.81 1.58 -80.8 0 0 50.85 73.00
  L 50.70 73.95
  A 0.73 0.73 0.0 0 0 51.30 74.79
  Z
  M 85.92 89.96
  Q 79.66 91.09 73.38 92.02
  Q 73.18 92.05 73.14 91.85
  L 73.14 91.84
  Q 73.10 91.64 73.30 91.60
  Q 78.56 90.44 83.91 89.76
  Q 85.22 89.59 85.70 88.35
  L 86.02 87.50
  Q 86.60 86.00 85.01 86.24
  L 79.94 87.00
  A 1.04 1.00 19.7 0 0 79.40 87.24
  Q 78.79 87.76 78.05 87.51
  A 0.45 0.45 0.0 0 1 77.84 86.81
  L 83.93 78.86
  Q 84.08 78.66 84.29 78.81
  L 84.49 78.96
  Q 84.58 79.02 84.51 79.11
  Q 82.13 82.31 79.36 85.27
  A 0.54 0.53 -28.8 0 0 79.23 85.71
  L 79.35 86.56
  Q 79.43 87.11 79.78 86.68
  L 85.03 80.27
  Q 85.49 79.71 85.48 79.00
  L 85.46 75.18
  Q 85.46 74.40 84.68 74.46
  Q 78.48 74.90 72.10 76.74
  Q 71.01 77.05 71.13 78.18
  L 71.24 79.26
  Q 71.37 80.50 72.52 80.01
  Q 75.19 78.88 78.13 78.61
  Q 80.27 78.41 78.83 80.01
  Q 75.09 84.16 71.86 88.52
  C 71.23 89.37 71.52 90.35 71.97 91.17
  Q 72.18 91.56 71.92 91.91
  Q 71.45 92.56 71.66 93.28
  A 0.78 0.77 -12.0 0 0 72.53 93.84
  Q 79.01 92.76 84.99 91.54
  Q 85.80 91.38 86.30 90.78
  Q 88.65 92.21 91.49 91.61
  A 0.97 0.96 2.6 0 0 92.20 90.97
  Q 92.39 90.43 92.83 90.12
  Q 93.33 89.77 93.95 89.92
  Q 95.25 90.23 96.45 90.62
  A 0.83 0.81 -81.6 0 1 97.01 91.39
  C 97.05 93.55 99.76 93.61 101.34 94.12
  Q 102.73 94.58 102.41 93.15
  Q 100.36 84.17 97.60 75.99
  Q 97.39 75.37 96.74 75.24
  L 92.39 74.39
  Q 91.81 74.28 91.63 74.84
  Q 89.71 80.76 87.69 86.74
  Q 87.35 87.76 87.56 89.19
  Q 87.64 89.70 87.18 89.94
  Q 86.60 90.24 85.92 89.96
  Z
  M 63.47 89.75
  Q 63.73 90.00 64.07 89.88
  Q 64.55 89.72 64.84 89.31
  Q 67.10 86.06 69.35 83.04
  Q 69.73 82.53 69.58 81.91
  Q 69.14 80.06 69.66 78.16
  A 0.58 0.58 0.0 0 0 68.98 77.45
  L 55.96 80.25
  A 0.65 0.65 0.0 0 0 55.46 81.01
  Q 55.84 83.02 55.08 85.28
  A 0.28 0.27 6.7 0 0 55.37 85.64
  Q 58.25 85.38 61.10 84.75
  Q 61.79 84.60 62.16 83.91
  Q 62.24 83.75 62.25 83.58
  A 0.64 0.64 0.0 0 0 61.38 82.94
  Q 59.08 83.84 56.69 83.62
  Q 56.61 83.61 56.55 83.55
  Q 56.51 83.51 56.51 83.46
  Q 56.48 83.23 56.70 83.20
  Q 59.74 82.81 62.84 82.27
  Q 64.25 82.02 63.34 83.13
  L 56.47 91.44
  Q 56.10 91.89 56.06 92.47
  L 55.81 96.14
  Q 55.72 97.43 57.01 97.29
  Q 63.43 96.55 69.45 94.48
  A 1.07 1.07 0.0 0 0 70.05 92.96
  Q 69.44 91.84 70.08 90.60
  Q 71.05 88.72 69.01 89.27
  L 62.49 91.04
  Q 61.46 91.32 62.01 90.40
  Q 62.27 89.97 62.72 89.68
  A 0.60 0.59 -39.1 0 1 63.47 89.75
  Z
  M 45.94 89.56
  C 44.86 91.02 42.46 90.91 40.86 90.60
  Q 40.28 90.49 40.23 91.07
  L 40.19 91.52
  A 0.53 0.52 10.1 0 0 40.59 92.08
  Q 45.23 93.19 47.15 89.87
  Q 47.45 89.35 47.40 88.76
  Q 47.27 87.27 47.17 85.83
  C 46.71 79.54 39.62 79.95 35.40 78.19
  A 0.33 0.32 11.0 0 0 34.95 78.49
  L 34.86 93.72
  Q 34.85 95.32 36.34 95.88
  L 38.90 96.85
  Q 40.43 97.42 40.21 95.81
  L 39.49 90.60
  A 0.58 0.58 0.0 0 1 40.20 89.96
  Q 43.13 90.67 45.68 89.27
  Q 46.49 88.82 45.94 89.56
  Z
  M 73.52 80.44
  C 72.68 80.46 71.82 80.19 71.07 80.61
  Q 70.55 80.89 70.58 81.42
  A 0.82 0.81 -7.6 0 0 71.58 82.18
  Q 74.25 81.57 76.86 81.14
  C 77.40 81.05 77.78 80.70 78.08 80.27
  A 0.66 0.66 0.0 0 0 77.58 79.24
  Q 75.93 79.12 74.64 80.06
  A 2.04 2.02 25.9 0 1 73.52 80.44
  Z
  M 53.7117 81.2314
  A 0.68 0.68 0.0 0 0 53.0293 80.5537
  L 49.4094 80.5664
  A 0.68 0.68 0.0 0 0 48.7317 81.2487
  L 48.7883 97.4486
  A 0.68 0.68 0.0 0 0 49.4707 98.1263
  L 53.0906 98.1136
  A 0.68 0.68 0.0 0 0 53.7683 97.4313
  L 53.7117 81.2314
  Z
  M 25.52 94.28
  C 29.96 93.73 33.06 97.77 33.75 101.72
  Q 35.02 108.98 30.95 114.48
  C 28.17 118.24 21.93 120.58 19.70 114.62
  Q 18.85 112.36 18.91 109.63
  A 0.65 0.65 0.0 0 0 17.83 109.12
  Q 15.77 110.89 16.42 113.50
  C 17.95 119.62 24.41 122.92 29.94 119.49
  C 40.36 113.04 41.38 92.64 25.52 92.19
  C 19.52 92.02 14.18 96.85 12.08 102.25
  Q 11.43 103.91 12.29 105.47
  Q 12.71 106.26 13.26 106.92
  Q 14.40 108.30 14.80 106.56
  C 16.10 100.92 19.20 95.07 25.52 94.28
  Z
  M 27.77 99.75
  A 0.89 0.89 0.0 0 0 27.75 99.34
  L 27.02 96.65
  A 0.89 0.89 0.0 0 0 25.30 96.67
  L 21.10 114.10
  A 0.89 0.89 0.0 0 0 21.37 114.96
  L 23.05 116.51
  A 0.89 0.89 0.0 0 0 24.53 116.02
  L 27.77 99.75
  Z
  M 71.61 108.42
  Q 71.89 107.50 71.32 106.75
  Q 69.87 104.86 69.07 107.11
  Q 67.68 111.01 65.16 113.86
  Q 63.41 115.84 64.14 113.30
  Q 64.78 111.06 65.70 109.07
  C 66.15 108.09 65.95 106.65 64.64 106.49
  A 1.22 1.17 33.0 0 0 63.95 106.62
  Q 63.26 106.98 62.85 107.57
  Q 62.42 108.18 62.05 107.54
  Q 60.54 105.00 58.25 106.80
  C 55.47 108.98 55.07 112.81 51.44 114.86
  Q 50.37 115.46 50.44 114.25
  L 50.56 111.83
  A 2.03 2.02 77.4 0 1 51.62 110.15
  Q 56.70 107.42 56.63 100.30
  A 1.82 1.80 -82.1 0 0 55.35 98.59
  C 51.12 97.31 48.58 106.55 47.84 109.36
  Q 47.07 112.34 43.42 115.97
  Q 42.70 116.68 41.90 116.31
  A 0.85 0.85 0.0 0 1 41.94 114.75
  C 44.66 113.68 46.75 110.28 45.43 107.32
  A 2.12 2.12 0.0 0 0 42.19 106.50
  Q 38.00 109.77 38.44 115.62
  Q 38.59 117.55 40.16 118.39
  C 42.99 119.92 44.99 116.84 46.30 114.81
  Q 47.53 112.92 47.27 115.16
  Q 47.10 116.59 47.77 117.88
  A 1.79 1.75 -8.2 0 0 49.06 118.82
  C 51.45 119.21 53.12 116.76 54.36 114.99
  Q 55.01 114.05 55.11 115.19
  Q 55.33 117.88 57.20 118.85
  A 0.88 0.88 0.0 0 0 58.26 118.65
  Q 59.25 117.53 60.00 116.18
  Q 61.02 114.32 61.12 116.44
  Q 61.19 117.91 62.35 118.70
  A 1.69 1.68 -57.0 0 0 64.75 118.19
  L 66.91 114.63
  Q 67.35 113.91 67.38 114.75
  Q 67.40 115.29 67.29 115.84
  Q 67.00 117.29 67.50 118.48
  Q 67.70 118.95 68.42 119.01
  A 0.75 0.74 13.0 0 0 69.18 118.54
  L 71.96 111.35
  Q 72.03 111.15 72.24 111.21
  L 72.52 111.29
  Q 72.58 111.31 72.57 111.37
  Q 72.11 114.04 72.12 116.41
  Q 72.13 117.92 73.34 118.82
  A 0.79 0.79 0.0 0 0 74.56 118.47
  L 76.99 111.94
  A 0.19 0.19 0.0 0 1 77.21 111.83
  L 77.47 111.89
  Q 77.48 111.89 77.48 111.91
  Q 76.86 114.83 77.39 117.57
  A 1.66 1.65 3.0 0 0 78.54 118.84
  C 80.70 119.47 81.51 117.21 82.34 115.76
  Q 82.96 114.68 83.20 115.90
  Q 83.53 117.61 84.71 118.60
  A 1.34 1.33 -55.8 0 0 86.74 118.21
  Q 87.57 116.67 88.58 115.49
  Q 89.12 114.85 89.09 115.69
  Q 89.01 117.40 90.06 118.51
  A 1.63 1.63 0.0 0 0 92.60 118.32
  Q 93.91 116.40 94.92 114.36
  Q 95.00 114.21 95.17 114.22
  Q 95.22 114.22 95.26 114.26
  Q 95.52 114.52 95.41 114.90
  Q 94.89 116.76 95.31 117.77
  Q 96.48 120.57 97.56 117.62
  Q 98.70 114.50 99.84 111.45
  Q 99.97 111.10 100.33 111.20
  L 100.58 111.27
  Q 100.65 111.29 100.64 111.35
  Q 100.07 114.62 100.13 116.40
  Q 100.17 117.60 101.06 118.65
  A 0.87 0.87 0.0 0 0 102.53 118.42
  Q 103.82 115.31 104.97 111.92
  Q 105.02 111.77 105.17 111.75
  Q 105.23 111.75 105.27 111.77
  Q 105.46 111.85 105.43 112.05
  C 105.17 114.08 104.61 116.92 106.21 118.56
  A 1.65 1.65 0.0 0 0 108.77 118.32
  L 110.30 116.00
  Q 110.98 114.96 111.24 116.17
  Q 111.60 117.90 113.06 118.83
  Q 113.52 119.12 113.96 118.80
  Q 115.31 117.81 115.97 116.00
  Q 116.07 115.70 116.29 115.48
  Q 116.81 114.95 116.96 115.68
  L 117.38 117.63
  Q 117.51 118.20 118.01 118.52
  Q 119.82 119.65 121.05 117.71
  Q 123.57 113.70 125.29 109.34
  Q 125.40 109.05 125.14 108.87
  L 124.92 108.72
  A 0.24 0.24 0.0 0 0 124.57 108.80
  Q 123.13 111.20 121.57 113.40
  Q 119.50 116.32 120.28 112.83
  C 120.62 111.29 122.27 108.87 121.79 107.45
  Q 121.21 105.70 119.00 107.26
  A 2.78 2.75 -9.0 0 0 117.98 108.65
  Q 116.75 112.44 114.46 114.89
  Q 113.25 116.19 113.67 114.46
  C 114.08 112.79 115.35 108.39 117.52 108.08
  A 0.52 0.51 -13.2 0 0 117.94 107.41
  Q 117.60 106.36 116.65 106.20
  Q 114.06 105.76 112.73 108.44
  Q 111.40 111.13 109.50 113.62
  Q 107.66 116.06 108.30 113.07
  Q 108.70 111.21 109.46 109.22
  Q 110.29 107.06 108.23 106.29
  A 1.90 1.90 0.0 0 0 105.92 107.13
  L 104.17 110.18
  Q 103.60 111.17 103.72 110.03
  L 103.92 107.96
  A 1.55 1.55 0.0 0 0 102.22 106.26
  C 100.86 106.39 100.62 107.53 99.91 108.59
  Q 99.29 109.51 99.54 108.43
  Q 100.01 106.40 98.31 105.88
  A 0.83 0.82 16.5 0 0 97.28 106.43
  Q 95.96 110.79 93.04 113.97
  Q 91.24 115.92 92.11 113.42
  L 93.89 108.33
  A 1.36 1.35 4.1 0 0 92.35 106.56
  Q 91.39 106.74 90.73 107.61
  Q 90.34 108.11 90.04 107.55
  Q 88.60 104.92 85.84 107.03
  A 3.89 3.83 -6.6 0 0 84.68 108.47
  Q 83.30 111.42 81.48 113.70
  Q 79.63 116.02 80.31 113.13
  Q 80.79 111.06 81.51 109.03
  Q 82.14 107.25 80.56 106.44
  A 1.93 1.93 0.0 0 0 78.22 106.87
  Q 76.96 108.29 76.35 110.00
  Q 75.78 111.61 75.79 109.90
  Q 75.80 108.98 75.87 107.96
  Q 75.99 106.37 74.48 106.21
  C 73.13 106.07 72.44 107.59 71.88 108.54
  Q 71.26 109.59 71.61 108.42
  Z"
/>
<path fill="#d4204a" d="
  M 210.00 10.79
  L 210.00 297.00
  L 0.66 297.00
  L 0.58 296.73
  Q 0.53 296.54 0.65 296.38
  Q 105.06 153.57 209.44 10.73
  Q 209.47 10.69 209.49 10.64
  Q 209.58 10.40 210.00 10.79
  Z"
/>
<path fill="#296139" d="
  M 51.11 66.90
  C 50.91 68.40 50.88 69.95 50.10 71.28
  Q 49.22 72.78 48.88 74.40
  A 0.76 0.76 0.0 0 0 49.29 75.24
  L 52.17 76.65
  Q 52.66 76.88 53.17 76.70
  L 53.59 76.55
  Q 54.03 76.39 54.26 76.79
  Q 54.58 77.37 53.66 77.98
  A 1.20 1.20 0.0 0 1 52.32 77.98
  Q 49.69 76.20 46.71 75.51
  Q 46.35 75.42 46.25 75.06
  Q 46.23 75.01 46.26 74.96
  Q 46.49 74.47 47.03 74.36
  Q 47.97 74.15 48.19 73.27
  Q 48.37 72.53 47.67 72.22
  C 47.11 71.97 46.60 72.01 46.05 71.63
  Q 44.68 70.69 44.81 69.34
  Q 44.94 68.09 45.63 69.14
  L 46.68 70.72
  A 1.11 1.11 0.0 0 0 48.70 70.28
  L 49.19 67.15
  Q 49.31 66.38 50.09 66.30
  L 50.49 66.26
  A 0.57 0.57 0.0 0 1 51.11 66.90
  Z"
/>
<path fill="#296139" d="
  M 51.30 74.79
  A 0.73 0.73 0.0 0 1 50.70 73.95
  L 50.85 73.00
  A 1.81 1.58 -80.8 0 1 52.70 71.47
  L 53.24 71.56
  A 1.81 1.58 -80.8 0 1 54.51 73.60
  L 54.35 74.54
  A 0.73 0.73 0.0 0 1 53.52 75.15
  L 51.30 74.79
  Z
  M 52.19 72.48
  Q 51.82 72.84 51.82 73.33
  A 0.37 0.36 77.0 0 0 52.34 73.66
  Q 52.46 73.60 52.59 73.63
  Q 52.94 73.70 53.01 73.35
  Q 53.16 72.70 52.64 72.42
  A 0.38 0.37 37.0 0 0 52.19 72.48
  Z"
/>
<path fill="#ffffff" d="
  M 52.19 72.48
  A 0.38 0.37 37.0 0 1 52.64 72.42
  Q 53.16 72.70 53.01 73.35
  Q 52.94 73.70 52.59 73.63
  Q 52.46 73.60 52.34 73.66
  A 0.37 0.36 77.0 0 1 51.82 73.33
  Q 51.82 72.84 52.19 72.48
  Z"
/>
<path fill="#d4204a" d="
  M 86.30 90.78
  Q 86.24 90.38 85.92 89.96
  Q 86.60 90.24 87.18 89.94
  Q 87.64 89.70 87.56 89.19
  Q 87.35 87.76 87.69 86.74
  Q 89.71 80.76 91.63 74.84
  Q 91.81 74.28 92.39 74.39
  L 96.74 75.24
  Q 97.39 75.37 97.60 75.99
  Q 100.36 84.17 102.41 93.15
  Q 102.73 94.58 101.34 94.12
  C 99.76 93.61 97.05 93.55 97.01 91.39
  A 0.83 0.81 -81.6 0 0 96.45 90.62
  Q 95.25 90.23 93.95 89.92
  Q 93.33 89.77 92.83 90.12
  Q 92.39 90.43 92.20 90.97
  A 0.97 0.96 2.6 0 1 91.49 91.61
  Q 88.65 92.21 86.30 90.78
  Z
  M 95.35 83.27
  Q 95.55 81.96 95.02 80.79
  Q 94.65 79.97 94.21 80.76
  Q 93.92 81.29 94.13 81.88
  Q 94.31 82.38 94.06 82.85
  L 93.37 84.18
  Q 93.00 84.90 93.79 85.07
  L 95.32 85.38
  Q 96.33 85.60 95.98 84.62
  Q 95.88 84.34 95.66 84.14
  Q 95.28 83.78 95.35 83.27
  Z
  M 101.39 91.72
  Q 98.10 91.52 97.46 89.34
  Q 97.32 88.87 96.88 88.65
  Q 95.06 87.75 93.03 87.76
  A 0.92 0.90 -73.7 0 0 92.26 88.19
  Q 91.29 89.72 89.27 89.72
  Q 88.32 89.72 89.22 90.02
  Q 89.98 90.28 90.81 90.19
  Q 91.53 90.11 91.97 89.53
  C 93.30 87.75 96.30 88.54 97.34 90.37
  Q 98.51 92.45 101.30 92.41
  Q 101.55 92.41 101.55 92.16
  L 101.56 91.91
  Q 101.57 91.73 101.39 91.72
  Z"
/>
<path fill="#d4204a" d="
  M 85.92 89.96
  Q 86.24 90.38 86.30 90.78
  Q 85.80 91.38 84.99 91.54
  Q 79.01 92.76 72.53 93.84
  A 0.78 0.77 -12.0 0 1 71.66 93.28
  Q 71.45 92.56 71.92 91.91
  Q 72.18 91.56 71.97 91.17
  C 71.52 90.35 71.23 89.37 71.86 88.52
  Q 75.09 84.16 78.83 80.01
  Q 80.27 78.41 78.13 78.61
  Q 75.19 78.88 72.52 80.01
  Q 71.37 80.50 71.24 79.26
  L 71.13 78.18
  Q 71.01 77.05 72.10 76.74
  Q 78.48 74.90 84.68 74.46
  Q 85.46 74.40 85.46 75.18
  L 85.48 79.00
  Q 85.49 79.71 85.03 80.27
  L 79.78 86.68
  Q 79.43 87.11 79.35 86.56
  L 79.23 85.71
  A 0.54 0.53 -28.8 0 1 79.36 85.27
  Q 82.13 82.31 84.51 79.11
  Q 84.58 79.02 84.49 78.96
  L 84.29 78.81
  Q 84.08 78.66 83.93 78.86
  L 77.84 86.81
  A 0.45 0.45 0.0 0 0 78.05 87.51
  Q 78.79 87.76 79.40 87.24
  A 1.04 1.00 19.7 0 1 79.94 87.00
  L 85.01 86.24
  Q 86.60 86.00 86.02 87.50
  L 85.70 88.35
  Q 85.22 89.59 83.91 89.76
  Q 78.56 90.44 73.30 91.60
  Q 73.10 91.64 73.14 91.84
  L 73.14 91.85
  Q 73.18 92.05 73.38 92.02
  Q 79.66 91.09 85.92 89.96
  Z"
/>
<path fill="#d4204a" d="
  M 62.72 89.68
  Q 62.27 89.97 62.01 90.40
  Q 61.46 91.32 62.49 91.04
  L 69.01 89.27
  Q 71.05 88.72 70.08 90.60
  Q 69.44 91.84 70.05 92.96
  A 1.07 1.07 0.0 0 1 69.45 94.48
  Q 63.43 96.55 57.01 97.29
  Q 55.72 97.43 55.81 96.14
  L 56.06 92.47
  Q 56.10 91.89 56.47 91.44
  L 63.34 83.13
  Q 64.25 82.02 62.84 82.27
  Q 59.74 82.81 56.70 83.20
  Q 56.48 83.23 56.51 83.46
  Q 56.51 83.51 56.55 83.55
  Q 56.61 83.61 56.69 83.62
  Q 59.08 83.84 61.38 82.94
  A 0.64 0.64 0.0 0 1 62.25 83.58
  Q 62.24 83.75 62.16 83.91
  Q 61.79 84.60 61.10 84.75
  Q 58.25 85.38 55.37 85.64
  A 0.28 0.27 6.7 0 1 55.08 85.28
  Q 55.84 83.02 55.46 81.01
  A 0.65 0.65 0.0 0 1 55.96 80.25
  L 68.98 77.45
  A 0.58 0.58 0.0 0 1 69.66 78.16
  Q 69.14 80.06 69.58 81.91
  Q 69.73 82.53 69.35 83.04
  Q 67.10 86.06 64.84 89.31
  Q 64.55 89.72 64.07 89.88
  Q 63.73 90.00 63.47 89.75
  A 0.60 0.59 -39.1 0 0 62.72 89.68
  Z
  M 63.3822 88.8141
  A 4.30 0.31 127.0 0 0 66.2176 85.5666
  A 4.30 0.31 127.0 0 0 68.5578 81.9459
  A 4.30 0.31 127.0 0 0 65.7224 85.1934
  A 4.30 0.31 127.0 0 0 63.3822 88.8141
  Z
  M 68.5289 92.9433
  A 0.26 0.26 0.0 0 0 68.2157 92.7506
  L 57.6514 95.2674
  A 0.26 0.26 0.0 0 0 57.4587 95.5806
  L 57.4911 95.7167
  A 0.26 0.26 0.0 0 0 57.8043 95.9094
  L 68.3686 93.3926
  A 0.26 0.26 0.0 0 0 68.5613 93.0794
  L 68.5289 92.9433
  Z"
/>
<path fill="#d4204a" d="
  M 45.68 89.27
  Q 43.13 90.67 40.20 89.96
  A 0.58 0.58 0.0 0 0 39.49 90.60
  L 40.21 95.81
  Q 40.43 97.42 38.90 96.85
  L 36.34 95.88
  Q 34.85 95.32 34.86 93.72
  L 34.95 78.49
  A 0.33 0.32 11.0 0 1 35.40 78.19
  C 39.62 79.95 46.71 79.54 47.17 85.83
  Q 47.27 87.27 47.40 88.76
  Q 47.45 89.35 47.15 89.87
  Q 45.23 93.19 40.59 92.08
  A 0.53 0.52 10.1 0 1 40.19 91.52
  L 40.23 91.07
  Q 40.28 90.49 40.86 90.60
  C 42.46 90.91 44.86 91.02 45.94 89.56
  Q 46.49 88.82 45.68 89.27
  Z
  M 41.55 83.76
  Q 41.07 82.96 40.34 83.01
  Q 39.87 83.04 39.85 83.51
  L 39.78 85.78
  Q 39.76 86.35 40.22 86.68
  Q 40.90 87.18 41.70 86.90
  Q 42.20 86.73 42.38 86.25
  Q 43.09 84.43 41.55 83.76
  Z
  M 36.22 93.93
  Q 37.64 94.92 39.29 95.34
  Q 39.37 95.37 39.39 95.28
  Q 39.40 95.23 39.44 95.19
  Q 39.69 94.91 39.35 94.75
  Q 37.87 94.03 36.39 93.58
  Q 35.19 93.21 36.22 93.93
  Z"
/>
<path fill="#d4204a" d="
  M 74.64 80.06
  Q 75.93 79.12 77.58 79.24
  A 0.66 0.66 0.0 0 1 78.08 80.27
  C 77.78 80.70 77.40 81.05 76.86 81.14
  Q 74.25 81.57 71.58 82.18
  A 0.82 0.81 -7.6 0 1 70.58 81.42
  Q 70.55 80.89 71.07 80.61
  C 71.82 80.19 72.68 80.46 73.52 80.44
  A 2.04 2.02 25.9 0 0 74.64 80.06
  Z"
/>
<path fill="#ffffff" d="
  M 95.66 84.14
  Q 95.88 84.34 95.98 84.62
  Q 96.33 85.60 95.32 85.38
  L 93.79 85.07
  Q 93.00 84.90 93.37 84.18
  L 94.06 82.85
  Q 94.31 82.38 94.13 81.88
  Q 93.92 81.29 94.21 80.76
  Q 94.65 79.97 95.02 80.79
  Q 95.55 81.96 95.35 83.27
  Q 95.28 83.78 95.66 84.14
  Z"
/>
<path fill="#d4204a" d="
  M 53.7683 97.4313
  A 0.68 0.68 0.0 0 1 53.0906 98.1136
  L 49.4707 98.1263
  A 0.68 0.68 0.0 0 1 48.7883 97.4486
  L 48.7317 81.2487
  A 0.68 0.68 0.0 0 1 49.4094 80.5664
  L 53.0293 80.5537
  A 0.68 0.68 0.0 0 1 53.7117 81.2314
  L 53.7683 97.4313
  Z
  M 52.34 95.97
  Q 51.49 95.67 50.60 95.87
  Q 48.72 96.30 50.62 96.64
  Q 51.52 96.80 52.35 96.47
  Q 53.01 96.21 52.34 95.97
  Z"
/>
<ellipse fill="#ffffff" cx="0.00" cy="0.00" transform="translate(65.97,85.38) rotate(127.0)" rx="4.30" ry="0.31"/>
<path fill="#ffffff" d="
  M 41.55 83.76
  L 40.71 83.80
  Q 40.17 83.82 40.12 84.36
  Q 40.04 85.16 40.84 85.56
  Q 41.21 85.74 41.56 85.59
  Q 41.92 85.44 42.05 85.08
  Q 42.21 84.63 41.92 84.25
  L 41.55 83.76
  Q 43.09 84.43 42.38 86.25
  Q 42.20 86.73 41.70 86.90
  Q 40.90 87.18 40.22 86.68
  Q 39.76 86.35 39.78 85.78
  L 39.85 83.51
  Q 39.87 83.04 40.34 83.01
  Q 41.07 82.96 41.55 83.76
  Z"
/>
<path fill="#d4204a" d="
  M 41.55 83.76
  L 41.92 84.25
  Q 42.21 84.63 42.05 85.08
  Q 41.92 85.44 41.56 85.59
  Q 41.21 85.74 40.84 85.56
  Q 40.04 85.16 40.12 84.36
  Q 40.17 83.82 40.71 83.80
  L 41.55 83.76
  Z"
/>
<path fill="#ffffff" d="
  M 101.39 91.72
  Q 101.57 91.73 101.56 91.91
  L 101.55 92.16
  Q 101.55 92.41 101.30 92.41
  Q 98.51 92.45 97.34 90.37
  C 96.30 88.54 93.30 87.75 91.97 89.53
  Q 91.53 90.11 90.81 90.19
  Q 89.98 90.28 89.22 90.02
  Q 88.32 89.72 89.27 89.72
  Q 91.29 89.72 92.26 88.19
  A 0.92 0.90 -73.7 0 1 93.03 87.76
  Q 95.06 87.75 96.88 88.65
  Q 97.32 88.87 97.46 89.34
  Q 98.10 91.52 101.39 91.72
  Z"
/>
<path fill="#296139" d="
  M 25.52 94.28
  C 19.20 95.07 16.10 100.92 14.80 106.56
  Q 14.40 108.30 13.26 106.92
  Q 12.71 106.26 12.29 105.47
  Q 11.43 103.91 12.08 102.25
  C 14.18 96.85 19.52 92.02 25.52 92.19
  C 41.38 92.64 40.36 113.04 29.94 119.49
  C 24.41 122.92 17.95 119.62 16.42 113.50
  Q 15.77 110.89 17.83 109.12
  A 0.65 0.65 0.0 0 1 18.91 109.63
  Q 18.85 112.36 19.70 114.62
  C 21.93 120.58 28.17 118.24 30.95 114.48
  Q 35.02 108.98 33.75 101.72
  C 33.06 97.77 29.96 93.73 25.52 94.28
  Z"
/>
<rect fill="#ffffff" x="-5.69" y="-0.33" transform="translate(63.01,94.33) rotate(-13.4)" width="11.38" height="0.66" rx="0.26"/>
<path fill="#ffffff" d="
  M 36.39 93.58
  Q 37.87 94.03 39.35 94.75
  Q 39.69 94.91 39.44 95.19
  Q 39.40 95.23 39.39 95.28
  Q 39.37 95.37 39.29 95.34
  Q 37.64 94.92 36.22 93.93
  Q 35.19 93.21 36.39 93.58
  Z"
/>
<path fill="#296139" d="
  M 27.77 99.75
  L 24.53 116.02
  A 0.89 0.89 0.0 0 1 23.05 116.51
  L 21.37 114.96
  A 0.89 0.89 0.0 0 1 21.10 114.10
  L 25.30 96.67
  A 0.89 0.89 0.0 0 1 27.02 96.65
  L 27.75 99.34
  A 0.89 0.89 0.0 0 1 27.77 99.75
  Z"
/>
<path fill="#ffffff" d="
  M 52.35 96.47
  Q 51.52 96.80 50.62 96.64
  Q 48.72 96.30 50.60 95.87
  Q 51.49 95.67 52.34 95.97
  Q 53.01 96.21 52.35 96.47
  Z"
/>
<path fill="#296139" d="
  M 71.88 108.54
  C 72.44 107.59 73.13 106.07 74.48 106.21
  Q 75.99 106.37 75.87 107.96
  Q 75.80 108.98 75.79 109.90
  Q 75.78 111.61 76.35 110.00
  Q 76.96 108.29 78.22 106.87
  A 1.93 1.93 0.0 0 1 80.56 106.44
  Q 82.14 107.25 81.51 109.03
  Q 80.79 111.06 80.31 113.13
  Q 79.63 116.02 81.48 113.70
  Q 83.30 111.42 84.68 108.47
  A 3.89 3.83 -6.6 0 1 85.84 107.03
  Q 88.60 104.92 90.04 107.55
  Q 90.34 108.11 90.73 107.61
  Q 91.39 106.74 92.35 106.56
  A 1.36 1.35 4.1 0 1 93.89 108.33
  L 92.11 113.42
  Q 91.24 115.92 93.04 113.97
  Q 95.96 110.79 97.28 106.43
  A 0.83 0.82 16.5 0 1 98.31 105.88
  Q 100.01 106.40 99.54 108.43
  Q 99.29 109.51 99.91 108.59
  C 100.62 107.53 100.86 106.39 102.22 106.26
  A 1.55 1.55 0.0 0 1 103.92 107.96
  L 103.72 110.03
  Q 103.60 111.17 104.17 110.18
  L 105.92 107.13
  A 1.90 1.90 0.0 0 1 108.23 106.29
  Q 110.29 107.06 109.46 109.22
  Q 108.70 111.21 108.30 113.07
  Q 107.66 116.06 109.50 113.62
  Q 111.40 111.13 112.73 108.44
  Q 114.06 105.76 116.65 106.20
  Q 117.60 106.36 117.94 107.41
  A 0.52 0.51 -13.2 0 1 117.52 108.08
  C 115.35 108.39 114.08 112.79 113.67 114.46
  Q 113.25 116.19 114.46 114.89
  Q 116.75 112.44 117.98 108.65
  A 2.78 2.75 -9.0 0 1 119.00 107.26
  Q 121.21 105.70 121.79 107.45
  C 122.27 108.87 120.62 111.29 120.28 112.83
  Q 119.50 116.32 121.57 113.40
  Q 123.13 111.20 124.57 108.80
  A 0.24 0.24 0.0 0 1 124.92 108.72
  L 125.14 108.87
  Q 125.40 109.05 125.29 109.34
  Q 123.57 113.70 121.05 117.71
  Q 119.82 119.65 118.01 118.52
  Q 117.51 118.20 117.38 117.63
  L 116.96 115.68
  Q 116.81 114.95 116.29 115.48
  Q 116.07 115.70 115.97 116.00
  Q 115.31 117.81 113.96 118.80
  Q 113.52 119.12 113.06 118.83
  Q 111.60 117.90 111.24 116.17
  Q 110.98 114.96 110.30 116.00
  L 108.77 118.32
  A 1.65 1.65 0.0 0 1 106.21 118.56
  C 104.61 116.92 105.17 114.08 105.43 112.05
  Q 105.46 111.85 105.27 111.77
  Q 105.23 111.75 105.17 111.75
  Q 105.02 111.77 104.97 111.92
  Q 103.82 115.31 102.53 118.42
  A 0.87 0.87 0.0 0 1 101.06 118.65
  Q 100.17 117.60 100.13 116.40
  Q 100.07 114.62 100.64 111.35
  Q 100.65 111.29 100.58 111.27
  L 100.33 111.20
  Q 99.97 111.10 99.84 111.45
  Q 98.70 114.50 97.56 117.62
  Q 96.48 120.57 95.31 117.77
  Q 94.89 116.76 95.41 114.90
  Q 95.52 114.52 95.26 114.26
  Q 95.22 114.22 95.17 114.22
  Q 95.00 114.21 94.92 114.36
  Q 93.91 116.40 92.60 118.32
  A 1.63 1.63 0.0 0 1 90.06 118.51
  Q 89.01 117.40 89.09 115.69
  Q 89.12 114.85 88.58 115.49
  Q 87.57 116.67 86.74 118.21
  A 1.34 1.33 -55.8 0 1 84.71 118.60
  Q 83.53 117.61 83.20 115.90
  Q 82.96 114.68 82.34 115.76
  C 81.51 117.21 80.70 119.47 78.54 118.84
  A 1.66 1.65 3.0 0 1 77.39 117.57
  Q 76.86 114.83 77.48 111.91
  Q 77.48 111.89 77.47 111.89
  L 77.21 111.83
  A 0.19 0.19 0.0 0 0 76.99 111.94
  L 74.56 118.47
  A 0.79 0.79 0.0 0 1 73.34 118.82
  Q 72.13 117.92 72.12 116.41
  Q 72.11 114.04 72.57 111.37
  Q 72.58 111.31 72.52 111.29
  L 72.24 111.21
  Q 72.03 111.15 71.96 111.35
  L 69.18 118.54
  A 0.75 0.74 13.0 0 1 68.42 119.01
  Q 67.70 118.95 67.50 118.48
  Q 67.00 117.29 67.29 115.84
  Q 67.40 115.29 67.38 114.75
  Q 67.35 113.91 66.91 114.63
  L 64.75 118.19
  A 1.69 1.68 -57.0 0 1 62.35 118.70
  Q 61.19 117.91 61.12 116.44
  Q 61.02 114.32 60.00 116.18
  Q 59.25 117.53 58.26 118.65
  A 0.88 0.88 0.0 0 1 57.20 118.85
  Q 55.33 117.88 55.11 115.19
  Q 55.01 114.05 54.36 114.99
  C 53.12 116.76 51.45 119.21 49.06 118.82
  A 1.79 1.75 -8.2 0 1 47.77 117.88
  Q 47.10 116.59 47.27 115.16
  Q 47.53 112.92 46.30 114.81
  C 44.99 116.84 42.99 119.92 40.16 118.39
  Q 38.59 117.55 38.44 115.62
  Q 38.00 109.77 42.19 106.50
  A 2.12 2.12 0.0 0 1 45.43 107.32
  C 46.75 110.28 44.66 113.68 41.94 114.75
  A 0.85 0.85 0.0 0 0 41.90 116.31
  Q 42.70 116.68 43.42 115.97
  Q 47.07 112.34 47.84 109.36
  C 48.58 106.55 51.12 97.31 55.35 98.59
  A 1.82 1.80 -82.1 0 1 56.63 100.30
  Q 56.70 107.42 51.62 110.15
  A 2.03 2.02 77.4 0 0 50.56 111.83
  L 50.44 114.25
  Q 50.37 115.46 51.44 114.86
  C 55.07 112.81 55.47 108.98 58.25 106.80
  Q 60.54 105.00 62.05 107.54
  Q 62.42 108.18 62.85 107.57
  Q 63.26 106.98 63.95 106.62
  A 1.22 1.17 33.0 0 1 64.64 106.49
  C 65.95 106.65 66.15 108.09 65.70 109.07
  Q 64.78 111.06 64.14 113.30
  Q 63.41 115.84 65.16 113.86
  Q 67.68 111.01 69.07 107.11
  Q 69.87 104.86 71.32 106.75
  Q 71.89 107.50 71.61 108.42
  Q 71.26 109.59 71.88 108.54
  Z
  M 51.8016 108.7426
  A 3.63 0.82 114.9 0 0 54.0738 105.7952
  A 3.63 0.82 114.9 0 0 54.8584 102.1574
  A 3.63 0.82 114.9 0 0 52.5862 105.1048
  A 3.63 0.82 114.9 0 0 51.8016 108.7426
  Z
  M 41.6669 113.1412
  A 2.65 0.72 117.0 0 0 43.5115 111.1069
  A 2.65 0.72 117.0 0 0 44.0731 108.4188
  A 2.65 0.72 117.0 0 0 42.2285 110.4531
  A 2.65 0.72 117.0 0 0 41.6669 113.1412
  Z
  M 57.5231 115.4335
  A 4.25 0.93 119.1 0 0 60.4026 112.1723
  A 4.25 0.93 119.1 0 0 61.6569 108.0065
  A 4.25 0.93 119.1 0 0 58.7774 111.2677
  A 4.25 0.93 119.1 0 0 57.5231 115.4335
  Z
  M 89.95 108.52
  L 88.80 107.93
  A 0.29 0.29 0.0 0 0 88.41 108.06
  L 87.59 109.66
  A 5.95 0.81 -63.0 0 0 85.61 115.33
  L 85.84 115.45
  A 5.95 0.81 -63.0 0 0 89.26 110.52
  L 90.08 108.91
  A 0.29 0.29 0.0 0 0 89.95 108.52
  Z"
/>
<ellipse fill="#ffffff" cx="0.00" cy="0.00" transform="translate(53.33,105.45) rotate(114.9)" rx="3.63" ry="0.82"/>
<ellipse fill="#ffffff" cx="0.00" cy="0.00" transform="translate(42.87,110.78) rotate(117.0)" rx="2.65" ry="0.72"/>
<ellipse fill="#ffffff" cx="0.00" cy="0.00" transform="translate(59.59,111.72) rotate(119.1)" rx="4.25" ry="0.93"/>
<path fill="#ffffff" d="
  M 89.95 108.52
  A 0.29 0.29 0.0 0 1 90.08 108.91
  L 89.26 110.52
  A 5.95 0.81 -63.0 0 1 85.84 115.45
  L 85.61 115.33
  A 5.95 0.81 -63.0 0 1 87.59 109.66
  L 88.41 108.06
  A 0.29 0.29 0.0 0 1 88.80 107.93
  L 89.95 108.52
  Z"
/>
</svg>
