<?xml version="1.0" encoding="UTF-8" standalone="no"?>
<!DOCTYPE svg PUBLIC "-//W3C//DTD SVG 1.1//EN" "http://www.w3.org/Graphics/SVG/1.1/DTD/svg11.dtd">
<svg xmlns="http://www.w3.org/2000/svg" version="1.1" viewBox="0.00 0.00 210.00 297.00">
<g stroke-width="2.00" fill="none" stroke-linecap="butt">
<path stroke="#c48c8d" vector-effect="non-scaling-stroke" d="
  M 210.00 10.76
  Q 209.60 10.39 209.49 10.64
  Q 209.47 10.70 209.43 10.75
  Q 105.05 153.57 0.65 296.38
  A 0.41 0.41 0.0 0 0 0.57 296.72
  L 0.63 297.00"
/>
<path stroke="#c48c8d" vector-effect="non-scaling-stroke" d="
  M 42.92 78.52
  Q 40.99 72.33 39.15 64.26
  A 1.19 1.18 70.6 0 1 39.78 62.93
  L 41.22 62.23
  A 1.70 1.70 0.0 0 0 41.77 59.60
  Q 40.94 58.63 39.67 58.87
  Q 31.76 60.39 23.14 62.23
  A 1.69 1.69 0.0 0 0 21.87 64.36
  L 21.99 64.79
  Q 22.35 66.02 23.62 65.93
  Q 26.57 65.73 27.73 68.70
  Q 33.32 82.96 37.10 96.55
  A 1.59 1.59 0.0 0 0 38.93 97.69
  L 44.66 96.61
  A 2.09 2.08 86.3 0 0 46.36 94.67
  C 47.37 74.99 54.24 53.62 75.98 50.23
  Q 78.31 49.87 76.21 48.79
  C 69.75 45.46 62.15 44.98 56.24 49.73
  C 48.36 56.07 44.70 68.92 43.42 78.47
  Q 43.27 79.62 42.92 78.52"
/>
<path stroke="#c48c8d" vector-effect="non-scaling-stroke" d="
  M 105.9811 83.7611
  A 14.10 12.59 106.9 0 0 122.1263 73.9299
  A 14.10 12.59 106.9 0 0 114.1789 56.7789
  A 14.10 12.59 106.9 0 0 98.0337 66.6101
  A 14.10 12.59 106.9 0 0 105.9811 83.7611"
/>
<path stroke="#c48c8d" vector-effect="non-scaling-stroke" d="
  M 87.18 61.08
  A 0.91 0.90 -81.1 0 1 87.76 61.88
  C 87.84 63.67 87.24 65.77 87.82 67.45
  C 88.79 70.24 92.32 70.66 94.39 68.83
  C 96.99 66.53 97.14 62.62 94.65 60.16
  Q 92.07 57.62 88.28 57.36
  C 78.92 56.72 72.17 64.01 70.89 72.79
  C 68.43 89.57 85.57 96.96 95.86 82.84
  A 1.88 1.85 58.4 0 0 96.19 81.41
  Q 95.86 79.52 94.00 79.67
  A 1.72 1.71 -72.6 0 0 92.82 80.29
  Q 89.26 84.59 85.76 83.88
  C 77.46 82.18 80.42 58.45 87.18 61.08"
/>
<path stroke="#c48c8d" vector-effect="non-scaling-stroke" d="
  M 68.2380 61.7202
  A 5.28 4.70 -29.0 0 0 61.3414 60.1693
  A 5.28 4.70 -29.0 0 0 59.0020 66.8398
  A 5.28 4.70 -29.0 0 0 65.8986 68.3907
  A 5.28 4.70 -29.0 0 0 68.2380 61.7202"
/>
<path stroke="#c48c8d" vector-effect="non-scaling-stroke" d="
  M 59.35 74.81
  L 58.87 89.32
  Q 58.85 89.88 58.51 90.34
  C 57.77 91.35 56.30 91.53 55.84 92.48
  Q 55.46 93.26 55.96 93.96
  A 1.14 1.12 67.1 0 0 57.09 94.43
  Q 63.35 93.29 69.10 92.21
  Q 70.82 91.89 70.37 90.16
  Q 70.23 89.63 69.69 89.51
  L 68.26 89.21
  Q 67.68 89.09 67.70 88.50
  L 68.29 70.52
  Q 68.34 68.78 66.64 69.14
  L 57.59 71.03
  A 1.36 1.35 -21.4 0 0 56.70 73.05
  Q 57.28 74.01 58.43 73.92
  A 0.86 0.86 0.0 0 1 59.35 74.81"
/>
<path stroke="#c48c8d" vector-effect="non-scaling-stroke" d="
  M 107.37 63.09
  Q 105.92 71.16 106.64 78.30
  C 107.05 82.42 112.00 82.06 112.82 77.93
  Q 114.48 69.51 113.64 62.14
  C 113.45 60.46 111.82 58.62 109.99 59.42
  Q 107.85 60.37 107.37 63.09"
/>
</g>
<path fill="#ffffff" d="
  M 0.00 0.00
  L 210.00 0.00
  L 210.00 10.76
  Q 209.60 10.39 209.49 10.64
  Q 209.47 10.70 209.43 10.75
  Q 105.05 153.57 0.65 296.38
  A 0.41 0.41 0.0 0 0 0.57 296.72
  L 0.63 297.00
  L 0.00 297.00
  L 0.00 0.00
  Z
  M 42.92 78.52
  Q 40.99 72.33 39.15 64.26
  A 1.19 1.18 70.6 0 1 39.78 62.93
  L 41.22 62.23
  A 1.70 1.70 0.0 0 0 41.77 59.60
  Q 40.94 58.63 39.67 58.87
  Q 31.76 60.39 23.14 62.23
  A 1.69 1.69 0.0 0 0 21.87 64.36
  L 21.99 64.79
  Q 22.35 66.02 23.62 65.93
  Q 26.57 65.73 27.73 68.70
  Q 33.32 82.96 37.10 96.55
  A 1.59 1.59 0.0 0 0 38.93 97.69
  L 44.66 96.61
  A 2.09 2.08 86.3 0 0 46.36 94.67
  C 47.37 74.99 54.24 53.62 75.98 50.23
  Q 78.31 49.87 76.21 48.79
  C 69.75 45.46 62.15 44.98 56.24 49.73
  C 48.36 56.07 44.70 68.92 43.42 78.47
  Q 43.27 79.62 42.92 78.52
  Z
  M 105.9811 83.7611
  A 14.10 12.59 106.9 0 0 122.1263 73.9299
  A 14.10 12.59 106.9 0 0 114.1789 56.7789
  A 14.10 12.59 106.9 0 0 98.0337 66.6101
  A 14.10 12.59 106.9 0 0 105.9811 83.7611
  Z
  M 87.18 61.08
  A 0.91 0.90 -81.1 0 1 87.76 61.88
  C 87.84 63.67 87.24 65.77 87.82 67.45
  C 88.79 70.24 92.32 70.66 94.39 68.83
  C 96.99 66.53 97.14 62.62 94.65 60.16
  Q 92.07 57.62 88.28 57.36
  C 78.92 56.72 72.17 64.01 70.89 72.79
  C 68.43 89.57 85.57 96.96 95.86 82.84
  A 1.88 1.85 58.4 0 0 96.19 81.41
  Q 95.86 79.52 94.00 79.67
  A 1.72 1.71 -72.6 0 0 92.82 80.29
  Q 89.26 84.59 85.76 83.88
  C 77.46 82.18 80.42 58.45 87.18 61.08
  Z
  M 68.2380 61.7202
  A 5.28 4.70 -29.0 0 0 61.3414 60.1693
  A 5.28 4.70 -29.0 0 0 59.0020 66.8398
  A 5.28 4.70 -29.0 0 0 65.8986 68.3907
  A 5.28 4.70 -29.0 0 0 68.2380 61.7202
  Z
  M 59.35 74.81
  L 58.87 89.32
  Q 58.85 89.88 58.51 90.34
  C 57.77 91.35 56.30 91.53 55.84 92.48
  Q 55.46 93.26 55.96 93.96
  A 1.14 1.12 67.1 0 0 57.09 94.43
  Q 63.35 93.29 69.10 92.21
  Q 70.82 91.89 70.37 90.16
  Q 70.23 89.63 69.69 89.51
  L 68.26 89.21
  Q 67.68 89.09 67.70 88.50
  L 68.29 70.52
  Q 68.34 68.78 66.64 69.14
  L 57.59 71.03
  A 1.36 1.35 -21.4 0 0 56.70 73.05
  Q 57.28 74.01 58.43 73.92
  A 0.86 0.86 0.0 0 1 59.35 74.81
  Z"
/>
<path fill="#89181a" d="
  M 210.00 10.76
  L 210.00 297.00
  L 0.63 297.00
  L 0.57 296.72
  A 0.41 0.41 0.0 0 1 0.65 296.38
  Q 105.05 153.57 209.43 10.75
  Q 209.47 10.70 209.49 10.64
  Q 209.60 10.39 210.00 10.76
  Z"
/>
<path fill="#89181a" d="
  M 43.42 78.47
  C 44.70 68.92 48.36 56.07 56.24 49.73
  C 62.15 44.98 69.75 45.46 76.21 48.79
  Q 78.31 49.87 75.98 50.23
  C 54.24 53.62 47.37 74.99 46.36 94.67
  A 2.09 2.08 86.3 0 1 44.66 96.61
  L 38.93 97.69
  A 1.59 1.59 0.0 0 1 37.10 96.55
  Q 33.32 82.96 27.73 68.70
  Q 26.57 65.73 23.62 65.93
  Q 22.35 66.02 21.99 64.79
  L 21.87 64.36
  A 1.69 1.69 0.0 0 1 23.14 62.23
  Q 31.76 60.39 39.67 58.87
  Q 40.94 58.63 41.77 59.60
  A 1.70 1.70 0.0 0 1 41.22 62.23
  L 39.78 62.93
  A 1.19 1.18 70.6 0 0 39.15 64.26
  Q 40.99 72.33 42.92 78.52
  Q 43.27 79.62 43.42 78.47
  Z"
/>
<path fill="#89181a" d="
  M 105.9811 83.7611
  A 14.10 12.59 106.9 0 1 98.0337 66.6101
  A 14.10 12.59 106.9 0 1 114.1789 56.7789
  A 14.10 12.59 106.9 0 1 122.1263 73.9299
  A 14.10 12.59 106.9 0 1 105.9811 83.7611
  Z
  M 107.37 63.09
  Q 105.92 71.16 106.64 78.30
  C 107.05 82.42 112.00 82.06 112.82 77.93
  Q 114.48 69.51 113.64 62.14
  C 113.45 60.46 111.82 58.62 109.99 59.42
  Q 107.85 60.37 107.37 63.09
  Z"
/>
<path fill="#89181a" d="
  M 87.18 61.08
  C 80.42 58.45 77.46 82.18 85.76 83.88
  Q 89.26 84.59 92.82 80.29
  A 1.72 1.71 -72.6 0 1 94.00 79.67
  Q 95.86 79.52 96.19 81.41
  A 1.88 1.85 58.4 0 1 95.86 82.84
  C 85.57 96.96 68.43 89.57 70.89 72.79
  C 72.17 64.01 78.92 56.72 88.28 57.36
  Q 92.07 57.62 94.65 60.16
  C 97.14 62.62 96.99 66.53 94.39 68.83
  C 92.32 70.66 88.79 70.24 87.82 67.45
  C 87.24 65.77 87.84 63.67 87.76 61.88
  A 0.91 0.90 -81.1 0 0 87.18 61.08
  Z"
/>
<path fill="#ffffff" d="
  M 107.37 63.09
  Q 107.85 60.37 109.99 59.42
  C 111.82 58.62 113.45 60.46 113.64 62.14
  Q 114.48 69.51 112.82 77.93
  C 112.00 82.06 107.05 82.42 106.64 78.30
  Q 105.92 71.16 107.37 63.09
  Z"
/>
<ellipse fill="#89181a" cx="0.00" cy="0.00" transform="translate(63.62,64.28) rotate(-29.0)" rx="5.28" ry="4.70"/>
<path fill="#89181a" d="
  M 58.43 73.92
  Q 57.28 74.01 56.70 73.05
  A 1.36 1.35 -21.4 0 1 57.59 71.03
  L 66.64 69.14
  Q 68.34 68.78 68.29 70.52
  L 67.70 88.50
  Q 67.68 89.09 68.26 89.21
  L 69.69 89.51
  Q 70.23 89.63 70.37 90.16
  Q 70.82 91.89 69.10 92.21
  Q 63.35 93.29 57.09 94.43
  A 1.14 1.12 67.1 0 1 55.96 93.96
  Q 55.46 93.26 55.84 92.48
  C 56.30 91.53 57.77 91.35 58.51 90.34
  Q 58.85 89.88 58.87 89.32
  L 59.35 74.81
  A 0.86 0.86 0.0 0 0 58.43 73.92
  Z"
/>
</svg>
