<?xml version="1.0" encoding="UTF-8" standalone="no"?>
<!DOCTYPE svg PUBLIC "-//W3C//DTD SVG 1.1//EN" "http://www.w3.org/Graphics/SVG/1.1/DTD/svg11.dtd">
<svg xmlns="http://www.w3.org/2000/svg" version="1.1" viewBox="0.00 0.00 210.00 297.00">
<g stroke-width="2.00" fill="none" stroke-linecap="butt">
<path stroke="#80b7f5" vector-effect="non-scaling-stroke" d="
  M 210.00 10.75
  Q 209.89 10.61 209.77 10.57
  Q 209.61 10.52 209.51 10.66
  L 0.66 296.39
  A 0.38 0.36 -34.0 0 0 0.59 296.72
  L 0.66 297.00"
/>
<path stroke="#80c1f3" vector-effect="non-scaling-stroke" d="
  M 68.96 40.48
  C 65.49 40.42 57.02 40.50 55.01 43.47
  Q 54.33 44.48 54.27 46.69
  Q 54.05 54.35 52.60 61.55"
/>
<path stroke="#80aef6" vector-effect="non-scaling-stroke" d="
  M 52.60 61.55
  Q 51.38 69.80 49.90 77.74
  Q 48.92 83.02 49.74 85.00
  C 52.26 91.09 58.65 90.54 64.18 89.37
  Q 67.80 88.60 69.81 85.89"
/>
<path stroke="#80b7f5" vector-effect="non-scaling-stroke" d="
  M 69.81 85.89
  Q 73.77 90.39 80.25 90.03
  Q 85.95 89.71 90.19 87.25"
/>
<path stroke="#80c1f3" vector-effect="non-scaling-stroke" d="
  M 90.19 87.25
  Q 92.64 84.73 91.39 82.16
  Q 88.45 76.14 85.82 70.00
  A 0.77 0.76 -30.6 0 1 86.05 69.11
  Q 89.82 66.14 91.53 61.95"
/>
<path stroke="#80cffa" vector-effect="non-scaling-stroke" d="
  M 91.53 61.95
  C 95.99 45.59 82.78 39.14 68.96 40.48"
/>
<path stroke="#0091ed" vector-effect="non-scaling-stroke" d="
  M 91.53 61.95
  Q 88.76 61.28 87.27 58.99"
/>
<path stroke="#80cffa" vector-effect="non-scaling-stroke" d="
  M 87.27 58.99
  Q 88.65 47.42 77.23 45.89
  Q 74.03 45.46 71.18 45.27"
/>
<path stroke="#0091ed" vector-effect="non-scaling-stroke" d="
  M 71.18 45.27
  Q 70.69 42.74 68.96 40.48"
/>
<path stroke="#80c1f3" vector-effect="non-scaling-stroke" d="
  M 71.18 45.27
  L 59.65 46.13
  A 0.49 0.48 -2.0 0 0 59.21 46.60
  Q 59.13 54.60 57.48 62.91"
/>
<path stroke="#0070ea" vector-effect="non-scaling-stroke" d="
  M 57.48 62.91
  L 52.60 61.55"
/>
<path stroke="#80c1f3" vector-effect="non-scaling-stroke" d="
  M 87.27 58.99
  Q 85.14 64.23 80.15 67.25
  Q 79.72 67.51 79.86 67.99
  Q 82.25 76.23 86.48 83.66"
/>
<path stroke="#80b7f5" vector-effect="non-scaling-stroke" d="
  M 86.48 83.66
  Q 83.18 84.79 79.49 85.02
  Q 75.81 85.25 74.54 81.82
  Q 72.57 76.49 70.71 70.75
  Q 70.49 70.07 69.78 70.07
  L 67.25 70.10
  Q 66.60 70.11 66.47 70.74
  Q 65.14 76.97 65.31 83.29"
/>
<path stroke="#80aef6" vector-effect="non-scaling-stroke" d="
  M 65.31 83.29
  Q 62.90 85.08 58.25 84.97
  Q 53.65 84.86 54.50 80.75
  Q 56.36 71.73 57.48 62.91"
/>
<path stroke="#0079e9" vector-effect="non-scaling-stroke" d="
  M 90.19 87.25
  L 86.48 83.66"
/>
<path stroke="#0066ec" vector-effect="non-scaling-stroke" d="
  M 65.31 83.29
  Q 67.21 82.79 69.81 85.89"
/>
<path stroke="#80aef6" vector-effect="non-scaling-stroke" d="
  M 37.54 109.85
  L 39.11 109.95
  Q 39.52 109.97 39.73 110.33
  L 43.21 116.32
  Q 43.32 116.51 43.54 116.51
  L 46.66 116.50
  A 0.18 0.18 0.0 0 0 46.82 116.23
  L 43.32 110.21
  Q 42.97 109.61 43.61 109.33
  C 48.95 107.03 47.24 100.54 41.67 100.22
  Q 38.04 100.00 34.36 100.07
  Q 33.74 100.08 33.73 100.71
  L 33.73 115.99
  Q 33.73 116.50 34.24 116.50
  L 36.57 116.50
  Q 36.93 116.50 36.93 116.14
  L 36.90 110.46
  Q 36.89 109.81 37.54 109.85"
/>
<path stroke="#80aef6" vector-effect="non-scaling-stroke" d="
  M 88.77 100.77
  A 0.27 0.27 0.0 0 0 88.50 100.50
  L 86.00 100.50
  A 0.27 0.27 0.0 0 0 85.73 100.77
  L 85.73 116.23
  A 0.27 0.27 0.0 0 0 86.00 116.50
  L 88.50 116.50
  A 0.27 0.27 0.0 0 0 88.77 116.23
  L 88.77 100.77"
/>
<path stroke="#80aef6" vector-effect="non-scaling-stroke" d="
  M 106.01 104.30
  L 106.00 102.25
  Q 105.99 101.76 105.50 101.78
  L 103.49 101.84
  Q 102.97 101.86 102.98 102.38
  Q 103.06 107.42 102.97 113.08
  C 102.92 116.15 105.57 117.34 108.37 116.88
  A 0.35 0.35 0.0 0 0 108.66 116.55
  L 108.67 114.49
  Q 108.67 114.31 108.49 114.30
  L 106.76 114.14
  Q 106.00 114.07 106.00 113.30
  L 106.00 108.00
  Q 106.00 107.24 106.75 107.34
  L 107.81 107.49
  A 0.68 0.68 0.0 0 0 108.57 106.94
  L 108.77 105.80
  A 0.65 0.65 0.0 0 0 108.26 105.05
  Q 107.56 104.92 106.87 105.03
  Q 106.01 105.17 106.01 104.30"
/>
<path stroke="#80aef6" vector-effect="non-scaling-stroke" d="
  M 50.53 111.50
  L 57.34 111.50
  Q 59.90 111.50 58.85 109.16
  Q 58.67 108.76 58.05 107.38
  A 4.62 4.60 80.8 0 0 54.31 104.67
  C 45.71 103.78 44.28 115.49 51.94 116.80
  Q 55.93 117.48 58.31 114.15
  Q 58.75 113.55 58.11 113.17
  L 56.99 112.52
  Q 56.44 112.20 56.04 112.69
  C 54.44 114.69 50.73 115.07 50.02 112.14
  Q 49.87 111.50 50.53 111.50"
/>
<path stroke="#80aef6" vector-effect="non-scaling-stroke" d="
  M 84.3298 110.7042
  A 6.56 6.21 -0.4 0 0 77.7266 104.5402
  A 6.56 6.21 -0.4 0 0 71.2102 110.7958
  A 6.56 6.21 -0.4 0 0 77.8134 116.9598
  A 6.56 6.21 -0.4 0 0 84.3298 110.7042"
/>
<path stroke="#80aef6" vector-effect="non-scaling-stroke" d="
  M 68.31 104.99
  A 0.35 0.35 0.0 0 0 67.97 105.22
  L 65.45 111.90
  A 0.35 0.35 0.0 0 1 64.79 111.90
  L 62.28 105.23
  A 0.35 0.35 0.0 0 0 61.95 105.00
  L 59.44 105.01
  A 0.35 0.35 0.0 0 0 59.12 105.49
  L 63.58 116.28
  A 0.35 0.35 0.0 0 0 63.90 116.50
  L 66.35 116.50
  A 0.35 0.35 0.0 0 0 66.67 116.28
  L 71.14 105.51
  A 0.35 0.35 0.0 0 0 70.82 105.02
  L 68.31 104.99"
/>
<path stroke="#80aef6" vector-effect="non-scaling-stroke" d="
  M 96.13 113.81
  Q 93.49 114.02 93.50 111.38
  L 93.51 105.51
  Q 93.51 105.01 93.01 105.01
  L 91.01 105.00
  Q 90.40 105.00 90.45 105.61
  C 90.83 110.13 88.71 116.29 95.51 116.89
  C 102.81 117.54 101.48 109.61 101.51 105.32
  Q 101.51 105.00 101.19 105.00
  L 98.53 105.02
  Q 98.33 105.02 98.33 105.22
  L 98.34 111.77
  Q 98.34 113.63 96.48 113.78
  L 96.13 113.81"
/>
<path stroke="#80c1f3" vector-effect="non-scaling-stroke" d="
  M 68.05 64.46
  C 74.46 65.18 76.90 61.26 77.09 55.70
  Q 77.20 52.53 74.21 51.49
  Q 73.43 51.22 72.40 50.85
  Q 69.71 49.92 69.28 52.73
  L 67.55 63.81
  Q 67.46 64.39 68.05 64.46"
/>
<path stroke="#80aef6" vector-effect="non-scaling-stroke" d="
  M 36.78 103.25
  L 36.78 106.79
  A 0.46 0.46 0.0 0 0 37.24 107.25
  L 40.99 107.24
  A 2.65 2.03 -0.1 0 0 43.64 105.20
  L 43.64 104.80
  A 2.65 2.03 -0.1 0 0 40.99 102.78
  L 37.24 102.79
  A 0.46 0.46 0.0 0 0 36.78 103.25"
/>
<path stroke="#80aef6" vector-effect="non-scaling-stroke" d="
  M 50.24 109.35
  L 55.92 109.29
  A 0.14 0.14 0.0 0 0 56.06 109.14
  L 56.06 109.08
  A 2.80 2.22 -0.7 0 0 53.24 106.90
  L 52.88 106.90
  A 2.80 2.22 -0.7 0 0 50.10 109.16
  L 50.10 109.22
  A 0.14 0.14 0.0 0 0 50.24 109.35"
/>
<path stroke="#80aef6" vector-effect="non-scaling-stroke" d="
  M 81.22 110.75
  A 3.45 3.45 0.0 0 0 77.77 107.30
  A 3.45 3.45 0.0 0 0 74.32 110.75
  A 3.45 3.45 0.0 0 0 77.77 114.20
  A 3.45 3.45 0.0 0 0 81.22 110.75"
/>
</g>
<path fill="#ffffff" d="
  M 0.00 0.00
  L 210.00 0.00
  L 210.00 10.75
  Q 209.89 10.61 209.77 10.57
  Q 209.61 10.52 209.51 10.66
  L 0.66 296.39
  A 0.38 0.36 -34.0 0 0 0.59 296.72
  L 0.66 297.00
  L 0.00 297.00
  L 0.00 0.00
  Z
  M 68.96 40.48
  C 65.49 40.42 57.02 40.50 55.01 43.47
  Q 54.33 44.48 54.27 46.69
  Q 54.05 54.35 52.60 61.55
  Q 51.38 69.80 49.90 77.74
  Q 48.92 83.02 49.74 85.00
  C 52.26 91.09 58.65 90.54 64.18 89.37
  Q 67.80 88.60 69.81 85.89
  Q 73.77 90.39 80.25 90.03
  Q 85.95 89.71 90.19 87.25
  Q 92.64 84.73 91.39 82.16
  Q 88.45 76.14 85.82 70.00
  A 0.77 0.76 -30.6 0 1 86.05 69.11
  Q 89.82 66.14 91.53 61.95
  C 95.99 45.59 82.78 39.14 68.96 40.48
  Z
  M 37.54 109.85
  L 39.11 109.95
  Q 39.52 109.97 39.73 110.33
  L 43.21 116.32
  Q 43.32 116.51 43.54 116.51
  L 46.66 116.50
  A 0.18 0.18 0.0 0 0 46.82 116.23
  L 43.32 110.21
  Q 42.97 109.61 43.61 109.33
  C 48.95 107.03 47.24 100.54 41.67 100.22
  Q 38.04 100.00 34.36 100.07
  Q 33.74 100.08 33.73 100.71
  L 33.73 115.99
  Q 33.73 116.50 34.24 116.50
  L 36.57 116.50
  Q 36.93 116.50 36.93 116.14
  L 36.90 110.46
  Q 36.89 109.81 37.54 109.85
  Z
  M 88.77 100.77
  A 0.27 0.27 0.0 0 0 88.50 100.50
  L 86.00 100.50
  A 0.27 0.27 0.0 0 0 85.73 100.77
  L 85.73 116.23
  A 0.27 0.27 0.0 0 0 86.00 116.50
  L 88.50 116.50
  A 0.27 0.27 0.0 0 0 88.77 116.23
  L 88.77 100.77
  Z
  M 106.01 104.30
  L 106.00 102.25
  Q 105.99 101.76 105.50 101.78
  L 103.49 101.84
  Q 102.97 101.86 102.98 102.38
  Q 103.06 107.42 102.97 113.08
  C 102.92 116.15 105.57 117.34 108.37 116.88
  A 0.35 0.35 0.0 0 0 108.66 116.55
  L 108.67 114.49
  Q 108.67 114.31 108.49 114.30
  L 106.76 114.14
  Q 106.00 114.07 106.00 113.30
  L 106.00 108.00
  Q 106.00 107.24 106.75 107.34
  L 107.81 107.49
  A 0.68 0.68 0.0 0 0 108.57 106.94
  L 108.77 105.80
  A 0.65 0.65 0.0 0 0 108.26 105.05
  Q 107.56 104.92 106.87 105.03
  Q 106.01 105.17 106.01 104.30
  Z
  M 50.53 111.50
  L 57.34 111.50
  Q 59.90 111.50 58.85 109.16
  Q 58.67 108.76 58.05 107.38
  A 4.62 4.60 80.8 0 0 54.31 104.67
  C 45.71 103.78 44.28 115.49 51.94 116.80
  Q 55.93 117.48 58.31 114.15
  Q 58.75 113.55 58.11 113.17
  L 56.99 112.52
  Q 56.44 112.20 56.04 112.69
  C 54.44 114.69 50.73 115.07 50.02 112.14
  Q 49.87 111.50 50.53 111.50
  Z
  M 84.3298 110.7042
  A 6.56 6.21 -0.4 0 0 77.7266 104.5402
  A 6.56 6.21 -0.4 0 0 71.2102 110.7958
  A 6.56 6.21 -0.4 0 0 77.8134 116.9598
  A 6.56 6.21 -0.4 0 0 84.3298 110.7042
  Z
  M 68.31 104.99
  A 0.35 0.35 0.0 0 0 67.97 105.22
  L 65.45 111.90
  A 0.35 0.35 0.0 0 1 64.79 111.90
  L 62.28 105.23
  A 0.35 0.35 0.0 0 0 61.95 105.00
  L 59.44 105.01
  A 0.35 0.35 0.0 0 0 59.12 105.49
  L 63.58 116.28
  A 0.35 0.35 0.0 0 0 63.90 116.50
  L 66.35 116.50
  A 0.35 0.35 0.0 0 0 66.67 116.28
  L 71.14 105.51
  A 0.35 0.35 0.0 0 0 70.82 105.02
  L 68.31 104.99
  Z
  M 96.13 113.81
  Q 93.49 114.02 93.50 111.38
  L 93.51 105.51
  Q 93.51 105.01 93.01 105.01
  L 91.01 105.00
  Q 90.40 105.00 90.45 105.61
  C 90.83 110.13 88.71 116.29 95.51 116.89
  C 102.81 117.54 101.48 109.61 101.51 105.32
  Q 101.51 105.00 101.19 105.00
  L 98.53 105.02
  Q 98.33 105.02 98.33 105.22
  L 98.34 111.77
  Q 98.34 113.63 96.48 113.78
  L 96.13 113.81
  Z"
/>
<path fill="#006feb" d="
  M 210.00 10.75
  L 210.00 297.00
  L 0.66 297.00
  L 0.59 296.72
  A 0.38 0.36 -34.0 0 1 0.66 296.39
  L 209.51 10.66
  Q 209.61 10.52 209.77 10.57
  Q 209.89 10.61 210.00 10.75
  Z"
/>
<path fill="#009ef4" d="
  M 91.53 61.95
  Q 88.76 61.28 87.27 58.99
  Q 88.65 47.42 77.23 45.89
  Q 74.03 45.46 71.18 45.27
  Q 70.69 42.74 68.96 40.48
  C 82.78 39.14 95.99 45.59 91.53 61.95
  Z"
/>
<path fill="#0083e6" d="
  M 68.96 40.48
  Q 70.69 42.74 71.18 45.27
  L 59.65 46.13
  A 0.49 0.48 -2.0 0 0 59.21 46.60
  Q 59.13 54.60 57.48 62.91
  L 52.60 61.55
  Q 54.05 54.35 54.27 46.69
  Q 54.33 44.48 55.01 43.47
  C 57.02 40.50 65.49 40.42 68.96 40.48
  Z"
/>
<path fill="#ffffff" d="
  M 71.18 45.27
  Q 74.03 45.46 77.23 45.89
  Q 88.65 47.42 87.27 58.99
  Q 85.14 64.23 80.15 67.25
  Q 79.72 67.51 79.86 67.99
  Q 82.25 76.23 86.48 83.66
  Q 83.18 84.79 79.49 85.02
  Q 75.81 85.25 74.54 81.82
  Q 72.57 76.49 70.71 70.75
  Q 70.49 70.07 69.78 70.07
  L 67.25 70.10
  Q 66.60 70.11 66.47 70.74
  Q 65.14 76.97 65.31 83.29
  Q 62.90 85.08 58.25 84.97
  Q 53.65 84.86 54.50 80.75
  Q 56.36 71.73 57.48 62.91
  Q 59.13 54.60 59.21 46.60
  A 0.49 0.48 -2.0 0 1 59.65 46.13
  L 71.18 45.27
  Z
  M 68.05 64.46
  C 74.46 65.18 76.90 61.26 77.09 55.70
  Q 77.20 52.53 74.21 51.49
  Q 73.43 51.22 72.40 50.85
  Q 69.71 49.92 69.28 52.73
  L 67.55 63.81
  Q 67.46 64.39 68.05 64.46
  Z"
/>
<path fill="#0083e6" d="
  M 77.09 55.70
  C 76.90 61.26 74.46 65.18 68.05 64.46
  Q 67.46 64.39 67.55 63.81
  L 69.28 52.73
  Q 69.71 49.92 72.40 50.85
  Q 73.43 51.22 74.21 51.49
  Q 77.20 52.53 77.09 55.70
  Z"
/>
<path fill="#0083e6" d="
  M 87.27 58.99
  Q 88.76 61.28 91.53 61.95
  Q 89.82 66.14 86.05 69.11
  A 0.77 0.76 -30.6 0 0 85.82 70.00
  Q 88.45 76.14 91.39 82.16
  Q 92.64 84.73 90.19 87.25
  L 86.48 83.66
  Q 82.25 76.23 79.86 67.99
  Q 79.72 67.51 80.15 67.25
  Q 85.14 64.23 87.27 58.99
  Z"
/>
<path fill="#005ded" d="
  M 52.60 61.55
  L 57.48 62.91
  Q 56.36 71.73 54.50 80.75
  Q 53.65 84.86 58.25 84.97
  Q 62.90 85.08 65.31 83.29
  Q 67.21 82.79 69.81 85.89
  Q 67.80 88.60 64.18 89.37
  C 58.65 90.54 52.26 91.09 49.74 85.00
  Q 48.92 83.02 49.90 77.74
  Q 51.38 69.80 52.60 61.55
  Z"
/>
<path fill="#006feb" d="
  M 86.48 83.66
  L 90.19 87.25
  Q 85.95 89.71 80.25 90.03
  Q 73.77 90.39 69.81 85.89
  Q 67.21 82.79 65.31 83.29
  Q 65.14 76.97 66.47 70.74
  Q 66.60 70.11 67.25 70.10
  L 69.78 70.07
  Q 70.49 70.07 70.71 70.75
  Q 72.57 76.49 74.54 81.82
  Q 75.81 85.25 79.49 85.02
  Q 83.18 84.79 86.48 83.66
  Z"
/>
<path fill="#005ded" d="
  M 36.90 110.46
  L 36.93 116.14
  Q 36.93 116.50 36.57 116.50
  L 34.24 116.50
  Q 33.73 116.50 33.73 115.99
  L 33.73 100.71
  Q 33.74 100.08 34.36 100.07
  Q 38.04 100.00 41.67 100.22
  C 47.24 100.54 48.95 107.03 43.61 109.33
  Q 42.97 109.61 43.32 110.21
  L 46.82 116.23
  A 0.18 0.18 0.0 0 1 46.66 116.50
  L 43.54 116.51
  Q 43.32 116.51 43.21 116.32
  L 39.73 110.33
  Q 39.52 109.97 39.11 109.95
  L 37.54 109.85
  Q 36.89 109.81 36.90 110.46
  Z
  M 36.78 103.25
  L 36.78 106.79
  A 0.46 0.46 0.0 0 0 37.24 107.25
  L 40.99 107.24
  A 2.65 2.03 -0.1 0 0 43.64 105.20
  L 43.64 104.80
  A 2.65 2.03 -0.1 0 0 40.99 102.78
  L 37.24 102.79
  A 0.46 0.46 0.0 0 0 36.78 103.25
  Z"
/>
<rect fill="#005ded" x="85.73" y="100.50" width="3.04" height="16.00" rx="0.27"/>
<path fill="#005ded" d="
  M 106.87 105.03
  Q 107.56 104.92 108.26 105.05
  A 0.65 0.65 0.0 0 1 108.77 105.80
  L 108.57 106.94
  A 0.68 0.68 0.0 0 1 107.81 107.49
  L 106.75 107.34
  Q 106.00 107.24 106.00 108.00
  L 106.00 113.30
  Q 106.00 114.07 106.76 114.14
  L 108.49 114.30
  Q 108.67 114.31 108.67 114.49
  L 108.66 116.55
  A 0.35 0.35 0.0 0 1 108.37 116.88
  C 105.57 117.34 102.92 116.15 102.97 113.08
  Q 103.06 107.42 102.98 102.38
  Q 102.97 101.86 103.49 101.84
  L 105.50 101.78
  Q 105.99 101.76 106.00 102.25
  L 106.01 104.30
  Q 106.01 105.17 106.87 105.03
  Z"
/>
<path fill="#ffffff" d="
  M 36.78 103.25
  A 0.46 0.46 0.0 0 1 37.24 102.79
  L 40.99 102.78
  A 2.65 2.03 -0.1 0 1 43.64 104.80
  L 43.64 105.20
  A 2.65 2.03 -0.1 0 1 40.99 107.24
  L 37.24 107.25
  A 0.46 0.46 0.0 0 1 36.78 106.79
  L 36.78 103.25
  Z"
/>
<path fill="#005ded" d="
  M 50.02 112.14
  C 50.73 115.07 54.44 114.69 56.04 112.69
  Q 56.44 112.20 56.99 112.52
  L 58.11 113.17
  Q 58.75 113.55 58.31 114.15
  Q 55.93 117.48 51.94 116.80
  C 44.28 115.49 45.71 103.78 54.31 104.67
  A 4.62 4.60 80.8 0 1 58.05 107.38
  Q 58.67 108.76 58.85 109.16
  Q 59.90 111.50 57.34 111.50
  L 50.53 111.50
  Q 49.87 111.50 50.02 112.14
  Z
  M 50.24 109.35
  L 55.92 109.29
  A 0.14 0.14 0.0 0 0 56.06 109.14
  L 56.06 109.08
  A 2.80 2.22 -0.7 0 0 53.24 106.90
  L 52.88 106.90
  A 2.80 2.22 -0.7 0 0 50.10 109.16
  L 50.10 109.22
  A 0.14 0.14 0.0 0 0 50.24 109.35
  Z"
/>
<path fill="#005ded" d="
  M 84.3298 110.7042
  A 6.56 6.21 -0.4 0 1 77.8134 116.9598
  A 6.56 6.21 -0.4 0 1 71.2102 110.7958
  A 6.56 6.21 -0.4 0 1 77.7266 104.5402
  A 6.56 6.21 -0.4 0 1 84.3298 110.7042
  Z
  M 81.22 110.75
  A 3.45 3.45 0.0 0 0 77.77 107.30
  A 3.45 3.45 0.0 0 0 74.32 110.75
  A 3.45 3.45 0.0 0 0 77.77 114.20
  A 3.45 3.45 0.0 0 0 81.22 110.75
  Z"
/>
<path fill="#005ded" d="
  M 68.31 104.99
  L 70.82 105.02
  A 0.35 0.35 0.0 0 1 71.14 105.51
  L 66.67 116.28
  A 0.35 0.35 0.0 0 1 66.35 116.50
  L 63.90 116.50
  A 0.35 0.35 0.0 0 1 63.58 116.28
  L 59.12 105.49
  A 0.35 0.35 0.0 0 1 59.44 105.01
  L 61.95 105.00
  A 0.35 0.35 0.0 0 1 62.28 105.23
  L 64.79 111.90
  A 0.35 0.35 0.0 0 0 65.45 111.90
  L 67.97 105.22
  A 0.35 0.35 0.0 0 1 68.31 104.99
  Z"
/>
<path fill="#005ded" d="
  M 96.13 113.81
  L 96.48 113.78
  Q 98.34 113.63 98.34 111.77
  L 98.33 105.22
  Q 98.33 105.02 98.53 105.02
  L 101.19 105.00
  Q 101.51 105.00 101.51 105.32
  C 101.48 109.61 102.81 117.54 95.51 116.89
  C 88.71 116.29 90.83 110.13 90.45 105.61
  Q 90.40 105.00 91.01 105.00
  L 93.01 105.01
  Q 93.51 105.01 93.51 105.51
  L 93.50 111.38
  Q 93.49 114.02 96.13 113.81
  Z"
/>
<path fill="#ffffff" d="
  M 50.24 109.35
  A 0.14 0.14 0.0 0 1 50.10 109.22
  L 50.10 109.16
  A 2.80 2.22 -0.7 0 1 52.88 106.90
  L 53.24 106.90
  A 2.80 2.22 -0.7 0 1 56.06 109.08
  L 56.06 109.14
  A 0.14 0.14 0.0 0 1 55.92 109.29
  L 50.24 109.35
  Z"
/>
<circle fill="#ffffff" cx="77.77" cy="110.75" r="3.45"/>
</svg>
