<?xml version="1.0" encoding="UTF-8" standalone="no"?>
<!DOCTYPE svg PUBLIC "-//W3C//DTD SVG 1.1//EN" "http://www.w3.org/Graphics/SVG/1.1/DTD/svg11.dtd">
<svg xmlns="http://www.w3.org/2000/svg" version="1.1" viewBox="0.00 0.00 210.00 297.00">
<g stroke-width="2.00" fill="none" stroke-linecap="butt">
<path stroke="#ff8080" vector-effect="non-scaling-stroke" d="
  M 210.00 11.00
  L 209.83 10.78
  Q 209.62 10.50 209.41 10.79
  L 0.67 296.36
  A 0.41 0.40 54.1 0 0 0.62 296.71
  L 0.72 297.00"
/>
<path stroke="#ff8080" vector-effect="non-scaling-stroke" d="
  M 123.35 83.90
  Q 121.87 83.63 121.28 82.35
  Q 121.07 81.88 121.47 81.54
  L 122.73 80.49
  Q 123.27 80.04 122.58 80.15
  Q 121.06 80.39 120.22 81.71
  Q 119.87 82.24 120.31 82.71
  Q 123.26 85.87 127.44 84.36
  Q 127.93 84.18 128.25 84.61
  Q 128.51 84.96 128.96 84.91
  Q 129.72 84.82 129.34 84.15
  Q 129.07 83.66 129.42 83.23
  Q 129.80 82.78 129.41 82.33
  Q 128.70 81.52 129.20 80.55
  A 1.07 1.07 0.0 0 0 128.24 79.00
  L 124.55 79.01
  A 1.05 1.04 -12.3 0 0 123.60 80.48
  Q 124.06 81.48 123.35 82.38
  A 0.52 0.52 0.0 0 0 123.38 83.07
  Q 123.52 83.22 123.65 83.38
  Q 124.21 84.06 123.35 83.90"
/>
<path stroke="#ff8080" vector-effect="non-scaling-stroke" d="
  M 130.71 83.27
  Q 130.51 83.16 130.44 83.28
  Q 129.60 84.59 131.00 83.91
  Q 133.15 82.87 131.89 81.13
  Q 131.34 80.37 130.37 80.27
  Q 129.59 80.18 130.24 80.63
  Q 131.76 81.67 130.92 83.21
  A 0.16 0.15 -59.4 0 1 130.71 83.27"
/>
<path stroke="#ff8080" vector-effect="non-scaling-stroke" d="
  M 50.98 102.27
  C 55.02 101.56 55.32 98.77 57.13 95.97
  Q 57.47 95.45 57.40 94.84
  Q 57.24 93.47 58.47 92.61
  Q 59.00 92.24 58.95 91.59
  Q 58.79 89.55 57.52 87.98
  Q 52.80 82.19 45.61 83.99
  C 38.52 85.76 35.20 94.34 41.16 99.64
  Q 45.23 103.27 50.98 102.27"
/>
<path stroke="#ff8080" vector-effect="non-scaling-stroke" d="
  M 122.75 93.02
  A 10.54 9.48 0.0 0 0 112.21 83.54
  A 10.54 9.48 0.0 0 0 101.67 93.02
  A 10.54 9.48 0.0 0 0 112.21 102.50
  A 10.54 9.48 0.0 0 0 122.75 93.02"
/>
<path stroke="#ff8080" vector-effect="non-scaling-stroke" d="
  M 26.93 89.29
  L 24.42 84.82
  Q 24.04 84.14 23.26 84.13
  L 18.17 84.09
  Q 17.31 84.08 17.73 84.83
  L 24.10 95.96
  Q 24.38 96.45 24.14 96.97
  L 22.16 101.28
  A 0.43 0.43 0.0 0 0 22.55 101.89
  L 30.49 102.02
  Q 31.64 102.04 30.85 101.20
  Q 29.66 99.94 30.41 98.28
  Q 33.34 91.78 36.61 84.74
  Q 36.90 84.13 36.22 84.13
  L 30.58 84.12
  Q 29.98 84.12 29.73 84.67
  L 27.70 89.25
  Q 27.35 90.04 26.93 89.29"
/>
<path stroke="#ff8080" vector-effect="non-scaling-stroke" d="
  M 89.61 89.06
  L 90.52 85.05
  Q 90.73 84.13 89.79 84.13
  L 85.20 84.12
  Q 84.35 84.12 84.39 84.97
  Q 84.45 86.48 83.05 87.28
  A 1.35 1.34 75.1 0 0 82.37 88.47
  Q 82.48 93.05 81.30 97.15
  Q 80.72 99.17 81.10 101.35
  Q 81.19 101.89 81.74 101.90
  L 86.27 101.92
  A 0.91 0.91 0.0 0 0 87.16 101.19
  L 87.93 97.45
  A 0.33 0.33 0.0 0 1 88.52 97.33
  L 91.06 100.98
  Q 91.67 101.85 92.73 101.87
  L 99.22 102.01
  Q 100.42 102.04 99.72 101.06
  L 94.37 93.65
  Q 94.01 93.15 94.38 92.65
  L 100.29 84.75
  Q 100.76 84.11 99.97 84.11
  L 94.61 84.12
  Q 93.85 84.12 93.40 84.74
  L 90.10 89.28
  Q 89.32 90.36 89.61 89.06"
/>
<path stroke="#ff8080" vector-effect="non-scaling-stroke" d="
  M 75.78 87.58
  Q 76.20 87.22 76.71 87.31
  Q 77.73 87.49 77.99 86.50
  L 78.11 86.06
  Q 78.32 85.23 77.47 85.24
  L 73.96 85.26
  Q 73.48 85.26 73.13 84.93
  Q 71.49 83.34 69.72 84.87
  Q 69.30 85.23 68.75 85.24
  L 65.10 85.28
  Q 64.45 85.28 64.48 85.93
  L 64.50 86.35
  Q 64.54 87.32 65.51 87.21
  Q 66.26 87.12 66.73 87.60
  Q 67.35 88.23 66.46 88.24
  L 62.91 88.25
  A 0.76 0.76 0.0 0 0 62.16 89.10
  L 62.21 89.49
  Q 62.29 90.19 62.99 90.19
  L 78.03 90.24
  A 1.41 1.41 0.0 0 0 79.37 89.31
  L 79.49 88.99
  Q 79.76 88.27 78.99 88.27
  L 76.02 88.24
  Q 75.03 88.23 75.78 87.58"
/>
<path stroke="#ff8080" vector-effect="non-scaling-stroke" d="
  M 65.00 97.41
  Q 66.01 97.20 66.82 97.73
  Q 67.32 98.06 66.73 98.17
  Q 64.83 98.53 64.90 101.20
  A 0.81 0.80 88.9 0 0 65.70 101.98
  L 71.82 101.97
  Q 72.57 101.97 72.94 101.31
  L 73.36 100.53
  Q 73.67 99.96 74.17 100.38
  L 75.20 101.25
  A 0.97 0.97 0.0 0 0 76.57 101.12
  L 77.06 100.53
  A 0.95 0.95 0.0 0 0 76.87 99.15
  Q 76.09 98.61 75.24 98.07
  Q 75.07 97.97 75.01 97.78
  Q 74.96 97.65 75.13 97.51
  Q 75.37 97.30 75.67 97.41
  Q 76.07 97.56 76.48 97.39
  Q 76.95 97.19 77.04 96.68
  L 77.96 91.57
  Q 78.10 90.81 77.33 90.81
  L 63.41 90.86
  Q 62.91 90.86 62.82 91.35
  L 61.94 96.46
  A 0.87 0.87 0.0 0 0 62.21 97.25
  Q 62.38 97.40 62.58 97.51
  Q 63.41 97.92 62.56 98.31
  Q 61.56 98.77 60.72 99.31
  Q 60.01 99.77 60.34 100.55
  L 60.51 100.94
  Q 60.88 101.81 61.73 101.38
  Q 63.45 100.51 64.81 99.34
  Q 65.60 98.66 64.85 97.95
  Q 64.41 97.53 65.00 97.41"
/>
<path stroke="#ff8080" vector-effect="non-scaling-stroke" d="
  M 48.6116 97.8500
  A 4.84 3.54 90.1 0 0 52.1600 93.0162
  A 4.84 3.54 90.1 0 0 48.6284 88.1700
  A 4.84 3.54 90.1 0 0 45.0800 93.0038
  A 4.84 3.54 90.1 0 0 48.6116 97.8500"
/>
<path stroke="#ff8080" vector-effect="non-scaling-stroke" d="
  M 112.1847 97.8399
  A 4.83 3.53 90.3 0 0 115.7400 93.0285
  A 4.83 3.53 90.3 0 0 112.2353 88.1801
  A 4.83 3.53 90.3 0 0 108.6800 92.9915
  A 4.83 3.53 90.3 0 0 112.1847 97.8399"
/>
<path stroke="#ff8080" vector-effect="non-scaling-stroke" d="
  M 72.8000 87.7122
  A 1.49 0.59 -0.3 0 0 71.3069 87.1300
  A 1.49 0.59 -0.3 0 0 69.8200 87.7278
  A 1.49 0.59 -0.3 0 0 71.3131 88.3100
  A 1.49 0.59 -0.3 0 0 72.8000 87.7122"
/>
<path stroke="#ff8080" vector-effect="non-scaling-stroke" d="
  M 75.0700 92.8385
  A 0.27 0.27 0.0 0 0 74.8005 92.5680
  L 65.6205 92.5520
  A 0.27 0.27 0.0 0 0 65.3500 92.8215
  L 65.3500 92.8615
  A 0.27 0.27 0.0 0 0 65.6195 93.1320
  L 74.7995 93.1480
  A 0.27 0.27 0.0 0 0 75.0700 92.8785
  L 75.0700 92.8385"
/>
<path stroke="#ff8080" vector-effect="non-scaling-stroke" d="
  M 73.6992 95.4342
  A 4.47 0.29 -1.1 0 0 69.2244 95.2301
  A 4.47 0.29 -1.1 0 0 64.7608 95.6058
  A 4.47 0.29 -1.1 0 0 69.2356 95.8099
  A 4.47 0.29 -1.1 0 0 73.6992 95.4342"
/>
<path stroke="#ff8080" vector-effect="non-scaling-stroke" d="
  M 70.28 99.08
  L 69.99 99.30
  Q 68.87 100.20 70.26 99.83
  Q 72.09 99.34 73.50 98.17
  Q 74.09 97.68 73.36 97.44
  Q 71.57 96.85 70.78 98.45
  Q 70.60 98.82 70.28 99.08"
/>
<path stroke="#ff8080" vector-effect="non-scaling-stroke" d="
  M 67.41 98.88
  Q 67.94 100.19 69.22 100.13
  A 0.35 0.34 -24.0 0 0 69.45 99.54
  Q 68.67 98.77 67.65 98.59
  Q 67.26 98.52 67.41 98.88"
/>
</g>
<path fill="#ffffff" d="
  M 0.00 0.00
  L 210.00 0.00
  L 210.00 11.00
  L 209.83 10.78
  Q 209.62 10.50 209.41 10.79
  L 0.67 296.36
  A 0.41 0.40 54.1 0 0 0.62 296.71
  L 0.72 297.00
  L 0.00 297.00
  L 0.00 0.00
  Z
  M 123.35 83.90
  Q 121.87 83.63 121.28 82.35
  Q 121.07 81.88 121.47 81.54
  L 122.73 80.49
  Q 123.27 80.04 122.58 80.15
  Q 121.06 80.39 120.22 81.71
  Q 119.87 82.24 120.31 82.71
  Q 123.26 85.87 127.44 84.36
  Q 127.93 84.18 128.25 84.61
  Q 128.51 84.96 128.96 84.91
  Q 129.72 84.82 129.34 84.15
  Q 129.07 83.66 129.42 83.23
  Q 129.80 82.78 129.41 82.33
  Q 128.70 81.52 129.20 80.55
  A 1.07 1.07 0.0 0 0 128.24 79.00
  L 124.55 79.01
  A 1.05 1.04 -12.3 0 0 123.60 80.48
  Q 124.06 81.48 123.35 82.38
  A 0.52 0.52 0.0 0 0 123.38 83.07
  Q 123.52 83.22 123.65 83.38
  Q 124.21 84.06 123.35 83.90
  Z
  M 130.71 83.27
  Q 130.51 83.16 130.44 83.28
  Q 129.60 84.59 131.00 83.91
  Q 133.15 82.87 131.89 81.13
  Q 131.34 80.37 130.37 80.27
  Q 129.59 80.18 130.24 80.63
  Q 131.76 81.67 130.92 83.21
  A 0.16 0.15 -59.4 0 1 130.71 83.27
  Z
  M 50.98 102.27
  C 55.02 101.56 55.32 98.77 57.13 95.97
  Q 57.47 95.45 57.40 94.84
  Q 57.24 93.47 58.47 92.61
  Q 59.00 92.24 58.95 91.59
  Q 58.79 89.55 57.52 87.98
  Q 52.80 82.19 45.61 83.99
  C 38.52 85.76 35.20 94.34 41.16 99.64
  Q 45.23 103.27 50.98 102.27
  Z
  M 122.75 93.02
  A 10.54 9.48 0.0 0 0 112.21 83.54
  A 10.54 9.48 0.0 0 0 101.67 93.02
  A 10.54 9.48 0.0 0 0 112.21 102.50
  A 10.54 9.48 0.0 0 0 122.75 93.02
  Z
  M 26.93 89.29
  L 24.42 84.82
  Q 24.04 84.14 23.26 84.13
  L 18.17 84.09
  Q 17.31 84.08 17.73 84.83
  L 24.10 95.96
  Q 24.38 96.45 24.14 96.97
  L 22.16 101.28
  A 0.43 0.43 0.0 0 0 22.55 101.89
  L 30.49 102.02
  Q 31.64 102.04 30.85 101.20
  Q 29.66 99.94 30.41 98.28
  Q 33.34 91.78 36.61 84.74
  Q 36.90 84.13 36.22 84.13
  L 30.58 84.12
  Q 29.98 84.12 29.73 84.67
  L 27.70 89.25
  Q 27.35 90.04 26.93 89.29
  Z
  M 89.61 89.06
  L 90.52 85.05
  Q 90.73 84.13 89.79 84.13
  L 85.20 84.12
  Q 84.35 84.12 84.39 84.97
  Q 84.45 86.48 83.05 87.28
  A 1.35 1.34 75.1 0 0 82.37 88.47
  Q 82.48 93.05 81.30 97.15
  Q 80.72 99.17 81.10 101.35
  Q 81.19 101.89 81.74 101.90
  L 86.27 101.92
  A 0.91 0.91 0.0 0 0 87.16 101.19
  L 87.93 97.45
  A 0.33 0.33 0.0 0 1 88.52 97.33
  L 91.06 100.98
  Q 91.67 101.85 92.73 101.87
  L 99.22 102.01
  Q 100.42 102.04 99.72 101.06
  L 94.37 93.65
  Q 94.01 93.15 94.38 92.65
  L 100.29 84.75
  Q 100.76 84.11 99.97 84.11
  L 94.61 84.12
  Q 93.85 84.12 93.40 84.74
  L 90.10 89.28
  Q 89.32 90.36 89.61 89.06
  Z
  M 75.78 87.58
  Q 76.20 87.22 76.71 87.31
  Q 77.73 87.49 77.99 86.50
  L 78.11 86.06
  Q 78.32 85.23 77.47 85.24
  L 73.96 85.26
  Q 73.48 85.26 73.13 84.93
  Q 71.49 83.34 69.72 84.87
  Q 69.30 85.23 68.75 85.24
  L 65.10 85.28
  Q 64.45 85.28 64.48 85.93
  L 64.50 86.35
  Q 64.54 87.32 65.51 87.21
  Q 66.26 87.12 66.73 87.60
  Q 67.35 88.23 66.46 88.24
  L 62.91 88.25
  A 0.76 0.76 0.0 0 0 62.16 89.10
  L 62.21 89.49
  Q 62.29 90.19 62.99 90.19
  L 78.03 90.24
  A 1.41 1.41 0.0 0 0 79.37 89.31
  L 79.49 88.99
  Q 79.76 88.27 78.99 88.27
  L 76.02 88.24
  Q 75.03 88.23 75.78 87.58
  Z
  M 65.00 97.41
  Q 66.01 97.20 66.82 97.73
  Q 67.32 98.06 66.73 98.17
  Q 64.83 98.53 64.90 101.20
  A 0.81 0.80 88.9 0 0 65.70 101.98
  L 71.82 101.97
  Q 72.57 101.97 72.94 101.31
  L 73.36 100.53
  Q 73.67 99.96 74.17 100.38
  L 75.20 101.25
  A 0.97 0.97 0.0 0 0 76.57 101.12
  L 77.06 100.53
  A 0.95 0.95 0.0 0 0 76.87 99.15
  Q 76.09 98.61 75.24 98.07
  Q 75.07 97.97 75.01 97.78
  Q 74.96 97.65 75.13 97.51
  Q 75.37 97.30 75.67 97.41
  Q 76.07 97.56 76.48 97.39
  Q 76.95 97.19 77.04 96.68
  L 77.96 91.57
  Q 78.10 90.81 77.33 90.81
  L 63.41 90.86
  Q 62.91 90.86 62.82 91.35
  L 61.94 96.46
  A 0.87 0.87 0.0 0 0 62.21 97.25
  Q 62.38 97.40 62.58 97.51
  Q 63.41 97.92 62.56 98.31
  Q 61.56 98.77 60.72 99.31
  Q 60.01 99.77 60.34 100.55
  L 60.51 100.94
  Q 60.88 101.81 61.73 101.38
  Q 63.45 100.51 64.81 99.34
  Q 65.60 98.66 64.85 97.95
  Q 64.41 97.53 65.00 97.41
  Z"
/>
<path fill="#ff0000" d="
  M 210.00 11.00
  L 210.00 297.00
  L 0.72 297.00
  L 0.62 296.71
  A 0.41 0.40 54.1 0 1 0.67 296.36
  L 209.41 10.79
  Q 209.62 10.50 209.83 10.78
  L 210.00 11.00
  Z"
/>
<path fill="#ff0000" d="
  M 123.65 83.38
  Q 123.52 83.22 123.38 83.07
  A 0.52 0.52 0.0 0 1 123.35 82.38
  Q 124.06 81.48 123.60 80.48
  A 1.05 1.04 -12.3 0 1 124.55 79.01
  L 128.24 79.00
  A 1.07 1.07 0.0 0 1 129.20 80.55
  Q 128.70 81.52 129.41 82.33
  Q 129.80 82.78 129.42 83.23
  Q 129.07 83.66 129.34 84.15
  Q 129.72 84.82 128.96 84.91
  Q 128.51 84.96 128.25 84.61
  Q 127.93 84.18 127.44 84.36
  Q 123.26 85.87 120.31 82.71
  Q 119.87 82.24 120.22 81.71
  Q 121.06 80.39 122.58 80.15
  Q 123.27 80.04 122.73 80.49
  L 121.47 81.54
  Q 121.07 81.88 121.28 82.35
  Q 121.87 83.63 123.35 83.90
  Q 124.21 84.06 123.65 83.38
  Z"
/>
<path fill="#ff0000" d="
  M 130.92 83.21
  Q 131.76 81.67 130.24 80.63
  Q 129.59 80.18 130.37 80.27
  Q 131.34 80.37 131.89 81.13
  Q 133.15 82.87 131.00 83.91
  Q 129.60 84.59 130.44 83.28
  Q 130.51 83.16 130.71 83.27
  A 0.16 0.15 -59.4 0 0 130.92 83.21
  Z"
/>
<path fill="#ff0000" d="
  M 57.13 95.97
  C 55.32 98.77 55.02 101.56 50.98 102.27
  Q 45.23 103.27 41.16 99.64
  C 35.20 94.34 38.52 85.76 45.61 83.99
  Q 52.80 82.19 57.52 87.98
  Q 58.79 89.55 58.95 91.59
  Q 59.00 92.24 58.47 92.61
  Q 57.24 93.47 57.40 94.84
  Q 57.47 95.45 57.13 95.97
  Z
  M 48.6116 97.8500
  A 4.84 3.54 90.1 0 0 52.1600 93.0162
  A 4.84 3.54 90.1 0 0 48.6284 88.1700
  A 4.84 3.54 90.1 0 0 45.0800 93.0038
  A 4.84 3.54 90.1 0 0 48.6116 97.8500
  Z"
/>
<path fill="#ff0000" d="
  M 122.75 93.02
  A 10.54 9.48 0.0 0 1 112.21 102.50
  A 10.54 9.48 0.0 0 1 101.67 93.02
  A 10.54 9.48 0.0 0 1 112.21 83.54
  A 10.54 9.48 0.0 0 1 122.75 93.02
  Z
  M 112.1847 97.8399
  A 4.83 3.53 90.3 0 0 115.7400 93.0285
  A 4.83 3.53 90.3 0 0 112.2353 88.1801
  A 4.83 3.53 90.3 0 0 108.6800 92.9915
  A 4.83 3.53 90.3 0 0 112.1847 97.8399
  Z"
/>
<path fill="#ff0000" d="
  M 27.70 89.25
  L 29.73 84.67
  Q 29.98 84.12 30.58 84.12
  L 36.22 84.13
  Q 36.90 84.13 36.61 84.74
  Q 33.34 91.78 30.41 98.28
  Q 29.66 99.94 30.85 101.20
  Q 31.64 102.04 30.49 102.02
  L 22.55 101.89
  A 0.43 0.43 0.0 0 1 22.16 101.28
  L 24.14 96.97
  Q 24.38 96.45 24.10 95.96
  L 17.73 84.83
  Q 17.31 84.08 18.17 84.09
  L 23.26 84.13
  Q 24.04 84.14 24.42 84.82
  L 26.93 89.29
  Q 27.35 90.04 27.70 89.25
  Z"
/>
<path fill="#ff0000" d="
  M 90.10 89.28
  L 93.40 84.74
  Q 93.85 84.12 94.61 84.12
  L 99.97 84.11
  Q 100.76 84.11 100.29 84.75
  L 94.38 92.65
  Q 94.01 93.15 94.37 93.65
  L 99.72 101.06
  Q 100.42 102.04 99.22 102.01
  L 92.73 101.87
  Q 91.67 101.85 91.06 100.98
  L 88.52 97.33
  A 0.33 0.33 0.0 0 0 87.93 97.45
  L 87.16 101.19
  A 0.91 0.91 0.0 0 1 86.27 101.92
  L 81.74 101.90
  Q 81.19 101.89 81.10 101.35
  Q 80.72 99.17 81.30 97.15
  Q 82.48 93.05 82.37 88.47
  A 1.35 1.34 75.1 0 1 83.05 87.28
  Q 84.45 86.48 84.39 84.97
  Q 84.35 84.12 85.20 84.12
  L 89.79 84.13
  Q 90.73 84.13 90.52 85.05
  L 89.61 89.06
  Q 89.32 90.36 90.10 89.28
  Z"
/>
<path fill="#ff0000" d="
  M 76.02 88.24
  L 78.99 88.27
  Q 79.76 88.27 79.49 88.99
  L 79.37 89.31
  A 1.41 1.41 0.0 0 1 78.03 90.24
  L 62.99 90.19
  Q 62.29 90.19 62.21 89.49
  L 62.16 89.10
  A 0.76 0.76 0.0 0 1 62.91 88.25
  L 66.46 88.24
  Q 67.35 88.23 66.73 87.60
  Q 66.26 87.12 65.51 87.21
  Q 64.54 87.32 64.50 86.35
  L 64.48 85.93
  Q 64.45 85.28 65.10 85.28
  L 68.75 85.24
  Q 69.30 85.23 69.72 84.87
  Q 71.49 83.34 73.13 84.93
  Q 73.48 85.26 73.96 85.26
  L 77.47 85.24
  Q 78.32 85.23 78.11 86.06
  L 77.99 86.50
  Q 77.73 87.49 76.71 87.31
  Q 76.20 87.22 75.78 87.58
  Q 75.03 88.23 76.02 88.24
  Z
  M 72.8000 87.7122
  A 1.49 0.59 -0.3 0 0 71.3069 87.1300
  A 1.49 0.59 -0.3 0 0 69.8200 87.7278
  A 1.49 0.59 -0.3 0 0 71.3131 88.3100
  A 1.49 0.59 -0.3 0 0 72.8000 87.7122
  Z"
/>
<ellipse fill="#ffffff" cx="0.00" cy="0.00" transform="translate(71.31,87.72) rotate(-0.3)" rx="1.49" ry="0.59"/>
<ellipse fill="#ffffff" cx="0.00" cy="0.00" transform="translate(48.62,93.01) rotate(90.1)" rx="4.84" ry="3.54"/>
<ellipse fill="#ffffff" cx="0.00" cy="0.00" transform="translate(112.21,93.01) rotate(90.3)" rx="4.83" ry="3.53"/>
<path fill="#ff0000" d="
  M 64.85 97.95
  Q 65.60 98.66 64.81 99.34
  Q 63.45 100.51 61.73 101.38
  Q 60.88 101.81 60.51 100.94
  L 60.34 100.55
  Q 60.01 99.77 60.72 99.31
  Q 61.56 98.77 62.56 98.31
  Q 63.41 97.92 62.58 97.51
  Q 62.38 97.40 62.21 97.25
  A 0.87 0.87 0.0 0 1 61.94 96.46
  L 62.82 91.35
  Q 62.91 90.86 63.41 90.86
  L 77.33 90.81
  Q 78.10 90.81 77.96 91.57
  L 77.04 96.68
  Q 76.95 97.19 76.48 97.39
  Q 76.07 97.56 75.67 97.41
  Q 75.37 97.30 75.13 97.51
  Q 74.96 97.65 75.01 97.78
  Q 75.07 97.97 75.24 98.07
  Q 76.09 98.61 76.87 99.15
  A 0.95 0.95 0.0 0 1 77.06 100.53
  L 76.57 101.12
  A 0.97 0.97 0.0 0 1 75.20 101.25
  L 74.17 100.38
  Q 73.67 99.96 73.36 100.53
  L 72.94 101.31
  Q 72.57 101.97 71.82 101.97
  L 65.70 101.98
  A 0.81 0.80 88.9 0 1 64.90 101.20
  Q 64.83 98.53 66.73 98.17
  Q 67.32 98.06 66.82 97.73
  Q 66.01 97.20 65.00 97.41
  Q 64.41 97.53 64.85 97.95
  Z
  M 75.0700 92.8385
  A 0.27 0.27 0.0 0 0 74.8005 92.5680
  L 65.6205 92.5520
  A 0.27 0.27 0.0 0 0 65.3500 92.8215
  L 65.3500 92.8615
  A 0.27 0.27 0.0 0 0 65.6195 93.1320
  L 74.7995 93.1480
  A 0.27 0.27 0.0 0 0 75.0700 92.8785
  L 75.0700 92.8385
  Z
  M 73.6992 95.4342
  A 4.47 0.29 -1.1 0 0 69.2244 95.2301
  A 4.47 0.29 -1.1 0 0 64.7608 95.6058
  A 4.47 0.29 -1.1 0 0 69.2356 95.8099
  A 4.47 0.29 -1.1 0 0 73.6992 95.4342
  Z
  M 70.28 99.08
  L 69.99 99.30
  Q 68.87 100.20 70.26 99.83
  Q 72.09 99.34 73.50 98.17
  Q 74.09 97.68 73.36 97.44
  Q 71.57 96.85 70.78 98.45
  Q 70.60 98.82 70.28 99.08
  Z
  M 67.41 98.88
  Q 67.94 100.19 69.22 100.13
  A 0.35 0.34 -24.0 0 0 69.45 99.54
  Q 68.67 98.77 67.65 98.59
  Q 67.26 98.52 67.41 98.88
  Z"
/>
<rect fill="#ffffff" x="-4.86" y="-0.29" transform="translate(70.21,92.85) rotate(0.1)" width="9.72" height="0.58" rx="0.27"/>
<ellipse fill="#ffffff" cx="0.00" cy="0.00" transform="translate(69.23,95.52) rotate(-1.1)" rx="4.47" ry="0.29"/>
<path fill="#ffffff" d="
  M 70.78 98.45
  Q 71.57 96.85 73.36 97.44
  Q 74.09 97.68 73.50 98.17
  Q 72.09 99.34 70.26 99.83
  Q 68.87 100.20 69.99 99.30
  L 70.28 99.08
  Q 70.60 98.82 70.78 98.45
  Z"
/>
<path fill="#ffffff" d="
  M 67.41 98.88
  Q 67.26 98.52 67.65 98.59
  Q 68.67 98.77 69.45 99.54
  A 0.35 0.34 -24.0 0 1 69.22 100.13
  Q 67.94 100.19 67.41 98.88
  Z"
/>
</svg>
