<?xml version="1.0" encoding="UTF-8" standalone="no"?>
<!DOCTYPE svg PUBLIC "-//W3C//DTD SVG 1.1//EN" "http://www.w3.org/Graphics/SVG/1.1/DTD/svg11.dtd">
<svg xmlns="http://www.w3.org/2000/svg" version="1.1" viewBox="0.00 0.00 210.00 297.00">
<g stroke-width="2.00" fill="none" stroke-linecap="butt">
<path stroke="#ffe380" vector-effect="non-scaling-stroke" d="
  M 210.00 10.83
  Q 209.62 10.49 209.36 10.85
  Q 105.01 153.63 0.64 296.40
  Q 0.52 296.56 0.57 296.76
  L 0.63 297.00"
/>
<path stroke="#ff918f" vector-effect="non-scaling-stroke" d="
  M 54.55 72.14
  Q 53.98 75.42 54.49 77.25
  Q 55.35 80.37 57.99 80.59
  Q 61.39 80.89 71.09 80.62"
/>
<path stroke="#ffe380" vector-effect="non-scaling-stroke" d="
  M 71.09 80.62
  Q 80.83 80.75 90.18 80.65
  C 92.71 80.62 95.19 80.16 95.36 77.29
  Q 95.45 75.76 93.95 73.43
  Q 89.51 66.53 84.77 59.54"
/>
<path stroke="#ff918f" vector-effect="non-scaling-stroke" d="
  M 84.77 59.54
  L 93.82 45.49
  A 3.74 3.74 0.0 0 0 90.67 39.73
  L 75.66 39.76"
/>
<path stroke="#84a2ce" vector-effect="non-scaling-stroke" d="
  M 75.66 39.76
  L 58.38 39.73
  A 3.92 3.92 0.0 0 0 54.46 43.66
  L 54.55 72.14"
/>
<path stroke="#84345e" vector-effect="non-scaling-stroke" d="
  M 75.66 39.76
  L 54.55 72.14"
/>
<path stroke="#ff7510" vector-effect="non-scaling-stroke" d="
  M 84.77 59.54
  L 71.09 80.62"
/>
<path stroke="#808081" vector-effect="non-scaling-stroke" d="
  M 46.75 91.49
  L 46.75 87.68
  Q 46.75 87.10 46.18 87.12
  L 44.53 87.17
  Q 44.01 87.19 44.01 87.72
  L 44.01 100.77
  Q 44.01 101.27 44.52 101.27
  L 46.45 101.26
  Q 46.85 101.25 46.81 100.85
  Q 46.61 98.99 46.80 97.33
  Q 47.25 93.31 49.41 96.74
  L 51.90 100.69
  Q 52.27 101.29 52.97 101.29
  L 54.83 101.30
  Q 55.56 101.30 55.17 100.69
  L 50.34 93.15
  A 0.81 0.81 0.0 0 1 50.43 92.17
  L 54.44 87.78
  Q 55.07 87.09 54.13 87.10
  L 52.46 87.11
  A 1.94 1.92 -69.4 0 0 51.00 87.78
  L 47.51 91.77
  Q 46.75 92.64 46.75 91.49"
/>
<path stroke="#808081" vector-effect="non-scaling-stroke" d="
  M 90.94 88.41
  A 1.38 1.38 0.0 0 0 89.56 87.03
  A 1.38 1.38 0.0 0 0 88.18 88.41
  A 1.38 1.38 0.0 0 0 89.56 89.79
  A 1.38 1.38 0.0 0 0 90.94 88.41"
/>
<path stroke="#808081" vector-effect="non-scaling-stroke" d="
  M 105.69 88.41
  A 1.37 1.37 0.0 0 0 104.32 87.04
  A 1.37 1.37 0.0 0 0 102.95 88.41
  A 1.37 1.37 0.0 0 0 104.32 89.78
  A 1.37 1.37 0.0 0 0 105.69 88.41"
/>
<path stroke="#808081" vector-effect="non-scaling-stroke" d="
  M 79.75 90.95
  L 79.81 87.72
  Q 79.83 87.11 79.22 87.13
  L 77.80 87.17
  A 0.65 0.65 0.0 0 0 77.17 87.82
  L 77.22 100.77
  A 0.54 0.53 3.0 0 0 77.70 101.30
  Q 78.82 101.40 79.91 100.97
  Q 80.24 100.85 80.56 101.00
  C 85.04 103.14 87.88 98.57 86.92 94.60
  Q 85.59 89.10 80.24 91.29
  Q 79.74 91.50 79.75 90.95"
/>
<path stroke="#808081" vector-effect="non-scaling-stroke" d="
  M 108.00 88.95
  Q 107.80 88.79 107.59 88.94
  A 0.39 0.38 34.9 0 0 107.72 89.63
  Q 108.67 89.88 109.26 89.05
  A 1.15 1.15 0.0 0 0 108.61 87.26
  Q 108.08 87.12 107.55 87.36
  Q 107.09 87.56 107.48 87.87
  Q 107.83 88.14 108.30 88.08
  Q 108.84 88.00 108.82 88.55
  Q 108.81 88.73 108.70 88.87
  Q 108.40 89.26 108.00 88.95"
/>
<path stroke="#808081" vector-effect="non-scaling-stroke" d="
  M 65.53 96.05
  A 5.43 5.43 0.0 0 0 60.10 90.62
  A 5.43 5.43 0.0 0 0 54.67 96.05
  A 5.43 5.43 0.0 0 0 60.10 101.48
  A 5.43 5.43 0.0 0 0 65.53 96.05"
/>
<path stroke="#808081" vector-effect="non-scaling-stroke" d="
  M 69.14 91.58
  Q 68.57 90.33 67.00 90.78
  Q 66.49 90.93 66.49 91.47
  L 66.48 100.74
  Q 66.47 101.26 66.99 101.27
  L 68.56 101.30
  A 0.55 0.55 0.0 0 0 69.12 100.70
  C 68.91 98.55 68.62 93.95 71.09 92.99
  A 1.40 1.40 0.0 0 1 73.00 94.29
  L 73.00 101.01
  Q 73.00 101.27 73.26 101.27
  L 75.21 101.27
  Q 75.53 101.27 75.53 100.95
  Q 75.54 97.54 75.59 93.90
  C 75.62 91.24 73.46 90.16 71.03 90.88
  A 2.18 2.11 -74.6 0 0 70.15 91.40
  Q 70.04 91.51 69.96 91.64
  Q 69.50 92.35 69.14 91.58"
/>
<path stroke="#808081" vector-effect="non-scaling-stroke" d="
  M 90.8385 91.1923
  A 0.36 0.36 0.0 0 0 90.4791 90.8316
  L 88.6191 90.8284
  A 0.36 0.36 0.0 0 0 88.2585 91.1878
  L 88.2415 100.9077
  A 0.36 0.36 0.0 0 0 88.6009 101.2684
  L 90.4609 101.2716
  A 0.36 0.36 0.0 0 0 90.8215 100.9122
  L 90.8385 91.1923"
/>
<path stroke="#808081" vector-effect="non-scaling-stroke" d="
  M 95.16 91.61
  Q 94.50 90.34 92.89 90.81
  Q 92.39 90.95 92.39 91.48
  L 92.43 100.74
  A 0.56 0.55 -0.0 0 0 92.99 101.29
  L 94.72 101.26
  Q 95.10 101.25 95.07 100.88
  Q 94.84 98.09 95.27 94.87
  Q 95.44 93.59 96.64 93.11
  Q 97.08 92.93 97.68 92.94
  A 1.12 1.12 0.0 0 1 98.78 94.06
  L 98.80 100.79
  A 0.49 0.49 0.0 0 0 99.29 101.28
  L 101.18 101.27
  Q 101.47 101.27 101.47 100.97
  Q 101.45 97.83 101.53 94.33
  C 101.60 91.64 99.90 90.14 97.13 90.82
  Q 96.30 91.02 95.77 91.67
  Q 95.42 92.09 95.16 91.61"
/>
<path stroke="#808081" vector-effect="non-scaling-stroke" d="
  M 105.67 91.26
  A 0.43 0.43 0.0 0 0 105.24 90.83
  L 103.48 90.83
  A 0.43 0.43 0.0 0 0 103.05 91.26
  L 103.05 100.84
  A 0.43 0.43 0.0 0 0 103.48 101.27
  L 105.24 101.27
  A 0.43 0.43 0.0 0 0 105.67 100.84
  L 105.67 91.26"
/>
<path stroke="#808081" vector-effect="non-scaling-stroke" d="
  M 81.9613 99.3200
  A 3.24 2.42 89.8 0 0 84.3700 96.0716
  A 3.24 2.42 89.8 0 0 81.9387 92.8400
  A 3.24 2.42 89.8 0 0 79.5300 96.0884
  A 3.24 2.42 89.8 0 0 81.9613 99.3200"
/>
<path stroke="#808081" vector-effect="non-scaling-stroke" d="
  M 60.0718 99.2999
  A 3.23 2.63 90.5 0 0 62.7299 96.0930
  A 3.23 2.63 90.5 0 0 60.1282 92.8401
  A 3.23 2.63 90.5 0 0 57.4701 96.0470
  A 3.23 2.63 90.5 0 0 60.0718 99.2999"
/>
</g>
<path fill="#ffffff" d="
  M 0.00 0.00
  L 210.00 0.00
  L 210.00 10.83
  Q 209.62 10.49 209.36 10.85
  Q 105.01 153.63 0.64 296.40
  Q 0.52 296.56 0.57 296.76
  L 0.63 297.00
  L 0.00 297.00
  L 0.00 0.00
  Z
  M 54.55 72.14
  Q 53.98 75.42 54.49 77.25
  Q 55.35 80.37 57.99 80.59
  Q 61.39 80.89 71.09 80.62
  Q 80.83 80.75 90.18 80.65
  C 92.71 80.62 95.19 80.16 95.36 77.29
  Q 95.45 75.76 93.95 73.43
  Q 89.51 66.53 84.77 59.54
  L 93.82 45.49
  A 3.74 3.74 0.0 0 0 90.67 39.73
  L 75.66 39.76
  L 58.38 39.73
  A 3.92 3.92 0.0 0 0 54.46 43.66
  L 54.55 72.14
  Z
  M 46.75 91.49
  L 46.75 87.68
  Q 46.75 87.10 46.18 87.12
  L 44.53 87.17
  Q 44.01 87.19 44.01 87.72
  L 44.01 100.77
  Q 44.01 101.27 44.52 101.27
  L 46.45 101.26
  Q 46.85 101.25 46.81 100.85
  Q 46.61 98.99 46.80 97.33
  Q 47.25 93.31 49.41 96.74
  L 51.90 100.69
  Q 52.27 101.29 52.97 101.29
  L 54.83 101.30
  Q 55.56 101.30 55.17 100.69
  L 50.34 93.15
  A 0.81 0.81 0.0 0 1 50.43 92.17
  L 54.44 87.78
  Q 55.07 87.09 54.13 87.10
  L 52.46 87.11
  A 1.94 1.92 -69.4 0 0 51.00 87.78
  L 47.51 91.77
  Q 46.75 92.64 46.75 91.49
  Z
  M 90.94 88.41
  A 1.38 1.38 0.0 0 0 89.56 87.03
  A 1.38 1.38 0.0 0 0 88.18 88.41
  A 1.38 1.38 0.0 0 0 89.56 89.79
  A 1.38 1.38 0.0 0 0 90.94 88.41
  Z
  M 105.69 88.41
  A 1.37 1.37 0.0 0 0 104.32 87.04
  A 1.37 1.37 0.0 0 0 102.95 88.41
  A 1.37 1.37 0.0 0 0 104.32 89.78
  A 1.37 1.37 0.0 0 0 105.69 88.41
  Z
  M 79.75 90.95
  L 79.81 87.72
  Q 79.83 87.11 79.22 87.13
  L 77.80 87.17
  A 0.65 0.65 0.0 0 0 77.17 87.82
  L 77.22 100.77
  A 0.54 0.53 3.0 0 0 77.70 101.30
  Q 78.82 101.40 79.91 100.97
  Q 80.24 100.85 80.56 101.00
  C 85.04 103.14 87.88 98.57 86.92 94.60
  Q 85.59 89.10 80.24 91.29
  Q 79.74 91.50 79.75 90.95
  Z
  M 108.00 88.95
  Q 107.80 88.79 107.59 88.94
  A 0.39 0.38 34.9 0 0 107.72 89.63
  Q 108.67 89.88 109.26 89.05
  A 1.15 1.15 0.0 0 0 108.61 87.26
  Q 108.08 87.12 107.55 87.36
  Q 107.09 87.56 107.48 87.87
  Q 107.83 88.14 108.30 88.08
  Q 108.84 88.00 108.82 88.55
  Q 108.81 88.73 108.70 88.87
  Q 108.40 89.26 108.00 88.95
  Z
  M 65.53 96.05
  A 5.43 5.43 0.0 0 0 60.10 90.62
  A 5.43 5.43 0.0 0 0 54.67 96.05
  A 5.43 5.43 0.0 0 0 60.10 101.48
  A 5.43 5.43 0.0 0 0 65.53 96.05
  Z
  M 69.14 91.58
  Q 68.57 90.33 67.00 90.78
  Q 66.49 90.93 66.49 91.47
  L 66.48 100.74
  Q 66.47 101.26 66.99 101.27
  L 68.56 101.30
  A 0.55 0.55 0.0 0 0 69.12 100.70
  C 68.91 98.55 68.62 93.95 71.09 92.99
  A 1.40 1.40 0.0 0 1 73.00 94.29
  L 73.00 101.01
  Q 73.00 101.27 73.26 101.27
  L 75.21 101.27
  Q 75.53 101.27 75.53 100.95
  Q 75.54 97.54 75.59 93.90
  C 75.62 91.24 73.46 90.16 71.03 90.88
  A 2.18 2.11 -74.6 0 0 70.15 91.40
  Q 70.04 91.51 69.96 91.64
  Q 69.50 92.35 69.14 91.58
  Z
  M 90.8385 91.1923
  A 0.36 0.36 0.0 0 0 90.4791 90.8316
  L 88.6191 90.8284
  A 0.36 0.36 0.0 0 0 88.2585 91.1878
  L 88.2415 100.9077
  A 0.36 0.36 0.0 0 0 88.6009 101.2684
  L 90.4609 101.2716
  A 0.36 0.36 0.0 0 0 90.8215 100.9122
  L 90.8385 91.1923
  Z
  M 95.16 91.61
  Q 94.50 90.34 92.89 90.81
  Q 92.39 90.95 92.39 91.48
  L 92.43 100.74
  A 0.56 0.55 -0.0 0 0 92.99 101.29
  L 94.72 101.26
  Q 95.10 101.25 95.07 100.88
  Q 94.84 98.09 95.27 94.87
  Q 95.44 93.59 96.64 93.11
  Q 97.08 92.93 97.68 92.94
  A 1.12 1.12 0.0 0 1 98.78 94.06
  L 98.80 100.79
  A 0.49 0.49 0.0 0 0 99.29 101.28
  L 101.18 101.27
  Q 101.47 101.27 101.47 100.97
  Q 101.45 97.83 101.53 94.33
  C 101.60 91.64 99.90 90.14 97.13 90.82
  Q 96.30 91.02 95.77 91.67
  Q 95.42 92.09 95.16 91.61
  Z
  M 105.67 91.26
  A 0.43 0.43 0.0 0 0 105.24 90.83
  L 103.48 90.83
  A 0.43 0.43 0.0 0 0 103.05 91.26
  L 103.05 100.84
  A 0.43 0.43 0.0 0 0 103.48 101.27
  L 105.24 101.27
  A 0.43 0.43 0.0 0 0 105.67 100.84
  L 105.67 91.26
  Z"
/>
<path fill="#ffc700" d="
  M 210.00 10.83
  L 210.00 297.00
  L 0.63 297.00
  L 0.57 296.76
  Q 0.52 296.56 0.64 296.40
  Q 105.01 153.63 209.36 10.85
  Q 209.62 10.49 210.00 10.83
  Z"
/>
<path fill="#08459c" d="
  M 75.66 39.76
  L 54.55 72.14
  L 54.46 43.66
  A 3.92 3.92 0.0 0 1 58.38 39.73
  L 75.66 39.76
  Z"
/>
<path fill="#ff231f" d="
  M 75.66 39.76
  L 90.67 39.73
  A 3.74 3.74 0.0 0 1 93.82 45.49
  L 84.77 59.54
  L 71.09 80.62
  Q 61.39 80.89 57.99 80.59
  Q 55.35 80.37 54.49 77.25
  Q 53.98 75.42 54.55 72.14
  L 75.66 39.76
  Z"
/>
<path fill="#ffc700" d="
  M 84.77 59.54
  Q 89.51 66.53 93.95 73.43
  Q 95.45 75.76 95.36 77.29
  C 95.19 80.16 92.71 80.62 90.18 80.65
  Q 80.83 80.75 71.09 80.62
  L 84.77 59.54
  Z"
/>
<path fill="#010102" d="
  M 47.51 91.77
  L 51.00 87.78
  A 1.94 1.92 -69.4 0 1 52.46 87.11
  L 54.13 87.10
  Q 55.07 87.09 54.44 87.78
  L 50.43 92.17
  A 0.81 0.81 0.0 0 0 50.34 93.15
  L 55.17 100.69
  Q 55.56 101.30 54.83 101.30
  L 52.97 101.29
  Q 52.27 101.29 51.90 100.69
  L 49.41 96.74
  Q 47.25 93.31 46.80 97.33
  Q 46.61 98.99 46.81 100.85
  Q 46.85 101.25 46.45 101.26
  L 44.52 101.27
  Q 44.01 101.27 44.01 100.77
  L 44.01 87.72
  Q 44.01 87.19 44.53 87.17
  L 46.18 87.12
  Q 46.75 87.10 46.75 87.68
  L 46.75 91.49
  Q 46.75 92.64 47.51 91.77
  Z"
/>
<circle fill="#010102" cx="89.56" cy="88.41" r="1.38"/>
<circle fill="#010102" cx="104.32" cy="88.41" r="1.37"/>
<path fill="#010102" d="
  M 80.24 91.29
  Q 85.59 89.10 86.92 94.60
  C 87.88 98.57 85.04 103.14 80.56 101.00
  Q 80.24 100.85 79.91 100.97
  Q 78.82 101.40 77.70 101.30
  A 0.54 0.53 3.0 0 1 77.22 100.77
  L 77.17 87.82
  A 0.65 0.65 0.0 0 1 77.80 87.17
  L 79.22 87.13
  Q 79.83 87.11 79.81 87.72
  L 79.75 90.95
  Q 79.74 91.50 80.24 91.29
  Z
  M 81.9613 99.3200
  A 3.24 2.42 89.8 0 0 84.3700 96.0716
  A 3.24 2.42 89.8 0 0 81.9387 92.8400
  A 3.24 2.42 89.8 0 0 79.5300 96.0884
  A 3.24 2.42 89.8 0 0 81.9613 99.3200
  Z"
/>
<path fill="#010102" d="
  M 108.70 88.87
  Q 108.81 88.73 108.82 88.55
  Q 108.84 88.00 108.30 88.08
  Q 107.83 88.14 107.48 87.87
  Q 107.09 87.56 107.55 87.36
  Q 108.08 87.12 108.61 87.26
  A 1.15 1.15 0.0 0 1 109.26 89.05
  Q 108.67 89.88 107.72 89.63
  A 0.39 0.38 34.9 0 1 107.59 88.94
  Q 107.80 88.79 108.00 88.95
  Q 108.40 89.26 108.70 88.87
  Z"
/>
<path fill="#010102" d="
  M 65.53 96.05
  A 5.43 5.43 0.0 0 1 60.10 101.48
  A 5.43 5.43 0.0 0 1 54.67 96.05
  A 5.43 5.43 0.0 0 1 60.10 90.62
  A 5.43 5.43 0.0 0 1 65.53 96.05
  Z
  M 60.0718 99.2999
  A 3.23 2.63 90.5 0 0 62.7299 96.0930
  A 3.23 2.63 90.5 0 0 60.1282 92.8401
  A 3.23 2.63 90.5 0 0 57.4701 96.0470
  A 3.23 2.63 90.5 0 0 60.0718 99.2999
  Z"
/>
<path fill="#010102" d="
  M 69.96 91.64
  Q 70.04 91.51 70.15 91.40
  A 2.18 2.11 -74.6 0 1 71.03 90.88
  C 73.46 90.16 75.62 91.24 75.59 93.90
  Q 75.54 97.54 75.53 100.95
  Q 75.53 101.27 75.21 101.27
  L 73.26 101.27
  Q 73.00 101.27 73.00 101.01
  L 73.00 94.29
  A 1.40 1.40 0.0 0 0 71.09 92.99
  C 68.62 93.95 68.91 98.55 69.12 100.70
  A 0.55 0.55 0.0 0 1 68.56 101.30
  L 66.99 101.27
  Q 66.47 101.26 66.48 100.74
  L 66.49 91.47
  Q 66.49 90.93 67.00 90.78
  Q 68.57 90.33 69.14 91.58
  Q 69.50 92.35 69.96 91.64
  Z"
/>
<rect fill="#010102" x="-1.29" y="-5.22" transform="translate(89.54,96.05) rotate(0.1)" width="2.58" height="10.44" rx="0.36"/>
<path fill="#010102" d="
  M 95.77 91.67
  Q 96.30 91.02 97.13 90.82
  C 99.90 90.14 101.60 91.64 101.53 94.33
  Q 101.45 97.83 101.47 100.97
  Q 101.47 101.27 101.18 101.27
  L 99.29 101.28
  A 0.49 0.49 0.0 0 1 98.80 100.79
  L 98.78 94.06
  A 1.12 1.12 0.0 0 0 97.68 92.94
  Q 97.08 92.93 96.64 93.11
  Q 95.44 93.59 95.27 94.87
  Q 94.84 98.09 95.07 100.88
  Q 95.10 101.25 94.72 101.26
  L 92.99 101.29
  A 0.56 0.55 0.0 0 1 92.43 100.74
  L 92.39 91.48
  Q 92.39 90.95 92.89 90.81
  Q 94.50 90.34 95.16 91.61
  Q 95.42 92.09 95.77 91.67
  Z"
/>
<rect fill="#010102" x="103.05" y="90.83" width="2.62" height="10.44" rx="0.43"/>
<ellipse fill="#ffffff" cx="0.00" cy="0.00" transform="translate(60.10,96.07) rotate(90.5)" rx="3.23" ry="2.63"/>
<ellipse fill="#ffffff" cx="0.00" cy="0.00" transform="translate(81.95,96.08) rotate(89.8)" rx="3.24" ry="2.42"/>
</svg>
