<?xml version="1.0" encoding="UTF-8" standalone="no"?>
<!DOCTYPE svg PUBLIC "-//W3C//DTD SVG 1.1//EN" "http://www.w3.org/Graphics/SVG/1.1/DTD/svg11.dtd">
<svg xmlns="http://www.w3.org/2000/svg" version="1.1" viewBox="0.00 0.00 210.00 297.00">
<g stroke-width="2.00" fill="none" stroke-linecap="butt">
<path stroke="#8aa39a" vector-effect="non-scaling-stroke" d="
  M 210.00 10.61
  Q 209.87 10.56 209.76 10.55
  Q 209.59 10.55 209.49 10.68
  L 0.65 296.40
  A 0.44 0.40 -33.9 0 0 0.57 296.72
  L 0.63 297.00"
/>
<path stroke="#8aa39a" vector-effect="non-scaling-stroke" d="
  M 95.83 59.67
  A 0.30 0.30 0.0 0 1 95.37 59.69
  L 74.44 36.14
  A 0.30 0.30 0.0 0 0 74.00 36.14
  L 53.07 59.71
  A 0.30 0.30 0.0 0 1 52.61 59.69
  L 36.54 38.45
  A 0.30 0.30 0.0 0 0 36.00 38.63
  L 36.00 87.20
  A 0.30 0.30 0.0 0 0 36.30 87.50
  L 112.20 87.50
  A 0.30 0.30 0.0 0 0 112.50 87.20
  L 112.50 38.57
  A 0.30 0.30 0.0 0 0 111.96 38.39
  L 95.83 59.67"
/>
<path stroke="#8aa39a" vector-effect="non-scaling-stroke" d="
  M 50.86 99.20
  Q 52.09 99.25 52.66 100.53
  A 0.31 0.30 -11.8 0 0 52.94 100.71
  L 53.30 100.69
  A 0.64 0.64 0.0 0 0 53.88 99.84
  L 52.03 94.48
  A 1.08 1.08 0.0 0 0 50.00 94.44
  Q 49.01 96.98 48.19 99.71
  Q 48.10 100.01 48.22 100.30
  Q 48.37 100.67 48.78 100.71
  Q 49.21 100.74 49.45 100.38
  L 49.93 99.68
  Q 50.26 99.18 50.86 99.20"
/>
<path stroke="#8aa39a" vector-effect="non-scaling-stroke" d="
  M 60.12 97.01
  Q 59.30 95.90 58.66 94.70
  C 58.35 94.10 57.73 93.78 57.07 93.86
  Q 56.50 93.92 56.50 94.49
  L 56.51 100.05
  A 0.51 0.51 0.0 0 0 57.06 100.56
  L 57.49 100.53
  A 0.54 0.54 0.0 0 0 58.00 100.01
  L 58.10 97.47
  Q 58.15 96.24 58.68 97.35
  Q 59.26 98.55 59.99 99.49
  Q 62.20 102.32 62.21 98.73
  L 62.21 94.49
  Q 62.21 93.90 61.62 93.87
  L 61.22 93.85
  Q 60.50 93.82 60.54 94.53
  L 60.67 96.81
  Q 60.72 97.82 60.12 97.01"
/>
<path stroke="#8aa39a" vector-effect="non-scaling-stroke" d="
  M 66.87 99.38
  Q 68.49 98.80 69.26 100.32
  Q 69.55 100.89 70.14 100.65
  L 70.43 100.53
  Q 70.67 100.44 70.59 100.20
  L 68.72 94.54
  Q 68.58 94.14 68.19 93.96
  Q 67.66 93.73 67.13 93.94
  Q 66.55 94.18 66.36 94.82
  Q 65.56 97.54 64.72 99.98
  A 0.49 0.49 0.0 0 0 65.15 100.62
  Q 65.91 100.66 66.23 99.96
  A 1.11 1.08 -86.4 0 1 66.87 99.38"
/>
<path stroke="#8aa39a" vector-effect="non-scaling-stroke" d="
  M 74.83 99.09
  A 0.30 0.30 0.0 0 1 74.53 98.79
  L 74.57 94.12
  A 0.30 0.30 0.0 0 0 74.24 93.82
  L 73.28 93.90
  A 0.30 0.30 0.0 0 0 73.01 94.20
  L 73.00 100.20
  A 0.30 0.30 0.0 0 0 73.30 100.50
  L 77.07 100.50
  A 0.30 0.30 0.0 0 0 77.36 100.14
  L 77.18 99.31
  A 0.30 0.30 0.0 0 0 76.89 99.07
  L 74.83 99.09"
/>
<path stroke="#8aa39a" vector-effect="non-scaling-stroke" d="
  M 82.65 95.61
  Q 82.11 96.69 81.73 95.54
  Q 81.09 93.56 79.77 93.81
  A 0.56 0.56 0.0 0 0 79.45 94.73
  Q 81.61 97.16 81.47 99.96
  Q 81.44 100.57 82.05 100.54
  L 82.48 100.52
  A 0.62 0.62 0.0 0 0 83.05 99.79
  C 82.66 97.86 84.06 96.06 85.08 94.55
  Q 85.51 93.91 84.74 93.88
  L 84.34 93.86
  A 1.24 1.23 -75.4 0 0 83.19 94.54
  L 82.65 95.61"
/>
<path stroke="#8aa39a" vector-effect="non-scaling-stroke" d="
  M 91.10 99.09
  Q 90.78 99.29 90.41 99.30
  Q 89.90 99.32 89.55 98.96
  Q 88.87 98.28 88.04 98.19
  Q 87.12 98.10 87.56 98.92
  Q 88.97 101.52 92.01 100.26
  A 1.78 1.77 43.4 0 0 91.91 96.94
  L 89.59 96.13
  A 0.51 0.51 0.0 0 1 89.26 95.51
  Q 89.41 94.95 89.90 95.06
  Q 90.54 95.19 91.06 95.64
  Q 91.71 96.20 92.45 95.85
  Q 93.00 95.59 92.61 95.12
  Q 91.14 93.33 89.12 93.90
  Q 87.13 94.46 87.80 96.52
  A 1.18 1.16 -89.6 0 0 88.53 97.27
  L 90.99 98.13
  A 0.54 0.54 0.0 0 1 91.10 99.09"
/>
<path stroke="#8aa39a" vector-effect="non-scaling-stroke" d="
  M 97.39 98.02
  L 99.52 97.81
  Q 100.00 97.77 99.99 97.29
  L 99.99 96.93
  Q 99.98 96.57 99.63 96.56
  L 97.69 96.47
  Q 97.36 96.46 97.30 96.13
  L 97.24 95.82
  Q 97.13 95.28 97.68 95.27
  L 99.75 95.26
  Q 100.27 95.26 100.22 94.75
  L 100.18 94.31
  A 0.48 0.48 0.0 0 0 99.69 93.88
  L 96.24 93.91
  Q 95.64 93.91 95.64 94.51
  L 95.67 99.71
  Q 95.67 100.49 96.46 100.49
  L 99.67 100.50
  Q 100.17 100.50 100.26 100.01
  Q 100.31 99.74 100.13 99.42
  A 0.52 0.51 -13.4 0 0 99.70 99.16
  L 97.50 99.06
  Q 97.07 99.04 97.10 98.62
  L 97.13 98.29
  A 0.30 0.30 0.0 0 1 97.39 98.02"
/>
<path stroke="#8aa39a" vector-effect="non-scaling-stroke" d="
  M 60.78 112.55
  A 0.30 0.30 0.0 0 1 60.48 112.25
  L 60.49 107.68
  A 0.30 0.30 0.0 0 0 60.19 107.38
  L 59.17 107.37
  A 0.30 0.30 0.0 0 0 58.87 107.67
  L 58.88 113.71
  A 0.30 0.30 0.0 0 0 59.18 114.01
  L 62.93 113.99
  A 0.30 0.30 0.0 0 0 63.23 113.68
  L 63.22 112.88
  A 0.30 0.30 0.0 0 0 62.92 112.59
  L 60.78 112.55"
/>
<path stroke="#8aa39a" vector-effect="non-scaling-stroke" d="
  M 71.96 110.70
  A 3.40 3.40 0.0 0 0 68.56 107.30
  A 3.40 3.40 0.0 0 0 65.16 110.70
  A 3.40 3.40 0.0 0 0 68.56 114.10
  A 3.40 3.40 0.0 0 0 71.96 110.70"
/>
<path stroke="#8aa39a" vector-effect="non-scaling-stroke" d="
  M 79.80 107.86
  C 74.38 105.35 72.38 112.12 76.18 113.86
  C 77.48 114.46 78.89 113.80 80.28 113.97
  A 0.54 0.54 0.0 0 0 80.88 113.38
  L 80.34 108.62
  A 0.96 0.96 0.0 0 0 79.80 107.86"
/>
<path stroke="#8aa39a" vector-effect="non-scaling-stroke" d="
  M 86.4339 114.2000
  A 3.50 3.31 90.1 0 0 89.7500 110.7058
  A 3.50 3.31 90.1 0 0 86.4461 107.2000
  A 3.50 3.31 90.1 0 0 83.1300 110.6942
  A 3.50 3.31 90.1 0 0 86.4339 114.2000"
/>
<path stroke="#8aa39a" vector-effect="non-scaling-stroke" d="
  M 73.95 47.66
  A 0.37 0.37 0.0 0 1 74.51 47.66
  L 90.62 65.80
  A 0.37 0.37 0.0 0 0 91.19 65.78
  L 93.53 62.73
  A 0.37 0.37 0.0 0 0 93.52 62.26
  L 74.50 40.86
  A 0.37 0.37 0.0 0 0 73.94 40.86
  L 54.91 62.26
  A 0.37 0.37 0.0 0 0 54.90 62.73
  L 57.26 65.77
  A 0.37 0.37 0.0 0 0 57.83 65.79
  L 73.95 47.66"
/>
<path stroke="#8aa39a" vector-effect="non-scaling-stroke" d="
  M 39.50 47.50
  A 0.31 0.31 0.0 0 0 38.95 47.69
  L 39.04 53.22
  A 0.31 0.31 0.0 0 0 39.10 53.40
  L 57.64 77.88
  A 0.31 0.31 0.0 0 0 57.88 78.00
  L 62.01 78.00
  A 0.31 0.31 0.0 0 0 62.25 77.50
  L 39.50 47.50"
/>
<path stroke="#8aa39a" vector-effect="non-scaling-stroke" d="
  M 109.31 52.64
  A 0.30 0.30 0.0 0 0 109.37 52.46
  L 109.40 47.77
  A 0.30 0.30 0.0 0 0 108.86 47.59
  L 86.19 77.52
  A 0.30 0.30 0.0 0 0 86.43 78.00
  L 89.94 78.00
  A 0.30 0.30 0.0 0 0 90.18 77.88
  L 109.31 52.64"
/>
<path stroke="#8aa39a" vector-effect="non-scaling-stroke" d="
  M 73.98 58.31
  A 0.34 0.34 0.0 0 1 74.48 58.31
  L 86.28 71.59
  A 0.34 0.34 0.0 0 0 86.80 71.57
  L 88.87 68.89
  A 0.34 0.34 0.0 0 0 88.85 68.46
  L 74.47 52.29
  A 0.34 0.34 0.0 0 0 73.97 52.29
  L 59.60 68.44
  A 0.34 0.34 0.0 0 0 59.58 68.87
  L 61.60 71.60
  A 0.34 0.34 0.0 0 0 62.13 71.63
  L 73.98 58.31"
/>
<path stroke="#8aa39a" vector-effect="non-scaling-stroke" d="
  M 109.31 64.38
  A 0.33 0.33 0.0 0 0 109.38 64.18
  L 109.40 58.62
  A 0.33 0.33 0.0 0 0 108.80 58.42
  L 94.37 77.47
  A 0.33 0.33 0.0 0 0 94.63 78.00
  L 98.81 78.00
  A 0.33 0.33 0.0 0 0 99.07 77.87
  L 109.31 64.38"
/>
<path stroke="#8aa39a" vector-effect="non-scaling-stroke" d="
  M 39.61 59.19
  A 0.35 0.35 0.0 0 0 38.98 59.41
  L 39.00 64.90
  A 0.35 0.35 0.0 0 0 39.07 65.11
  L 48.75 77.86
  A 0.35 0.35 0.0 0 0 49.02 78.00
  L 53.16 78.01
  A 0.35 0.35 0.0 0 0 53.44 77.45
  L 39.61 59.19"
/>
<path stroke="#8aa39a" vector-effect="non-scaling-stroke" d="
  M 84.49 74.64
  A 0.35 0.35 0.0 0 0 84.47 74.20
  L 74.48 62.96
  A 0.35 0.35 0.0 0 0 73.96 62.96
  L 63.98 74.20
  A 0.35 0.35 0.0 0 0 63.96 74.64
  L 66.38 77.86
  A 0.35 0.35 0.0 0 0 66.66 78.00
  L 81.80 78.00
  A 0.35 0.35 0.0 0 0 82.08 77.86
  L 84.49 74.64"
/>
<path stroke="#8aa39a" vector-effect="non-scaling-stroke" d="
  M 109.40 70.31
  A 0.31 0.31 0.0 0 0 108.84 70.12
  L 103.24 77.50
  A 0.31 0.31 0.0 0 0 103.48 78.00
  L 109.06 78.00
  A 0.31 0.31 0.0 0 0 109.37 77.69
  L 109.40 70.31"
/>
<path stroke="#8aa39a" vector-effect="non-scaling-stroke" d="
  M 44.66 77.59
  L 39.55 70.77
  Q 39.02 70.06 39.01 70.95
  L 38.98 77.49
  Q 38.98 78.01 39.49 78.01
  L 44.47 77.99
  A 0.25 0.25 0.0 0 0 44.66 77.59"
/>
<path stroke="#8aa39a" vector-effect="non-scaling-stroke" d="
  M 109.38 81.46
  A 0.34 0.34 0.0 0 0 109.04 81.12
  L 39.34 81.12
  A 0.34 0.34 0.0 0 0 39.00 81.46
  L 39.00 84.04
  A 0.34 0.34 0.0 0 0 39.34 84.38
  L 109.04 84.38
  A 0.34 0.34 0.0 0 0 109.38 84.04
  L 109.38 81.46"
/>
<path stroke="#8aa39a" vector-effect="non-scaling-stroke" d="
  M 77.06 72.47
  A 2.84 2.84 0.0 0 0 74.22 69.63
  A 2.84 2.84 0.0 0 0 71.38 72.47
  A 2.84 2.84 0.0 0 0 74.22 75.31
  A 2.84 2.84 0.0 0 0 77.06 72.47"
/>
<path stroke="#8aa39a" vector-effect="non-scaling-stroke" d="
  M 50.33 97.24
  Q 50.21 97.50 50.45 97.64
  Q 50.80 97.85 51.24 97.81
  Q 52.09 97.73 51.59 97.04
  L 51.39 96.75
  Q 50.89 96.06 50.53 96.83
  L 50.33 97.24"
/>
<path stroke="#8aa39a" vector-effect="non-scaling-stroke" d="
  M 68.23 97.45
  L 67.98 96.76
  Q 67.71 96.00 67.25 96.66
  Q 67.01 97.01 67.03 97.44
  Q 67.06 97.91 67.52 97.98
  Q 67.81 98.02 68.07 97.87
  A 0.36 0.34 -25.4 0 0 68.23 97.45"
/>
<path stroke="#8aa39a" vector-effect="non-scaling-stroke" d="
  M 68.5275 112.7396
  A 2.03 1.66 91.2 0 0 70.2296 110.7448
  A 2.03 1.66 91.2 0 0 68.6125 108.6804
  A 2.03 1.66 91.2 0 0 66.9104 110.6752
  A 2.03 1.66 91.2 0 0 68.5275 112.7396"
/>
<path stroke="#8aa39a" vector-effect="non-scaling-stroke" d="
  M 78.49 111.58
  Q 77.14 110.87 78.50 110.28
  Q 78.63 110.22 78.77 110.24
  Q 79.00 110.28 79.24 110.33
  Q 80.14 110.50 79.59 109.76
  Q 78.89 108.81 77.67 108.71
  Q 76.71 108.64 76.25 109.45
  Q 75.69 110.45 76.09 111.60
  Q 76.36 112.37 77.14 112.65
  Q 77.75 112.87 78.36 112.71
  A 0.61 0.61 0.0 0 0 78.49 111.58"
/>
<path stroke="#8aa39a" vector-effect="non-scaling-stroke" d="
  M 86.4571 112.7600
  A 2.04 1.65 89.8 0 0 88.1000 110.7142
  A 2.04 1.65 89.8 0 0 86.4429 108.6800
  A 2.04 1.65 89.8 0 0 84.8000 110.7258
  A 2.04 1.65 89.8 0 0 86.4571 112.7600"
/>
</g>
<path fill="#ffffff" d="
  M 0.00 0.00
  L 210.00 0.00
  L 210.00 10.61
  Q 209.87 10.56 209.76 10.55
  Q 209.59 10.55 209.49 10.68
  L 0.65 296.40
  A 0.44 0.40 -33.9 0 0 0.57 296.72
  L 0.63 297.00
  L 0.00 297.00
  L 0.00 0.00
  Z
  M 95.83 59.67
  A 0.30 0.30 0.0 0 1 95.37 59.69
  L 74.44 36.14
  A 0.30 0.30 0.0 0 0 74.00 36.14
  L 53.07 59.71
  A 0.30 0.30 0.0 0 1 52.61 59.69
  L 36.54 38.45
  A 0.30 0.30 0.0 0 0 36.00 38.63
  L 36.00 87.20
  A 0.30 0.30 0.0 0 0 36.30 87.50
  L 112.20 87.50
  A 0.30 0.30 0.0 0 0 112.50 87.20
  L 112.50 38.57
  A 0.30 0.30 0.0 0 0 111.96 38.39
  L 95.83 59.67
  Z
  M 50.86 99.20
  Q 52.09 99.25 52.66 100.53
  A 0.31 0.30 -11.8 0 0 52.94 100.71
  L 53.30 100.69
  A 0.64 0.64 0.0 0 0 53.88 99.84
  L 52.03 94.48
  A 1.08 1.08 0.0 0 0 50.00 94.44
  Q 49.01 96.98 48.19 99.71
  Q 48.10 100.01 48.22 100.30
  Q 48.37 100.67 48.78 100.71
  Q 49.21 100.74 49.45 100.38
  L 49.93 99.68
  Q 50.26 99.18 50.86 99.20
  Z
  M 60.12 97.01
  Q 59.30 95.90 58.66 94.70
  C 58.35 94.10 57.73 93.78 57.07 93.86
  Q 56.50 93.92 56.50 94.49
  L 56.51 100.05
  A 0.51 0.51 0.0 0 0 57.06 100.56
  L 57.49 100.53
  A 0.54 0.54 0.0 0 0 58.00 100.01
  L 58.10 97.47
  Q 58.15 96.24 58.68 97.35
  Q 59.26 98.55 59.99 99.49
  Q 62.20 102.32 62.21 98.73
  L 62.21 94.49
  Q 62.21 93.90 61.62 93.87
  L 61.22 93.85
  Q 60.50 93.82 60.54 94.53
  L 60.67 96.81
  Q 60.72 97.82 60.12 97.01
  Z
  M 66.87 99.38
  Q 68.49 98.80 69.26 100.32
  Q 69.55 100.89 70.14 100.65
  L 70.43 100.53
  Q 70.67 100.44 70.59 100.20
  L 68.72 94.54
  Q 68.58 94.14 68.19 93.96
  Q 67.66 93.73 67.13 93.94
  Q 66.55 94.18 66.36 94.82
  Q 65.56 97.54 64.72 99.98
  A 0.49 0.49 0.0 0 0 65.15 100.62
  Q 65.91 100.66 66.23 99.96
  A 1.11 1.08 -86.4 0 1 66.87 99.38
  Z
  M 74.83 99.09
  A 0.30 0.30 0.0 0 1 74.53 98.79
  L 74.57 94.12
  A 0.30 0.30 0.0 0 0 74.24 93.82
  L 73.28 93.90
  A 0.30 0.30 0.0 0 0 73.01 94.20
  L 73.00 100.20
  A 0.30 0.30 0.0 0 0 73.30 100.50
  L 77.07 100.50
  A 0.30 0.30 0.0 0 0 77.36 100.14
  L 77.18 99.31
  A 0.30 0.30 0.0 0 0 76.89 99.07
  L 74.83 99.09
  Z
  M 82.65 95.61
  Q 82.11 96.69 81.73 95.54
  Q 81.09 93.56 79.77 93.81
  A 0.56 0.56 0.0 0 0 79.45 94.73
  Q 81.61 97.16 81.47 99.96
  Q 81.44 100.57 82.05 100.54
  L 82.48 100.52
  A 0.62 0.62 0.0 0 0 83.05 99.79
  C 82.66 97.86 84.06 96.06 85.08 94.55
  Q 85.51 93.91 84.74 93.88
  L 84.34 93.86
  A 1.24 1.23 -75.4 0 0 83.19 94.54
  L 82.65 95.61
  Z
  M 91.10 99.09
  Q 90.78 99.29 90.41 99.30
  Q 89.90 99.32 89.55 98.96
  Q 88.87 98.28 88.04 98.19
  Q 87.12 98.10 87.56 98.92
  Q 88.97 101.52 92.01 100.26
  A 1.78 1.77 43.4 0 0 91.91 96.94
  L 89.59 96.13
  A 0.51 0.51 0.0 0 1 89.26 95.51
  Q 89.41 94.95 89.90 95.06
  Q 90.54 95.19 91.06 95.64
  Q 91.71 96.20 92.45 95.85
  Q 93.00 95.59 92.61 95.12
  Q 91.14 93.33 89.12 93.90
  Q 87.13 94.46 87.80 96.52
  A 1.18 1.16 -89.6 0 0 88.53 97.27
  L 90.99 98.13
  A 0.54 0.54 0.0 0 1 91.10 99.09
  Z
  M 97.39 98.02
  L 99.52 97.81
  Q 100.00 97.77 99.99 97.29
  L 99.99 96.93
  Q 99.98 96.57 99.63 96.56
  L 97.69 96.47
  Q 97.36 96.46 97.30 96.13
  L 97.24 95.82
  Q 97.13 95.28 97.68 95.27
  L 99.75 95.26
  Q 100.27 95.26 100.22 94.75
  L 100.18 94.31
  A 0.48 0.48 0.0 0 0 99.69 93.88
  L 96.24 93.91
  Q 95.64 93.91 95.64 94.51
  L 95.67 99.71
  Q 95.67 100.49 96.46 100.49
  L 99.67 100.50
  Q 100.17 100.50 100.26 100.01
  Q 100.31 99.74 100.13 99.42
  A 0.52 0.51 -13.4 0 0 99.70 99.16
  L 97.50 99.06
  Q 97.07 99.04 97.10 98.62
  L 97.13 98.29
  A 0.30 0.30 0.0 0 1 97.39 98.02
  Z
  M 60.78 112.55
  A 0.30 0.30 0.0 0 1 60.48 112.25
  L 60.49 107.68
  A 0.30 0.30 0.0 0 0 60.19 107.38
  L 59.17 107.37
  A 0.30 0.30 0.0 0 0 58.87 107.67
  L 58.88 113.71
  A 0.30 0.30 0.0 0 0 59.18 114.01
  L 62.93 113.99
  A 0.30 0.30 0.0 0 0 63.23 113.68
  L 63.22 112.88
  A 0.30 0.30 0.0 0 0 62.92 112.59
  L 60.78 112.55
  Z
  M 71.96 110.70
  A 3.40 3.40 0.0 0 0 68.56 107.30
  A 3.40 3.40 0.0 0 0 65.16 110.70
  A 3.40 3.40 0.0 0 0 68.56 114.10
  A 3.40 3.40 0.0 0 0 71.96 110.70
  Z
  M 79.80 107.86
  C 74.38 105.35 72.38 112.12 76.18 113.86
  C 77.48 114.46 78.89 113.80 80.28 113.97
  A 0.54 0.54 0.0 0 0 80.88 113.38
  L 80.34 108.62
  A 0.96 0.96 0.0 0 0 79.80 107.86
  Z
  M 86.4339 114.2000
  A 3.50 3.31 90.1 0 0 89.7500 110.7058
  A 3.50 3.31 90.1 0 0 86.4461 107.2000
  A 3.50 3.31 90.1 0 0 83.1300 110.6942
  A 3.50 3.31 90.1 0 0 86.4339 114.2000
  Z"
/>
<path fill="#154734" d="
  M 210.00 10.61
  L 210.00 297.00
  L 0.63 297.00
  L 0.57 296.72
  A 0.44 0.40 -33.9 0 1 0.65 296.40
  L 209.49 10.68
  Q 209.59 10.55 209.76 10.55
  Q 209.87 10.56 210.00 10.61
  Z"
/>
<path fill="#154734" d="
  M 95.83 59.67
  L 111.96 38.39
  A 0.30 0.30 0.0 0 1 112.50 38.57
  L 112.50 87.20
  A 0.30 0.30 0.0 0 1 112.20 87.50
  L 36.30 87.50
  A 0.30 0.30 0.0 0 1 36.00 87.20
  L 36.00 38.63
  A 0.30 0.30 0.0 0 1 36.54 38.45
  L 52.61 59.69
  A 0.30 0.30 0.0 0 0 53.07 59.71
  L 74.00 36.14
  A 0.30 0.30 0.0 0 1 74.44 36.14
  L 95.37 59.69
  A 0.30 0.30 0.0 0 0 95.83 59.67
  Z
  M 73.95 47.66
  A 0.37 0.37 0.0 0 1 74.51 47.66
  L 90.62 65.80
  A 0.37 0.37 0.0 0 0 91.19 65.78
  L 93.53 62.73
  A 0.37 0.37 0.0 0 0 93.52 62.26
  L 74.50 40.86
  A 0.37 0.37 0.0 0 0 73.94 40.86
  L 54.91 62.26
  A 0.37 0.37 0.0 0 0 54.90 62.73
  L 57.26 65.77
  A 0.37 0.37 0.0 0 0 57.83 65.79
  L 73.95 47.66
  Z
  M 39.50 47.50
  A 0.31 0.31 0.0 0 0 38.95 47.69
  L 39.04 53.22
  A 0.31 0.31 0.0 0 0 39.10 53.40
  L 57.64 77.88
  A 0.31 0.31 0.0 0 0 57.88 78.00
  L 62.01 78.00
  A 0.31 0.31 0.0 0 0 62.25 77.50
  L 39.50 47.50
  Z
  M 109.31 52.64
  A 0.30 0.30 0.0 0 0 109.37 52.46
  L 109.40 47.77
  A 0.30 0.30 0.0 0 0 108.86 47.59
  L 86.19 77.52
  A 0.30 0.30 0.0 0 0 86.43 78.00
  L 89.94 78.00
  A 0.30 0.30 0.0 0 0 90.18 77.88
  L 109.31 52.64
  Z
  M 73.98 58.31
  A 0.34 0.34 0.0 0 1 74.48 58.31
  L 86.28 71.59
  A 0.34 0.34 0.0 0 0 86.80 71.57
  L 88.87 68.89
  A 0.34 0.34 0.0 0 0 88.85 68.46
  L 74.47 52.29
  A 0.34 0.34 0.0 0 0 73.97 52.29
  L 59.60 68.44
  A 0.34 0.34 0.0 0 0 59.58 68.87
  L 61.60 71.60
  A 0.34 0.34 0.0 0 0 62.13 71.63
  L 73.98 58.31
  Z
  M 109.31 64.38
  A 0.33 0.33 0.0 0 0 109.38 64.18
  L 109.40 58.62
  A 0.33 0.33 0.0 0 0 108.80 58.42
  L 94.37 77.47
  A 0.33 0.33 0.0 0 0 94.63 78.00
  L 98.81 78.00
  A 0.33 0.33 0.0 0 0 99.07 77.87
  L 109.31 64.38
  Z
  M 39.61 59.19
  A 0.35 0.35 0.0 0 0 38.98 59.41
  L 39.00 64.90
  A 0.35 0.35 0.0 0 0 39.07 65.11
  L 48.75 77.86
  A 0.35 0.35 0.0 0 0 49.02 78.00
  L 53.16 78.01
  A 0.35 0.35 0.0 0 0 53.44 77.45
  L 39.61 59.19
  Z
  M 84.49 74.64
  A 0.35 0.35 0.0 0 0 84.47 74.20
  L 74.48 62.96
  A 0.35 0.35 0.0 0 0 73.96 62.96
  L 63.98 74.20
  A 0.35 0.35 0.0 0 0 63.96 74.64
  L 66.38 77.86
  A 0.35 0.35 0.0 0 0 66.66 78.00
  L 81.80 78.00
  A 0.35 0.35 0.0 0 0 82.08 77.86
  L 84.49 74.64
  Z
  M 109.40 70.31
  A 0.31 0.31 0.0 0 0 108.84 70.12
  L 103.24 77.50
  A 0.31 0.31 0.0 0 0 103.48 78.00
  L 109.06 78.00
  A 0.31 0.31 0.0 0 0 109.37 77.69
  L 109.40 70.31
  Z
  M 44.66 77.59
  L 39.55 70.77
  Q 39.02 70.06 39.01 70.95
  L 38.98 77.49
  Q 38.98 78.01 39.49 78.01
  L 44.47 77.99
  A 0.25 0.25 0.0 0 0 44.66 77.59
  Z
  M 109.38 81.46
  A 0.34 0.34 0.0 0 0 109.04 81.12
  L 39.34 81.12
  A 0.34 0.34 0.0 0 0 39.00 81.46
  L 39.00 84.04
  A 0.34 0.34 0.0 0 0 39.34 84.38
  L 109.04 84.38
  A 0.34 0.34 0.0 0 0 109.38 84.04
  L 109.38 81.46
  Z"
/>
<path fill="#ffffff" d="
  M 73.95 47.66
  L 57.83 65.79
  A 0.37 0.37 0.0 0 1 57.26 65.77
  L 54.90 62.73
  A 0.37 0.37 0.0 0 1 54.91 62.26
  L 73.94 40.86
  A 0.37 0.37 0.0 0 1 74.50 40.86
  L 93.52 62.26
  A 0.37 0.37 0.0 0 1 93.53 62.73
  L 91.19 65.78
  A 0.37 0.37 0.0 0 1 90.62 65.80
  L 74.51 47.66
  A 0.37 0.37 0.0 0 0 73.95 47.66
  Z"
/>
<path fill="#ffffff" d="
  M 39.50 47.50
  L 62.25 77.50
  A 0.31 0.31 0.0 0 1 62.01 78.00
  L 57.88 78.00
  A 0.31 0.31 0.0 0 1 57.64 77.88
  L 39.10 53.40
  A 0.31 0.31 0.0 0 1 39.04 53.22
  L 38.95 47.69
  A 0.31 0.31 0.0 0 1 39.50 47.50
  Z"
/>
<path fill="#ffffff" d="
  M 109.31 52.64
  L 90.18 77.88
  A 0.30 0.30 0.0 0 1 89.94 78.00
  L 86.43 78.00
  A 0.30 0.30 0.0 0 1 86.19 77.52
  L 108.86 47.59
  A 0.30 0.30 0.0 0 1 109.40 47.77
  L 109.37 52.46
  A 0.30 0.30 0.0 0 1 109.31 52.64
  Z"
/>
<path fill="#ffffff" d="
  M 73.98 58.31
  L 62.13 71.63
  A 0.34 0.34 0.0 0 1 61.60 71.60
  L 59.58 68.87
  A 0.34 0.34 0.0 0 1 59.60 68.44
  L 73.97 52.29
  A 0.34 0.34 0.0 0 1 74.47 52.29
  L 88.85 68.46
  A 0.34 0.34 0.0 0 1 88.87 68.89
  L 86.80 71.57
  A 0.34 0.34 0.0 0 1 86.28 71.59
  L 74.48 58.31
  A 0.34 0.34 0.0 0 0 73.98 58.31
  Z"
/>
<path fill="#ffffff" d="
  M 109.31 64.38
  L 99.07 77.87
  A 0.33 0.33 0.0 0 1 98.81 78.00
  L 94.63 78.00
  A 0.33 0.33 0.0 0 1 94.37 77.47
  L 108.80 58.42
  A 0.33 0.33 0.0 0 1 109.40 58.62
  L 109.38 64.18
  A 0.33 0.33 0.0 0 1 109.31 64.38
  Z"
/>
<path fill="#ffffff" d="
  M 39.61 59.19
  L 53.44 77.45
  A 0.35 0.35 0.0 0 1 53.16 78.01
  L 49.02 78.00
  A 0.35 0.35 0.0 0 1 48.75 77.86
  L 39.07 65.11
  A 0.35 0.35 0.0 0 1 39.00 64.90
  L 38.98 59.41
  A 0.35 0.35 0.0 0 1 39.61 59.19
  Z"
/>
<path fill="#ffffff" d="
  M 84.49 74.64
  L 82.08 77.86
  A 0.35 0.35 0.0 0 1 81.80 78.00
  L 66.66 78.00
  A 0.35 0.35 0.0 0 1 66.38 77.86
  L 63.96 74.64
  A 0.35 0.35 0.0 0 1 63.98 74.20
  L 73.96 62.96
  A 0.35 0.35 0.0 0 1 74.48 62.96
  L 84.47 74.20
  A 0.35 0.35 0.0 0 1 84.49 74.64
  Z
  M 77.06 72.47
  A 2.84 2.84 0.0 0 0 74.22 69.63
  A 2.84 2.84 0.0 0 0 71.38 72.47
  A 2.84 2.84 0.0 0 0 74.22 75.31
  A 2.84 2.84 0.0 0 0 77.06 72.47
  Z"
/>
<circle fill="#154734" cx="74.22" cy="72.47" r="2.84"/>
<path fill="#ffffff" d="
  M 109.40 70.31
  L 109.37 77.69
  A 0.31 0.31 0.0 0 1 109.06 78.00
  L 103.48 78.00
  A 0.31 0.31 0.0 0 1 103.24 77.50
  L 108.84 70.12
  A 0.31 0.31 0.0 0 1 109.40 70.31
  Z"
/>
<path fill="#ffffff" d="
  M 44.66 77.59
  A 0.25 0.25 0.0 0 1 44.47 77.99
  L 39.49 78.01
  Q 38.98 78.01 38.98 77.49
  L 39.01 70.95
  Q 39.02 70.06 39.55 70.77
  L 44.66 77.59
  Z"
/>
<rect fill="#ffffff" x="39.00" y="81.12" width="70.38" height="3.26" rx="0.34"/>
<path fill="#154734" d="
  M 49.93 99.68
  L 49.45 100.38
  Q 49.21 100.74 48.78 100.71
  Q 48.37 100.67 48.22 100.30
  Q 48.10 100.01 48.19 99.71
  Q 49.01 96.98 50.00 94.44
  A 1.08 1.08 0.0 0 1 52.03 94.48
  L 53.88 99.84
  A 0.64 0.64 0.0 0 1 53.30 100.69
  L 52.94 100.71
  A 0.31 0.30 -11.8 0 1 52.66 100.53
  Q 52.09 99.25 50.86 99.20
  Q 50.26 99.18 49.93 99.68
  Z
  M 50.33 97.24
  Q 50.21 97.50 50.45 97.64
  Q 50.80 97.85 51.24 97.81
  Q 52.09 97.73 51.59 97.04
  L 51.39 96.75
  Q 50.89 96.06 50.53 96.83
  L 50.33 97.24
  Z"
/>
<path fill="#154734" d="
  M 60.67 96.81
  L 60.54 94.53
  Q 60.50 93.82 61.22 93.85
  L 61.62 93.87
  Q 62.21 93.90 62.21 94.49
  L 62.21 98.73
  Q 62.20 102.32 59.99 99.49
  Q 59.26 98.55 58.68 97.35
  Q 58.15 96.24 58.10 97.47
  L 58.00 100.01
  A 0.54 0.54 0.0 0 1 57.49 100.53
  L 57.06 100.56
  A 0.51 0.51 0.0 0 1 56.51 100.05
  L 56.50 94.49
  Q 56.50 93.92 57.07 93.86
  C 57.73 93.78 58.35 94.10 58.66 94.70
  Q 59.30 95.90 60.12 97.01
  Q 60.72 97.82 60.67 96.81
  Z"
/>
<path fill="#154734" d="
  M 66.23 99.96
  Q 65.91 100.66 65.15 100.62
  A 0.49 0.49 0.0 0 1 64.72 99.98
  Q 65.56 97.54 66.36 94.82
  Q 66.55 94.18 67.13 93.94
  Q 67.66 93.73 68.19 93.96
  Q 68.58 94.14 68.72 94.54
  L 70.59 100.20
  Q 70.67 100.44 70.43 100.53
  L 70.14 100.65
  Q 69.55 100.89 69.26 100.32
  Q 68.49 98.80 66.87 99.38
  A 1.11 1.08 -86.4 0 0 66.23 99.96
  Z
  M 68.23 97.45
  L 67.98 96.76
  Q 67.71 96.00 67.25 96.66
  Q 67.01 97.01 67.03 97.44
  Q 67.06 97.91 67.52 97.98
  Q 67.81 98.02 68.07 97.87
  A 0.36 0.34 -25.4 0 0 68.23 97.45
  Z"
/>
<path fill="#154734" d="
  M 74.83 99.09
  L 76.89 99.07
  A 0.30 0.30 0.0 0 1 77.18 99.31
  L 77.36 100.14
  A 0.30 0.30 0.0 0 1 77.07 100.50
  L 73.30 100.50
  A 0.30 0.30 0.0 0 1 73.00 100.20
  L 73.01 94.20
  A 0.30 0.30 0.0 0 1 73.28 93.90
  L 74.24 93.82
  A 0.30 0.30 0.0 0 1 74.57 94.12
  L 74.53 98.79
  A 0.30 0.30 0.0 0 0 74.83 99.09
  Z"
/>
<path fill="#154734" d="
  M 82.65 95.61
  L 83.19 94.54
  A 1.24 1.23 -75.4 0 1 84.34 93.86
  L 84.74 93.88
  Q 85.51 93.91 85.08 94.55
  C 84.06 96.06 82.66 97.86 83.05 99.79
  A 0.62 0.62 0.0 0 1 82.48 100.52
  L 82.05 100.54
  Q 81.44 100.57 81.47 99.96
  Q 81.61 97.16 79.45 94.73
  A 0.56 0.56 0.0 0 1 79.77 93.81
  Q 81.09 93.56 81.73 95.54
  Q 82.11 96.69 82.65 95.61
  Z"
/>
<path fill="#154734" d="
  M 91.10 99.09
  A 0.54 0.54 0.0 0 0 90.99 98.13
  L 88.53 97.27
  A 1.18 1.16 -89.6 0 1 87.80 96.52
  Q 87.13 94.46 89.12 93.90
  Q 91.14 93.33 92.61 95.12
  Q 93.00 95.59 92.45 95.85
  Q 91.71 96.20 91.06 95.64
  Q 90.54 95.19 89.90 95.06
  Q 89.41 94.95 89.26 95.51
  A 0.51 0.51 0.0 0 0 89.59 96.13
  L 91.91 96.94
  A 1.78 1.77 43.4 0 1 92.01 100.26
  Q 88.97 101.52 87.56 98.92
  Q 87.12 98.10 88.04 98.19
  Q 88.87 98.28 89.55 98.96
  Q 89.90 99.32 90.41 99.30
  Q 90.78 99.29 91.10 99.09
  Z"
/>
<path fill="#154734" d="
  M 97.39 98.02
  A 0.30 0.30 0.0 0 0 97.13 98.29
  L 97.10 98.62
  Q 97.07 99.04 97.50 99.06
  L 99.70 99.16
  A 0.52 0.51 -13.4 0 1 100.13 99.42
  Q 100.31 99.74 100.26 100.01
  Q 100.17 100.50 99.67 100.50
  L 96.46 100.49
  Q 95.67 100.49 95.67 99.71
  L 95.64 94.51
  Q 95.64 93.91 96.24 93.91
  L 99.69 93.88
  A 0.48 0.48 0.0 0 1 100.18 94.31
  L 100.22 94.75
  Q 100.27 95.26 99.75 95.26
  L 97.68 95.27
  Q 97.13 95.28 97.24 95.82
  L 97.30 96.13
  Q 97.36 96.46 97.69 96.47
  L 99.63 96.56
  Q 99.98 96.57 99.99 96.93
  L 99.99 97.29
  Q 100.00 97.77 99.52 97.81
  L 97.39 98.02
  Z"
/>
<path fill="#ffffff" d="
  M 68.23 97.45
  A 0.36 0.34 -25.4 0 1 68.07 97.87
  Q 67.81 98.02 67.52 97.98
  Q 67.06 97.91 67.03 97.44
  Q 67.01 97.01 67.25 96.66
  Q 67.71 96.00 67.98 96.76
  L 68.23 97.45
  Z"
/>
<path fill="#ffffff" d="
  M 50.33 97.24
  L 50.53 96.83
  Q 50.89 96.06 51.39 96.75
  L 51.59 97.04
  Q 52.09 97.73 51.24 97.81
  Q 50.80 97.85 50.45 97.64
  Q 50.21 97.50 50.33 97.24
  Z"
/>
<path fill="#154734" d="
  M 60.78 112.55
  L 62.92 112.59
  A 0.30 0.30 0.0 0 1 63.22 112.88
  L 63.23 113.68
  A 0.30 0.30 0.0 0 1 62.93 113.99
  L 59.18 114.01
  A 0.30 0.30 0.0 0 1 58.88 113.71
  L 58.87 107.67
  A 0.30 0.30 0.0 0 1 59.17 107.37
  L 60.19 107.38
  A 0.30 0.30 0.0 0 1 60.49 107.68
  L 60.48 112.25
  A 0.30 0.30 0.0 0 0 60.78 112.55
  Z"
/>
<path fill="#154734" d="
  M 71.96 110.70
  A 3.40 3.40 0.0 0 1 68.56 114.10
  A 3.40 3.40 0.0 0 1 65.16 110.70
  A 3.40 3.40 0.0 0 1 68.56 107.30
  A 3.40 3.40 0.0 0 1 71.96 110.70
  Z
  M 68.5275 112.7396
  A 2.03 1.66 91.2 0 0 70.2296 110.7448
  A 2.03 1.66 91.2 0 0 68.6125 108.6804
  A 2.03 1.66 91.2 0 0 66.9104 110.6752
  A 2.03 1.66 91.2 0 0 68.5275 112.7396
  Z"
/>
<path fill="#154734" d="
  M 79.80 107.86
  A 0.96 0.96 0.0 0 1 80.34 108.62
  L 80.88 113.38
  A 0.54 0.54 0.0 0 1 80.28 113.97
  C 78.89 113.80 77.48 114.46 76.18 113.86
  C 72.38 112.12 74.38 105.35 79.80 107.86
  Z
  M 78.49 111.58
  Q 77.14 110.87 78.50 110.28
  Q 78.63 110.22 78.77 110.24
  Q 79.00 110.28 79.24 110.33
  Q 80.14 110.50 79.59 109.76
  Q 78.89 108.81 77.67 108.71
  Q 76.71 108.64 76.25 109.45
  Q 75.69 110.45 76.09 111.60
  Q 76.36 112.37 77.14 112.65
  Q 77.75 112.87 78.36 112.71
  A 0.61 0.61 0.0 0 0 78.49 111.58
  Z"
/>
<path fill="#154734" d="
  M 86.4339 114.2000
  A 3.50 3.31 90.1 0 1 83.1300 110.6942
  A 3.50 3.31 90.1 0 1 86.4461 107.2000
  A 3.50 3.31 90.1 0 1 89.7500 110.7058
  A 3.50 3.31 90.1 0 1 86.4339 114.2000
  Z
  M 86.4571 112.7600
  A 2.04 1.65 89.8 0 0 88.1000 110.7142
  A 2.04 1.65 89.8 0 0 86.4429 108.6800
  A 2.04 1.65 89.8 0 0 84.8000 110.7258
  A 2.04 1.65 89.8 0 0 86.4571 112.7600
  Z"
/>
<ellipse fill="#ffffff" cx="0.00" cy="0.00" transform="translate(68.57,110.71) rotate(91.2)" rx="2.03" ry="1.66"/>
<path fill="#ffffff" d="
  M 78.49 111.58
  A 0.61 0.61 0.0 0 1 78.36 112.71
  Q 77.75 112.87 77.14 112.65
  Q 76.36 112.37 76.09 111.60
  Q 75.69 110.45 76.25 109.45
  Q 76.71 108.64 77.67 108.71
  Q 78.89 108.81 79.59 109.76
  Q 80.14 110.50 79.24 110.33
  Q 79.00 110.28 78.77 110.24
  Q 78.63 110.22 78.50 110.28
  Q 77.14 110.87 78.49 111.58
  Z"
/>
<ellipse fill="#ffffff" cx="0.00" cy="0.00" transform="translate(86.45,110.72) rotate(89.8)" rx="2.04" ry="1.65"/>
</svg>
