<?xml version="1.0" encoding="UTF-8" standalone="no"?>
<!DOCTYPE svg PUBLIC "-//W3C//DTD SVG 1.1//EN" "http://www.w3.org/Graphics/SVG/1.1/DTD/svg11.dtd">
<svg xmlns="http://www.w3.org/2000/svg" version="1.1" viewBox="0.00 0.00 626.00 626.00">
<g stroke-width="2.00" fill="none" stroke-linecap="butt">
<path stroke="#be9171" vector-effect="non-scaling-stroke" d="
  M 182.36 208.69
  Q 181.67 209.00 181.08 209.00"
/>
<path stroke="#bea66f" vector-effect="non-scaling-stroke" d="
  M 181.08 209.00
  L 172.91 209.18
  A 1.00 0.99 89.7 0 0 171.94 210.17
  L 171.88 222.09"
/>
<path stroke="#5082ad" vector-effect="non-scaling-stroke" d="
  M 171.88 222.09
  L 151.16 221.97
  Q 150.81 221.96 150.53 222.17
  Q 150.41 222.26 150.30 222.36"
/>
<path stroke="#84afc6" vector-effect="non-scaling-stroke" d="
  M 150.30 222.36
  Q 149.72 221.90 149.19 222.09
  Q 148.73 222.26 148.69 222.74
  C 147.96 229.98 148.55 237.10 148.49 244.30
  Q 148.34 263.34 148.57 282.21"
/>
<path stroke="#bcb495" vector-effect="non-scaling-stroke" d="
  M 148.57 282.21
  L 148.65 407.39"
/>
<path stroke="#a0b3af" vector-effect="non-scaling-stroke" d="
  M 148.65 407.39
  L 148.80 407.99"
/>
<path stroke="#84afc6" vector-effect="non-scaling-stroke" d="
  M 148.80 407.99
  L 148.65 410.75
  Q 148.62 411.31 149.14 411.52
  Q 149.65 411.73 150.46 411.68"
/>
<path stroke="#4e7592" vector-effect="non-scaling-stroke" d="
  M 150.46 411.68
  L 148.87 411.79
  Q 148.24 411.83 148.25 412.46
  L 148.39 422.71
  A 1.00 1.00 0.0 0 0 149.39 423.70
  L 195.10 423.63"
/>
<path stroke="#6c7a88" vector-effect="non-scaling-stroke" d="
  M 195.10 423.63
  L 194.68 450.87
  A 1.15 1.15 0.0 0 0 195.66 452.03
  Q 196.66 452.17 197.70 452.17
  Q 277.92 452.17 353.57 452.08
  Q 355.69 452.08 357.76 452.50
  Q 363.46 453.67 369.57 454.79
  C 379.29 456.58 391.80 455.95 402.93 453.09
  Q 406.59 452.15 410.40 452.15
  Q 466.91 452.14 523.02 452.21
  A 0.94 0.94 0.0 0 0 523.96 451.27
  L 523.95 243.60
  A 0.86 0.86 0.0 0 0 523.09 242.74
  L 501.67 242.71
  A 1.30 1.30 0.0 0 1 500.38 241.42
  L 500.26 231.13
  Q 500.25 229.61 498.73 229.63
  Q 489.12 229.78 479.19 229.85
  Q 479.02 229.85 478.86 229.89
  Q 478.72 229.92 478.61 230.00
  Q 478.21 230.26 477.97 229.84
  L 477.80 229.54"
/>
<path stroke="#4e7592" vector-effect="non-scaling-stroke" d="
  M 477.80 229.54
  L 477.52 214.94
  A 0.82 0.82 0.0 0 0 476.70 214.14
  L 453.71 214.03"
/>
<path stroke="#4f8d99" vector-effect="non-scaling-stroke" d="
  M 453.71 214.03
  L 453.92 201.82
  Q 453.93 201.30 453.41 201.30
  L 437.38 201.06"
/>
<path stroke="#589fa6" vector-effect="non-scaling-stroke" d="
  M 437.38 201.06
  Q 429.41 201.34 421.29 201.35
  Q 419.79 201.35 417.22 201.07
  Q 415.02 200.83 413.14 200.90"
/>
<path stroke="#84afc6" vector-effect="non-scaling-stroke" d="
  M 413.14 200.90
  L 406.63 201.49
  Q 406.10 201.54 406.09 202.06
  L 405.71 214.21"
/>
<path stroke="#4e7592" vector-effect="non-scaling-stroke" d="
  M 405.71 214.21
  L 345.35 214.23"
/>
<path stroke="#5082ad" vector-effect="non-scaling-stroke" d="
  M 345.35 214.23
  L 328.21 214.17"
/>
<path stroke="#be9171" vector-effect="non-scaling-stroke" d="
  M 328.21 214.17
  L 328.14 209.07
  A 1.29 1.29 0.0 0 0 327.05 207.82
  Q 325.03 207.51 322.75 207.49
  Q 284.50 207.17 246.31 207.73"
/>
<path stroke="#bcb495" vector-effect="non-scaling-stroke" d="
  M 246.31 207.73
  L 240.68 207.49
  A 0.85 0.84 2.8 0 0 239.80 208.28
  L 239.47 214.04"
/>
<path stroke="#5082ad" vector-effect="non-scaling-stroke" d="
  M 239.47 214.04
  L 232.29 214.17
  A 1.22 1.22 0.0 0 0 231.09 215.38
  L 231.00 221.46
  A 0.62 0.62 0.0 0 1 230.38 222.08
  L 219.24 222.16"
/>
<path stroke="#ad6d67" vector-effect="non-scaling-stroke" d="
  M 219.24 222.16
  Q 220.73 216.64 220.10 211.00
  Q 219.90 209.13 218.02 209.03
  L 210.08 208.62"
/>
<path stroke="#be9171" vector-effect="non-scaling-stroke" d="
  M 210.08 208.62
  L 209.64 199.82
  Q 209.59 198.74 208.51 198.73
  L 203.38 198.66"
/>
<path stroke="#bea66f" vector-effect="non-scaling-stroke" d="
  M 203.38 198.66
  L 188.99 198.60"
/>
<path stroke="#bcb495" vector-effect="non-scaling-stroke" d="
  M 188.99 198.60
  L 183.21 198.52
  Q 182.41 198.51 182.41 199.32
  L 182.36 208.69"
/>
<path stroke="#fccc66" vector-effect="non-scaling-stroke" d="
  M 188.99 198.60
  Q 187.11 201.54 187.25 203.50
  Q 187.42 205.79 187.57 208.30"
/>
<path stroke="#fcb767" vector-effect="non-scaling-stroke" d="
  M 187.57 208.30
  Q 185.32 209.54 182.36 208.69"
/>
<path stroke="#fea942" vector-effect="non-scaling-stroke" d="
  M 203.38 198.66
  Q 202.74 201.75 203.14 204.47
  A 0.89 0.88 -5.2 0 1 202.29 205.48
  L 189.43 205.80
  A 1.16 1.15 11.5 0 0 188.41 206.47
  L 187.57 208.30"
/>
<path stroke="#ee7039" vector-effect="non-scaling-stroke" d="
  M 210.08 208.62
  Q 210.06 208.91 206.76 209.29
  A 0.42 0.42 0.0 0 0 206.39 209.79
  Q 207.06 212.95 206.82 216.57
  A 1.45 1.45 0.0 0 1 205.43 217.92
  C 198.77 218.17 191.85 218.26 184.45 218.09
  C 183.63 218.07 182.92 217.95 182.13 217.65
  Q 181.39 217.37 181.22 218.15
  L 180.93 219.51"
/>
<path stroke="#fea942" vector-effect="non-scaling-stroke" d="
  M 180.93 219.51
  L 181.08 209.00"
/>
<path stroke="#909a7e" vector-effect="non-scaling-stroke" d="
  M 181.48 222.22
  L 171.88 222.09"
/>
<path stroke="#806175" vector-effect="non-scaling-stroke" d="
  M 219.24 222.16
  Q 213.68 222.17 208.00 222.23
  Q 194.87 222.37 181.74 222.41
  Q 181.62 222.41 181.55 222.32
  Q 181.51 222.27 181.48 222.22"
/>
<path stroke="#ee8538" vector-effect="non-scaling-stroke" d="
  M 181.48 222.22
  Q 180.95 220.88 180.93 219.51"
/>
<path stroke="#2069a1" vector-effect="non-scaling-stroke" d="
  M 345.35 214.23
  L 338.68 224.12"
/>
<path stroke="#285c86" vector-effect="non-scaling-stroke" d="
  M 338.68 224.12
  L 294.17 224.21
  A 1.51 1.50 10.9 0 0 292.79 225.14
  L 288.27 236.25"
/>
<path stroke="#56a3d5" vector-effect="non-scaling-stroke" d="
  M 288.27 236.25
  L 278.57 260.17
  Q 278.42 260.52 278.81 260.52
  L 308.36 260.54"
/>
<path stroke="#2069a1" vector-effect="non-scaling-stroke" d="
  M 308.36 260.54
  Q 305.43 266.44 300.88 271.46
  Q 300.53 271.85 300.79 272.30
  Q 301.06 272.76 301.68 272.53"
/>
<path stroke="#2a93b4" vector-effect="non-scaling-stroke" d="
  M 301.68 272.53
  L 292.59 277.17"
/>
<path stroke="#56a3d5" vector-effect="non-scaling-stroke" d="
  M 292.59 277.17
  L 153.52 276.42
  A 0.95 0.95 0.0 0 1 152.58 275.51
  L 150.30 222.36"
/>
<path stroke="#5ec0ce" vector-effect="non-scaling-stroke" d="
  M 292.59 277.17
  L 284.23 283.04"
/>
<path stroke="#c4c797" vector-effect="non-scaling-stroke" d="
  M 284.23 283.04
  L 152.44 283.22"
/>
<path stroke="#c2d5bd" vector-effect="non-scaling-stroke" d="
  M 152.44 283.22
  L 148.57 282.21"
/>
<path stroke="#5c899f" vector-effect="non-scaling-stroke" d="
  M 362.03 258.74
  Q 322.27 258.56 282.50 258.58
  Q 282.16 258.58 282.06 258.52
  A 0.62 0.61 -65.2 0 1 281.81 257.82
  Q 285.32 247.20 288.27 236.25"
/>
<path stroke="#8ea8a3" vector-effect="non-scaling-stroke" d="
  M 246.52 214.02
  L 239.47 214.04"
/>
<path stroke="#3d617c" vector-effect="non-scaling-stroke" d="
  M 477.80 229.54
  L 477.75 277.11
  A 0.95 0.92 -17.0 0 1 477.32 277.89
  L 476.81 278.22"
/>
<path stroke="#5496ba" vector-effect="non-scaling-stroke" d="
  M 476.81 278.22
  L 379.35 277.74"
/>
<path stroke="#20748d" vector-effect="non-scaling-stroke" d="
  M 379.35 277.74
  L 365.43 271.01"
/>
<path stroke="#28869a" vector-effect="non-scaling-stroke" d="
  M 365.43 271.01
  Q 334.15 258.48 301.68 272.53"
/>
<path stroke="#5496ba" vector-effect="non-scaling-stroke" d="
  M 308.36 260.54
  L 361.93 260.52
  A 0.69 0.68 -78.2 0 0 362.56 260.10
  Q 362.92 259.27 362.03 258.74"
/>
<path stroke="#264f6b" vector-effect="non-scaling-stroke" d="
  M 362.03 258.74
  Q 362.62 258.01 362.63 257.51
  Q 363.02 241.49 362.44 225.18
  A 1.17 1.16 -1.0 0 0 361.27 224.06
  L 338.68 224.12"
/>
<path stroke="#2a9ea1" vector-effect="non-scaling-stroke" d="
  M 365.43 271.01
  Q 369.32 280.81 371.59 291.10"
/>
<path stroke="#30797f" vector-effect="non-scaling-stroke" d="
  M 371.59 291.10
  C 347.79 276.18 318.31 276.88 296.01 293.62
  C 282.29 303.92 272.83 319.99 270.38 336.37
  Q 266.35 363.33 283.54 386.69"
/>
<path stroke="#2a9ea1" vector-effect="non-scaling-stroke" d="
  M 283.54 386.69
  L 267.69 384.01"
/>
<path stroke="#5ec0ce" vector-effect="non-scaling-stroke" d="
  M 267.69 384.01
  Q 255.18 362.88 257.10 337.76
  Q 258.47 319.85 267.63 303.05"
/>
<path stroke="#98b777" vector-effect="non-scaling-stroke" d="
  M 267.63 303.05
  Q 274.00 293.11 284.23 283.04"
/>
<path stroke="#90857f" vector-effect="non-scaling-stroke" d="
  M 328.21 214.17
  L 246.52 214.02"
/>
<path stroke="#fcb767" vector-effect="non-scaling-stroke" d="
  M 246.52 214.02
  C 245.91 212.43 245.77 211.60 246.18 209.78
  Q 246.40 208.77 246.31 207.73"
/>
<path stroke="#c4c797" vector-effect="non-scaling-stroke" d="
  M 267.63 303.05
  Q 264.51 306.55 262.17 310.85
  Q 261.64 311.81 259.51 315.50
  Q 257.03 319.78 256.13 328.17"
/>
<path stroke="#fea942" vector-effect="non-scaling-stroke" d="
  M 256.13 328.17
  L 243.45 343.88
  A 2.04 2.03 19.2 0 1 241.86 344.64
  L 153.60 344.51"
/>
<path stroke="#fccc66" vector-effect="non-scaling-stroke" d="
  M 152.44 283.22
  Q 151.67 283.36 151.18 283.81
  Q 150.80 284.16 150.82 284.68
  L 153.60 344.51"
/>
<path stroke="#fcb767" vector-effect="non-scaling-stroke" d="
  M 153.60 344.51
  L 155.77 399.78
  Q 155.82 401.01 157.05 401.02
  L 223.60 402.04
  Q 223.84 402.04 224.07 402.10
  Q 224.39 402.17 224.74 402.14
  C 230.06 401.76 235.44 401.38 240.75 401.47
  Q 257.81 401.77 274.87 401.43
  Q 275.58 401.42 275.05 400.95
  Q 274.20 400.20 273.71 399.20
  C 272.98 397.71 271.85 396.94 270.55 396.03
  Q 269.73 395.46 269.15 394.56
  Q 267.31 391.70 266.01 388.50"
/>
<path stroke="#c2d5bd" vector-effect="non-scaling-stroke" d="
  M 266.01 388.50
  Q 269.46 392.56 272.28 396.97
  Q 273.09 398.24 275.45 399.98
  Q 275.85 400.28 276.06 400.73
  Q 276.96 402.70 278.60 404.27"
/>
<path stroke="#dfd9a5" vector-effect="non-scaling-stroke" d="
  M 278.60 404.27
  L 279.78 406.00
  A 0.72 0.72 0.0 0 1 279.15 407.12
  Q 277.37 407.05 275.83 406.18
  C 275.00 405.72 273.97 405.71 273.14 406.13
  Q 272.61 406.41 272.01 406.39
  C 263.89 406.18 255.71 407.19 247.71 407.09
  Q 240.41 406.99 233.44 406.88
  Q 231.36 406.85 229.16 406.45
  Q 226.98 406.06 224.86 406.29
  C 223.64 406.43 222.68 406.01 221.46 406.15
  Q 218.55 406.48 215.42 406.38
  Q 212.13 406.28 209.43 406.60
  Q 202.83 407.39 195.97 407.05
  Q 189.06 406.71 181.06 406.92
  C 179.71 406.96 178.31 406.34 177.03 406.76
  Q 175.75 407.19 174.41 407.17
  Q 161.59 406.95 148.65 407.39"
/>
<path stroke="#56aec1" vector-effect="non-scaling-stroke" d="
  M 379.35 277.74
  L 387.57 283.85"
/>
<path stroke="#90906c" vector-effect="non-scaling-stroke" d="
  M 387.57 283.85
  C 389.32 285.89 391.75 287.70 393.24 289.25
  Q 417.53 314.30 416.77 348.49
  Q 416.10 378.63 394.63 401.67"
/>
<path stroke="#8eb390" vector-effect="non-scaling-stroke" d="
  M 394.63 401.67
  L 388.59 407.60"
/>
<path stroke="#56aec1" vector-effect="non-scaling-stroke" d="
  M 388.59 407.60
  Q 381.94 412.66 375.33 416.07
  C 354.21 426.95 330.00 428.17 308.03 419.33
  Q 282.49 409.04 267.69 384.01"
/>
<path stroke="#276772" vector-effect="non-scaling-stroke" d="
  M 283.54 386.69
  Q 290.66 396.14 301.75 402.74
  Q 321.32 414.38 343.41 411.56
  Q 368.78 408.33 384.88 389.69
  C 400.93 371.13 405.70 346.84 397.47 323.91
  Q 390.10 303.38 371.59 291.10"
/>
<path stroke="#20748d" vector-effect="non-scaling-stroke" d="
  M 453.71 214.03
  L 413.28 214.15"
/>
<path stroke="#56aec1" vector-effect="non-scaling-stroke" d="
  M 413.15 210.10
  L 413.28 214.15"
/>
<path stroke="#5496ba" vector-effect="non-scaling-stroke" d="
  M 413.28 214.15
  L 405.71 214.21"
/>
<path stroke="#c4b299" vector-effect="non-scaling-stroke" d="
  M 477.63 282.52
  Q 473.17 284.10 466.76 283.06
  C 465.98 282.93 464.90 283.40 464.06 283.40
  Q 427.41 283.25 390.75 283.17
  Q 388.40 283.16 387.57 283.85"
/>
<path stroke="#3d617c" vector-effect="non-scaling-stroke" d="
  M 195.10 423.63
  Q 208.15 424.06 231.50 423.74
  Q 237.18 423.67 256.49 423.79
  C 271.31 423.89 288.16 423.42 304.04 423.82
  Q 304.56 423.84 308.19 424.25
  Q 310.42 424.51 312.40 424.07"
/>
<path stroke="#739bb0" vector-effect="non-scaling-stroke" d="
  M 312.40 424.07
  Q 337.29 430.91 361.95 422.90"
/>
<path stroke="#3d617c" vector-effect="non-scaling-stroke" d="
  M 361.95 422.90
  Q 361.75 423.24 361.92 423.55
  A 0.83 0.82 74.0 0 0 362.69 423.98
  Q 372.84 423.46 383.00 423.52
  Q 432.11 423.79 476.56 423.84
  A 1.10 1.10 0.0 0 0 477.66 422.74
  L 477.61 411.74"
/>
<path stroke="#739bb0" vector-effect="non-scaling-stroke" d="
  M 477.61 411.74
  L 477.65 407.36"
/>
<path stroke="#aba07e" vector-effect="non-scaling-stroke" d="
  M 477.65 407.36
  L 477.68 403.90"
/>
<path stroke="#ad7d5a" vector-effect="non-scaling-stroke" d="
  M 477.68 403.90
  L 477.63 282.52"
/>
<path stroke="#739bb0" vector-effect="non-scaling-stroke" d="
  M 477.63 282.52
  Q 478.21 278.37 476.81 278.22"
/>
<path stroke="#c2d5bd" vector-effect="non-scaling-stroke" d="
  M 388.59 407.60
  Q 389.32 408.16 390.88 407.92
  Q 392.27 407.71 393.59 407.70
  Q 416.46 407.56 438.65 407.77
  C 440.61 407.79 442.43 407.17 444.35 407.40
  Q 445.96 407.59 447.60 407.59
  Q 462.64 407.58 477.65 407.36"
/>
<path stroke="#5496ba" vector-effect="non-scaling-stroke" d="
  M 477.61 411.74
  Q 431.96 411.77 386.50 411.71
  Q 383.50 411.71 381.98 412.74
  Q 372.64 419.04 361.95 422.90"
/>
<path stroke="#5496ba" vector-effect="non-scaling-stroke" d="
  M 312.40 424.07
  Q 299.65 419.98 288.96 412.82
  Q 287.43 411.80 286.25 411.80
  Q 266.75 411.86 247.25 411.71
  Q 237.07 411.63 227.25 411.71
  Q 188.85 412.02 150.46 411.68"
/>
<path stroke="#a7d4d7" vector-effect="non-scaling-stroke" d="
  M 148.80 407.99
  Q 160.23 407.68 171.77 407.88
  C 174.47 407.93 177.00 408.30 179.63 408.59
  Q 182.01 408.85 185.56 408.61
  Q 189.81 408.33 194.99 408.79
  C 196.21 408.90 197.01 408.34 198.17 408.37
  Q 211.37 408.67 225.16 408.73
  Q 231.10 408.75 236.45 408.35
  C 239.98 408.08 243.17 408.20 246.67 408.05
  Q 251.76 407.84 254.34 407.86
  Q 267.35 407.98 281.04 407.72
  A 0.51 0.51 0.0 0 0 281.47 406.95
  Q 280.39 405.14 278.60 404.27"
/>
<path stroke="#c4b299" vector-effect="non-scaling-stroke" d="
  M 266.01 388.50
  Q 264.20 385.16 262.32 381.81
  Q 260.26 378.14 259.16 374.68
  Q 255.47 363.05 254.18 351.21
  Q 253.55 345.46 255.60 333.76
  Q 255.83 332.45 256.13 328.17"
/>
<path stroke="#fcb767" vector-effect="non-scaling-stroke" d="
  M 477.68 403.90
  Q 478.27 402.00 475.26 402.48
  Q 473.62 402.74 472.71 402.73
  Q 451.75 402.53 430.78 402.21
  Q 430.59 402.21 412.72 402.27
  Q 403.75 402.30 394.63 401.67"
/>
<path stroke="#2a9ea1" vector-effect="non-scaling-stroke" d="
  M 437.38 201.06
  L 437.87 209.17
  A 1.01 1.00 88.7 0 1 436.86 210.24
  L 413.15 210.10"
/>
<path stroke="#5ec0ce" vector-effect="non-scaling-stroke" d="
  M 413.15 210.10
  L 413.14 200.90"
/>
<path stroke="#2a93b4" vector-effect="non-scaling-stroke" d="
  M 229.69 229.08
  L 156.93 228.87"
/>
<path stroke="#56a3d5" vector-effect="non-scaling-stroke" d="
  M 156.93 228.87
  L 156.48 259.24
  Q 156.46 260.50 157.73 260.51
  L 267.98 260.71
  A 0.44 0.43 24.3 0 0 268.26 260.61
  Q 269.32 259.75 268.00 259.32"
/>
<path stroke="#2281a8" vector-effect="non-scaling-stroke" d="
  M 268.00 259.32
  Q 268.75 258.89 267.95 257.32
  Q 267.23 255.90 266.62 254.66
  Q 265.15 251.68 263.47 248.81
  Q 261.82 246.00 260.50 242.93
  Q 257.98 237.14 255.73 231.96
  Q 254.72 229.63 252.00 229.37
  Q 242.04 228.43 230.99 228.66
  Q 230.28 228.67 229.69 229.08"
/>
<path stroke="#56aec1" vector-effect="non-scaling-stroke" d="
  M 268.00 259.32
  L 159.10 259.06
  A 0.80 0.80 0.0 0 1 158.31 258.28
  L 158.07 248.15"
/>
<path stroke="#2a9ea1" vector-effect="non-scaling-stroke" d="
  M 158.07 248.15
  L 224.84 248.27
  A 1.17 1.17 0.0 0 0 225.99 247.33
  L 229.69 229.08"
/>
<path stroke="#5ec0ce" vector-effect="non-scaling-stroke" d="
  M 156.93 228.87
  Q 158.34 238.23 158.07 248.15"
/>
<path stroke="#17405f" vector-effect="non-scaling-stroke" d="
  M 458.75 225.11
  A 0.88 0.88 0.0 0 0 457.87 224.23
  L 385.37 224.23
  A 0.88 0.88 0.0 0 0 384.49 225.11
  L 384.49 265.41
  A 0.88 0.88 0.0 0 0 385.37 266.29
  L 457.87 266.29
  A 0.88 0.88 0.0 0 0 458.75 265.41
  L 458.75 225.11"
/>
<path stroke="#122c3b" vector-effect="non-scaling-stroke" d="
  M 392.39 231.21
  L 392.51 252.44
  A 0.52 0.52 0.0 0 0 393.03 252.96
  L 429.54 252.77
  A 3.31 3.13 89.7 0 0 432.65 249.44
  L 432.57 233.78
  A 3.31 3.13 89.7 0 0 429.42 230.49
  L 392.91 230.68
  A 0.52 0.52 0.0 0 0 392.39 231.21"
/>
<path stroke="#122c3b" vector-effect="non-scaling-stroke" d="
  M 439.68 253.21
  A 2.85 2.85 0.0 0 0 436.93 256.54
  L 437.35 258.96
  A 2.85 2.85 0.0 0 0 440.09 261.33
  L 449.37 261.55
  A 2.85 2.85 0.0 0 0 452.28 258.55
  L 452.13 255.70
  A 2.85 2.85 0.0 0 0 449.22 253.00
  L 439.68 253.21"
/>
<path stroke="#213b48" vector-effect="non-scaling-stroke" d="
  M 383.78 346.30
  A 48.21 48.21 0.0 0 0 335.57 298.09
  A 48.21 48.21 0.0 0 0 287.36 346.30
  A 48.21 48.21 0.0 0 0 335.57 394.51
  A 48.21 48.21 0.0 0 0 383.78 346.30"
/>
<path stroke="#384c58" vector-effect="non-scaling-stroke" d="
  M 314.10 329.07
  Q 314.21 328.56 314.07 328.35
  A 0.34 0.33 -43.4 0 0 313.52 328.34
  Q 305.16 340.09 308.13 353.00
  C 309.94 360.85 315.87 368.22 322.89 371.50
  Q 335.40 377.34 348.26 371.43
  Q 352.71 369.39 354.44 366.62"
/>
<path stroke="#122c3b" vector-effect="non-scaling-stroke" d="
  M 354.44 366.62
  Q 360.96 361.07 362.85 351.62
  Q 364.60 342.86 361.57 336.05
  C 358.67 329.55 354.99 324.61 348.27 321.47
  Q 342.15 318.61 335.94 318.15
  C 331.53 317.82 327.10 319.23 323.04 320.82
  C 318.89 322.45 316.97 325.92 314.10 329.07"
/>
<path stroke="#354554" vector-effect="non-scaling-stroke" d="
  M 354.44 366.62
  Q 342.94 374.35 330.02 370.37
  Q 321.35 367.70 316.36 361.15
  Q 304.91 346.10 314.10 329.07"
/>
<path stroke="#4d7a93" vector-effect="non-scaling-stroke" d="
  M 333.7399 335.8277
  A 5.40 4.03 0.4 0 0 328.3681 331.7601
  A 5.40 4.03 0.4 0 0 322.9401 335.7523
  A 5.40 4.03 0.4 0 0 328.3119 339.8199
  A 5.40 4.03 0.4 0 0 333.7399 335.8277"
/>
<path stroke="#4d7a93" vector-effect="non-scaling-stroke" d="
  M 340.7600 339.8946
  A 2.64 1.99 0.1 0 0 338.1235 337.9000
  A 2.64 1.99 0.1 0 0 335.4800 339.8854
  A 2.64 1.99 0.1 0 0 338.1165 341.8800
  A 2.64 1.99 0.1 0 0 340.7600 339.8946"
/>
</g>
<path fill="#7d8e9e" d="
  M 0.00 0.00
  L 626.00 0.00
  L 626.00 626.00
  L 0.00 626.00
  L 0.00 0.00
  Z
  M 182.36 208.69
  Q 181.67 209.00 181.08 209.00
  L 172.91 209.18
  A 1.00 0.99 89.7 0 0 171.94 210.17
  L 171.88 222.09
  L 151.16 221.97
  Q 150.81 221.96 150.53 222.17
  Q 150.41 222.26 150.30 222.36
  Q 149.72 221.90 149.19 222.09
  Q 148.73 222.26 148.69 222.74
  C 147.96 229.98 148.55 237.10 148.49 244.30
  Q 148.34 263.34 148.57 282.21
  L 148.65 407.39
  L 148.80 407.99
  L 148.65 410.75
  Q 148.62 411.31 149.14 411.52
  Q 149.65 411.73 150.46 411.68
  L 148.87 411.79
  Q 148.24 411.83 148.25 412.46
  L 148.39 422.71
  A 1.00 1.00 0.0 0 0 149.39 423.70
  L 195.10 423.63
  L 194.68 450.87
  A 1.15 1.15 0.0 0 0 195.66 452.03
  Q 196.66 452.17 197.70 452.17
  Q 277.92 452.17 353.57 452.08
  Q 355.69 452.08 357.76 452.50
  Q 363.46 453.67 369.57 454.79
  C 379.29 456.58 391.80 455.95 402.93 453.09
  Q 406.59 452.15 410.40 452.15
  Q 466.91 452.14 523.02 452.21
  A 0.94 0.94 0.0 0 0 523.96 451.27
  L 523.95 243.60
  A 0.86 0.86 0.0 0 0 523.09 242.74
  L 501.67 242.71
  A 1.30 1.30 0.0 0 1 500.38 241.42
  L 500.26 231.13
  Q 500.25 229.61 498.73 229.63
  Q 489.12 229.78 479.19 229.85
  Q 479.02 229.85 478.86 229.89
  Q 478.72 229.92 478.61 230.00
  Q 478.21 230.26 477.97 229.84
  L 477.80 229.54
  L 477.52 214.94
  A 0.82 0.82 0.0 0 0 476.70 214.14
  L 453.71 214.03
  L 453.92 201.82
  Q 453.93 201.30 453.41 201.30
  L 437.38 201.06
  Q 429.41 201.34 421.29 201.35
  Q 419.79 201.35 417.22 201.07
  Q 415.02 200.83 413.14 200.90
  L 406.63 201.49
  Q 406.10 201.54 406.09 202.06
  L 405.71 214.21
  L 345.35 214.23
  L 328.21 214.17
  L 328.14 209.07
  A 1.29 1.29 0.0 0 0 327.05 207.82
  Q 325.03 207.51 322.75 207.49
  Q 284.50 207.17 246.31 207.73
  L 240.68 207.49
  A 0.85 0.84 2.8 0 0 239.80 208.28
  L 239.47 214.04
  L 232.29 214.17
  A 1.22 1.22 0.0 0 0 231.09 215.38
  L 231.00 221.46
  A 0.62 0.62 0.0 0 1 230.38 222.08
  L 219.24 222.16
  Q 220.73 216.64 220.10 211.00
  Q 219.90 209.13 218.02 209.03
  L 210.08 208.62
  L 209.64 199.82
  Q 209.59 198.74 208.51 198.73
  L 203.38 198.66
  L 188.99 198.60
  L 183.21 198.52
  Q 182.41 198.51 182.41 199.32
  L 182.36 208.69
  Z"
/>
<path fill="#fada8b" d="
  M 188.99 198.60
  Q 187.11 201.54 187.25 203.50
  Q 187.42 205.79 187.57 208.30
  Q 185.32 209.54 182.36 208.69
  L 182.41 199.32
  Q 182.41 198.51 183.21 198.52
  L 188.99 198.60
  Z"
/>
<path fill="#febe40" d="
  M 188.99 198.60
  L 203.38 198.66
  Q 202.74 201.75 203.14 204.47
  A 0.89 0.88 -5.2 0 1 202.29 205.48
  L 189.43 205.80
  A 1.16 1.15 11.5 0 0 188.41 206.47
  L 187.57 208.30
  Q 187.42 205.79 187.25 203.50
  Q 187.11 201.54 188.99 198.60
  Z"
/>
<path fill="#fe9443" d="
  M 210.08 208.62
  Q 210.06 208.91 206.76 209.29
  A 0.42 0.42 0.0 0 0 206.39 209.79
  Q 207.06 212.95 206.82 216.57
  A 1.45 1.45 0.0 0 1 205.43 217.92
  C 198.77 218.17 191.85 218.26 184.45 218.09
  C 183.63 218.07 182.92 217.95 182.13 217.65
  Q 181.39 217.37 181.22 218.15
  L 180.93 219.51
  L 181.08 209.00
  Q 181.67 209.00 182.36 208.69
  Q 185.32 209.54 187.57 208.30
  L 188.41 206.47
  A 1.16 1.15 11.5 0 1 189.43 205.80
  L 202.29 205.48
  A 0.89 0.88 -5.2 0 0 203.14 204.47
  Q 202.74 201.75 203.38 198.66
  L 208.51 198.73
  Q 209.59 198.74 209.64 199.82
  L 210.08 208.62
  Z"
/>
<path fill="#32b0ad" d="
  M 437.38 201.06
  L 437.87 209.17
  A 1.01 1.00 88.7 0 1 436.86 210.24
  L 413.15 210.10
  L 413.14 200.90
  Q 415.02 200.83 417.22 201.07
  Q 419.79 201.35 421.29 201.35
  Q 429.41 201.34 437.38 201.06
  Z"
/>
<path fill="#8ad0ee" d="
  M 413.14 200.90
  L 413.15 210.10
  L 413.28 214.15
  L 405.71 214.21
  L 406.09 202.06
  Q 406.10 201.54 406.63 201.49
  L 413.14 200.90
  Z"
/>
<path fill="#218b94" d="
  M 453.71 214.03
  L 413.28 214.15
  L 413.15 210.10
  L 436.86 210.24
  A 1.01 1.00 88.7 0 0 437.87 209.17
  L 437.38 201.06
  L 453.41 201.30
  Q 453.93 201.30 453.92 201.82
  L 453.71 214.03
  Z"
/>
<path fill="#fe9443" d="
  M 328.21 214.17
  L 246.52 214.02
  C 245.91 212.43 245.77 211.60 246.18 209.78
  Q 246.40 208.77 246.31 207.73
  Q 284.50 207.17 322.75 207.49
  Q 325.03 207.51 327.05 207.82
  A 1.29 1.29 0.0 0 1 328.14 209.07
  L 328.21 214.17
  Z"
/>
<path fill="#fada8b" d="
  M 246.31 207.73
  Q 246.40 208.77 246.18 209.78
  C 245.77 211.60 245.91 212.43 246.52 214.02
  L 239.47 214.04
  L 239.80 208.28
  A 0.85 0.84 2.8 0 1 240.68 207.49
  L 246.31 207.73
  Z"
/>
<path fill="#dd4c2f" d="
  M 210.08 208.62
  L 218.02 209.03
  Q 219.90 209.13 220.10 211.00
  Q 220.73 216.64 219.24 222.16
  Q 213.68 222.17 208.00 222.23
  Q 194.87 222.37 181.74 222.41
  Q 181.62 222.41 181.55 222.32
  Q 181.51 222.27 181.48 222.22
  Q 180.95 220.88 180.93 219.51
  L 181.22 218.15
  Q 181.39 217.37 182.13 217.65
  C 182.92 217.95 183.63 218.07 184.45 218.09
  C 191.85 218.26 198.77 218.17 205.43 217.92
  A 1.45 1.45 0.0 0 0 206.82 216.57
  Q 207.06 212.95 206.39 209.79
  A 0.42 0.42 0.0 0 1 206.76 209.29
  Q 210.06 208.91 210.08 208.62
  Z"
/>
<path fill="#febe40" d="
  M 181.08 209.00
  L 180.93 219.51
  Q 180.95 220.88 181.48 222.22
  L 171.88 222.09
  L 171.94 210.17
  A 1.00 0.99 89.7 0 1 172.91 209.18
  L 181.08 209.00
  Z"
/>
<path fill="#2276bb" d="
  M 239.47 214.04
  L 246.52 214.02
  L 328.21 214.17
  L 345.35 214.23
  L 338.68 224.12
  L 294.17 224.21
  A 1.51 1.50 10.9 0 0 292.79 225.14
  L 288.27 236.25
  L 278.57 260.17
  Q 278.42 260.52 278.81 260.52
  L 308.36 260.54
  Q 305.43 266.44 300.88 271.46
  Q 300.53 271.85 300.79 272.30
  Q 301.06 272.76 301.68 272.53
  L 292.59 277.17
  L 153.52 276.42
  A 0.95 0.95 0.0 0 1 152.58 275.51
  L 150.30 222.36
  Q 150.41 222.26 150.53 222.17
  Q 150.81 221.96 151.16 221.97
  L 171.88 222.09
  L 181.48 222.22
  Q 181.51 222.27 181.55 222.32
  Q 181.62 222.41 181.74 222.41
  Q 194.87 222.37 208.00 222.23
  Q 213.68 222.17 219.24 222.16
  L 230.38 222.08
  A 0.62 0.62 0.0 0 0 231.00 221.46
  L 231.09 215.38
  A 1.22 1.22 0.0 0 1 232.29 214.17
  L 239.47 214.04
  Z
  M 229.69 229.08
  L 156.93 228.87
  L 156.48 259.24
  Q 156.46 260.50 157.73 260.51
  L 267.98 260.71
  A 0.44 0.43 24.3 0 0 268.26 260.61
  Q 269.32 259.75 268.00 259.32
  Q 268.75 258.89 267.95 257.32
  Q 267.23 255.90 266.62 254.66
  Q 265.15 251.68 263.47 248.81
  Q 261.82 246.00 260.50 242.93
  Q 257.98 237.14 255.73 231.96
  Q 254.72 229.63 252.00 229.37
  Q 242.04 228.43 230.99 228.66
  Q 230.28 228.67 229.69 229.08
  Z"
/>
<path fill="#1e5c86" d="
  M 453.71 214.03
  L 476.70 214.14
  A 0.82 0.82 0.0 0 1 477.52 214.94
  L 477.80 229.54
  L 477.75 277.11
  A 0.95 0.92 -17.0 0 1 477.32 277.89
  L 476.81 278.22
  L 379.35 277.74
  L 365.43 271.01
  Q 334.15 258.48 301.68 272.53
  Q 301.06 272.76 300.79 272.30
  Q 300.53 271.85 300.88 271.46
  Q 305.43 266.44 308.36 260.54
  L 361.93 260.52
  A 0.69 0.68 -78.2 0 0 362.56 260.10
  Q 362.92 259.27 362.03 258.74
  Q 362.62 258.01 362.63 257.51
  Q 363.02 241.49 362.44 225.18
  A 1.17 1.16 -1.0 0 0 361.27 224.06
  L 338.68 224.12
  L 345.35 214.23
  L 405.71 214.21
  L 413.28 214.15
  L 453.71 214.03
  Z
  M 458.75 225.11
  A 0.88 0.88 0.0 0 0 457.87 224.23
  L 385.37 224.23
  A 0.88 0.88 0.0 0 0 384.49 225.11
  L 384.49 265.41
  A 0.88 0.88 0.0 0 0 385.37 266.29
  L 457.87 266.29
  A 0.88 0.88 0.0 0 0 458.75 265.41
  L 458.75 225.11
  Z"
/>
<path fill="#8ad0ee" d="
  M 150.30 222.36
  L 152.58 275.51
  A 0.95 0.95 0.0 0 0 153.52 276.42
  L 292.59 277.17
  L 284.23 283.04
  L 152.44 283.22
  L 148.57 282.21
  Q 148.34 263.34 148.49 244.30
  C 148.55 237.10 147.96 229.98 148.69 222.74
  Q 148.73 222.26 149.19 222.09
  Q 149.72 221.90 150.30 222.36
  Z"
/>
<path fill="#2d4250" d="
  M 362.03 258.74
  Q 322.27 258.56 282.50 258.58
  Q 282.16 258.58 282.06 258.52
  A 0.62 0.61 -65.2 0 1 281.81 257.82
  Q 285.32 247.20 288.27 236.25
  L 292.79 225.14
  A 1.51 1.50 10.9 0 1 294.17 224.21
  L 338.68 224.12
  L 361.27 224.06
  A 1.17 1.16 -1.0 0 1 362.44 225.18
  Q 363.02 241.49 362.63 257.51
  Q 362.62 258.01 362.03 258.74
  Z"
/>
<path fill="#0f2437" d="
  M 458.75 265.41
  A 0.88 0.88 0.0 0 1 457.87 266.29
  L 385.37 266.29
  A 0.88 0.88 0.0 0 1 384.49 265.41
  L 384.49 225.11
  A 0.88 0.88 0.0 0 1 385.37 224.23
  L 457.87 224.23
  A 0.88 0.88 0.0 0 1 458.75 225.11
  L 458.75 265.41
  Z
  M 392.39 231.21
  L 392.51 252.44
  A 0.52 0.52 0.0 0 0 393.03 252.96
  L 429.54 252.77
  A 3.31 3.13 89.7 0 0 432.65 249.44
  L 432.57 233.78
  A 3.31 3.13 89.7 0 0 429.42 230.49
  L 392.91 230.68
  A 0.52 0.52 0.0 0 0 392.39 231.21
  Z
  M 439.68 253.21
  A 2.85 2.85 0.0 0 0 436.93 256.54
  L 437.35 258.96
  A 2.85 2.85 0.0 0 0 440.09 261.33
  L 449.37 261.55
  A 2.85 2.85 0.0 0 0 452.28 258.55
  L 452.13 255.70
  A 2.85 2.85 0.0 0 0 449.22 253.00
  L 439.68 253.21
  Z"
/>
<path fill="#218b94" d="
  M 268.00 259.32
  L 159.10 259.06
  A 0.80 0.80 0.0 0 1 158.31 258.28
  L 158.07 248.15
  L 224.84 248.27
  A 1.17 1.17 0.0 0 0 225.99 247.33
  L 229.69 229.08
  Q 230.28 228.67 230.99 228.66
  Q 242.04 228.43 252.00 229.37
  Q 254.72 229.63 255.73 231.96
  Q 257.98 237.14 260.50 242.93
  Q 261.82 246.00 263.47 248.81
  Q 265.15 251.68 266.62 254.66
  Q 267.23 255.90 267.95 257.32
  Q 268.75 258.89 268.00 259.32
  Z"
/>
<path fill="#8ad0ee" d="
  M 156.93 228.87
  Q 158.34 238.23 158.07 248.15
  L 158.31 258.28
  A 0.80 0.80 0.0 0 0 159.10 259.06
  L 268.00 259.32
  Q 269.32 259.75 268.26 260.61
  A 0.44 0.43 24.3 0 1 267.98 260.71
  L 157.73 260.51
  Q 156.46 260.50 156.48 259.24
  L 156.93 228.87
  Z"
/>
<path fill="#32b0ad" d="
  M 229.69 229.08
  L 225.99 247.33
  A 1.17 1.17 0.0 0 1 224.84 248.27
  L 158.07 248.15
  Q 158.34 238.23 156.93 228.87
  L 229.69 229.08
  Z"
/>
<path fill="#5b6571" d="
  M 477.80 229.54
  L 477.97 229.84
  Q 478.21 230.26 478.61 230.00
  Q 478.72 229.92 478.86 229.89
  Q 479.02 229.85 479.19 229.85
  Q 489.12 229.78 498.73 229.63
  Q 500.25 229.61 500.26 231.13
  L 500.38 241.42
  A 1.30 1.30 0.0 0 0 501.67 242.71
  L 523.09 242.74
  A 0.86 0.86 0.0 0 1 523.95 243.60
  L 523.96 451.27
  A 0.94 0.94 0.0 0 1 523.02 452.21
  Q 466.91 452.14 410.40 452.15
  Q 406.59 452.15 402.93 453.09
  C 391.80 455.95 379.29 456.58 369.57 454.79
  Q 363.46 453.67 357.76 452.50
  Q 355.69 452.08 353.57 452.08
  Q 277.92 452.17 197.70 452.17
  Q 196.66 452.17 195.66 452.03
  A 1.15 1.15 0.0 0 1 194.68 450.87
  L 195.10 423.63
  Q 208.15 424.06 231.50 423.74
  Q 237.18 423.67 256.49 423.79
  C 271.31 423.89 288.16 423.42 304.04 423.82
  Q 304.56 423.84 308.19 424.25
  Q 310.42 424.51 312.40 424.07
  Q 337.29 430.91 361.95 422.90
  Q 361.75 423.24 361.92 423.55
  A 0.83 0.82 74.0 0 0 362.69 423.98
  Q 372.84 423.46 383.00 423.52
  Q 432.11 423.79 476.56 423.84
  A 1.10 1.10 0.0 0 0 477.66 422.74
  L 477.61 411.74
  L 477.65 407.36
  L 477.68 403.90
  L 477.63 282.52
  Q 478.21 278.37 476.81 278.22
  L 477.32 277.89
  A 0.95 0.92 -17.0 0 0 477.75 277.11
  L 477.80 229.54
  Z"
/>
<path fill="#14333f" d="
  M 392.39 231.21
  A 0.52 0.52 0.0 0 1 392.91 230.68
  L 429.42 230.49
  A 3.31 3.13 89.7 0 1 432.57 233.78
  L 432.65 249.44
  A 3.31 3.13 89.7 0 1 429.54 252.77
  L 393.03 252.96
  A 0.52 0.52 0.0 0 1 392.51 252.44
  L 392.39 231.21
  Z"
/>
<path fill="#8ad0ee" d="
  M 288.27 236.25
  Q 285.32 247.20 281.81 257.82
  A 0.62 0.61 -65.2 0 0 282.06 258.52
  Q 282.16 258.58 282.50 258.58
  Q 322.27 258.56 362.03 258.74
  Q 362.92 259.27 362.56 260.10
  A 0.69 0.68 -78.2 0 1 361.93 260.52
  L 308.36 260.54
  L 278.81 260.52
  Q 278.42 260.52 278.57 260.17
  L 288.27 236.25
  Z"
/>
<path fill="#14333f" d="
  M 439.68 253.21
  L 449.22 253.00
  A 2.85 2.85 0.0 0 1 452.13 255.70
  L 452.28 258.55
  A 2.85 2.85 0.0 0 1 449.37 261.55
  L 440.09 261.33
  A 2.85 2.85 0.0 0 1 437.35 258.96
  L 436.93 256.54
  A 2.85 2.85 0.0 0 1 439.68 253.21
  Z"
/>
<path fill="#32b0ad" d="
  M 365.43 271.01
  Q 369.32 280.81 371.59 291.10
  C 347.79 276.18 318.31 276.88 296.01 293.62
  C 282.29 303.92 272.83 319.99 270.38 336.37
  Q 266.35 363.33 283.54 386.69
  L 267.69 384.01
  Q 255.18 362.88 257.10 337.76
  Q 258.47 319.85 267.63 303.05
  Q 274.00 293.11 284.23 283.04
  L 292.59 277.17
  L 301.68 272.53
  Q 334.15 258.48 365.43 271.01
  Z"
/>
<path fill="#218b94" d="
  M 365.43 271.01
  L 379.35 277.74
  L 387.57 283.85
  C 389.32 285.89 391.75 287.70 393.24 289.25
  Q 417.53 314.30 416.77 348.49
  Q 416.10 378.63 394.63 401.67
  L 388.59 407.60
  Q 381.94 412.66 375.33 416.07
  C 354.21 426.95 330.00 428.17 308.03 419.33
  Q 282.49 409.04 267.69 384.01
  L 283.54 386.69
  Q 290.66 396.14 301.75 402.74
  Q 321.32 414.38 343.41 411.56
  Q 368.78 408.33 384.88 389.69
  C 400.93 371.13 405.70 346.84 397.47 323.91
  Q 390.10 303.38 371.59 291.10
  Q 369.32 280.81 365.43 271.01
  Z"
/>
<path fill="#8ad0ee" d="
  M 379.35 277.74
  L 476.81 278.22
  Q 478.21 278.37 477.63 282.52
  Q 473.17 284.10 466.76 283.06
  C 465.98 282.93 464.90 283.40 464.06 283.40
  Q 427.41 283.25 390.75 283.17
  Q 388.40 283.16 387.57 283.85
  L 379.35 277.74
  Z"
/>
<path fill="#2d4250" d="
  M 371.59 291.10
  Q 390.10 303.38 397.47 323.91
  C 405.70 346.84 400.93 371.13 384.88 389.69
  Q 368.78 408.33 343.41 411.56
  Q 321.32 414.38 301.75 402.74
  Q 290.66 396.14 283.54 386.69
  Q 266.35 363.33 270.38 336.37
  C 272.83 319.99 282.29 303.92 296.01 293.62
  C 318.31 276.88 347.79 276.18 371.59 291.10
  Z
  M 383.78 346.30
  A 48.21 48.21 0.0 0 0 335.57 298.09
  A 48.21 48.21 0.0 0 0 287.36 346.30
  A 48.21 48.21 0.0 0 0 335.57 394.51
  A 48.21 48.21 0.0 0 0 383.78 346.30
  Z"
/>
<path fill="#fe9443" d="
  M 477.63 282.52
  L 477.68 403.90
  Q 478.27 402.00 475.26 402.48
  Q 473.62 402.74 472.71 402.73
  Q 451.75 402.53 430.78 402.21
  Q 430.59 402.21 412.72 402.27
  Q 403.75 402.30 394.63 401.67
  Q 416.10 378.63 416.77 348.49
  Q 417.53 314.30 393.24 289.25
  C 391.75 287.70 389.32 285.89 387.57 283.85
  Q 388.40 283.16 390.75 283.17
  Q 427.41 283.25 464.06 283.40
  C 464.90 283.40 465.98 282.93 466.76 283.06
  Q 473.17 284.10 477.63 282.52
  Z"
/>
<path fill="#fada8b" d="
  M 148.57 282.21
  L 152.44 283.22
  Q 151.67 283.36 151.18 283.81
  Q 150.80 284.16 150.82 284.68
  L 153.60 344.51
  L 155.77 399.78
  Q 155.82 401.01 157.05 401.02
  L 223.60 402.04
  Q 223.84 402.04 224.07 402.10
  Q 224.39 402.17 224.74 402.14
  C 230.06 401.76 235.44 401.38 240.75 401.47
  Q 257.81 401.77 274.87 401.43
  Q 275.58 401.42 275.05 400.95
  Q 274.20 400.20 273.71 399.20
  C 272.98 397.71 271.85 396.94 270.55 396.03
  Q 269.73 395.46 269.15 394.56
  Q 267.31 391.70 266.01 388.50
  Q 269.46 392.56 272.28 396.97
  Q 273.09 398.24 275.45 399.98
  Q 275.85 400.28 276.06 400.73
  Q 276.96 402.70 278.60 404.27
  L 279.78 406.00
  A 0.72 0.72 0.0 0 1 279.15 407.12
  Q 277.37 407.05 275.83 406.18
  C 275.00 405.72 273.97 405.71 273.14 406.13
  Q 272.61 406.41 272.01 406.39
  C 263.89 406.18 255.71 407.19 247.71 407.09
  Q 240.41 406.99 233.44 406.88
  Q 231.36 406.85 229.16 406.45
  Q 226.98 406.06 224.86 406.29
  C 223.64 406.43 222.68 406.01 221.46 406.15
  Q 218.55 406.48 215.42 406.38
  Q 212.13 406.28 209.43 406.60
  Q 202.83 407.39 195.97 407.05
  Q 189.06 406.71 181.06 406.92
  C 179.71 406.96 178.31 406.34 177.03 406.76
  Q 175.75 407.19 174.41 407.17
  Q 161.59 406.95 148.65 407.39
  L 148.57 282.21
  Z"
/>
<path fill="#febe40" d="
  M 284.23 283.04
  Q 274.00 293.11 267.63 303.05
  Q 264.51 306.55 262.17 310.85
  Q 261.64 311.81 259.51 315.50
  Q 257.03 319.78 256.13 328.17
  L 243.45 343.88
  A 2.04 2.03 19.2 0 1 241.86 344.64
  L 153.60 344.51
  L 150.82 284.68
  Q 150.80 284.16 151.18 283.81
  Q 151.67 283.36 152.44 283.22
  L 284.23 283.04
  Z"
/>
<path fill="#14333f" d="
  M 383.78 346.30
  A 48.21 48.21 0.0 0 1 335.57 394.51
  A 48.21 48.21 0.0 0 1 287.36 346.30
  A 48.21 48.21 0.0 0 1 335.57 298.09
  A 48.21 48.21 0.0 0 1 383.78 346.30
  Z
  M 314.10 329.07
  Q 314.21 328.56 314.07 328.35
  A 0.34 0.33 -43.4 0 0 313.52 328.34
  Q 305.16 340.09 308.13 353.00
  C 309.94 360.85 315.87 368.22 322.89 371.50
  Q 335.40 377.34 348.26 371.43
  Q 352.71 369.39 354.44 366.62
  Q 360.96 361.07 362.85 351.62
  Q 364.60 342.86 361.57 336.05
  C 358.67 329.55 354.99 324.61 348.27 321.47
  Q 342.15 318.61 335.94 318.15
  C 331.53 317.82 327.10 319.23 323.04 320.82
  C 318.89 322.45 316.97 325.92 314.10 329.07
  Z"
/>
<path fill="#8ad0ee" d="
  M 267.63 303.05
  Q 258.47 319.85 257.10 337.76
  Q 255.18 362.88 267.69 384.01
  Q 282.49 409.04 308.03 419.33
  C 330.00 428.17 354.21 426.95 375.33 416.07
  Q 381.94 412.66 388.59 407.60
  Q 389.32 408.16 390.88 407.92
  Q 392.27 407.71 393.59 407.70
  Q 416.46 407.56 438.65 407.77
  C 440.61 407.79 442.43 407.17 444.35 407.40
  Q 445.96 407.59 447.60 407.59
  Q 462.64 407.58 477.65 407.36
  L 477.61 411.74
  Q 431.96 411.77 386.50 411.71
  Q 383.50 411.71 381.98 412.74
  Q 372.64 419.04 361.95 422.90
  Q 337.29 430.91 312.40 424.07
  Q 299.65 419.98 288.96 412.82
  Q 287.43 411.80 286.25 411.80
  Q 266.75 411.86 247.25 411.71
  Q 237.07 411.63 227.25 411.71
  Q 188.85 412.02 150.46 411.68
  Q 149.65 411.73 149.14 411.52
  Q 148.62 411.31 148.65 410.75
  L 148.80 407.99
  Q 160.23 407.68 171.77 407.88
  C 174.47 407.93 177.00 408.30 179.63 408.59
  Q 182.01 408.85 185.56 408.61
  Q 189.81 408.33 194.99 408.79
  C 196.21 408.90 197.01 408.34 198.17 408.37
  Q 211.37 408.67 225.16 408.73
  Q 231.10 408.75 236.45 408.35
  C 239.98 408.08 243.17 408.20 246.67 408.05
  Q 251.76 407.84 254.34 407.86
  Q 267.35 407.98 281.04 407.72
  A 0.51 0.51 0.0 0 0 281.47 406.95
  Q 280.39 405.14 278.60 404.27
  Q 276.96 402.70 276.06 400.73
  Q 275.85 400.28 275.45 399.98
  Q 273.09 398.24 272.28 396.97
  Q 269.46 392.56 266.01 388.50
  Q 264.20 385.16 262.32 381.81
  Q 260.26 378.14 259.16 374.68
  Q 255.47 363.05 254.18 351.21
  Q 253.55 345.46 255.60 333.76
  Q 255.83 332.45 256.13 328.17
  Q 257.03 319.78 259.51 315.50
  Q 261.64 311.81 262.17 310.85
  Q 264.51 306.55 267.63 303.05
  Z"
/>
<path fill="#0f2437" d="
  M 354.44 366.62
  Q 342.94 374.35 330.02 370.37
  Q 321.35 367.70 316.36 361.15
  Q 304.91 346.10 314.10 329.07
  C 316.97 325.92 318.89 322.45 323.04 320.82
  C 327.10 319.23 331.53 317.82 335.94 318.15
  Q 342.15 318.61 348.27 321.47
  C 354.99 324.61 358.67 329.55 361.57 336.05
  Q 364.60 342.86 362.85 351.62
  Q 360.96 361.07 354.44 366.62
  Z
  M 333.7399 335.8277
  A 5.40 4.03 0.4 0 0 328.3681 331.7601
  A 5.40 4.03 0.4 0 0 322.9401 335.7523
  A 5.40 4.03 0.4 0 0 328.3119 339.8199
  A 5.40 4.03 0.4 0 0 333.7399 335.8277
  Z
  M 340.7600 339.8946
  A 2.64 1.99 0.1 0 0 338.1235 337.9000
  A 2.64 1.99 0.1 0 0 335.4800 339.8854
  A 2.64 1.99 0.1 0 0 338.1165 341.8800
  A 2.64 1.99 0.1 0 0 340.7600 339.8946
  Z"
/>
<path fill="#fe9443" d="
  M 256.13 328.17
  Q 255.83 332.45 255.60 333.76
  Q 253.55 345.46 254.18 351.21
  Q 255.47 363.05 259.16 374.68
  Q 260.26 378.14 262.32 381.81
  Q 264.20 385.16 266.01 388.50
  Q 267.31 391.70 269.15 394.56
  Q 269.73 395.46 270.55 396.03
  C 271.85 396.94 272.98 397.71 273.71 399.20
  Q 274.20 400.20 275.05 400.95
  Q 275.58 401.42 274.87 401.43
  Q 257.81 401.77 240.75 401.47
  C 235.44 401.38 230.06 401.76 224.74 402.14
  Q 224.39 402.17 224.07 402.10
  Q 223.84 402.04 223.60 402.04
  L 157.05 401.02
  Q 155.82 401.01 155.77 399.78
  L 153.60 344.51
  L 241.86 344.64
  A 2.04 2.03 19.2 0 0 243.45 343.88
  L 256.13 328.17
  Z"
/>
<path fill="#5b6571" d="
  M 314.10 329.07
  Q 304.91 346.10 316.36 361.15
  Q 321.35 367.70 330.02 370.37
  Q 342.94 374.35 354.44 366.62
  Q 352.71 369.39 348.26 371.43
  Q 335.40 377.34 322.89 371.50
  C 315.87 368.22 309.94 360.85 308.13 353.00
  Q 305.16 340.09 313.52 328.34
  A 0.34 0.33 -43.4 0 1 314.07 328.35
  Q 314.21 328.56 314.10 329.07
  Z"
/>
<ellipse fill="#8ad0ee" cx="0.00" cy="0.00" transform="translate(328.34,335.79) rotate(0.4)" rx="5.40" ry="4.03"/>
<ellipse fill="#8ad0ee" cx="0.00" cy="0.00" transform="translate(338.12,339.89) rotate(0.1)" rx="2.64" ry="1.99"/>
<path fill="#fada8b" d="
  M 394.63 401.67
  Q 403.75 402.30 412.72 402.27
  Q 430.59 402.21 430.78 402.21
  Q 451.75 402.53 472.71 402.73
  Q 473.62 402.74 475.26 402.48
  Q 478.27 402.00 477.68 403.90
  L 477.65 407.36
  Q 462.64 407.58 447.60 407.59
  Q 445.96 407.59 444.35 407.40
  C 442.43 407.17 440.61 407.79 438.65 407.77
  Q 416.46 407.56 393.59 407.70
  Q 392.27 407.71 390.88 407.92
  Q 389.32 408.16 388.59 407.60
  L 394.63 401.67
  Z"
/>
<path fill="#c3d7bf" d="
  M 278.60 404.27
  Q 280.39 405.14 281.47 406.95
  A 0.51 0.51 0.0 0 1 281.04 407.72
  Q 267.35 407.98 254.34 407.86
  Q 251.76 407.84 246.67 408.05
  C 243.17 408.20 239.98 408.08 236.45 408.35
  Q 231.10 408.75 225.16 408.73
  Q 211.37 408.67 198.17 408.37
  C 197.01 408.34 196.21 408.90 194.99 408.79
  Q 189.81 408.33 185.56 408.61
  Q 182.01 408.85 179.63 408.59
  C 177.00 408.30 174.47 407.93 171.77 407.88
  Q 160.23 407.68 148.80 407.99
  L 148.65 407.39
  Q 161.59 406.95 174.41 407.17
  Q 175.75 407.19 177.03 406.76
  C 178.31 406.34 179.71 406.96 181.06 406.92
  Q 189.06 406.71 195.97 407.05
  Q 202.83 407.39 209.43 406.60
  Q 212.13 406.28 215.42 406.38
  Q 218.55 406.48 221.46 406.15
  C 222.68 406.01 223.64 406.43 224.86 406.29
  Q 226.98 406.06 229.16 406.45
  Q 231.36 406.85 233.44 406.88
  Q 240.41 406.99 247.71 407.09
  C 255.71 407.19 263.89 406.18 272.01 406.39
  Q 272.61 406.41 273.14 406.13
  C 273.97 405.71 275.00 405.72 275.83 406.18
  Q 277.37 407.05 279.15 407.12
  A 0.72 0.72 0.0 0 0 279.78 406.00
  L 278.60 404.27
  Z"
/>
<path fill="#1e5c86" d="
  M 312.40 424.07
  Q 310.42 424.51 308.19 424.25
  Q 304.56 423.84 304.04 423.82
  C 288.16 423.42 271.31 423.89 256.49 423.79
  Q 237.18 423.67 231.50 423.74
  Q 208.15 424.06 195.10 423.63
  L 149.39 423.70
  A 1.00 1.00 0.0 0 1 148.39 422.71
  L 148.25 412.46
  Q 148.24 411.83 148.87 411.79
  L 150.46 411.68
  Q 188.85 412.02 227.25 411.71
  Q 237.07 411.63 247.25 411.71
  Q 266.75 411.86 286.25 411.80
  Q 287.43 411.80 288.96 412.82
  Q 299.65 419.98 312.40 424.07
  Z"
/>
<path fill="#1e5c86" d="
  M 477.61 411.74
  L 477.66 422.74
  A 1.10 1.10 0.0 0 1 476.56 423.84
  Q 432.11 423.79 383.00 423.52
  Q 372.84 423.46 362.69 423.98
  A 0.83 0.82 74.0 0 1 361.92 423.55
  Q 361.75 423.24 361.95 422.90
  Q 372.64 419.04 381.98 412.74
  Q 383.50 411.71 386.50 411.71
  Q 431.96 411.77 477.61 411.74
  Z"
/>
</svg>
