<?xml version="1.0" encoding="UTF-8" standalone="no"?>
<!DOCTYPE svg PUBLIC "-//W3C//DTD SVG 1.1//EN" "http://www.w3.org/Graphics/SVG/1.1/DTD/svg11.dtd">
<svg xmlns="http://www.w3.org/2000/svg" version="1.1" viewBox="0.00 0.00 564.00 564.00">
<g stroke-width="2.00" fill="none" stroke-linecap="butt">
<path stroke="#72221e" vector-effect="non-scaling-stroke" d="
  M 188.81 203.77
  Q 188.61 202.59 188.31 202.91
  Q 186.65 204.65 185.71 206.80
  Q 184.04 210.62 183.82 211.00
  Q 163.53 246.65 141.55 284.29
  Q 135.42 294.80 132.01 303.00
  C 114.17 345.89 122.14 394.54 152.52 429.47
  C 186.98 469.10 243.28 481.76 291.42 461.26
  Q 319.97 449.11 339.29 424.47
  A 0.79 0.79 0.0 0 1 340.44 424.36
  C 348.38 431.42 357.07 436.71 367.99 436.19
  C 386.00 435.32 400.64 418.77 406.15 402.82
  Q 420.28 361.87 396.43 326.29"
/>
<path stroke="#d19388" vector-effect="non-scaling-stroke" d="
  M 396.43 326.29
  L 398.29 323.50
  A 0.78 0.77 31.4 0 1 399.33 323.25
  Q 417.42 333.67 434.64 343.61
  C 439.10 346.18 443.47 345.78 446.62 341.71
  Q 449.19 338.39 449.65 335.51
  C 450.51 330.05 447.45 327.82 442.85 325.17
  Q 426.16 315.59 409.43 305.91
  A 0.76 0.75 27.7 0 1 409.12 304.93
  C 421.84 277.85 423.78 246.16 415.10 218.24
  C 401.01 172.89 362.96 140.48 315.69 133.74
  C 293.60 130.60 269.39 134.40 249.74 143.21
  Q 208.36 161.76 188.81 203.77"
/>
<path stroke="#9f837e" vector-effect="non-scaling-stroke" d="
  M 396.43 326.29
  Q 375.12 354.50 343.13 366.88
  C 272.61 394.16 194.10 351.07 180.11 276.50
  Q 173.09 239.12 188.81 203.77"
/>
<path stroke="#f7e6d3" vector-effect="non-scaling-stroke" d="
  M 203.29 206.59
  A 106.97 106.93 55.8 0 0 192.68 262.25
  A 106.97 106.96 19.6 0 0 225.29 330.95
  A 107.06 107.02 -16.6 0 0 275.32 357.97
  A 107.45 107.27 -38.9 0 0 300.75 360.68
  A 107.04 106.79 35.9 0 0 331.08 355.86
  A 106.90 106.87 20.3 0 0 356.14 344.34
  A 106.95 106.71 -85.5 0 0 380.09 323.84
  A 77.98 56.87 -51.9 0 0 386.88 315.15"
/>
<path stroke="#dac4af" vector-effect="non-scaling-stroke" d="
  M 386.88 315.15
  A 107.01 106.99 64.4 0 0 406.05 260.74
  A 106.98 106.92 29.9 0 0 388.04 193.98
  A 106.93 106.88 -4.4 0 0 344.60 156.81
  A 106.96 106.96 0.0 0 0 278.75 148.75
  A 106.93 106.83 20.7 0 0 234.14 168.90
  A 106.92 106.80 -5.7 0 0 203.29 206.59"
/>
<path stroke="#d3b69a" vector-effect="non-scaling-stroke" d="
  M 386.88 315.15
  Q 386.39 311.65 386.10 304.75
  Q 386.07 304.09 385.28 304.46"
/>
<path stroke="#9f7750" vector-effect="non-scaling-stroke" d="
  M 385.28 304.46
  C 385.60 303.03 386.76 301.87 387.48 300.55
  Q 400.56 276.19 399.02 248.78
  C 395.10 178.92 322.98 134.18 258.70 162.63
  Q 229.43 175.59 212.82 203.66"
/>
<path stroke="#d3b69a" vector-effect="non-scaling-stroke" d="
  M 212.82 203.66
  L 203.53 208.37
  Q 203.05 208.62 202.97 208.08
  Q 202.89 207.52 203.29 206.59"
/>
<path stroke="#987569" vector-effect="non-scaling-stroke" d="
  M 202.58 278.37
  Q 202.70 278.62 202.82 278.88"
/>
<path stroke="#987569" vector-effect="non-scaling-stroke" d="
  M 242.02 335.43
  L 244.20 337.10"
/>
<path stroke="#bd9975" vector-effect="non-scaling-stroke" d="
  M 385.28 304.46
  Q 369.03 331.78 340.92 344.67
  C 309.99 358.86 272.74 356.37 244.20 337.10"
/>
<path stroke="#653620" vector-effect="non-scaling-stroke" d="
  M 244.20 337.10
  Q 246.81 337.00 248.30 334.93
  A 1.11 1.10 -51.7 0 0 248.13 333.45
  Q 245.93 331.54 243.36 331.98
  Q 242.85 332.07 242.58 332.50
  Q 241.74 333.83 242.02 335.43"
/>
<path stroke="#bd9975" vector-effect="non-scaling-stroke" d="
  M 242.02 335.43
  Q 240.20 334.47 238.53 333.19
  Q 216.58 316.40 206.39 290.65
  Q 203.78 284.04 202.82 278.88"
/>
<path stroke="#653620" vector-effect="non-scaling-stroke" d="
  M 202.82 278.88
  Q 203.76 279.85 204.70 280.74
  C 206.80 282.71 208.98 282.18 210.15 279.54
  Q 210.45 278.87 209.81 278.52
  L 206.83 276.91
  Q 206.32 276.64 205.87 277.01
  Q 204.66 278.05 202.58 278.37"
/>
<path stroke="#bd9975" vector-effect="non-scaling-stroke" d="
  M 202.58 278.37
  Q 202.34 278.02 202.04 276.74
  Q 196.78 254.52 201.73 232.24
  Q 205.06 217.25 212.82 203.66"
/>
<path stroke="#653620" vector-effect="non-scaling-stroke" d="
  M 282.75 159.62
  L 278.17 158.30
  A 0.68 0.68 0.0 0 0 277.33 158.76
  L 277.30 158.87
  A 3.11 3.01 -73.9 0 0 279.33 162.69
  L 279.43 162.72
  A 3.11 3.01 -73.9 0 0 283.18 160.56
  L 283.21 160.46
  A 0.68 0.68 0.0 0 0 282.75 159.62"
/>
<path stroke="#653620" vector-effect="non-scaling-stroke" d="
  M 329.9586 162.5828
  A 0.82 0.82 0.0 0 0 329.4393 161.5459
  L 327.5036 160.9020
  A 0.82 0.82 0.0 0 0 326.4667 161.4213
  L 326.4414 161.4972
  A 0.82 0.82 0.0 0 0 326.9607 162.5341
  L 328.8964 163.1780
  A 0.82 0.82 0.0 0 0 329.9333 162.6587
  L 329.9586 162.5828"
/>
<path stroke="#653620" vector-effect="non-scaling-stroke" d="
  M 318.72 162.06
  L 314.54 160.77
  A 0.73 0.73 0.0 0 0 313.62 161.25
  L 313.59 161.36
  A 2.93 2.84 -72.8 0 0 315.43 165.00
  L 315.59 165.05
  A 2.93 2.84 -72.8 0 0 319.17 163.09
  L 319.20 162.98
  A 0.73 0.73 0.0 0 0 318.72 162.06"
/>
<path stroke="#462e18" vector-effect="non-scaling-stroke" d="
  M 292.07 162.22
  C 291.66 161.94 290.83 161.54 290.34 161.45
  Q 289.64 161.31 289.58 162.02
  Q 289.48 163.01 290.42 163.09
  Q 291.27 163.18 292.04 162.79
  Q 292.54 162.54 292.07 162.22"
/>
<path stroke="#462e18" vector-effect="non-scaling-stroke" d="
  M 310.5205 163.5375
  A 1.66 0.94 17.8 0 0 309.2274 162.1350
  A 1.66 0.94 17.8 0 0 307.3595 162.5225
  A 1.66 0.94 17.8 0 0 308.6526 163.9250
  A 1.66 0.94 17.8 0 0 310.5205 163.5375"
/>
<path stroke="#58351c" vector-effect="non-scaling-stroke" d="
  M 258.92 191.48
  Q 253.96 203.95 252.12 217.25
  Q 249.76 234.27 248.11 243.20
  C 245.18 259.10 238.22 272.89 228.05 285.25
  C 221.91 292.71 223.88 301.40 228.99 308.60
  C 244.76 330.84 269.04 345.23 296.21 347.27
  Q 307.30 348.10 315.36 346.97
  Q 354.52 341.46 377.61 310.10
  Q 382.13 303.96 386.07 296.17"
/>
<path stroke="#462e18" vector-effect="non-scaling-stroke" d="
  M 386.07 296.17
  Q 392.83 281.64 394.35 267.44
  C 397.97 233.60 383.41 200.25 354.94 181.17
  Q 324.27 160.60 286.49 167.19
  C 277.95 168.68 270.84 171.68 265.68 179.00
  Q 263.75 181.73 258.92 191.48"
/>
<path stroke="#140a09" vector-effect="non-scaling-stroke" d="
  M 386.07 296.17
  Q 384.40 292.69 383.08 285.75
  Q 382.41 282.20 379.62 274.79
  Q 377.54 269.27 375.08 264.30
  Q 364.56 243.07 347.50 227.50
  Q 317.42 200.03 276.16 194.02
  C 271.61 193.36 266.82 193.48 262.28 193.07
  Q 261.17 192.96 260.19 192.23
  Q 260.04 192.12 259.87 192.18
  Q 259.61 192.28 259.66 192.61
  Q 259.74 193.26 259.32 192.76
  Q 258.98 192.38 258.92 191.48"
/>
<path stroke="#653620" vector-effect="non-scaling-stroke" d="
  M 254.79 171.89
  L 251.90 170.56
  A 0.41 0.41 0.0 0 0 251.35 170.76
  L 251.31 170.86
  A 1.92 1.89 -65.2 0 0 252.22 173.39
  L 252.42 173.48
  A 1.92 1.89 -65.2 0 0 254.94 172.53
  L 254.99 172.43
  A 0.41 0.41 0.0 0 0 254.79 171.89"
/>
<path stroke="#462e18" vector-effect="non-scaling-stroke" d="
  M 269.0887 172.5719
  A 1.59 0.82 18.4 0 0 267.8388 171.2919
  A 1.59 0.82 18.4 0 0 266.0713 171.5681
  A 1.59 0.82 18.4 0 0 267.3212 172.8481
  A 1.59 0.82 18.4 0 0 269.0887 172.5719"
/>
<path stroke="#9f7750" vector-effect="non-scaling-stroke" d="
  M 251.63 177.30
  Q 249.82 177.39 250.04 178.32"
/>
<path stroke="#653620" vector-effect="non-scaling-stroke" d="
  M 250.04 178.32
  Q 248.41 177.86 248.23 179.50
  C 247.25 188.69 259.26 189.68 260.01 181.03
  Q 260.06 180.50 259.60 180.78
  Q 259.31 180.96 259.00 180.84
  Q 258.66 180.71 258.73 180.61"
/>
<path stroke="#9f7750" vector-effect="non-scaling-stroke" d="
  M 258.73 180.61
  Q 259.04 179.57 258.00 178.50
  Q 256.96 177.44 255.63 176.52"
/>
<path stroke="#653620" vector-effect="non-scaling-stroke" d="
  M 255.63 176.52
  Q 256.43 176.38 256.08 175.84
  Q 255.91 175.59 255.64 175.48
  Q 253.79 174.74 251.75 175.84
  Q 251.28 176.09 251.35 176.62
  Q 251.40 176.99 251.63 177.30"
/>
<path stroke="#7b5345" vector-effect="non-scaling-stroke" d="
  M 255.63 176.52
  Q 254.74 175.98 253.52 176.24
  Q 253.07 176.34 252.97 176.61
  Q 252.78 177.13 253.30 177.28
  Q 256.26 178.17 258.73 180.61"
/>
<path stroke="#7b5345" vector-effect="non-scaling-stroke" d="
  M 250.04 178.32
  Q 251.86 178.66 251.63 177.30"
/>
<path stroke="#653620" vector-effect="non-scaling-stroke" d="
  M 240.9163 181.6867
  A 2.09 1.23 24.2 0 0 239.5142 179.7081
  A 2.09 1.23 24.2 0 0 237.1037 179.9733
  A 2.09 1.23 24.2 0 0 238.5058 181.9519
  A 2.09 1.23 24.2 0 0 240.9163 181.6867"
/>
<path stroke="#9f7750" vector-effect="non-scaling-stroke" d="
  M 228.77 190.45
  Q 228.09 190.51 227.75 190.78
  Q 227.45 191.03 227.88 191.78"
/>
<path stroke="#653620" vector-effect="non-scaling-stroke" d="
  M 227.88 191.78
  Q 225.81 191.08 225.37 193.52
  Q 225.11 195.02 224.92 196.54"
/>
<path stroke="#9f7750" vector-effect="non-scaling-stroke" d="
  M 224.92 196.54
  Q 224.43 199.32 226.09 201.37
  Q 229.14 205.15 234.00 204.47
  Q 240.12 203.61 241.53 196.76
  Q 242.11 193.93 240.45 193.05"
/>
<path stroke="#653620" vector-effect="non-scaling-stroke" d="
  M 240.45 193.05
  Q 239.62 192.34 238.74 191.59
  Q 238.29 191.20 237.17 190.00
  Q 233.97 186.55 229.59 188.59
  Q 228.13 189.27 228.77 190.45"
/>
<path stroke="#7b5345" vector-effect="non-scaling-stroke" d="
  M 240.45 193.05
  C 241.14 198.99 237.67 203.49 231.62 203.08
  Q 226.51 202.74 224.92 196.54"
/>
<path stroke="#7b5345" vector-effect="non-scaling-stroke" d="
  M 227.88 191.78
  Q 228.23 192.11 228.64 192.06
  Q 229.04 192.02 229.21 191.64
  Q 229.49 191.03 228.77 190.45"
/>
<path stroke="#653620" vector-effect="non-scaling-stroke" d="
  M 252.42 194.71
  Q 250.75 192.62 247.68 194.06
  Q 247.18 194.29 247.26 194.83
  C 247.83 198.48 251.58 199.32 253.73 196.01
  A 0.58 0.58 0.0 0 0 253.35 195.12
  L 252.99 195.05
  Q 252.64 194.98 252.42 194.71"
/>
<path stroke="#653620" vector-effect="non-scaling-stroke" d="
  M 244.50 205.55
  L 241.29 204.15
  A 0.43 0.43 0.0 0 0 240.73 204.37
  L 240.68 204.48
  A 2.23 2.09 -66.4 0 0 241.70 207.36
  L 241.87 207.43
  A 2.23 2.09 -66.4 0 0 244.67 206.22
  L 244.72 206.11
  A 0.43 0.43 0.0 0 0 244.50 205.55"
/>
<path stroke="#653620" vector-effect="non-scaling-stroke" d="
  M 220.52 206.15
  L 217.48 204.94
  A 0.44 0.44 0.0 0 0 216.90 205.19
  L 216.84 205.35
  A 2.15 1.98 -68.3 0 0 217.89 208.08
  L 218.07 208.15
  A 2.15 1.98 -68.3 0 0 220.71 206.88
  L 220.77 206.73
  A 0.44 0.44 0.0 0 0 220.52 206.15"
/>
<path stroke="#653620" vector-effect="non-scaling-stroke" d="
  M 230.00 208.17
  Q 228.60 208.63 227.33 209.66
  Q 226.83 210.07 227.03 210.69
  Q 228.03 213.89 230.86 213.68
  C 232.24 213.57 233.57 212.24 233.10 210.79
  Q 232.93 210.26 232.72 209.91"
/>
<path stroke="#9f7750" vector-effect="non-scaling-stroke" d="
  M 232.72 209.91
  Q 231.72 206.35 230.00 208.17"
/>
<path stroke="#7b5345" vector-effect="non-scaling-stroke" d="
  M 232.72 209.91
  L 230.00 208.17"
/>
<path stroke="#9f7750" vector-effect="non-scaling-stroke" d="
  M 237.54 214.40
  Q 236.22 214.58 236.11 215.49"
/>
<path stroke="#653620" vector-effect="non-scaling-stroke" d="
  M 236.11 215.49
  L 235.64 215.47
  Q 235.11 215.45 234.94 215.95
  Q 234.07 218.47 234.77 220.97"
/>
<path stroke="#9f7750" vector-effect="non-scaling-stroke" d="
  M 234.77 220.97
  Q 234.34 220.75 234.15 220.89
  A 0.65 0.64 -33.8 0 0 233.98 221.74
  C 238.04 228.55 247.44 226.18 247.57 218.34
  Q 247.59 217.58 247.03 218.09
  Q 247.02 218.10 246.79 218.50"
/>
<path stroke="#653620" vector-effect="non-scaling-stroke" d="
  M 246.79 218.50
  Q 246.52 215.73 244.35 213.89
  Q 241.10 211.14 237.64 213.44
  A 0.66 0.65 -21.0 0 0 237.35 214.08
  Q 237.39 214.30 237.54 214.40"
/>
<path stroke="#7b5345" vector-effect="non-scaling-stroke" d="
  M 246.79 218.50
  C 245.83 225.21 238.00 227.22 234.77 220.97"
/>
<path stroke="#7b5345" vector-effect="non-scaling-stroke" d="
  M 236.11 215.49
  Q 236.55 215.99 236.95 216.02
  A 0.95 0.95 0.0 0 0 237.97 215.09
  Q 237.99 214.55 237.54 214.40"
/>
<path stroke="#9f7750" vector-effect="non-scaling-stroke" d="
  M 215.78 214.98
  Q 214.26 215.49 214.44 216.23"
/>
<path stroke="#653620" vector-effect="non-scaling-stroke" d="
  M 214.44 216.23
  L 213.64 216.39
  Q 213.10 216.50 213.07 217.05
  L 212.85 221.26"
/>
<path stroke="#9f7750" vector-effect="non-scaling-stroke" d="
  M 212.85 221.26
  Q 213.61 224.21 216.47 225.06
  C 221.01 226.41 224.75 222.61 224.75 218.21
  Q 224.75 217.95 224.57 217.73
  Q 224.21 217.32 224.17 217.87
  L 224.10 219.06"
/>
<path stroke="#653620" vector-effect="non-scaling-stroke" d="
  M 224.10 219.06
  Q 224.13 218.21 223.82 217.87
  Q 223.47 217.46 223.05 217.79
  Q 222.47 218.23 222.31 218.23"
/>
<path stroke="#c4a78a" vector-effect="non-scaling-stroke" d="
  M 222.31 218.23
  Q 222.57 216.35 219.82 214.84"
/>
<path stroke="#653620" vector-effect="non-scaling-stroke" d="
  M 219.82 214.84
  Q 219.93 212.33 216.61 213.65
  Q 215.72 214.01 215.78 214.98"
/>
<path stroke="#9f837e" vector-effect="non-scaling-stroke" d="
  M 219.82 214.84
  Q 218.20 213.88 217.39 214.40
  Q 216.33 215.09 217.59 215.24
  Q 219.89 215.51 222.31 218.23"
/>
<path stroke="#7b5345" vector-effect="non-scaling-stroke" d="
  M 224.10 219.06
  Q 223.47 221.60 222.18 222.68
  Q 217.09 226.90 212.85 221.26"
/>
<path stroke="#7b5345" vector-effect="non-scaling-stroke" d="
  M 214.44 216.23
  Q 216.49 216.46 215.78 214.98"
/>
<path stroke="#c4a78a" vector-effect="non-scaling-stroke" d="
  M 224.44 230.30
  Q 222.93 230.28 222.72 231.20"
/>
<path stroke="#653620" vector-effect="non-scaling-stroke" d="
  M 222.72 231.20
  Q 222.07 230.74 220.83 231.58"
/>
<path stroke="#9f7750" vector-effect="non-scaling-stroke" d="
  M 220.83 231.58
  Q 220.76 231.44 220.61 231.39
  Q 220.39 231.31 220.29 231.52
  Q 218.51 235.36 218.92 237.99
  C 219.91 244.21 225.37 248.05 231.53 246.81
  Q 234.69 246.17 236.74 243.76
  Q 242.21 237.29 237.49 230.29
  A 0.50 0.49 60.1 0 0 236.87 230.12
  Q 236.55 230.27 236.52 230.82"
/>
<path stroke="#653620" vector-effect="non-scaling-stroke" d="
  M 236.52 230.82
  Q 231.25 225.20 224.69 228.41
  Q 224.22 228.65 224.21 229.17
  Q 224.21 229.64 224.44 230.30"
/>
<path stroke="#7b5345" vector-effect="non-scaling-stroke" d="
  M 236.52 230.82
  Q 240.46 235.78 237.08 241.32
  Q 234.79 245.10 230.71 245.70
  Q 227.17 246.22 223.82 244.15
  Q 217.44 240.21 220.83 231.58"
/>
<path stroke="#9f837e" vector-effect="non-scaling-stroke" d="
  M 222.72 231.20
  L 223.07 231.89
  A 0.91 0.90 -9.0 0 0 223.74 232.37
  Q 224.28 232.44 224.76 232.17
  Q 225.20 231.92 225.23 231.38
  Q 225.26 230.61 224.44 230.30"
/>
<path stroke="#653620" vector-effect="non-scaling-stroke" d="
  M 208.0443 230.3449
  A 2.26 1.30 26.4 0 0 206.5980 228.1756
  A 2.26 1.30 26.4 0 0 203.9957 228.3351
  A 2.26 1.30 26.4 0 0 205.4420 230.5044
  A 2.26 1.30 26.4 0 0 208.0443 230.3449"
/>
<path stroke="#653620" vector-effect="non-scaling-stroke" d="
  M 212.14 237.63
  Q 210.41 237.85 208.84 238.70
  Q 208.39 238.94 208.51 239.44
  Q 209.33 242.67 212.68 243.08"
/>
<path stroke="#9f7750" vector-effect="non-scaling-stroke" d="
  M 212.68 243.08
  Q 215.03 243.43 216.38 240.22
  Q 216.55 239.81 216.11 239.89
  Q 215.97 239.92 215.78 240.03"
/>
<path stroke="#653620" vector-effect="non-scaling-stroke" d="
  M 215.78 240.03
  Q 215.32 239.14 213.87 238.73"
/>
<path stroke="#9f7750" vector-effect="non-scaling-stroke" d="
  M 213.87 238.73
  Q 214.92 236.97 212.14 237.63"
/>
<path stroke="#7b5345" vector-effect="non-scaling-stroke" d="
  M 213.87 238.73
  L 212.14 237.63"
/>
<path stroke="#7b5345" vector-effect="non-scaling-stroke" d="
  M 215.78 240.03
  Q 214.82 242.08 212.68 243.08"
/>
<path stroke="#653620" vector-effect="non-scaling-stroke" d="
  M 242.00 247.91
  L 239.11 246.31
  A 0.44 0.44 0.0 0 0 238.51 246.48
  L 238.45 246.60
  A 2.12 1.98 -61.0 0 0 239.15 249.42
  L 239.34 249.52
  A 2.12 1.98 -61.0 0 0 242.10 248.63
  L 242.17 248.51
  A 0.44 0.44 0.0 0 0 242.00 247.91"
/>
<path stroke="#9f7750" vector-effect="non-scaling-stroke" d="
  M 207.58 250.34
  Q 206.54 250.68 206.63 251.27"
/>
<path stroke="#653620" vector-effect="non-scaling-stroke" d="
  M 206.63 251.27
  Q 206.20 251.32 205.94 251.50
  Q 205.71 251.66 205.64 252.09
  Q 205.35 254.14 205.20 256.28"
/>
<path stroke="#9f7750" vector-effect="non-scaling-stroke" d="
  M 205.20 256.28
  Q 205.21 258.94 207.77 260.02
  Q 214.52 262.88 216.57 256.06"
/>
<path stroke="#653620" vector-effect="non-scaling-stroke" d="
  M 216.57 256.06
  Q 216.00 253.00 214.93 253.48"
/>
<path stroke="#c4a78a" vector-effect="non-scaling-stroke" d="
  M 214.93 253.48
  Q 214.19 249.34 209.63 250.27"
/>
<path stroke="#653620" vector-effect="non-scaling-stroke" d="
  M 209.63 250.27
  Q 210.27 247.08 207.58 250.34"
/>
<path stroke="#9f837e" vector-effect="non-scaling-stroke" d="
  M 209.63 250.27
  Q 212.69 251.46 214.93 253.48"
/>
<path stroke="#7b5345" vector-effect="non-scaling-stroke" d="
  M 216.57 256.06
  Q 210.75 263.74 205.20 256.28"
/>
<path stroke="#7b5345" vector-effect="non-scaling-stroke" d="
  M 206.63 251.27
  Q 206.97 251.64 207.48 251.74
  A 0.85 0.85 0.0 0 0 208.47 250.70
  Q 208.46 250.65 207.58 250.34"
/>
<path stroke="#653620" vector-effect="non-scaling-stroke" d="
  M 232.76 253.04
  L 229.82 253.83
  Q 229.25 253.99 229.33 254.57
  Q 229.91 258.49 233.37 257.93
  Q 235.26 257.63 235.71 255.67
  Q 235.84 255.10 235.43 254.69
  Q 235.05 254.32 235.03 254.06"
/>
<path stroke="#9f7750" vector-effect="non-scaling-stroke" d="
  M 235.03 254.06
  Q 234.61 252.00 232.76 253.04"
/>
<path stroke="#7b5345" vector-effect="non-scaling-stroke" d="
  M 235.03 254.06
  L 232.76 253.04"
/>
<path stroke="#bd9975" vector-effect="non-scaling-stroke" d="
  M 220.79 263.68
  Q 219.40 263.36 219.21 264.46"
/>
<path stroke="#653620" vector-effect="non-scaling-stroke" d="
  M 219.21 264.46
  Q 218.78 264.11 218.43 264.18
  Q 218.14 264.23 217.94 264.70
  Q 215.75 269.74 218.71 273.89"
/>
<path stroke="#9f7750" vector-effect="non-scaling-stroke" d="
  M 218.71 273.89
  Q 218.35 273.80 218.24 273.86
  Q 217.71 274.15 218.12 274.60
  C 222.09 279.07 228.14 278.89 231.71 274.00
  Q 234.49 270.19 232.18 265.55"
/>
<path stroke="#653620" vector-effect="non-scaling-stroke" d="
  M 232.18 265.55
  Q 228.32 261.90 226.02 261.30
  Q 222.76 260.46 220.42 262.46
  Q 219.81 262.99 220.79 263.68"
/>
<path stroke="#7b5345" vector-effect="non-scaling-stroke" d="
  M 232.18 265.55
  Q 233.15 272.38 229.13 275.13
  Q 223.82 278.76 218.71 273.89"
/>
<path stroke="#987569" vector-effect="non-scaling-stroke" d="
  M 219.21 264.46
  Q 219.73 265.81 220.74 265.43
  A 1.01 1.01 0.0 0 0 221.32 264.13
  Q 221.21 263.85 220.79 263.68"
/>
<path stroke="#653620" vector-effect="non-scaling-stroke" d="
  M 210.7443 268.8455
  A 2.30 1.58 20.5 0 0 209.1433 266.5601
  A 2.30 1.58 20.5 0 0 206.4357 267.2345
  A 2.30 1.58 20.5 0 0 208.0367 269.5199
  A 2.30 1.58 20.5 0 0 210.7443 268.8455"
/>
<path stroke="#58351c" vector-effect="non-scaling-stroke" d="
  M 227.32 283.03
  Q 225.80 282.03 224.02 282.21
  Q 223.47 282.27 223.49 282.82
  Q 223.54 284.11 224.36 285.00
  Q 224.67 285.33 225.11 285.27
  Q 226.51 285.07 227.42 284.22
  A 0.76 0.76 0.0 0 0 227.32 283.03"
/>
<path stroke="#653620" vector-effect="non-scaling-stroke" d="
  M 220.30 288.54
  C 218.37 287.52 216.78 285.94 214.79 287.97
  A 1.77 1.77 0.0 0 0 214.64 290.28
  Q 217.70 294.34 220.68 290.15
  Q 221.41 289.13 220.30 288.54"
/>
<path stroke="#58351c" vector-effect="non-scaling-stroke" d="
  M 225.37 307.18
  Q 225.55 307.20 225.60 307.05
  Q 225.65 306.86 225.48 306.77
  L 221.19 304.54
  Q 220.69 304.28 220.23 304.61
  Q 219.54 305.11 218.72 305.15
  Q 217.13 305.23 217.45 306.78
  C 218.36 311.18 223.78 311.93 225.25 307.25
  Q 225.28 307.16 225.37 307.18"
/>
<path stroke="#653620" vector-effect="non-scaling-stroke" d="
  M 229.18 311.13
  L 226.26 309.65
  A 0.67 0.67 0.0 0 0 225.35 309.94
  L 225.30 310.06
  A 2.30 2.17 -63.2 0 0 226.20 313.09
  L 226.45 313.22
  A 2.30 2.17 -63.2 0 0 229.42 312.14
  L 229.48 312.03
  A 0.67 0.67 0.0 0 0 229.18 311.13"
/>
<path stroke="#653620" vector-effect="non-scaling-stroke" d="
  M 239.80 328.30
  L 236.71 327.23
  A 0.43 0.43 0.0 0 0 236.16 327.49
  L 236.11 327.62
  A 2.13 1.98 -70.8 0 0 237.28 330.29
  L 237.45 330.34
  A 2.13 1.98 -70.8 0 0 240.02 328.98
  L 240.07 328.85
  A 0.43 0.43 0.0 0 0 239.80 328.30"
/>
<path stroke="#653620" vector-effect="non-scaling-stroke" d="
  M 263.79 341.90
  L 260.84 340.95
  A 0.52 0.52 0.0 0 0 260.18 341.29
  L 260.08 341.61
  A 1.98 1.96 -72.2 0 0 261.34 344.10
  L 261.55 344.17
  A 1.98 1.96 -72.2 0 0 264.02 342.88
  L 264.13 342.56
  A 0.52 0.52 0.0 0 0 263.79 341.90"
/>
<path stroke="#7b5345" vector-effect="non-scaling-stroke" d="
  M 238.90 193.81
  C 237.14 190.72 234.81 188.65 231.17 189.69
  Q 230.77 189.80 230.70 190.20
  A 0.54 0.54 0.0 0 0 231.21 190.82
  Q 235.32 190.98 237.64 194.32
  Q 237.97 194.80 238.48 194.51
  L 238.75 194.35
  A 0.40 0.40 0.0 0 0 238.90 193.81"
/>
<path stroke="#72221e" vector-effect="non-scaling-stroke" d="
  M 381.75 353.38
  L 351.73 405.39
  A 1.16 1.15 37.8 0 0 351.91 406.78
  Q 356.56 411.55 362.10 413.93
  C 375.20 419.57 384.55 408.21 387.54 396.81
  Q 393.55 373.94 382.89 353.41
  Q 382.35 352.36 381.75 353.38"
/>
<path stroke="#987569" vector-effect="non-scaling-stroke" d="
  M 245.12 216.46
  Q 243.00 213.13 239.33 213.89
  Q 238.98 213.96 239.01 214.32
  A 0.49 0.48 1.5 0 0 239.44 214.76
  Q 242.59 215.10 244.61 217.65
  Q 245.06 218.22 245.27 217.52
  Q 245.44 216.97 245.12 216.46"
/>
<path stroke="#987569" vector-effect="non-scaling-stroke" d="
  M 227.35 230.76
  C 230.71 231.12 233.20 232.38 235.26 235.23
  A 0.83 0.83 0.0 0 0 235.98 235.59
  Q 236.82 235.55 236.65 234.98
  Q 234.65 228.02 226.90 229.40
  A 0.48 0.47 -8.0 0 0 226.51 229.91
  Q 226.58 230.68 227.35 230.76"
/>
<path stroke="#987569" vector-effect="non-scaling-stroke" d="
  M 222.70 263.46
  A 0.37 0.37 0.0 0 0 222.99 264.02
  Q 226.83 264.24 229.49 267.32
  Q 231.27 269.38 230.51 266.77
  Q 229.39 262.92 223.87 262.64
  Q 223.21 262.61 222.87 263.17
  L 222.70 263.46"
/>
</g>
<path fill="#a43227" d="
  M 0.00 0.00
  L 564.00 0.00
  L 564.00 564.00
  L 0.00 564.00
  L 0.00 0.00
  Z
  M 188.81 203.77
  Q 188.61 202.59 188.31 202.91
  Q 186.65 204.65 185.71 206.80
  Q 184.04 210.62 183.82 211.00
  Q 163.53 246.65 141.55 284.29
  Q 135.42 294.80 132.01 303.00
  C 114.17 345.89 122.14 394.54 152.52 429.47
  C 186.98 469.10 243.28 481.76 291.42 461.26
  Q 319.97 449.11 339.29 424.47
  A 0.79 0.79 0.0 0 1 340.44 424.36
  C 348.38 431.42 357.07 436.71 367.99 436.19
  C 386.00 435.32 400.64 418.77 406.15 402.82
  Q 420.28 361.87 396.43 326.29
  L 398.29 323.50
  A 0.78 0.77 31.4 0 1 399.33 323.25
  Q 417.42 333.67 434.64 343.61
  C 439.10 346.18 443.47 345.78 446.62 341.71
  Q 449.19 338.39 449.65 335.51
  C 450.51 330.05 447.45 327.82 442.85 325.17
  Q 426.16 315.59 409.43 305.91
  A 0.76 0.75 27.7 0 1 409.12 304.93
  C 421.84 277.85 423.78 246.16 415.10 218.24
  C 401.01 172.89 362.96 140.48 315.69 133.74
  C 293.60 130.60 269.39 134.40 249.74 143.21
  Q 208.36 161.76 188.81 203.77
  Z"
/>
<path fill="#fef4e8" d="
  M 396.43 326.29
  Q 375.12 354.50 343.13 366.88
  C 272.61 394.16 194.10 351.07 180.11 276.50
  Q 173.09 239.12 188.81 203.77
  Q 208.36 161.76 249.74 143.21
  C 269.39 134.40 293.60 130.60 315.69 133.74
  C 362.96 140.48 401.01 172.89 415.10 218.24
  C 423.78 246.16 421.84 277.85 409.12 304.93
  A 0.76 0.75 27.7 0 0 409.43 305.91
  Q 426.16 315.59 442.85 325.17
  C 447.45 327.82 450.51 330.05 449.65 335.51
  Q 449.19 338.39 446.62 341.71
  C 443.47 345.78 439.10 346.18 434.64 343.61
  Q 417.42 333.67 399.33 323.25
  A 0.78 0.77 31.4 0 0 398.29 323.50
  L 396.43 326.29
  Z
  M 203.29 206.59
  A 106.97 106.93 55.8 0 0 192.68 262.25
  A 106.97 106.96 19.6 0 0 225.29 330.95
  A 107.06 107.02 -16.6 0 0 275.32 357.97
  A 107.45 107.27 -38.9 0 0 300.75 360.68
  A 107.04 106.79 35.9 0 0 331.08 355.86
  A 106.90 106.87 20.3 0 0 356.14 344.34
  A 106.95 106.71 -85.5 0 0 380.09 323.84
  A 77.98 56.87 -51.9 0 0 386.88 315.15
  A 107.01 106.99 64.4 0 0 406.05 260.74
  A 106.98 106.92 29.9 0 0 388.04 193.98
  A 106.93 106.88 -4.4 0 0 344.60 156.81
  A 106.96 106.96 0.0 0 0 278.75 148.75
  A 106.93 106.83 20.7 0 0 234.14 168.90
  A 106.92 106.80 -5.7 0 0 203.29 206.59
  Z"
/>
<path fill="#b59475" d="
  M 386.88 315.15
  Q 386.39 311.65 386.10 304.75
  Q 386.07 304.09 385.28 304.46
  C 385.60 303.03 386.76 301.87 387.48 300.55
  Q 400.56 276.19 399.02 248.78
  C 395.10 178.92 322.98 134.18 258.70 162.63
  Q 229.43 175.59 212.82 203.66
  L 203.53 208.37
  Q 203.05 208.62 202.97 208.08
  Q 202.89 207.52 203.29 206.59
  A 106.92 106.80 -5.7 0 1 234.14 168.90
  A 106.93 106.83 20.7 0 1 278.75 148.75
  A 106.96 106.96 0.0 0 1 344.60 156.81
  A 106.93 106.88 -4.4 0 1 388.04 193.98
  A 106.98 106.92 29.9 0 1 406.05 260.74
  A 107.01 106.99 64.4 0 1 386.88 315.15
  Z"
/>
<path fill="#89592b" d="
  M 385.28 304.46
  Q 369.03 331.78 340.92 344.67
  C 309.99 358.86 272.74 356.37 244.20 337.10
  Q 246.81 337.00 248.30 334.93
  A 1.11 1.10 -51.7 0 0 248.13 333.45
  Q 245.93 331.54 243.36 331.98
  Q 242.85 332.07 242.58 332.50
  Q 241.74 333.83 242.02 335.43
  Q 240.20 334.47 238.53 333.19
  Q 216.58 316.40 206.39 290.65
  Q 203.78 284.04 202.82 278.88
  Q 203.76 279.85 204.70 280.74
  C 206.80 282.71 208.98 282.18 210.15 279.54
  Q 210.45 278.87 209.81 278.52
  L 206.83 276.91
  Q 206.32 276.64 205.87 277.01
  Q 204.66 278.05 202.58 278.37
  Q 202.34 278.02 202.04 276.74
  Q 196.78 254.52 201.73 232.24
  Q 205.06 217.25 212.82 203.66
  Q 229.43 175.59 258.70 162.63
  C 322.98 134.18 395.10 178.92 399.02 248.78
  Q 400.56 276.19 387.48 300.55
  C 386.76 301.87 385.60 303.03 385.28 304.46
  Z
  M 282.75 159.62
  L 278.17 158.30
  A 0.68 0.68 0.0 0 0 277.33 158.76
  L 277.30 158.87
  A 3.11 3.01 -73.9 0 0 279.33 162.69
  L 279.43 162.72
  A 3.11 3.01 -73.9 0 0 283.18 160.56
  L 283.21 160.46
  A 0.68 0.68 0.0 0 0 282.75 159.62
  Z
  M 329.9586 162.5828
  A 0.82 0.82 0.0 0 0 329.4393 161.5459
  L 327.5036 160.9020
  A 0.82 0.82 0.0 0 0 326.4667 161.4213
  L 326.4414 161.4972
  A 0.82 0.82 0.0 0 0 326.9607 162.5341
  L 328.8964 163.1780
  A 0.82 0.82 0.0 0 0 329.9333 162.6587
  L 329.9586 162.5828
  Z
  M 318.72 162.06
  L 314.54 160.77
  A 0.73 0.73 0.0 0 0 313.62 161.25
  L 313.59 161.36
  A 2.93 2.84 -72.8 0 0 315.43 165.00
  L 315.59 165.05
  A 2.93 2.84 -72.8 0 0 319.17 163.09
  L 319.20 162.98
  A 0.73 0.73 0.0 0 0 318.72 162.06
  Z
  M 292.07 162.22
  C 291.66 161.94 290.83 161.54 290.34 161.45
  Q 289.64 161.31 289.58 162.02
  Q 289.48 163.01 290.42 163.09
  Q 291.27 163.18 292.04 162.79
  Q 292.54 162.54 292.07 162.22
  Z
  M 310.5205 163.5375
  A 1.66 0.94 17.8 0 0 309.2274 162.1350
  A 1.66 0.94 17.8 0 0 307.3595 162.5225
  A 1.66 0.94 17.8 0 0 308.6526 163.9250
  A 1.66 0.94 17.8 0 0 310.5205 163.5375
  Z
  M 258.92 191.48
  Q 253.96 203.95 252.12 217.25
  Q 249.76 234.27 248.11 243.20
  C 245.18 259.10 238.22 272.89 228.05 285.25
  C 221.91 292.71 223.88 301.40 228.99 308.60
  C 244.76 330.84 269.04 345.23 296.21 347.27
  Q 307.30 348.10 315.36 346.97
  Q 354.52 341.46 377.61 310.10
  Q 382.13 303.96 386.07 296.17
  Q 392.83 281.64 394.35 267.44
  C 397.97 233.60 383.41 200.25 354.94 181.17
  Q 324.27 160.60 286.49 167.19
  C 277.95 168.68 270.84 171.68 265.68 179.00
  Q 263.75 181.73 258.92 191.48
  Z
  M 254.79 171.89
  L 251.90 170.56
  A 0.41 0.41 0.0 0 0 251.35 170.76
  L 251.31 170.86
  A 1.92 1.89 -65.2 0 0 252.22 173.39
  L 252.42 173.48
  A 1.92 1.89 -65.2 0 0 254.94 172.53
  L 254.99 172.43
  A 0.41 0.41 0.0 0 0 254.79 171.89
  Z
  M 269.0887 172.5719
  A 1.59 0.82 18.4 0 0 267.8388 171.2919
  A 1.59 0.82 18.4 0 0 266.0713 171.5681
  A 1.59 0.82 18.4 0 0 267.3212 172.8481
  A 1.59 0.82 18.4 0 0 269.0887 172.5719
  Z
  M 251.63 177.30
  Q 249.82 177.39 250.04 178.32
  Q 248.41 177.86 248.23 179.50
  C 247.25 188.69 259.26 189.68 260.01 181.03
  Q 260.06 180.50 259.60 180.78
  Q 259.31 180.96 259.00 180.84
  Q 258.66 180.71 258.73 180.61
  Q 259.04 179.57 258.00 178.50
  Q 256.96 177.44 255.63 176.52
  Q 256.43 176.38 256.08 175.84
  Q 255.91 175.59 255.64 175.48
  Q 253.79 174.74 251.75 175.84
  Q 251.28 176.09 251.35 176.62
  Q 251.40 176.99 251.63 177.30
  Z
  M 240.9163 181.6867
  A 2.09 1.23 24.2 0 0 239.5142 179.7081
  A 2.09 1.23 24.2 0 0 237.1037 179.9733
  A 2.09 1.23 24.2 0 0 238.5058 181.9519
  A 2.09 1.23 24.2 0 0 240.9163 181.6867
  Z
  M 228.77 190.45
  Q 228.09 190.51 227.75 190.78
  Q 227.45 191.03 227.88 191.78
  Q 225.81 191.08 225.37 193.52
  Q 225.11 195.02 224.92 196.54
  Q 224.43 199.32 226.09 201.37
  Q 229.14 205.15 234.00 204.47
  Q 240.12 203.61 241.53 196.76
  Q 242.11 193.93 240.45 193.05
  Q 239.62 192.34 238.74 191.59
  Q 238.29 191.20 237.17 190.00
  Q 233.97 186.55 229.59 188.59
  Q 228.13 189.27 228.77 190.45
  Z
  M 252.42 194.71
  Q 250.75 192.62 247.68 194.06
  Q 247.18 194.29 247.26 194.83
  C 247.83 198.48 251.58 199.32 253.73 196.01
  A 0.58 0.58 0.0 0 0 253.35 195.12
  L 252.99 195.05
  Q 252.64 194.98 252.42 194.71
  Z
  M 244.50 205.55
  L 241.29 204.15
  A 0.43 0.43 0.0 0 0 240.73 204.37
  L 240.68 204.48
  A 2.23 2.09 -66.4 0 0 241.70 207.36
  L 241.87 207.43
  A 2.23 2.09 -66.4 0 0 244.67 206.22
  L 244.72 206.11
  A 0.43 0.43 0.0 0 0 244.50 205.55
  Z
  M 220.52 206.15
  L 217.48 204.94
  A 0.44 0.44 0.0 0 0 216.90 205.19
  L 216.84 205.35
  A 2.15 1.98 -68.3 0 0 217.89 208.08
  L 218.07 208.15
  A 2.15 1.98 -68.3 0 0 220.71 206.88
  L 220.77 206.73
  A 0.44 0.44 0.0 0 0 220.52 206.15
  Z
  M 230.00 208.17
  Q 228.60 208.63 227.33 209.66
  Q 226.83 210.07 227.03 210.69
  Q 228.03 213.89 230.86 213.68
  C 232.24 213.57 233.57 212.24 233.10 210.79
  Q 232.93 210.26 232.72 209.91
  Q 231.72 206.35 230.00 208.17
  Z
  M 237.54 214.40
  Q 236.22 214.58 236.11 215.49
  L 235.64 215.47
  Q 235.11 215.45 234.94 215.95
  Q 234.07 218.47 234.77 220.97
  Q 234.34 220.75 234.15 220.89
  A 0.65 0.64 -33.8 0 0 233.98 221.74
  C 238.04 228.55 247.44 226.18 247.57 218.34
  Q 247.59 217.58 247.03 218.09
  Q 247.02 218.10 246.79 218.50
  Q 246.52 215.73 244.35 213.89
  Q 241.10 211.14 237.64 213.44
  A 0.66 0.65 -21.0 0 0 237.35 214.08
  Q 237.39 214.30 237.54 214.40
  Z
  M 215.78 214.98
  Q 214.26 215.49 214.44 216.23
  L 213.64 216.39
  Q 213.10 216.50 213.07 217.05
  L 212.85 221.26
  Q 213.61 224.21 216.47 225.06
  C 221.01 226.41 224.75 222.61 224.75 218.21
  Q 224.75 217.95 224.57 217.73
  Q 224.21 217.32 224.17 217.87
  L 224.10 219.06
  Q 224.13 218.21 223.82 217.87
  Q 223.47 217.46 223.05 217.79
  Q 222.47 218.23 222.31 218.23
  Q 222.57 216.35 219.82 214.84
  Q 219.93 212.33 216.61 213.65
  Q 215.72 214.01 215.78 214.98
  Z
  M 224.44 230.30
  Q 222.93 230.28 222.72 231.20
  Q 222.07 230.74 220.83 231.58
  Q 220.76 231.44 220.61 231.39
  Q 220.39 231.31 220.29 231.52
  Q 218.51 235.36 218.92 237.99
  C 219.91 244.21 225.37 248.05 231.53 246.81
  Q 234.69 246.17 236.74 243.76
  Q 242.21 237.29 237.49 230.29
  A 0.50 0.49 60.1 0 0 236.87 230.12
  Q 236.55 230.27 236.52 230.82
  Q 231.25 225.20 224.69 228.41
  Q 224.22 228.65 224.21 229.17
  Q 224.21 229.64 224.44 230.30
  Z
  M 208.0443 230.3449
  A 2.26 1.30 26.4 0 0 206.5980 228.1756
  A 2.26 1.30 26.4 0 0 203.9957 228.3351
  A 2.26 1.30 26.4 0 0 205.4420 230.5044
  A 2.26 1.30 26.4 0 0 208.0443 230.3449
  Z
  M 212.14 237.63
  Q 210.41 237.85 208.84 238.70
  Q 208.39 238.94 208.51 239.44
  Q 209.33 242.67 212.68 243.08
  Q 215.03 243.43 216.38 240.22
  Q 216.55 239.81 216.11 239.89
  Q 215.97 239.92 215.78 240.03
  Q 215.32 239.14 213.87 238.73
  Q 214.92 236.97 212.14 237.63
  Z
  M 242.00 247.91
  L 239.11 246.31
  A 0.44 0.44 0.0 0 0 238.51 246.48
  L 238.45 246.60
  A 2.12 1.98 -61.0 0 0 239.15 249.42
  L 239.34 249.52
  A 2.12 1.98 -61.0 0 0 242.10 248.63
  L 242.17 248.51
  A 0.44 0.44 0.0 0 0 242.00 247.91
  Z
  M 207.58 250.34
  Q 206.54 250.68 206.63 251.27
  Q 206.20 251.32 205.94 251.50
  Q 205.71 251.66 205.64 252.09
  Q 205.35 254.14 205.20 256.28
  Q 205.21 258.94 207.77 260.02
  Q 214.52 262.88 216.57 256.06
  Q 216.00 253.00 214.93 253.48
  Q 214.19 249.34 209.63 250.27
  Q 210.27 247.08 207.58 250.34
  Z
  M 232.76 253.04
  L 229.82 253.83
  Q 229.25 253.99 229.33 254.57
  Q 229.91 258.49 233.37 257.93
  Q 235.26 257.63 235.71 255.67
  Q 235.84 255.10 235.43 254.69
  Q 235.05 254.32 235.03 254.06
  Q 234.61 252.00 232.76 253.04
  Z
  M 220.79 263.68
  Q 219.40 263.36 219.21 264.46
  Q 218.78 264.11 218.43 264.18
  Q 218.14 264.23 217.94 264.70
  Q 215.75 269.74 218.71 273.89
  Q 218.35 273.80 218.24 273.86
  Q 217.71 274.15 218.12 274.60
  C 222.09 279.07 228.14 278.89 231.71 274.00
  Q 234.49 270.19 232.18 265.55
  Q 228.32 261.90 226.02 261.30
  Q 222.76 260.46 220.42 262.46
  Q 219.81 262.99 220.79 263.68
  Z
  M 210.7443 268.8455
  A 2.30 1.58 20.5 0 0 209.1433 266.5601
  A 2.30 1.58 20.5 0 0 206.4357 267.2345
  A 2.30 1.58 20.5 0 0 208.0367 269.5199
  A 2.30 1.58 20.5 0 0 210.7443 268.8455
  Z
  M 227.32 283.03
  Q 225.80 282.03 224.02 282.21
  Q 223.47 282.27 223.49 282.82
  Q 223.54 284.11 224.36 285.00
  Q 224.67 285.33 225.11 285.27
  Q 226.51 285.07 227.42 284.22
  A 0.76 0.76 0.0 0 0 227.32 283.03
  Z
  M 220.30 288.54
  C 218.37 287.52 216.78 285.94 214.79 287.97
  A 1.77 1.77 0.0 0 0 214.64 290.28
  Q 217.70 294.34 220.68 290.15
  Q 221.41 289.13 220.30 288.54
  Z
  M 225.37 307.18
  Q 225.55 307.20 225.60 307.05
  Q 225.65 306.86 225.48 306.77
  L 221.19 304.54
  Q 220.69 304.28 220.23 304.61
  Q 219.54 305.11 218.72 305.15
  Q 217.13 305.23 217.45 306.78
  C 218.36 311.18 223.78 311.93 225.25 307.25
  Q 225.28 307.16 225.37 307.18
  Z
  M 229.18 311.13
  L 226.26 309.65
  A 0.67 0.67 0.0 0 0 225.35 309.94
  L 225.30 310.06
  A 2.30 2.17 -63.2 0 0 226.20 313.09
  L 226.45 313.22
  A 2.30 2.17 -63.2 0 0 229.42 312.14
  L 229.48 312.03
  A 0.67 0.67 0.0 0 0 229.18 311.13
  Z
  M 239.80 328.30
  L 236.71 327.23
  A 0.43 0.43 0.0 0 0 236.16 327.49
  L 236.11 327.62
  A 2.13 1.98 -70.8 0 0 237.28 330.29
  L 237.45 330.34
  A 2.13 1.98 -70.8 0 0 240.02 328.98
  L 240.07 328.85
  A 0.43 0.43 0.0 0 0 239.80 328.30
  Z
  M 263.79 341.90
  L 260.84 340.95
  A 0.52 0.52 0.0 0 0 260.18 341.29
  L 260.08 341.61
  A 1.98 1.96 -72.2 0 0 261.34 344.10
  L 261.55 344.17
  A 1.98 1.96 -72.2 0 0 264.02 342.88
  L 264.13 342.56
  A 0.52 0.52 0.0 0 0 263.79 341.90
  Z"
/>
<path fill="#401214" d="
  M 282.75 159.62
  A 0.68 0.68 0.0 0 1 283.21 160.46
  L 283.18 160.56
  A 3.11 3.01 -73.9 0 1 279.43 162.72
  L 279.33 162.69
  A 3.11 3.01 -73.9 0 1 277.30 158.87
  L 277.33 158.76
  A 0.68 0.68 0.0 0 1 278.17 158.30
  L 282.75 159.62
  Z"
/>
<rect fill="#401214" x="-1.84" y="-0.86" transform="translate(328.20,162.04) rotate(18.4)" width="3.68" height="1.72" rx="0.82"/>
<path fill="#401214" d="
  M 318.72 162.06
  A 0.73 0.73 0.0 0 1 319.20 162.98
  L 319.17 163.09
  A 2.93 2.84 -72.8 0 1 315.59 165.05
  L 315.43 165.00
  A 2.93 2.84 -72.8 0 1 313.59 161.36
  L 313.62 161.25
  A 0.73 0.73 0.0 0 1 314.54 160.77
  L 318.72 162.06
  Z"
/>
<path fill="#020305" d="
  M 290.34 161.45
  C 290.83 161.54 291.66 161.94 292.07 162.22
  Q 292.54 162.54 292.04 162.79
  Q 291.27 163.18 290.42 163.09
  Q 289.48 163.01 289.58 162.02
  Q 289.64 161.31 290.34 161.45
  Z"
/>
<ellipse fill="#020305" cx="0.00" cy="0.00" transform="translate(308.94,163.03) rotate(17.8)" rx="1.66" ry="0.94"/>
<path fill="#020305" d="
  M 386.07 296.17
  Q 384.40 292.69 383.08 285.75
  Q 382.41 282.20 379.62 274.79
  Q 377.54 269.27 375.08 264.30
  Q 364.56 243.07 347.50 227.50
  Q 317.42 200.03 276.16 194.02
  C 271.61 193.36 266.82 193.48 262.28 193.07
  Q 261.17 192.96 260.19 192.23
  Q 260.04 192.12 259.87 192.18
  Q 259.61 192.28 259.66 192.61
  Q 259.74 193.26 259.32 192.76
  Q 258.98 192.38 258.92 191.48
  Q 263.75 181.73 265.68 179.00
  C 270.84 171.68 277.95 168.68 286.49 167.19
  Q 324.27 160.60 354.94 181.17
  C 383.41 200.25 397.97 233.60 394.35 267.44
  Q 392.83 281.64 386.07 296.17
  Z"
/>
<path fill="#401214" d="
  M 254.79 171.89
  A 0.41 0.41 0.0 0 1 254.99 172.43
  L 254.94 172.53
  A 1.92 1.89 -65.2 0 1 252.42 173.48
  L 252.22 173.39
  A 1.92 1.89 -65.2 0 1 251.31 170.86
  L 251.35 170.76
  A 0.41 0.41 0.0 0 1 251.90 170.56
  L 254.79 171.89
  Z"
/>
<ellipse fill="#020305" cx="0.00" cy="0.00" transform="translate(267.58,172.07) rotate(18.4)" rx="1.59" ry="0.82"/>
<path fill="#401214" d="
  M 255.63 176.52
  Q 254.74 175.98 253.52 176.24
  Q 253.07 176.34 252.97 176.61
  Q 252.78 177.13 253.30 177.28
  Q 256.26 178.17 258.73 180.61
  Q 258.66 180.71 259.00 180.84
  Q 259.31 180.96 259.60 180.78
  Q 260.06 180.50 260.01 181.03
  C 259.26 189.68 247.25 188.69 248.23 179.50
  Q 248.41 177.86 250.04 178.32
  Q 251.86 178.66 251.63 177.30
  Q 251.40 176.99 251.35 176.62
  Q 251.28 176.09 251.75 175.84
  Q 253.79 174.74 255.64 175.48
  Q 255.91 175.59 256.08 175.84
  Q 256.43 176.38 255.63 176.52
  Z"
/>
<path fill="#b59475" d="
  M 255.63 176.52
  Q 256.96 177.44 258.00 178.50
  Q 259.04 179.57 258.73 180.61
  Q 256.26 178.17 253.30 177.28
  Q 252.78 177.13 252.97 176.61
  Q 253.07 176.34 253.52 176.24
  Q 254.74 175.98 255.63 176.52
  Z"
/>
<path fill="#b59475" d="
  M 251.63 177.30
  Q 251.86 178.66 250.04 178.32
  Q 249.82 177.39 251.63 177.30
  Z"
/>
<ellipse fill="#401214" cx="0.00" cy="0.00" transform="translate(239.01,180.83) rotate(24.2)" rx="2.09" ry="1.23"/>
<path fill="#401214" d="
  M 240.45 193.05
  C 241.14 198.99 237.67 203.49 231.62 203.08
  Q 226.51 202.74 224.92 196.54
  Q 225.11 195.02 225.37 193.52
  Q 225.81 191.08 227.88 191.78
  Q 228.23 192.11 228.64 192.06
  Q 229.04 192.02 229.21 191.64
  Q 229.49 191.03 228.77 190.45
  Q 228.13 189.27 229.59 188.59
  Q 233.97 186.55 237.17 190.00
  Q 238.29 191.20 238.74 191.59
  Q 239.62 192.34 240.45 193.05
  Z
  M 238.90 193.81
  C 237.14 190.72 234.81 188.65 231.17 189.69
  Q 230.77 189.80 230.70 190.20
  A 0.54 0.54 0.0 0 0 231.21 190.82
  Q 235.32 190.98 237.64 194.32
  Q 237.97 194.80 238.48 194.51
  L 238.75 194.35
  A 0.40 0.40 0.0 0 0 238.90 193.81
  Z"
/>
<path fill="#b59475" d="
  M 231.17 189.69
  C 234.81 188.65 237.14 190.72 238.90 193.81
  A 0.40 0.40 0.0 0 1 238.75 194.35
  L 238.48 194.51
  Q 237.97 194.80 237.64 194.32
  Q 235.32 190.98 231.21 190.82
  A 0.54 0.54 0.0 0 1 230.70 190.20
  Q 230.77 189.80 231.17 189.69
  Z"
/>
<path fill="#b59475" d="
  M 228.77 190.45
  Q 229.49 191.03 229.21 191.64
  Q 229.04 192.02 228.64 192.06
  Q 228.23 192.11 227.88 191.78
  Q 227.45 191.03 227.75 190.78
  Q 228.09 190.51 228.77 190.45
  Z"
/>
<path fill="#26110c" d="
  M 258.92 191.48
  Q 258.98 192.38 259.32 192.76
  Q 259.74 193.26 259.66 192.61
  Q 259.61 192.28 259.87 192.18
  Q 260.04 192.12 260.19 192.23
  Q 261.17 192.96 262.28 193.07
  C 266.82 193.48 271.61 193.36 276.16 194.02
  Q 317.42 200.03 347.50 227.50
  Q 364.56 243.07 375.08 264.30
  Q 377.54 269.27 379.62 274.79
  Q 382.41 282.20 383.08 285.75
  Q 384.40 292.69 386.07 296.17
  Q 382.13 303.96 377.61 310.10
  Q 354.52 341.46 315.36 346.97
  Q 307.30 348.10 296.21 347.27
  C 269.04 345.23 244.76 330.84 228.99 308.60
  C 223.88 301.40 221.91 292.71 228.05 285.25
  C 238.22 272.89 245.18 259.10 248.11 243.20
  Q 249.76 234.27 252.12 217.25
  Q 253.96 203.95 258.92 191.48
  Z"
/>
<path fill="#b59475" d="
  M 240.45 193.05
  Q 242.11 193.93 241.53 196.76
  Q 240.12 203.61 234.00 204.47
  Q 229.14 205.15 226.09 201.37
  Q 224.43 199.32 224.92 196.54
  Q 226.51 202.74 231.62 203.08
  C 237.67 203.49 241.14 198.99 240.45 193.05
  Z"
/>
<path fill="#401214" d="
  M 252.99 195.05
  L 253.35 195.12
  A 0.58 0.58 0.0 0 1 253.73 196.01
  C 251.58 199.32 247.83 198.48 247.26 194.83
  Q 247.18 194.29 247.68 194.06
  Q 250.75 192.62 252.42 194.71
  Q 252.64 194.98 252.99 195.05
  Z"
/>
<path fill="#401214" d="
  M 188.81 203.77
  Q 173.09 239.12 180.11 276.50
  C 194.10 351.07 272.61 394.16 343.13 366.88
  Q 375.12 354.50 396.43 326.29
  Q 420.28 361.87 406.15 402.82
  C 400.64 418.77 386.00 435.32 367.99 436.19
  C 357.07 436.71 348.38 431.42 340.44 424.36
  A 0.79 0.79 0.0 0 0 339.29 424.47
  Q 319.97 449.11 291.42 461.26
  C 243.28 481.76 186.98 469.10 152.52 429.47
  C 122.14 394.54 114.17 345.89 132.01 303.00
  Q 135.42 294.80 141.55 284.29
  Q 163.53 246.65 183.82 211.00
  Q 184.04 210.62 185.71 206.80
  Q 186.65 204.65 188.31 202.91
  Q 188.61 202.59 188.81 203.77
  Z
  M 381.75 353.38
  L 351.73 405.39
  A 1.16 1.15 37.8 0 0 351.91 406.78
  Q 356.56 411.55 362.10 413.93
  C 375.20 419.57 384.55 408.21 387.54 396.81
  Q 393.55 373.94 382.89 353.41
  Q 382.35 352.36 381.75 353.38
  Z"
/>
<path fill="#f0d8be" d="
  M 212.82 203.66
  Q 205.06 217.25 201.73 232.24
  Q 196.78 254.52 202.04 276.74
  Q 202.34 278.02 202.58 278.37
  Q 202.70 278.62 202.82 278.88
  Q 203.78 284.04 206.39 290.65
  Q 216.58 316.40 238.53 333.19
  Q 240.20 334.47 242.02 335.43
  L 244.20 337.10
  C 272.74 356.37 309.99 358.86 340.92 344.67
  Q 369.03 331.78 385.28 304.46
  Q 386.07 304.09 386.10 304.75
  Q 386.39 311.65 386.88 315.15
  A 77.98 56.87 -51.9 0 1 380.09 323.84
  A 106.95 106.71 -85.5 0 1 356.14 344.34
  A 106.90 106.87 20.3 0 1 331.08 355.86
  A 107.04 106.79 35.9 0 1 300.75 360.68
  A 107.45 107.27 -38.9 0 1 275.32 357.97
  A 107.06 107.02 -16.6 0 1 225.29 330.95
  A 106.97 106.96 19.6 0 1 192.68 262.25
  A 106.97 106.93 55.8 0 1 203.29 206.59
  Q 202.89 207.52 202.97 208.08
  Q 203.05 208.62 203.53 208.37
  L 212.82 203.66
  Z"
/>
<path fill="#401214" d="
  M 244.50 205.55
  A 0.43 0.43 0.0 0 1 244.72 206.11
  L 244.67 206.22
  A 2.23 2.09 -66.4 0 1 241.87 207.43
  L 241.70 207.36
  A 2.23 2.09 -66.4 0 1 240.68 204.48
  L 240.73 204.37
  A 0.43 0.43 0.0 0 1 241.29 204.15
  L 244.50 205.55
  Z"
/>
<path fill="#401214" d="
  M 220.52 206.15
  A 0.44 0.44 0.0 0 1 220.77 206.73
  L 220.71 206.88
  A 2.15 1.98 -68.3 0 1 218.07 208.15
  L 217.89 208.08
  A 2.15 1.98 -68.3 0 1 216.84 205.35
  L 216.90 205.19
  A 0.44 0.44 0.0 0 1 217.48 204.94
  L 220.52 206.15
  Z"
/>
<path fill="#b59475" d="
  M 232.72 209.91
  L 230.00 208.17
  Q 231.72 206.35 232.72 209.91
  Z"
/>
<path fill="#401214" d="
  M 230.00 208.17
  L 232.72 209.91
  Q 232.93 210.26 233.10 210.79
  C 233.57 212.24 232.24 213.57 230.86 213.68
  Q 228.03 213.89 227.03 210.69
  Q 226.83 210.07 227.33 209.66
  Q 228.60 208.63 230.00 208.17
  Z"
/>
<path fill="#401214" d="
  M 246.79 218.50
  C 245.83 225.21 238.00 227.22 234.77 220.97
  Q 234.07 218.47 234.94 215.95
  Q 235.11 215.45 235.64 215.47
  L 236.11 215.49
  Q 236.55 215.99 236.95 216.02
  A 0.95 0.95 0.0 0 0 237.97 215.09
  Q 237.99 214.55 237.54 214.40
  Q 237.39 214.30 237.35 214.08
  A 0.66 0.65 -21.0 0 1 237.64 213.44
  Q 241.10 211.14 244.35 213.89
  Q 246.52 215.73 246.79 218.50
  Z
  M 245.12 216.46
  Q 243.00 213.13 239.33 213.89
  Q 238.98 213.96 239.01 214.32
  A 0.49 0.48 1.5 0 0 239.44 214.76
  Q 242.59 215.10 244.61 217.65
  Q 245.06 218.22 245.27 217.52
  Q 245.44 216.97 245.12 216.46
  Z"
/>
<path fill="#401214" d="
  M 219.82 214.84
  Q 218.20 213.88 217.39 214.40
  Q 216.33 215.09 217.59 215.24
  Q 219.89 215.51 222.31 218.23
  Q 222.47 218.23 223.05 217.79
  Q 223.47 217.46 223.82 217.87
  Q 224.13 218.21 224.10 219.06
  Q 223.47 221.60 222.18 222.68
  Q 217.09 226.90 212.85 221.26
  L 213.07 217.05
  Q 213.10 216.50 213.64 216.39
  L 214.44 216.23
  Q 216.49 216.46 215.78 214.98
  Q 215.72 214.01 216.61 213.65
  Q 219.93 212.33 219.82 214.84
  Z"
/>
<path fill="#f0d8be" d="
  M 245.12 216.46
  Q 245.44 216.97 245.27 217.52
  Q 245.06 218.22 244.61 217.65
  Q 242.59 215.10 239.44 214.76
  A 0.49 0.48 1.5 0 1 239.01 214.32
  Q 238.98 213.96 239.33 213.89
  Q 243.00 213.13 245.12 216.46
  Z"
/>
<path fill="#fef4e8" d="
  M 219.82 214.84
  Q 222.57 216.35 222.31 218.23
  Q 219.89 215.51 217.59 215.24
  Q 216.33 215.09 217.39 214.40
  Q 218.20 213.88 219.82 214.84
  Z"
/>
<path fill="#b59475" d="
  M 237.54 214.40
  Q 237.99 214.55 237.97 215.09
  A 0.95 0.95 0.0 0 1 236.95 216.02
  Q 236.55 215.99 236.11 215.49
  Q 236.22 214.58 237.54 214.40
  Z"
/>
<path fill="#b59475" d="
  M 215.78 214.98
  Q 216.49 216.46 214.44 216.23
  Q 214.26 215.49 215.78 214.98
  Z"
/>
<path fill="#b59475" d="
  M 212.85 221.26
  Q 217.09 226.90 222.18 222.68
  Q 223.47 221.60 224.10 219.06
  L 224.17 217.87
  Q 224.21 217.32 224.57 217.73
  Q 224.75 217.95 224.75 218.21
  C 224.75 222.61 221.01 226.41 216.47 225.06
  Q 213.61 224.21 212.85 221.26
  Z"
/>
<path fill="#b59475" d="
  M 234.77 220.97
  C 238.00 227.22 245.83 225.21 246.79 218.50
  Q 247.02 218.10 247.03 218.09
  Q 247.59 217.58 247.57 218.34
  C 247.44 226.18 238.04 228.55 233.98 221.74
  A 0.65 0.64 -33.8 0 1 234.15 220.89
  Q 234.34 220.75 234.77 220.97
  Z"
/>
<path fill="#401214" d="
  M 236.52 230.82
  Q 240.46 235.78 237.08 241.32
  Q 234.79 245.10 230.71 245.70
  Q 227.17 246.22 223.82 244.15
  Q 217.44 240.21 220.83 231.58
  Q 222.07 230.74 222.72 231.20
  L 223.07 231.89
  A 0.91 0.90 -9.0 0 0 223.74 232.37
  Q 224.28 232.44 224.76 232.17
  Q 225.20 231.92 225.23 231.38
  Q 225.26 230.61 224.44 230.30
  Q 224.21 229.64 224.21 229.17
  Q 224.22 228.65 224.69 228.41
  Q 231.25 225.20 236.52 230.82
  Z
  M 227.35 230.76
  C 230.71 231.12 233.20 232.38 235.26 235.23
  A 0.83 0.83 0.0 0 0 235.98 235.59
  Q 236.82 235.55 236.65 234.98
  Q 234.65 228.02 226.90 229.40
  A 0.48 0.47 -8.0 0 0 226.51 229.91
  Q 226.58 230.68 227.35 230.76
  Z"
/>
<ellipse fill="#401214" cx="0.00" cy="0.00" transform="translate(206.02,229.34) rotate(26.4)" rx="2.26" ry="1.30"/>
<path fill="#f0d8be" d="
  M 235.26 235.23
  C 233.20 232.38 230.71 231.12 227.35 230.76
  Q 226.58 230.68 226.51 229.91
  A 0.48 0.47 -8.0 0 1 226.90 229.40
  Q 234.65 228.02 236.65 234.98
  Q 236.82 235.55 235.98 235.59
  A 0.83 0.83 0.0 0 1 235.26 235.23
  Z"
/>
<path fill="#b59475" d="
  M 220.83 231.58
  Q 217.44 240.21 223.82 244.15
  Q 227.17 246.22 230.71 245.70
  Q 234.79 245.10 237.08 241.32
  Q 240.46 235.78 236.52 230.82
  Q 236.55 230.27 236.87 230.12
  A 0.50 0.49 60.1 0 1 237.49 230.29
  Q 242.21 237.29 236.74 243.76
  Q 234.69 246.17 231.53 246.81
  C 225.37 248.05 219.91 244.21 218.92 237.99
  Q 218.51 235.36 220.29 231.52
  Q 220.39 231.31 220.61 231.39
  Q 220.76 231.44 220.83 231.58
  Z"
/>
<path fill="#fef4e8" d="
  M 224.44 230.30
  Q 225.26 230.61 225.23 231.38
  Q 225.20 231.92 224.76 232.17
  Q 224.28 232.44 223.74 232.37
  A 0.91 0.90 -9.0 0 1 223.07 231.89
  L 222.72 231.20
  Q 222.93 230.28 224.44 230.30
  Z"
/>
<path fill="#b59475" d="
  M 213.87 238.73
  L 212.14 237.63
  Q 214.92 236.97 213.87 238.73
  Z"
/>
<path fill="#401214" d="
  M 212.14 237.63
  L 213.87 238.73
  Q 215.32 239.14 215.78 240.03
  Q 214.82 242.08 212.68 243.08
  Q 209.33 242.67 208.51 239.44
  Q 208.39 238.94 208.84 238.70
  Q 210.41 237.85 212.14 237.63
  Z"
/>
<path fill="#b59475" d="
  M 212.68 243.08
  Q 214.82 242.08 215.78 240.03
  Q 215.97 239.92 216.11 239.89
  Q 216.55 239.81 216.38 240.22
  Q 215.03 243.43 212.68 243.08
  Z"
/>
<path fill="#401214" d="
  M 242.00 247.91
  A 0.44 0.44 0.0 0 1 242.17 248.51
  L 242.10 248.63
  A 2.12 1.98 -61.0 0 1 239.34 249.52
  L 239.15 249.42
  A 2.12 1.98 -61.0 0 1 238.45 246.60
  L 238.51 246.48
  A 0.44 0.44 0.0 0 1 239.11 246.31
  L 242.00 247.91
  Z"
/>
<path fill="#401214" d="
  M 209.63 250.27
  Q 212.69 251.46 214.93 253.48
  Q 216.00 253.00 216.57 256.06
  Q 210.75 263.74 205.20 256.28
  Q 205.35 254.14 205.64 252.09
  Q 205.71 251.66 205.94 251.50
  Q 206.20 251.32 206.63 251.27
  Q 206.97 251.64 207.48 251.74
  A 0.85 0.85 0.0 0 0 208.47 250.70
  Q 208.46 250.65 207.58 250.34
  Q 210.27 247.08 209.63 250.27
  Z"
/>
<path fill="#fef4e8" d="
  M 209.63 250.27
  Q 214.19 249.34 214.93 253.48
  Q 212.69 251.46 209.63 250.27
  Z"
/>
<path fill="#b59475" d="
  M 207.58 250.34
  Q 208.46 250.65 208.47 250.70
  A 0.85 0.85 0.0 0 1 207.48 251.74
  Q 206.97 251.64 206.63 251.27
  Q 206.54 250.68 207.58 250.34
  Z"
/>
<path fill="#b59475" d="
  M 235.03 254.06
  L 232.76 253.04
  Q 234.61 252.00 235.03 254.06
  Z"
/>
<path fill="#401214" d="
  M 232.76 253.04
  L 235.03 254.06
  Q 235.05 254.32 235.43 254.69
  Q 235.84 255.10 235.71 255.67
  Q 235.26 257.63 233.37 257.93
  Q 229.91 258.49 229.33 254.57
  Q 229.25 253.99 229.82 253.83
  L 232.76 253.04
  Z"
/>
<path fill="#b59475" d="
  M 216.57 256.06
  Q 214.52 262.88 207.77 260.02
  Q 205.21 258.94 205.20 256.28
  Q 210.75 263.74 216.57 256.06
  Z"
/>
<path fill="#401214" d="
  M 232.18 265.55
  Q 233.15 272.38 229.13 275.13
  Q 223.82 278.76 218.71 273.89
  Q 215.75 269.74 217.94 264.70
  Q 218.14 264.23 218.43 264.18
  Q 218.78 264.11 219.21 264.46
  Q 219.73 265.81 220.74 265.43
  A 1.01 1.01 0.0 0 0 221.32 264.13
  Q 221.21 263.85 220.79 263.68
  Q 219.81 262.99 220.42 262.46
  Q 222.76 260.46 226.02 261.30
  Q 228.32 261.90 232.18 265.55
  Z
  M 222.70 263.46
  A 0.37 0.37 0.0 0 0 222.99 264.02
  Q 226.83 264.24 229.49 267.32
  Q 231.27 269.38 230.51 266.77
  Q 229.39 262.92 223.87 262.64
  Q 223.21 262.61 222.87 263.17
  L 222.70 263.46
  Z"
/>
<path fill="#f0d8be" d="
  M 223.87 262.64
  Q 229.39 262.92 230.51 266.77
  Q 231.27 269.38 229.49 267.32
  Q 226.83 264.24 222.99 264.02
  A 0.37 0.37 0.0 0 1 222.70 263.46
  L 222.87 263.17
  Q 223.21 262.61 223.87 262.64
  Z"
/>
<path fill="#f0d8be" d="
  M 220.79 263.68
  Q 221.21 263.85 221.32 264.13
  A 1.01 1.01 0.0 0 1 220.74 265.43
  Q 219.73 265.81 219.21 264.46
  Q 219.40 263.36 220.79 263.68
  Z"
/>
<path fill="#b59475" d="
  M 218.71 273.89
  Q 223.82 278.76 229.13 275.13
  Q 233.15 272.38 232.18 265.55
  Q 234.49 270.19 231.71 274.00
  C 228.14 278.89 222.09 279.07 218.12 274.60
  Q 217.71 274.15 218.24 273.86
  Q 218.35 273.80 218.71 273.89
  Z"
/>
<ellipse fill="#401214" cx="0.00" cy="0.00" transform="translate(208.59,268.04) rotate(20.5)" rx="2.30" ry="1.58"/>
<path fill="#401214" d="
  M 202.82 278.88
  Q 202.70 278.62 202.58 278.37
  Q 204.66 278.05 205.87 277.01
  Q 206.32 276.64 206.83 276.91
  L 209.81 278.52
  Q 210.45 278.87 210.15 279.54
  C 208.98 282.18 206.80 282.71 204.70 280.74
  Q 203.76 279.85 202.82 278.88
  Z"
/>
<path fill="#26110c" d="
  M 227.32 283.03
  A 0.76 0.76 0.0 0 1 227.42 284.22
  Q 226.51 285.07 225.11 285.27
  Q 224.67 285.33 224.36 285.00
  Q 223.54 284.11 223.49 282.82
  Q 223.47 282.27 224.02 282.21
  Q 225.80 282.03 227.32 283.03
  Z"
/>
<path fill="#401214" d="
  M 214.79 287.97
  C 216.78 285.94 218.37 287.52 220.30 288.54
  Q 221.41 289.13 220.68 290.15
  Q 217.70 294.34 214.64 290.28
  A 1.77 1.77 0.0 0 1 214.79 287.97
  Z"
/>
<path fill="#26110c" d="
  M 225.25 307.25
  C 223.78 311.93 218.36 311.18 217.45 306.78
  Q 217.13 305.23 218.72 305.15
  Q 219.54 305.11 220.23 304.61
  Q 220.69 304.28 221.19 304.54
  L 225.48 306.77
  Q 225.65 306.86 225.60 307.05
  Q 225.55 307.20 225.37 307.18
  Q 225.28 307.16 225.25 307.25
  Z"
/>
<path fill="#401214" d="
  M 229.18 311.13
  A 0.67 0.67 0.0 0 1 229.48 312.03
  L 229.42 312.14
  A 2.30 2.17 -63.2 0 1 226.45 313.22
  L 226.20 313.09
  A 2.30 2.17 -63.2 0 1 225.30 310.06
  L 225.35 309.94
  A 0.67 0.67 0.0 0 1 226.26 309.65
  L 229.18 311.13
  Z"
/>
<path fill="#401214" d="
  M 239.80 328.30
  A 0.43 0.43 0.0 0 1 240.07 328.85
  L 240.02 328.98
  A 2.13 1.98 -70.8 0 1 237.45 330.34
  L 237.28 330.29
  A 2.13 1.98 -70.8 0 1 236.11 327.62
  L 236.16 327.49
  A 0.43 0.43 0.0 0 1 236.71 327.23
  L 239.80 328.30
  Z"
/>
<path fill="#401214" d="
  M 244.20 337.10
  L 242.02 335.43
  Q 241.74 333.83 242.58 332.50
  Q 242.85 332.07 243.36 331.98
  Q 245.93 331.54 248.13 333.45
  A 1.11 1.10 -51.7 0 1 248.30 334.93
  Q 246.81 337.00 244.20 337.10
  Z"
/>
<path fill="#401214" d="
  M 263.79 341.90
  A 0.52 0.52 0.0 0 1 264.13 342.56
  L 264.02 342.88
  A 1.98 1.96 -72.2 0 1 261.55 344.17
  L 261.34 344.10
  A 1.98 1.96 -72.2 0 1 260.08 341.61
  L 260.18 341.29
  A 0.52 0.52 0.0 0 1 260.84 340.95
  L 263.79 341.90
  Z"
/>
<path fill="#a43227" d="
  M 381.75 353.38
  Q 382.35 352.36 382.89 353.41
  Q 393.55 373.94 387.54 396.81
  C 384.55 408.21 375.20 419.57 362.10 413.93
  Q 356.56 411.55 351.91 406.78
  A 1.16 1.15 37.8 0 1 351.73 405.39
  L 381.75 353.38
  Z"
/>
</svg>
